<?xml version="1.0" encoding="iso-8859-1"?>
<!-- Uploaded to: SVG Repo, www.svgrepo.com, Generator: SVG Repo Mixer Tools -->
<svg fill="#000000" height="800px" width="800px" version="1.1" id="Layer_1" xmlns="http://www.w3.org/2000/svg" xmlns:xlink="http://www.w3.org/1999/xlink" 
	 viewBox="0 0 511.999 511.999" xml:space="preserve">
<g>
	<g>
		<path d="M507.596,227.204L379.85,79.997c-3.275-3.774-8.235-6.201-13.591-6.201H145.74c-5.155,0-10.196,2.288-13.591,6.201
			L4.403,227.204c-6.022,6.941-5.848,17.303,0.404,24.038l63.273,68.139c7.031,7.572,18.976,7.675,26.14,0.246l33.525-34.769v135.35
			c0,9.938,8.057,17.994,17.994,17.994h220.52c9.938,0,17.994-8.057,17.994-17.994v-135.35l33.524,34.768
			c7.171,7.438,19.115,7.318,26.14-0.246l63.273-68.139C513.444,244.508,513.618,234.145,507.596,227.204z M127.746,233.011
			l-46.232,47.947l-39.341-42.366l85.573-98.611V233.011z M269.008,109.785l-13.01,13.573l-13.009-13.573H269.008z M348.264,402.214
			H163.734v-66.287h58.469l-14.123,20.993c-5.547,8.246-3.36,19.427,4.886,24.974c8.245,5.548,19.427,3.36,24.974-4.886
			l18.056-26.838l18.056,26.838c5.545,8.244,16.725,10.434,24.974,4.886c8.245-5.547,10.433-16.729,4.885-24.974l-14.123-20.993
			h58.477V402.214z M348.265,299.939h-184.53c0-10.221,0-180.641,0-190.154h29.404l155.126,161.844V299.939z M348.265,219.618
			l-67.341-70.256l37.936-39.578h29.405V219.618z M430.485,280.957l-46.231-47.947v-93.029l85.572,98.609L430.485,280.957z"/>
	</g>
</g>
</svg>