<?xml version="1.0" encoding="utf-8"?><!-- Uploaded to: SVG Repo, www.svgrepo.com, Generator: SVG Repo Mixer Tools -->
<svg width="800px" height="800px" viewBox="0 0 24 24" fill="none" xmlns="http://www.w3.org/2000/svg">
<path fill-rule="evenodd" clip-rule="evenodd" d="M4.5 12C4.5 9.7962 5.45052 7.8144 6.96395 6.44221C6.82486 6.89524 6.75 7.37638 6.75 7.875C6.75 10.5674 8.93261 12.75 11.625 12.75C13.489 12.75 15 14.261 15 16.125C15 17.9385 13.5696 19.418 11.7755 19.4967C7.73721 19.378 4.5 16.067 4.5 12ZM3 12C3 7.50744 6.29171 3.7837 10.5949 3.10905C10.9269 3.03761 11.2716 3 11.625 3V3.00767C11.7494 3.00257 11.8744 3 12 3C16.9706 3 21 7.02944 21 12C21 16.9706 16.9706 21 12 21C11.9278 21 11.8558 20.9991 11.784 20.9975C11.7312 20.9991 11.6782 21 11.625 21V20.9923C6.82834 20.7957 3 16.8449 3 12ZM8.25 7.875C8.25 6.26965 9.37083 4.92609 10.8726 4.58417C11.2404 4.52874 11.6168 4.5 12 4.5C16.1421 4.5 19.5 7.85786 19.5 12C19.5 14.6927 18.081 17.054 15.9499 18.3768C16.3013 17.7032 16.5 16.9373 16.5 16.125C16.5 13.4326 14.3174 11.25 11.625 11.25C9.76104 11.25 8.25 9.73896 8.25 7.875ZM12.75 7.875C12.75 7.25368 12.2463 6.75 11.625 6.75C11.0037 6.75 10.5 7.25368 10.5 7.875C10.5 8.49632 11.0037 9 11.625 9C12.2463 9 12.75 8.49632 12.75 7.875ZM12.75 16.125C12.75 15.5037 12.2463 15 11.625 15C11.0037 15 10.5 15.5037 10.5 16.125C10.5 16.7463 11.0037 17.25 11.625 17.25C12.2463 17.25 12.75 16.7463 12.75 16.125Z" fill="#080341"/>
</svg>