<svg viewBox="0 0 48 48" fill="none" xmlns="http://www.w3.org/2000/svg" style="width: 1em; height: 1em;">
<path d="M28.0329 47.9933C27.72 47.9933 27.4086 47.9933 27.0957 47.9933C26.3611 47.6881 25.9423 47.1221 25.6432 46.3982C25.2 45.3215 24.6877 44.2708 24.203 43.211C24.1494 43.0929 24.0803 42.9825 23.9822 42.8045C23.4239 44.0377 22.8778 45.1865 22.3809 46.3568C22.0726 47.0838 21.6708 47.6927 20.9069 47.9933C20.594 47.9933 20.2827 47.9933 19.9698 47.9933C19.5281 47.6605 19.0189 47.3859 18.6615 46.978C18.183 46.435 17.6661 46.1973 16.9529 46.2893C16.5848 46.3368 16.2044 46.3092 15.8301 46.2939C14.5264 46.2448 13.6936 44.9978 14.1491 43.777C14.2795 43.4273 14.4405 43.0898 14.5893 42.7463C15.1706 41.4073 15.7534 40.0683 16.2795 38.8581C15.7795 38.2692 15.2948 37.786 14.9237 37.2293C14.7243 36.9302 14.5648 36.8075 14.2089 36.809C10.6015 36.8228 6.99403 36.8213 3.38658 36.8151C1.91569 36.8136 0.74695 36.0651 0.230067 34.812C0.148777 34.6142 0.076689 34.4117 0 34.2123C0 23.6522 0 13.0906 0 2.53057C0.0644187 2.37873 0.134972 2.22995 0.193255 2.07657C0.651855 0.855686 1.82213 0.00290404 3.09517 0.00290404C17.028 -0.000163515 30.9624 -0.00169729 44.8952 0.00290404C46.5778 0.00290404 47.995 1.42932 47.9965 3.11801C48.0011 13.3008 48.0011 23.4835 47.9965 33.6648C47.9965 35.1985 46.8462 36.5084 45.317 36.743C45.0256 36.7875 44.7281 36.8121 44.432 36.8121C40.8706 36.8167 37.3092 36.8121 33.7477 36.8228C33.5683 36.8228 33.2815 36.8765 33.2293 36.9885C32.8934 37.7262 32.3627 38.2722 31.6603 38.7017C31.7247 38.8597 31.7814 39.0008 31.8428 39.1419C32.4716 40.5836 33.1036 42.0238 33.7309 43.4671C34.4042 45.0163 33.5729 46.2924 31.8903 46.2954C31.4532 46.2954 31.0145 46.3184 30.5789 46.2878C30.2062 46.2617 29.9516 46.3936 29.6786 46.6482C29.1617 47.1329 28.585 47.5501 28.0329 47.9933ZM40.0684 31.9607C40.4841 30.4162 41.412 29.3978 42.9243 28.9162C43.0378 28.8809 43.1544 28.6432 43.1559 28.4975C43.1774 21.7657 43.1866 15.0355 43.2035 8.30372C43.2035 8.01997 43.1161 7.91414 42.8384 7.82825C41.5133 7.41412 40.6145 6.53527 40.1896 5.21162C40.093 4.911 39.9595 4.83277 39.6666 4.83584C38.6666 4.84811 37.6681 4.82971 36.6681 4.82971C27.2645 4.8205 17.8609 4.8159 8.45726 4.7975C8.07228 4.7975 7.90203 4.89412 7.77626 5.2837C7.37594 6.53834 6.51703 7.38498 5.26546 7.79297C4.94337 7.8988 4.82987 8.02917 4.82987 8.3712C4.82833 15.0707 4.8176 21.7718 4.79919 28.4714C4.79919 28.7413 4.85901 28.8855 5.14123 28.9699C6.51549 29.3794 7.41275 30.295 7.83914 31.654C7.92657 31.9331 8.05234 31.9761 8.29774 31.9745C9.626 31.9684 10.9527 31.9745 12.281 31.973C12.3991 31.973 12.5172 31.9561 12.712 31.9423C12.5816 31.6417 12.4804 31.3856 12.3607 31.1386C11.896 30.1861 11.8254 29.2045 12.2917 28.2536C12.5923 27.6401 12.6997 27.0327 12.6659 26.3624C12.6123 25.2965 13.0387 24.4115 13.8454 23.7274C14.2549 23.3808 14.5264 22.982 14.6905 22.4728C15.0479 21.3546 15.8271 20.6583 16.9206 20.2442C17.3378 20.0862 17.7566 19.8163 18.0587 19.4911C18.8686 18.6199 19.8164 18.2089 21.0112 18.2549C21.4714 18.2733 21.976 18.169 22.3978 17.9788C23.4822 17.4926 24.5175 17.4911 25.6003 17.9773C26.0221 18.1659 26.5267 18.2763 26.9853 18.2579C28.2001 18.2073 29.1617 18.6261 29.9716 19.5233C30.2492 19.8316 30.6388 20.1 31.0299 20.2365C32.2124 20.646 32.9732 21.416 33.3781 22.5924C33.4947 22.9314 33.6895 23.2995 33.9579 23.5219C34.9901 24.3808 35.4303 25.4452 35.3536 26.7796C35.3306 27.1769 35.4487 27.6155 35.6189 27.9821C36.1282 29.0772 36.1466 30.1417 35.6005 31.2199C35.487 31.4438 35.4104 31.6862 35.2984 31.9638C36.938 31.9607 38.481 31.9607 40.0684 31.9607ZM34.5913 35.1525C34.6971 35.1587 34.803 35.1709 34.9103 35.1709C38.1604 35.1725 41.409 35.174 44.659 35.1694C45.7588 35.1679 46.3999 34.5283 46.4014 33.4209C46.4045 23.4084 46.4045 13.3959 46.4014 3.38335C46.4014 2.26523 45.7404 1.60263 44.6238 1.60263C30.875 1.59957 17.1277 1.59957 3.37892 1.60263C2.26232 1.60263 1.6028 2.26523 1.6028 3.38489C1.59973 13.3974 1.59973 23.4099 1.6028 33.4224C1.6028 34.5283 2.24392 35.1679 3.34517 35.1694C6.59525 35.174 9.84379 35.1709 13.0939 35.1694C13.2058 35.1694 13.3193 35.1449 13.4114 35.1341C13.2104 34.7292 12.9942 34.3672 12.8515 33.9776C12.7488 33.697 12.6184 33.6049 12.3193 33.608C10.945 33.6249 9.56925 33.6203 8.19498 33.6141C7.1244 33.6095 6.60138 33.2307 6.3161 32.2215C6.05996 31.3165 5.48173 30.749 4.5906 30.4806C3.54763 30.1662 3.19333 29.6969 3.19333 28.6186C3.19333 21.8086 3.19333 14.9987 3.19333 8.18715C3.19333 7.11504 3.56297 6.60275 4.57833 6.3098C5.48019 6.05059 6.05076 5.48463 6.30997 4.58124C6.60292 3.56127 7.1152 3.1901 8.18425 3.1901C18.7305 3.1901 29.2752 3.1901 39.8215 3.1901C40.8921 3.1901 41.4013 3.55974 41.6942 4.58124C41.9535 5.4831 42.5225 6.05059 43.4259 6.30827C44.4397 6.59815 44.8124 7.11657 44.8124 8.18562C44.8124 14.9956 44.8124 21.8056 44.8124 28.6171C44.8124 29.6907 44.4551 30.1677 43.4151 30.4791C42.5792 30.7291 41.9964 31.2506 41.728 32.0865C41.3292 33.3243 40.9396 33.6157 39.6236 33.6157C38.2954 33.6157 36.9671 33.6095 35.6404 33.6264C35.4978 33.6279 35.2953 33.7368 35.2263 33.8565C34.9947 34.2599 34.8137 34.6878 34.5913 35.1525ZM21.4806 19.9436C20.4652 19.7979 19.8333 19.9221 19.3762 20.4835C18.8363 21.1476 18.1737 21.5985 17.3501 21.8362C16.7857 21.9988 16.3961 22.3915 16.2351 22.9452C15.9942 23.7703 15.5479 24.4299 14.8853 24.9713C14.393 25.3747 14.1936 25.9284 14.2841 26.5603C14.3838 27.2674 14.2626 27.9376 13.9252 28.5496C13.5325 29.2582 13.531 29.9223 13.9267 30.6309C14.2595 31.2276 14.393 31.8856 14.2948 32.5742C14.1967 33.266 14.4083 33.8473 14.9497 34.2783C15.5709 34.7737 15.9881 35.3933 16.2059 36.1495C16.39 36.7891 16.8056 37.2062 17.4299 37.3888C18.1891 37.6127 18.8118 38.0161 19.3041 38.6357C19.7014 39.1357 20.2305 39.3689 20.8686 39.3014C21.6861 39.214 22.4453 39.3689 23.1693 39.7615C23.7122 40.0575 24.2828 40.0591 24.8273 39.7646C25.565 39.3627 26.3411 39.217 27.174 39.2999C27.7936 39.3612 28.312 39.1281 28.6955 38.6419C29.1878 38.0192 29.809 37.6127 30.5682 37.3918C31.1787 37.2155 31.6066 36.8182 31.786 36.2032C32.0161 35.4133 32.441 34.7691 33.0867 34.2537C33.5836 33.8565 33.8106 33.3089 33.7263 32.677C33.6266 31.9362 33.7508 31.2444 34.102 30.5987C34.4686 29.9239 34.4778 29.2735 34.0974 28.6002C33.7677 28.0174 33.6036 27.3747 33.6987 26.7091C33.8122 25.9161 33.5637 25.3087 32.9486 24.8179C32.3965 24.3777 32.0207 23.8087 31.8321 23.1277C31.6296 22.3976 31.1603 21.9559 30.4424 21.7519C29.7768 21.5632 29.217 21.1982 28.7936 20.6568C28.3028 20.031 27.6786 19.7917 26.9025 19.8791C26.2169 19.9558 25.565 19.8193 24.9638 19.4819C24.3227 19.1215 23.7153 19.1705 23.0466 19.4681C22.4607 19.7288 21.8134 19.8469 21.4806 19.9436ZM17.824 39.3904C17.0848 41.0867 16.3792 42.6926 15.6844 44.303C15.5648 44.5822 15.7488 44.665 15.9912 44.665C16.6001 44.6665 17.2075 44.6727 17.8164 44.665C18.3624 44.6589 18.8179 44.8368 19.1922 45.2417C19.5005 45.573 19.8333 45.8798 20.1477 46.2049C20.3947 46.4611 20.5649 46.4151 20.7045 46.1037C21.0097 45.4227 21.3211 44.7432 21.6294 44.0638C22.0251 43.188 22.4208 42.3107 22.8226 41.4195C22.2321 41.0806 21.6723 40.8137 20.9898 40.9379C20.7367 40.9839 20.4606 40.9471 20.1999 40.9103C19.2229 40.7677 18.4698 40.2462 17.824 39.3904ZM25.1847 41.4226C25.9055 43.0116 26.6187 44.5822 27.3319 46.1512C27.4623 46.4381 27.6356 46.4197 27.835 46.2218C28.1556 45.9028 28.4869 45.5945 28.7921 45.2617C29.1771 44.8414 29.6433 44.6558 30.2062 44.6665C30.7676 44.6773 31.329 44.6727 31.8903 44.6665C32.3888 44.6604 32.4425 44.5761 32.2416 44.1129C31.7477 42.9717 31.2492 41.8321 30.7523 40.6925C30.5743 40.2845 30.3918 39.8766 30.1878 39.4118C30.0329 39.5867 29.9256 39.714 29.8121 39.8351C29.0912 40.6112 28.1909 41.0223 27.1418 40.9318C26.4301 40.8704 25.8227 41.0284 25.1847 41.4226Z" fill="currentColor"/>
<path d="M24.0236 7.98015C26.6617 7.98015 29.3013 7.97248 31.9394 7.98475C32.9226 7.98935 33.6864 8.42494 34.1419 9.31147C34.5698 10.1443 34.5054 11.0741 33.9916 11.7502C33.5161 12.468 32.8091 12.8177 31.9655 12.8192C26.6571 12.83 21.3487 12.8346 16.0402 12.8177C14.6123 12.8131 13.5816 11.7272 13.5985 10.3437C13.6138 9.01852 14.6997 7.98629 16.1077 7.98322C18.7458 7.97555 21.3855 7.98015 24.0236 7.98015ZM24.0021 11.1765C26.5328 11.1765 29.062 11.1765 31.5928 11.1765C31.7492 11.1765 31.9057 11.1827 32.0606 11.1689C32.4808 11.1336 32.7922 10.8023 32.7922 10.4005C32.7922 10.0155 32.5054 9.69032 32.1066 9.64124C31.9363 9.61976 31.763 9.62436 31.5928 9.62436C26.5328 9.62283 21.4729 9.62283 16.413 9.62436C16.2412 9.62436 16.0694 9.62436 15.8991 9.64124C15.5464 9.67651 15.3378 9.8851 15.2488 10.2195C15.1077 10.7548 15.4866 11.175 16.1338 11.175C18.755 11.1781 21.3778 11.175 24.0021 11.1765Z" fill="currentColor"/>
<path d="M24.0021 16.0201C19.6124 16.0201 15.2212 16.0201 10.8316 16.0201C10.7073 16.0201 10.5815 16.0247 10.4573 16.0186C9.9527 15.9894 9.59379 15.6566 9.58459 15.2134C9.57539 14.7716 9.91896 14.4327 10.4312 14.3851C10.5708 14.3728 10.7119 14.379 10.853 14.379C19.6186 14.379 28.3826 14.379 37.1481 14.3805C37.3353 14.3805 37.5254 14.3774 37.708 14.4081C38.1298 14.4787 38.4258 14.8268 38.4196 15.2118C38.412 15.5983 38.1037 15.9434 37.688 16.0078C37.5346 16.0309 37.3767 16.0217 37.2202 16.0217C32.8137 16.0201 28.4087 16.0201 24.0021 16.0201Z" fill="currentColor"/>
<path d="M32.0084 29.6202C31.9854 34.194 28.1663 37.8137 23.6018 37.5913C19.4867 37.3904 15.9329 33.9854 15.9973 29.4791C16.0602 25.045 19.7045 21.5203 24.1171 21.5771C28.4715 21.6338 32.0759 25.3072 32.0084 29.6202ZM23.9914 23.2259C20.3778 23.252 17.5986 26.0849 17.6201 29.723C17.6415 33.1633 20.5756 36.0238 24.0558 35.9946C27.5927 35.9655 30.4087 33.062 30.3811 29.4715C30.355 26.0235 27.4669 23.2014 23.9914 23.2259Z" fill="currentColor"/>
<path d="M22.4132 30.8394C23.4853 29.7673 24.5221 28.7289 25.5605 27.6921C25.6816 27.5709 25.8013 27.4436 25.9408 27.347C26.3013 27.0985 26.651 27.1507 26.9608 27.4436C27.2384 27.7074 27.2737 28.1522 27.0498 28.4728C26.9792 28.574 26.8841 28.6599 26.7967 28.7473C25.5819 29.9636 24.3672 31.1784 23.1509 32.3931C22.5803 32.9622 22.2245 32.9576 21.6463 32.3824C21.4699 32.206 21.2889 32.0327 21.1171 31.8517C20.7352 31.4529 20.7061 30.9897 21.0358 30.6492C21.3687 30.3057 21.7766 30.3087 22.203 30.6569C22.2613 30.7045 22.3181 30.7566 22.4132 30.8394Z" fill="currentColor"/>
</svg>