<svg viewBox="0 0 48 34" fill="none" xmlns="http://www.w3.org/2000/svg" style="width: 1em; height: 1em;">
<path d="M48 25.525C47.3179 28.1714 45.2503 29.4711 43.0183 30.5701C40.3566 31.8815 37.4989 32.5872 34.5942 33.112C30.1655 33.9116 25.6957 34.1335 21.2095 33.9433C16.4579 33.7425 11.771 33.1155 7.25891 31.5199C5.35336 30.846 3.54173 29.9913 1.98605 28.6633C0.396326 27.3073 -0.217726 25.6401 0.0675795 23.5384C0.49495 20.3872 1.82637 17.7443 4.17809 15.625C4.78861 15.0756 5.47898 14.6012 6.18227 14.1738C6.87146 13.7559 7.62288 13.4412 8.37313 13.069C6.33959 11.5544 5.24299 9.51034 5.30874 6.92968C5.36157 4.8257 6.2398 3.07748 7.83069 1.69322C10.6955 -0.798211 15.1981 -0.491772 17.7624 2.29905C20.3865 5.15562 20.4886 10.1972 16.573 13.089C17.2199 13.3919 17.8774 13.6584 18.4927 14.0001C19.1184 14.3476 19.7031 14.7679 20.3524 15.1883C21.3574 14.2713 22.5855 13.7406 23.9945 13.7418C25.3893 13.743 26.615 14.2431 27.586 15.1378C28.8763 14.4181 30.1291 13.7195 31.349 13.0385C27.2749 10.0023 27.7152 4.72708 30.4954 2.0431C33.386 -0.747725 38.0085 -0.660842 40.7171 2.18986C43.5279 5.14858 43.4962 10.2465 39.6357 13.0749C40.3543 13.4283 41.0975 13.7312 41.7761 14.1398C45.3102 16.2696 47.3789 19.3763 47.9131 23.4844C47.9249 23.5737 47.9706 23.657 48 23.7439C48 24.338 48 24.9309 48 25.525ZM19.176 16.7698C16.1867 14.2196 11.6254 13.6138 8.1207 15.2975C4.62659 16.9752 2.59071 19.7461 1.98722 23.5701C1.78998 24.8217 1.86629 26.0111 2.90419 26.9222C3.32569 27.292 3.74954 27.6712 4.22153 27.9671C7.4996 30.0288 11.2027 30.7802 14.9598 31.4436C15.1676 27.5456 17.0438 24.7924 20.5356 23.1298C18.5983 21.2689 18.2707 18.9348 19.176 16.7698ZM33.0467 31.4835C34.4768 31.1771 35.8669 30.9082 37.2418 30.5795C39.5853 30.0194 41.856 29.248 43.8801 27.9037C45.2374 27.002 46.2905 25.9535 46.0745 24.0574C45.7305 21.047 44.4742 18.5697 42.1248 16.6805C39.8013 14.8126 37.1267 14.0834 34.1586 14.4498C32.1568 14.6975 30.3909 15.4794 28.8071 16.7651C29.2755 17.8593 29.4458 18.9806 29.1957 20.1488C28.9433 21.33 28.3292 22.3021 27.4404 23.1158C30.9557 24.7971 32.8307 27.5362 33.0467 31.4835ZM35.51 12.4221C38.437 12.4327 40.7817 10.1103 40.7934 7.19268C40.8051 4.26918 38.4757 1.90456 35.5722 1.89399C32.6217 1.88225 30.27 4.21518 30.2665 7.15393C30.2653 10.0845 32.5806 12.4115 35.51 12.4221ZM12.4555 12.4221C15.3836 12.4327 17.7224 10.1138 17.7354 7.19033C17.7471 4.26566 15.42 1.90338 12.5153 1.89281C9.58832 1.88225 7.22956 4.20109 7.21077 7.10697C7.18964 10.0645 9.50848 12.4127 12.4555 12.4221ZM31.1001 31.6984C31.2598 29.1576 29.7827 26.5065 27.4205 25.2608C24.8574 23.9106 22.3002 24.0339 19.911 25.6894C17.8446 27.1218 16.9076 29.1811 16.8771 31.696C21.6463 32.2338 26.3591 32.2349 31.1001 31.6984ZM20.6119 19.0182C20.6048 20.9343 22.1006 22.4465 24.0039 22.4453C25.8883 22.4442 27.3794 20.9542 27.3911 19.0593C27.4029 17.1748 25.9118 15.672 24.0226 15.6638C22.1276 15.6556 20.6189 17.1384 20.6119 19.0182Z" fill="currentColor"/>
<path d="M44.5494 24.4083C44.5494 24.6103 44.5693 24.8145 44.5459 25.013C44.4848 25.5014 44.1067 25.8536 43.6512 25.8712C43.225 25.8877 42.8105 25.5765 42.7178 25.1092C42.6426 24.73 42.6368 24.3379 42.5922 23.9516C42.4536 22.7646 42.0039 21.7009 41.3065 20.7369C41.0353 20.3612 40.8815 19.9667 41.1422 19.5241C41.5003 18.9171 42.2845 18.8889 42.746 19.4865C43.5173 20.4857 44.0504 21.6069 44.331 22.8374C44.4484 23.3516 44.5036 23.88 44.5858 24.4013C44.574 24.4036 44.5611 24.406 44.5494 24.4083Z" fill="currentColor"/>
<path d="M40.7804 18.1647C40.7757 18.6954 40.3977 19.0922 39.8893 19.0993C39.361 19.1063 38.9629 18.693 38.9688 18.1459C38.9747 17.6187 39.3598 17.2149 39.8623 17.2043C40.3777 17.1937 40.7851 17.6199 40.7804 18.1647Z" fill="currentColor"/>
</svg>