<svg xmlns="http://www.w3.org/2000/svg" viewBox="0 0 48 49" fill="none" style="width: 1em; height: 1em;">
<path d="M10.0528 48.0659C9.39188 47.9094 8.71847 47.7955 8.07386 47.5902C3.72927 46.2059 0.940524 43.3132 0.180753 38.7897C-0.925733 32.2071 3.16727 26.9037 9.18911 25.7359C12.9166 25.0137 16.2198 26.015 19.0749 28.5184C20.5894 29.8464 22.114 31.1632 23.636 32.4837C23.7524 32.5851 23.8738 32.6777 24.024 32.7991C25.2219 31.759 26.4085 30.7251 27.5988 29.6949C28.9194 28.5522 30.1923 27.3543 31.8032 26.597C38.2181 23.5842 45.8596 27.0727 47.6558 33.8543C47.7897 34.3612 47.8848 34.8782 47.9975 35.3913C47.9975 36.3301 47.9975 37.2689 47.9975 38.2076C47.9562 38.4016 47.9111 38.5944 47.8723 38.7884C46.9649 43.2882 44.2988 46.2046 39.9504 47.589C39.3058 47.7943 38.6324 47.9082 37.9715 48.0646C37.0966 48.0646 36.2229 48.0646 35.348 48.0646C35.2792 48.0358 35.2116 47.9883 35.1402 47.9795C33.294 47.7442 31.593 47.1058 30.1072 45.9943C28.997 45.1632 27.9693 44.2195 26.9129 43.3157C25.9429 42.4859 24.9841 41.6435 24.009 40.7986C22.3117 42.2743 20.6445 43.7125 18.9885 45.1645C17.6655 46.3248 16.1735 47.1734 14.4812 47.6528C13.8867 47.8205 13.2758 47.9294 12.6725 48.0659C11.8014 48.0659 10.9277 48.0659 10.0528 48.0659ZM27.4449 35.7969C28.9719 34.4701 30.4752 33.1771 31.9635 31.8679C33.6908 30.3471 35.686 29.7926 37.949 30.1343C41.6352 30.6913 44.2349 34.4739 43.4514 38.1188C42.2848 43.5473 35.9426 45.1858 32.1224 41.8751C27.4111 37.7921 22.7148 33.6941 18.0034 29.6111C15.5739 27.5045 12.7739 26.6609 9.58464 27.2116C4.1999 28.1416 0.615087 33.4225 1.73409 38.7759C3.22735 45.9242 11.874 49.0096 17.5216 44.3872C19.2977 42.9327 21.0012 41.3894 22.7361 39.8849C22.7673 39.8586 22.7761 39.8048 22.8049 39.7447C22.0652 39.1038 21.3267 38.4642 20.5794 37.8171C19.0361 39.1564 17.5241 40.4657 16.017 41.7787C14.3385 43.2419 12.4022 43.8277 10.2055 43.4647C6.42539 42.8401 3.74179 39.4806 4.69056 35.2587C5.8734 29.9928 12.1418 28.4633 15.9269 31.7527C20.6432 35.852 25.3521 39.9625 30.0809 44.048C32.5004 46.1383 35.3004 46.9406 38.4697 46.3924C43.718 45.4837 47.2452 40.4381 46.3253 35.126C45.1624 28.4145 37.6286 24.911 31.7231 28.4207C30.3175 29.2556 29.1221 30.4535 27.8504 31.5074C26.9517 32.2521 26.0856 33.0369 25.1793 33.8267C25.9466 34.4926 26.6751 35.1272 27.4449 35.7969ZM28.6177 36.7845C28.7917 36.9497 28.9106 37.0699 29.0383 37.18C30.3463 38.3165 31.6618 39.4443 32.961 40.5896C34.3079 41.7762 35.8562 42.2218 37.6311 41.9827C40.5813 41.5859 42.6603 38.5606 41.9619 35.658C41.0031 31.6676 36.4295 30.4071 33.5055 32.6126C31.8158 33.8868 30.2737 35.3601 28.6177 36.7845ZM19.4128 36.8245C19.2464 36.6668 19.1287 36.5454 19.001 36.4352C17.6693 35.2787 16.3325 34.1259 15.0019 32.9681C14.132 32.2108 13.1419 31.7552 11.9891 31.6C8.28915 31.1006 5.26383 34.4714 6.1713 38.105C7.08253 41.7574 11.6286 43.2995 14.6377 40.9238C16.2649 39.6396 17.7894 38.2252 19.4128 36.8245Z" fill="currentColor"/>
<path d="M32.6331 0.00125099C33.0073 0.0913721 33.3829 0.175234 33.7559 0.270362C37.3119 1.18784 39.9805 4.2457 40.4135 7.90312C40.8028 11.1838 39.7639 13.9512 37.3282 16.1517C33.1325 19.9418 28.9006 23.6918 24.6824 27.4581C24.1605 27.9238 23.8638 27.9213 23.3419 27.4556C19.1249 23.6881 14.9055 19.9243 10.6924 16.153C5.69941 11.6857 6.7721 3.57981 12.7401 0.827362C13.5061 0.474387 14.3673 0.330444 15.1847 0.0876173C15.256 0.0663387 15.3236 0.0287887 15.3937 0C16.0809 0 16.768 0 17.4552 0C17.6642 0.0488156 17.8708 0.103889 18.081 0.143943C19.8572 0.489407 21.3717 1.32803 22.6735 2.57596C23.1078 2.99277 23.5584 3.39331 24.0165 3.81513C24.6173 3.26439 25.1781 2.74744 25.7413 2.2355C26.7489 1.31927 27.918 0.689675 29.2235 0.315422C29.6679 0.187751 30.1235 0.10389 30.5741 0C31.2588 0.00125168 31.9459 0.00125099 32.6331 0.00125099ZM24.004 26.0024C24.0866 25.9399 24.1492 25.8973 24.2055 25.8472C28.271 22.2136 32.3615 18.6088 36.3906 14.9351C38.6937 12.8347 39.4798 10.1774 38.7188 7.14209C37.3469 1.6785 30.867 -0.292895 26.6651 3.45089C26.0004 4.04293 25.3558 4.65876 24.7012 5.26207C24.173 5.74772 23.8576 5.74647 23.3281 5.26207C22.6146 4.60744 21.9137 3.93654 21.1852 3.29943C18.9397 1.33304 15.7554 0.956285 13.1069 2.32562C8.3367 4.79394 7.62575 11.3728 11.73 15.039C14.9105 17.8803 18.0898 20.7241 21.2691 23.5654C22.1765 24.3752 23.0853 25.1826 24.004 26.0024Z" fill="currentColor"/>
<path d="M12.5511 4.72632C12.8077 4.92033 13.0518 5.03924 13.1995 5.23325C13.4135 5.51362 13.2971 5.80777 13.1281 6.10192C12.8039 6.66517 12.4109 7.21842 12.2319 7.83049C11.7175 9.5891 12.1618 11.1525 13.4035 12.4943C13.5399 12.642 13.7077 12.7884 13.7715 12.9674C13.8967 13.3191 13.8203 13.6558 13.4811 13.8699C13.1281 14.0914 12.7927 14.0176 12.501 13.7409C11.6699 12.9511 11.0704 12.0136 10.7687 10.9021C10.2067 8.8406 10.5597 6.9468 11.8664 5.25077C12.0229 5.0455 12.287 4.92283 12.5511 4.72632Z" fill="currentColor"/>
</svg>