<svg viewBox="0 0 48 51" fill="none" xmlns="http://www.w3.org/2000/svg" style="width: 1em; height: 1em;">
<path d="M23.542 50.6178C21.2688 49.9039 19.1684 48.8318 17.192 47.5129C11.0587 43.4236 6.61865 37.9253 3.68912 31.1883C2.04713 27.4133 0.962496 23.4718 0.509102 19.3825C0.243578 16.9815 0.165925 14.5592 0.0043566 12.1457C-0.0432373 11.4293 0.301191 10.9721 0.936194 10.674C8.37712 7.1784 15.8168 3.68151 23.2502 0.172087C23.8138 -0.0934365 24.3098 -0.0320653 24.8496 0.222186C32.0425 3.61513 39.2317 7.02059 46.4484 10.3622C47.5807 10.887 48.0241 11.5295 47.999 12.802C47.8788 18.879 46.9382 24.7881 44.6123 30.4267C41.3058 38.4413 36.0129 44.7462 28.3603 48.9445C27.1191 49.6259 25.7451 50.0655 24.4325 50.6178C24.1344 50.6178 23.8389 50.6178 23.542 50.6178ZM45.2974 14.444C45.2974 14.0657 45.2686 13.685 45.3062 13.3105C45.3438 12.9373 45.196 12.7694 44.8641 12.6129C38.0331 9.40905 31.2096 6.18895 24.3774 2.98764C24.1745 2.89245 23.8526 2.88368 23.6535 2.97762C16.7774 6.19521 9.91014 9.43034 3.03784 12.6555C2.78108 12.7757 2.67337 12.9072 2.68464 13.209C2.79486 16.1887 3.05287 19.1508 3.64153 22.0803C5.18457 29.7579 8.51113 36.4712 14.3126 41.8393C17.0655 44.3868 20.1391 46.4509 23.6698 47.7785C23.914 47.8699 24.2547 47.8749 24.4951 47.7797C28.0158 46.387 31.0932 44.2966 33.8436 41.719C38.8059 37.0661 41.9633 31.3461 43.7168 24.8169C44.6286 21.4202 45.107 17.9572 45.2974 14.444Z" fill="currentColor"/>
<path d="M22.5337 27.4019C24.2283 25.4656 25.8127 23.6582 27.3958 21.8484C28.5568 20.5221 29.7141 19.1932 30.8777 17.8693C31.4751 17.1892 32.2754 17.1003 32.8779 17.6364C33.4765 18.1674 33.4853 18.9703 32.8879 19.6541C29.907 23.0646 26.9261 26.4751 23.9402 29.8805C23.0497 30.8963 22.3759 30.9075 21.4203 29.9519C19.7783 28.3099 18.13 26.6717 16.4943 25.0222C15.6702 24.1918 15.9532 22.9719 17.0254 22.6801C17.6027 22.5235 18.0461 22.7753 18.4394 23.1698C19.6843 24.4172 20.9343 25.6609 22.1768 26.9109C22.302 27.0399 22.3909 27.204 22.5337 27.4019Z" fill="currentColor"/>
</svg>