<svg width="384" height="323" viewBox="0 0 384 323" fill="none" xmlns="http://www.w3.org/2000/svg">
<path d="M0 1.82113C8.86 -0.538865 17.8 -0.348863 26.68 0.941137C55.6 5.12114 79.68 18.0211 97.75 41.3311C109.8 56.8711 116.15 74.7111 118.94 94.0211C121.84 114.021 119.23 133.881 118.54 153.821C117.97 170.361 117.43 187.011 118.65 203.471C119.98 221.301 126.65 237.321 141.77 248.471C151.42 255.571 162.56 258.891 174.24 260.691C191.31 263.321 208.18 262.401 224.6 257.021C246.38 249.881 258.74 234.321 263.32 212.191C266.89 194.981 266.26 177.621 265.25 160.191C264.25 143.241 263.06 126.251 263.25 109.291C263.55 82.1511 271.46 57.2911 289.41 36.4011C301.62 22.1811 316.92 12.3211 334.59 6.12114C347.036 1.64028 360.249 -0.317783 373.46 0.361135C376.75 0.541135 380.01 1.24114 383.7 1.76114C367.08 21.4911 363.4 44.9011 362.14 68.3411C360.73 94.6111 361.73 121.031 361.9 147.391C362.06 170.911 362.02 194.391 358.73 217.791C353.817 252.798 336.117 279.194 305.63 296.981C282.54 310.371 257.19 316.691 230.93 319.781C202.411 323.184 173.571 322.878 145.13 318.871C117.27 314.871 90.71 307.011 67.47 290.381C43.47 273.181 29.69 249.661 25.08 220.621C20.5 191.871 21.26 162.931 21.67 133.971C21.99 112.101 22.37 90.1911 21.33 68.3711C20.46 50.0411 17.14 31.8711 8.72 15.1911C6.44 10.6111 3.16 6.57113 0 1.82113ZM58.2 44.6811C59.87 49.6811 61.7 54.6811 63.2 59.7511C69.62 81.8811 69.54 104.571 69.1 127.311C68.74 145.661 68.23 164.011 68.51 182.311C68.77 199.551 71.7 216.451 78.88 232.311C90.95 258.951 111.75 276.491 138.78 286.111C175.89 299.311 213.25 298.901 249.94 283.941C269.153 276.33 285.575 263.021 297 245.801C308.67 228.271 313.67 208.581 314.45 187.981C315.19 168.311 314.66 148.571 314.24 128.881C313.78 107.221 313.57 85.6111 318.93 64.4311C320.71 57.4311 323.24 50.5511 325.43 43.6111C322.917 47.1447 320.776 50.9281 319.04 54.9011C310.81 74.2711 308.74 94.8111 308.24 115.551C307.66 139.461 307.76 163.391 306.94 187.301C306.579 202.307 303.376 217.109 297.5 230.921C289.469 249.605 275.214 264.93 257.16 274.291C217.27 295.431 176.25 296.421 134.92 278.791C114.58 270.111 98.62 256.041 88.38 236.121C80.74 221.251 77.19 205.121 76.44 188.621C75.52 168.271 75.96 147.851 75.12 127.491C74.44 111.221 73.32 94.9211 71.27 78.7811C69.7788 66.5155 65.2937 54.8049 58.21 44.6811H58.2Z" fill="white"/>
<path d="M248.58 192.551C248.58 223.981 223.02 249.221 191.18 249.191C179.943 249.088 168.988 245.659 159.697 239.336C150.407 233.014 143.198 224.08 138.98 213.664C134.761 203.248 133.723 191.816 135.996 180.811C138.268 169.805 143.75 159.719 151.749 151.826C159.748 143.933 169.906 138.586 180.941 136.461C191.976 134.335 203.393 135.525 213.752 139.882C224.111 144.239 232.947 151.566 239.145 160.94C245.344 170.314 248.627 181.314 248.58 192.551ZM165.78 195.801C167.02 203.511 168.16 210.631 169.32 217.801C175.54 217.161 180.93 216.711 186.27 215.931C187.06 215.811 188.13 214.131 188.17 213.131C188.37 208.251 188.38 203.351 188.17 198.461C188.17 197.531 186.87 195.901 186.17 195.881C179.65 195.711 173.16 195.801 165.78 195.801ZM217.59 196.041H195.23V215.601C200.79 216.371 206.12 217.191 211.48 217.741C212.006 217.679 212.508 217.483 212.938 217.174C213.369 216.864 213.713 216.45 213.94 215.971C215.26 209.521 216.35 203.011 217.59 196.041ZM195.19 188.531H217.6C216.34 181.531 215.22 175.031 213.92 168.531C213.77 167.791 212.47 166.661 211.82 166.731C206.22 167.361 200.65 168.221 195.19 169.001V188.531ZM165.76 188.841C173.09 188.841 179.31 188.931 185.52 188.751C186.45 188.751 188.11 187.471 188.13 186.751C188.35 180.841 188.25 174.921 188.25 168.971L169.39 166.631C168.2 173.911 167 181.051 165.76 188.841ZM141.65 195.841C142.216 205.687 145.81 215.117 151.94 222.841C152.317 223.154 152.763 223.373 153.241 223.479C153.719 223.585 154.216 223.576 154.69 223.451C157.48 222.451 160.17 221.181 162.69 220.111C161.61 212.421 160.61 205.051 159.48 197.701C159.37 197.021 158.4 195.951 157.81 195.931C152.51 195.751 147.25 195.811 141.65 195.811V195.841ZM224.27 195.971C223.45 201.601 222.88 206.851 221.89 212.021C220.36 219.911 220.28 219.781 227.49 223.081C229.68 224.081 231.08 223.941 232.14 221.861C234.76 216.691 237.64 211.621 239.8 206.261C241.06 203.161 241.15 199.581 241.8 195.971H224.27ZM224.52 188.571H241.52C240.969 178.83 237.413 169.498 231.34 161.861C230.975 161.533 230.537 161.296 230.062 161.171C229.587 161.046 229.089 161.036 228.61 161.141C226.283 161.868 224.035 162.826 221.9 164.001C221.483 164.303 221.145 164.7 220.914 165.16C220.683 165.619 220.565 166.127 220.57 166.641C221.77 173.801 223.14 180.961 224.52 188.541V188.571ZM159.05 188.571C159.85 182.921 160.42 177.671 161.38 172.491C162.94 164.011 163.06 163.991 154.89 161.251C154.06 160.971 152.54 161.081 152.1 161.631C145.914 169.315 142.259 178.726 141.64 188.571H159.05ZM188.05 222.471L172.29 224.471C176.01 232.231 179.8 238.651 188.05 241.991V222.471ZM188.05 142.671C179.63 146.021 175.94 152.541 172.18 160.151L188.05 161.951V142.671ZM195.37 222.511V241.621C202.37 239.061 208.88 231.501 210.17 224.341L195.37 222.511ZM195.28 142.781V162.061L210.6 160.061C207.27 151.221 202.53 145.861 195.32 142.791L195.28 142.781ZM157.43 154.921C160.1 156.031 161.5 156.921 163.01 157.151C164.08 157.331 165.88 157.061 166.34 156.341C168.24 153.341 169.74 150.171 171.39 147.051L170.75 146.301L157.43 154.921ZM211.66 237.661L212.35 238.371L225.63 229.591C222.92 228.481 221.38 227.591 219.72 227.271C219.196 227.197 218.663 227.248 218.163 227.422C217.664 227.596 217.214 227.887 216.85 228.271C215 231.281 213.4 234.511 211.7 237.671L211.66 237.661ZM170.84 238.281L171.44 237.511C169.84 234.511 168.37 231.511 166.56 228.641C166.197 228.186 165.731 227.824 165.201 227.584C164.671 227.344 164.091 227.234 163.51 227.261C161.79 227.571 160.19 228.581 157.51 229.751L170.84 238.281ZM212.59 146.361L211.84 147.251C213.16 149.601 214.84 151.831 215.71 154.331C216.99 157.821 219 158.131 221.9 156.601L225.47 154.711L212.59 146.361Z" fill="white"/>
<path d="M251 124.751H230.34V119.051H243.59C243.2 111.211 243.34 103.751 242.29 96.4612C241.52 91.0812 235.07 89.4612 231.23 93.3912C229.17 95.5371 227.642 98.1369 226.77 100.981C224.99 107.081 223.77 113.351 222.47 119.591C221.26 125.591 221.26 125.731 214.31 124.451C215.5 118.641 216.42 112.751 217.96 107.041C218.94 103.661 218.688 100.043 217.25 96.8312C215.79 93.3612 214.62 89.7612 213.31 86.1912C219.22 84.7312 219.22 84.7312 223.23 93.8412C224.119 92.3684 225.122 90.9675 226.23 89.6512C230.23 85.5412 235.07 83.9912 240.71 85.7312C243.175 86.39 245.366 87.8175 246.965 89.8064C248.564 91.7952 249.487 94.2419 249.6 96.7912C250.37 105.931 250.52 115.141 251 124.751Z" fill="white"/>
<path d="M153.62 117.871C158.33 116.131 161.27 113.491 161.84 109.301C162.65 103.301 162.84 97.1611 163.3 91.0911C163.41 89.4811 163.3 87.8711 163.3 85.9511H170.73C169.73 95.4211 171.78 105.251 167.25 114.171C165.559 117.563 162.839 120.335 159.48 122.091C152.66 125.171 145.32 127.091 137.54 129.691C137.03 126.691 136.72 124.931 136.33 122.691C138.55 122.261 140.49 121.771 142.46 121.541C146.03 121.121 147.13 119.621 146.26 115.871C144.26 107.021 142.62 98.0611 140.87 89.1411C140.734 88.2197 140.648 87.2918 140.61 86.3611C146.98 84.6211 147.7 85.0611 148.77 91.0311C150.34 99.7811 151.94 108.561 153.62 117.871Z" fill="white"/>
<path d="M135.71 69.1213C134.79 63.0313 134.79 63.0213 140.17 63.0213H158.91C158.91 56.2413 159.31 49.7613 158.77 43.3613C158.39 38.9613 154.77 36.5313 150.6 36.0013C146.07 35.4313 141.45 35.5113 136.4 35.2813C136.25 33.7313 136.09 31.9313 135.8 28.8413C143.08 29.4013 149.88 29.2813 156.39 30.5913C162.9 31.9013 166.46 38.1013 166.66 45.9913C166.79 51.2913 166.75 56.5913 166.81 61.8913C166.81 62.1313 167.03 62.3613 167.24 62.7913L172.24 63.2213C173.87 68.6513 173.52 69.1313 168.08 69.1313L135.71 69.1213Z" fill="white"/>
<path d="M182.9 91.4311C181.95 85.6711 182.24 85.3111 187.41 85.1611C196.11 84.9111 200.14 88.8411 200.65 97.4411C201.18 106.551 202.09 115.631 202.84 124.811C197.42 125.661 197.42 125.661 195.73 119.661C194.42 115.001 192.73 114.561 189.26 118.061C188.445 118.779 187.791 119.662 187.34 120.651C185.75 125.231 182.45 125.841 177.97 124.651C180.72 118.381 183.13 112.121 190.92 110.361C191.92 110.131 193.18 108.361 193.34 107.141C193.58 104.437 193.6 101.718 193.4 99.0111C193.21 92.8711 191.66 91.4111 185.48 91.3911L182.9 91.4311Z" fill="white"/>
<path d="M215.77 35.2011C214.84 29.1511 214.86 29.1211 219.88 29.1211H242.72H247.39C247.66 38.1211 248.76 46.5411 242.34 53.9111C240.27 56.2811 240.09 60.3711 239.28 63.7311C239.113 65.2666 239.113 66.8156 239.28 68.3511H232.36C231.6 61.6911 231.74 55.5111 236.5 50.2411C237.887 48.7453 239.004 47.0196 239.8 45.1411C242.65 38.1411 240.73 35.2111 233.47 35.2211L215.77 35.2011Z" fill="white"/>
<path d="M172.06 35.6915C171.85 34.1915 171.67 33.1415 171.56 32.0715C171.5 31.4315 171.56 30.7715 171.56 29.8615C177.8 29.8615 183.93 29.1415 189.81 30.0415C197.5 31.2215 201.53 36.2915 201.93 44.1815C202.335 51.626 202.335 59.087 201.93 66.5315C201.64 71.6115 197.75 68.2015 195.1 68.9815C195.1 62.8315 195.1 57.1515 195.1 51.4815C195.1 38.7015 191.35 35.0515 178.52 35.3115C176.5 35.3615 174.49 35.5415 172.06 35.6915Z" fill="white"/>
<path d="M222.61 79.7114H216.23V46.7114H222.61V79.7114Z" fill="white"/>
</svg>
