<svg width="214" height="203" viewBox="0 0 214 203" fill="none" xmlns="http://www.w3.org/2000/svg">
<path d="M160.387 172.783C159.352 174.837 158.335 176.891 157.299 178.926C155.497 182.515 153.732 186.143 151.853 189.714C150.817 191.672 149.398 193.38 147.461 194.571C146.982 194.878 146.445 195.108 145.908 195.319C144.757 195.78 143.625 195.55 143.031 194.494C142.206 193.035 141.343 191.499 140.998 189.887C140.288 186.412 139.656 182.899 139.445 179.367C139.023 172.418 138.908 165.431 138.658 158.462C138.639 158.155 138.62 157.848 138.39 157.464C137.699 159.019 137.009 160.574 136.357 162.129C132.732 170.786 130.872 179.885 129.798 189.157C129.549 191.346 129.261 193.534 129.031 195.742C128.82 198.026 126.403 200.617 124.102 200.675C122.05 200.733 120.055 201.021 118.042 201.347C115.414 201.769 112.94 201.059 110.639 199.85C105.327 197.066 100.781 193.342 97.502 188.255C95.8143 185.644 95.6609 182.861 97.0417 180.116C98.2307 177.793 99.6499 175.585 101.05 173.359C102.757 170.652 104.675 168.06 105.538 164.931C107.34 158.309 105.518 152.607 100.877 147.751C98.8636 145.639 96.1787 144.986 93.2828 145.37C91.6718 145.582 91.1348 146.426 91.5567 148C91.7677 148.826 92.017 149.67 92.4006 150.438C93.628 152.972 94.0115 155.66 94.1074 158.443C94.3376 165.411 94.491 172.38 94.9321 179.348C95.3924 186.623 96.4855 193.841 97.8855 201.001C97.9431 201.309 97.9814 201.635 98.0389 202.019C97.3677 202.019 96.7348 202.057 96.102 202.019C94.4526 201.904 92.7841 201.712 91.1348 201.596C90.4444 201.558 90.1375 201.27 89.9458 200.617C88.2389 195.146 86.8964 189.599 86.0718 183.917C84.9019 175.797 84.6718 167.6 84.3266 159.422C84.154 155.333 84.1923 151.225 83.8279 147.156C83.2718 140.955 87.9321 137.423 93.091 137.596C99.6883 137.826 105.307 140.322 109.814 145.178C113.516 149.171 115.376 153.894 115.165 159.326C115.05 162.455 114.724 165.584 114.283 168.675C113.573 173.551 111.003 177.563 107.897 181.248C107.072 182.227 106.228 183.187 105.327 184.07C104.694 184.684 104.655 185.164 105.346 185.702C106.631 186.7 107.858 187.775 109.181 188.735C112.307 190.962 115.453 193.15 118.617 195.319C119.154 195.684 119.749 195.991 120.458 196.413C120.516 195.953 120.573 195.703 120.592 195.434C121.168 185.472 122.664 175.643 125.483 166.064C127.113 160.536 129.165 155.141 132.732 150.515C134.919 147.674 137.661 145.678 141.324 145.294C142.072 145.217 142.877 145.14 143.606 145.294C145.658 145.716 147.039 146.945 147.25 149.075C147.672 153.068 148.113 157.08 148.305 161.111C148.535 165.584 148.535 170.057 148.631 174.549C148.631 174.894 148.669 175.221 148.88 175.605C149.551 174.05 150.204 172.476 150.913 170.921C153.004 166.294 154.979 161.61 157.28 157.08C158.45 154.815 160.119 152.78 161.749 150.784C162.88 149.402 164.549 148.787 166.332 148.691C167.886 148.615 169.094 149.286 169.516 150.765C169.957 152.243 170.36 153.836 170.264 155.352C169.65 165.565 170.647 175.758 170.724 185.951C170.743 187.218 170.513 188.389 169.727 189.388C168.691 190.712 167.579 191.998 166.467 193.265C166.179 193.592 165.757 193.822 165.373 194.033C163.858 194.897 162.612 194.455 162.228 192.747C161.845 191.038 161.538 189.292 161.423 187.545C161.154 183.437 161.02 179.31 160.809 175.182C160.771 174.395 160.675 173.608 160.598 172.821C160.56 172.84 160.483 172.821 160.387 172.783Z" fill="white"/>
<path d="M43.6495 138.575C38.2796 135.945 34.6357 131.3 30.2056 127.633C29.1508 126.769 28.0576 125.906 26.8494 125.272C23.2439 123.391 19.9261 124.581 18.3919 128.344C17.8549 129.668 17.5864 131.185 17.4905 132.624C17.3371 134.851 17.4713 137.097 17.4329 139.343C17.4138 139.938 17.6631 140.245 18.1617 140.533C20.6549 141.973 23.1289 143.393 25.5645 144.929C26.7535 145.678 28.0193 146.446 28.9015 147.502C29.8604 148.634 30.5316 150.074 31.0878 151.456C31.433 152.301 31.3179 153.337 31.4138 154.47C26.6385 152.78 22.4193 150.208 17.759 148.058C18.622 160.229 20.5782 172.169 19.7151 184.397C19.5425 184.128 19.4275 183.994 19.3699 183.821C16.5507 175.317 13.8658 166.775 12.2357 157.963C11.4685 153.76 10.9124 149.498 10.3178 145.256C10.2028 144.43 9.93428 143.912 9.18634 143.47C6.82742 142.05 4.54522 140.552 2.26302 139.017C1.87946 138.748 1.57261 138.21 1.43836 137.731C0.978086 135.945 0.613696 134.122 0.210955 132.298C0.134242 131.972 0.115069 131.626 0 130.916C3.31782 132.605 6.4055 134.179 9.58908 135.792C9.58908 135.446 9.60826 135.101 9.58908 134.774C9.43565 130.417 9.32058 126.059 10.1261 121.759C10.4329 120.108 10.8932 118.457 11.5452 116.903C12.7726 113.985 15.0165 112.795 18.1425 113.102C20.5782 113.351 22.7645 114.292 24.9508 115.271C29.0165 117.114 32.6029 119.628 35.6714 122.873C39.4495 126.865 43.2276 130.858 46.9865 134.87C47.37 135.273 47.581 135.83 47.9837 136.483C48.0988 136.464 48.444 136.368 48.7892 136.291C51.8002 135.542 54.6769 135.83 57.1125 137.884C59.0687 139.554 61.1975 140.744 63.5756 141.685C67.814 143.374 71.1893 146.331 73.9893 149.92C77.3647 154.22 79.9537 158.904 80.951 164.375C81.7565 168.829 81.0661 172.956 78.5921 176.776C73.7017 184.339 66.8551 189.196 58.0715 191.077C50.1892 192.766 44.0714 189.58 39.2769 183.495C35.307 178.465 33.2166 172.572 32.0275 166.352C31.644 164.317 31.4714 162.244 31.2604 160.171C30.8001 155.468 32.507 151.398 35.0001 147.54C37.1673 144.181 39.8139 141.243 43.1508 138.978C43.3043 138.882 43.4385 138.748 43.6495 138.575ZM54.7153 147.271C53.929 147.329 53.1043 147.31 52.3372 147.463C46.6029 148.519 42.844 152.07 40.7728 157.311C38.3371 163.511 38.8358 169.75 41.5015 175.778C43.8413 181.057 47.1783 182.727 52.8358 181.633C56.3646 180.941 59.5673 179.444 62.54 177.467C66.6249 174.76 70.2304 171.535 72.6469 167.178C74.1811 164.413 74.2195 161.592 72.3784 159.038C70.6907 156.697 68.792 154.47 66.8359 152.339C63.5756 148.845 59.4331 147.348 54.7153 147.271Z" fill="white"/>
<path d="M99.1129 54.38C99.1129 56.0117 99.0745 57.6434 99.1129 59.2751C99.1896 62.0202 98.3841 64.5157 97.0992 66.8768C96.8882 67.2416 96.4663 67.6063 96.0636 67.7407C95.1622 68.0478 94.2033 68.4125 93.3019 68.3742C91.806 68.3166 90.4252 67.6447 89.8498 66.1666C88.7183 63.2487 87.5485 60.3309 86.743 57.3171C84.2882 48.0644 82.5813 38.6583 81.1046 29.2137C80.3375 24.3186 79.8005 19.3851 79.321 14.4709C79.1292 12.5896 79.3977 10.6508 79.5128 8.73119C79.532 8.42404 79.8197 8.05931 80.0882 7.84815C80.7019 7.38744 81.4498 7.0995 82.006 6.60039C83.6936 5.08388 85.6306 5.81334 87.4909 5.96692C87.6827 5.98611 87.9704 6.38923 87.9896 6.63879C88.1813 8.1553 88.4498 9.691 88.469 11.2075C88.5457 17.5615 89.4471 23.8195 90.617 30.0583C91.3266 33.8016 92.0361 37.5257 92.7457 41.2689C92.8033 41.5761 92.88 41.8832 92.9567 42.1712C93.0334 42.1712 93.1101 42.152 93.206 42.152C93.1101 39.2533 93.0718 36.3355 92.88 33.4369C92.3238 25.5856 92.8608 17.8494 94.6252 10.1901C94.7211 9.80618 95.1047 9.36466 95.469 9.1919C98.0197 7.94414 100.743 8.1361 103.639 8.23208C102.853 13.9142 103.179 19.5579 103.716 25.1824C104.272 30.807 105.25 36.3739 106.784 41.8448C108.395 28.5418 109.833 15.2003 114.091 2.22363C116.699 4.08568 119.269 5.77495 120.957 8.42404C121.187 8.76958 121.225 9.26868 121.244 9.691C121.436 15.9682 120.458 22.1302 119.327 28.2538C118.08 34.9726 116.699 41.6913 115.625 48.4292C115.107 51.6734 115.203 54.9943 114.858 58.2769C114.551 61.1755 113.631 63.8438 111.214 65.7443C110.083 66.6273 108.76 66.992 107.379 67.0304C106.151 67.0688 105.269 66.3585 104.54 65.4755C102.795 63.4215 101.779 60.9644 100.82 58.4881C100.302 57.1251 99.8417 55.743 99.343 54.3608C99.2471 54.3608 99.1896 54.3608 99.1129 54.38Z" fill="white"/>
<path d="M105.346 109.704C105.346 107.497 105.404 105.289 105.327 103.101C105.154 98.4934 104.847 93.8863 105.442 89.2984C105.806 86.4766 106.305 83.6739 106.823 80.8904C106.88 80.5449 107.417 80.1802 107.801 80.0458C109.968 79.3163 112.193 79.5275 114.475 79.8346C113.535 90.2966 114.878 100.509 117.256 110.645C118.656 98.5126 119.883 86.3614 123.546 74.498C125.79 76.0913 127.995 77.5695 129.453 79.8538C129.664 80.1994 129.702 80.6985 129.722 81.14C129.875 87.2828 128.897 93.3104 127.842 99.3381C126.787 105.347 125.694 111.355 124.793 117.383C124.39 120.089 124.467 122.873 124.217 125.599C124.006 127.96 123.374 130.244 121.59 131.933C120.823 132.663 119.73 133.124 118.694 133.469C117.448 133.891 116.393 133.354 115.568 132.356C113.957 130.417 113.094 128.113 112.25 125.81C111.809 124.581 111.426 123.333 110.812 122.086C110.793 122.431 110.774 122.777 110.754 123.122C110.639 125.637 110.927 128.19 109.987 130.628C109.834 131.05 109.623 131.454 109.508 131.876C109.105 133.392 108.031 133.911 106.593 134.007C105.116 134.103 103.793 133.604 103.16 132.356C102.201 130.455 101.319 128.459 100.858 126.405C99.3433 119.763 97.9241 113.121 96.6967 106.422C95.6419 100.605 94.8365 94.7502 94.031 88.8761C93.5323 85.3056 93.2255 81.6967 93.6091 78.0686C93.6858 77.3775 93.8967 76.9168 94.5871 76.744C94.7022 76.7056 94.8365 76.6672 94.9324 76.5904C96.6967 75.2275 98.5762 75.6306 100.436 76.3217C100.724 76.4177 101.031 76.8208 101.069 77.1279C101.242 78.2989 101.415 79.4699 101.434 80.6601C101.51 87.6667 102.546 94.539 103.773 101.411C104.272 104.214 104.771 106.997 105.25 109.8C105.308 109.723 105.327 109.704 105.346 109.704Z" fill="white"/>
<path d="M81.6804 72.1748C76.8283 70.7351 73.0119 68.3164 71.2091 63.5173C70.4996 61.636 69.9434 59.6972 69.3297 57.7776C69.2338 57.5088 69.1571 57.2401 69.0228 56.8562C67.1817 57.5664 65.3982 58.2191 63.6338 58.9485C60.9488 60.0811 58.3214 61.2905 55.6557 62.4423C55.1762 62.6534 55.0036 62.903 54.9652 63.4405C54.7543 67.3181 54.9077 71.1766 55.5598 75.0159C55.6748 75.6877 55.5789 76.1485 55.042 76.59C53.22 78.0873 51.168 79.1623 48.6556 79.8341C48.1378 77.9721 47.5433 76.1677 47.1214 74.3248C45.6447 67.7981 46.0858 61.2137 46.8145 54.6486C47.5625 47.9299 48.8858 41.3263 50.7461 34.8188C52.0502 30.2309 53.6228 25.7389 56.2694 21.7077C58.2639 18.6939 60.7187 16.2751 64.4584 15.5649C68.0831 14.8738 70.0009 15.7184 71.842 18.9818C73.5489 21.9764 74.4694 25.2398 74.8914 28.6184C75.6393 34.4157 76.0804 40.2513 76.9051 46.0486C77.442 49.7727 78.3434 53.4392 79.2448 57.1057C80.3379 61.6552 81.4886 66.1664 81.6804 70.8695C81.6996 71.2342 81.6804 71.6181 81.6804 72.1748ZM55.1378 53.42C55.5022 53.3048 55.6173 53.2664 55.7324 53.228C59.357 51.8267 62.9817 50.387 66.6064 49.0241C67.2009 48.7937 67.2968 48.5441 67.2201 47.9875C66.7023 44.5129 66.242 41.0192 65.6858 37.5638C65.1488 34.2237 64.5735 30.8835 63.9214 27.5626C63.7872 26.8715 63.231 26.2764 62.8666 25.6429C62.2338 26.0844 61.3324 26.3724 60.9872 26.9867C60.0283 28.6568 58.9927 30.4036 58.5516 32.2465C57.5159 36.4505 56.7488 40.7312 56.0392 45.012C55.5789 47.7379 55.4255 50.5214 55.1378 53.42Z" fill="white"/>
<path d="M119.883 65.7059C121.801 62.6153 124.352 60.6189 127.708 59.851C130.009 59.3327 132.368 59.1024 134.689 58.6608C136.818 58.2577 137.393 57.6434 136.856 55.5894C136.031 52.4412 134.977 49.3506 133.845 46.3176C131.64 40.3284 129.166 34.4351 127.056 28.3882C125.292 23.282 124.237 17.9646 124.62 12.4745C125.1 5.89016 129.223 1.20626 135.533 0.208048C139.004 -0.348646 142.398 0.284835 145.735 1.24465C151.681 2.95312 156.399 6.48525 160.445 11.0348C161.615 12.3401 162.746 13.6839 163.897 15.0084C164.127 15.2772 164.338 15.5843 164.703 16.045C161.673 14.874 158.911 13.7415 156.092 12.724C151.489 11.054 146.848 9.57585 141.977 8.88479C139.656 8.55845 137.93 9.38389 136.472 11.2075C135.341 12.6473 134.823 14.1062 134.938 15.949C135.341 22.399 136.933 28.561 139.292 34.5311C141.727 40.7507 144.201 46.9511 146.56 53.1899C147.174 54.8216 147.557 56.5684 147.864 58.2769C148.67 62.5961 146.944 65.3796 142.724 66.6657C138.314 68.0095 133.807 68.0862 129.242 67.9519C126.001 67.9135 123.048 66.7233 119.883 65.7059Z" fill="white"/>
<path d="M159.467 67.0685C165.738 68.1434 171.856 69.18 177.993 70.2358C177.993 70.351 177.993 70.447 178.012 70.5622C175.768 71.618 173.505 72.6546 171.28 73.7488C167.771 75.4572 164.088 76.1483 160.214 75.7836C157.434 75.5148 154.825 74.747 152.658 72.8465C149.417 69.9863 148.631 66.4926 149.801 62.4037C151.124 57.7966 153.349 53.5926 156.187 49.811C160.464 44.0713 165.028 38.5427 169.439 32.9374C170.149 32.0352 170.839 31.1137 171.491 30.1731C172.239 29.0789 172.201 28.4455 171.012 27.8312C169.401 27.0057 167.675 26.4106 165.987 25.7388C165.469 25.5276 164.894 25.4124 164.261 25.4508C164.951 25.9691 165.623 26.5066 166.313 27.0249C166.294 27.0825 166.275 27.1593 166.256 27.2169C165.45 27.1401 164.664 27.0633 163.858 27.0057C160.828 26.737 157.798 26.545 154.787 26.1995C152.543 25.9499 150.587 24.8941 148.88 23.4352C148.132 22.7825 147.461 22.0531 146.713 21.4004C146.214 20.9781 146.31 20.6518 146.656 20.2102C148.765 17.3884 151.603 15.8719 155.036 15.6031C164.108 14.9312 174.541 19.1544 179.335 28.9638C179.834 29.9812 180.121 31.1137 180.409 32.2271C180.831 33.8204 180.62 35.3369 179.699 36.7191C176.861 40.9423 174.061 45.223 171.223 49.4654C167.502 55.0132 163.762 60.5417 160.023 66.0894C159.85 66.3582 159.716 66.6269 159.467 67.0685Z" fill="white"/>
<path d="M25.7951 40.5965C26.4088 40.5005 27.0417 40.4045 27.6554 40.3086C27.6938 40.3661 27.7321 40.4045 27.7513 40.4621C26.7924 41.3068 25.8143 42.1514 24.8554 42.996C22.2855 45.3188 19.7732 47.6607 17.1841 49.9451C15.4198 51.5 13.4444 52.6518 10.9512 52.3254C10.6444 52.2871 10.3376 52.2295 9.76221 52.1335C10.7403 50.0219 11.5458 47.9871 12.5814 46.0866C16.3978 39.08 21.9403 33.7434 28.902 29.9041C31.4719 28.4836 34.1952 27.6774 37.187 28.3492C40.3322 29.0403 42.4034 32.2653 41.3294 35.2983C39.6418 40.0782 37.7623 44.8197 35.9212 49.542C31.2417 61.5397 26.5239 73.5182 21.8061 85.5159C21.7102 85.7462 21.691 85.9958 21.576 86.4181C27.3678 81.8302 32.987 77.3766 38.6062 72.9231C38.6829 72.9999 38.7596 73.0767 38.8363 73.1535C38.1267 74.1901 37.4363 75.2075 36.7075 76.2441C33.3705 80.9664 30.302 85.8998 26.4472 90.2382C24.165 92.7913 21.7677 95.2484 18.8718 97.1297C18.0472 97.6672 17.1266 98.0895 16.1869 98.3582C14.3074 98.8765 12.6965 97.9167 12.6198 95.9779C12.543 93.8663 12.7156 91.6779 13.1567 89.6239C15.1513 80.3329 18.5842 71.5218 22.2472 62.7874C25.5075 55.0129 28.9404 47.296 32.2774 39.5599C32.5075 39.0416 32.7376 38.5041 32.8911 37.9474C32.987 37.6019 32.9102 37.2179 32.9294 36.8532C32.5267 36.8724 32.1048 36.7572 31.7596 36.9108C30.9349 37.2563 30.1486 37.6787 29.3815 38.1394C28.1349 38.888 26.9267 39.6943 25.6993 40.4813C25.7184 40.4621 25.7568 40.5197 25.7951 40.5965Z" fill="white"/>
<path d="M184.801 32.7077C188.177 31.2295 191.322 29.9242 194.831 30.6728C197.267 31.1911 199.396 32.4389 201.563 33.5907C204.842 35.3375 207.278 37.8715 208.889 41.1924C210.174 43.8607 211.44 46.5674 212.686 49.2549C212.84 49.5812 212.936 49.9651 212.878 50.4451C212.284 49.9843 211.689 49.5428 211.114 49.0821C207.892 46.3946 204.401 44.1295 200.566 42.3826C199.127 41.7299 197.651 41.7491 196.155 41.8067C195.963 41.8067 195.637 42.1714 195.618 42.4018C195.196 46.0875 194.793 49.7732 194.429 53.4589C194.409 53.7084 194.582 54.0924 194.774 54.2267C198.36 56.6071 201.985 58.949 205.552 61.3486C206.875 62.2316 208.122 63.249 209.349 64.2664C209.618 64.4968 209.79 65.0151 209.752 65.3606C209.675 66.0133 209.445 66.6659 209.177 67.2802C208.429 69.0079 207.163 69.699 205.379 69.0655C203.346 68.336 201.429 67.2994 199.415 66.4932C197.555 65.7445 195.656 65.111 193.757 64.4392C193.642 64.4008 193.508 64.4392 193.335 64.4392C193.278 64.7079 193.182 64.9383 193.182 65.1878C192.971 69.8909 192.703 74.5748 193.278 79.2779C193.316 79.6235 193.585 80.0842 193.872 80.2377C197.842 82.3493 201.851 84.4225 205.859 86.4765C206.281 86.6877 206.722 86.9373 207.182 87.014C208.064 87.1868 208.103 87.7243 207.968 88.4346C207.566 90.4694 205.59 92.3122 203.538 92.2738C197.286 92.1587 191.84 90.1814 188.081 84.9025C186.029 82.023 185.3 78.6061 184.897 75.1507C184.168 68.8543 184.207 62.5579 185.031 56.2999C185.722 50.9826 186.719 45.7036 187.525 40.3862C187.601 39.9447 187.486 39.4456 187.314 39.0232C186.508 36.9308 185.664 34.8576 184.801 32.7077Z" fill="white"/>
<path d="M213.184 109.915C211.497 111.489 209.771 113.063 208.102 114.695C204.554 118.15 200.93 121.529 198.264 125.771C198.091 126.04 197.919 126.328 197.899 126.635C197.478 130.666 197.075 134.698 196.653 138.748C196.73 138.786 196.825 138.844 196.902 138.902C201.332 135.293 205.743 131.665 210.173 128.056C210.25 128.075 210.327 128.075 210.404 128.094C209.943 129.86 209.579 131.665 209.023 133.392C207.699 137.558 204.746 140.591 201.716 143.566C199.856 145.409 198.053 147.31 196.25 149.21C196.001 149.479 195.732 149.863 195.732 150.189C195.694 154.566 195.713 158.942 195.713 163.319C195.713 163.473 195.771 163.607 195.847 163.914C200.412 159.998 204.842 156.178 208.658 151.245C208.601 151.936 208.62 152.397 208.505 152.819C206.434 161.227 201.754 167.907 195.08 173.263C194.524 173.724 193.853 174.069 193.162 174.338C191.609 174.933 190.305 174.53 189.614 173.033C188.962 171.593 188.483 170.038 188.291 168.483C187.505 162.359 187.869 156.217 188.56 150.112C189.154 144.814 189.979 139.535 190.669 134.237C190.708 133.949 190.516 133.603 190.401 133.315C190.343 133.181 190.19 133.085 190.075 132.97C188.195 130.82 188.157 130.321 189.672 127.94C191.341 125.33 192.99 122.7 194.773 120.166C197.88 115.712 201.927 112.18 206.012 108.667C207.987 106.997 211.593 107.669 213.184 109.915Z" fill="white"/>
<path d="M181.886 190.54C180.735 189.215 179.68 187.795 178.395 186.624C176.516 184.896 175.998 182.765 175.595 180.366C173.965 170.403 174.157 160.402 175.02 150.419C175.48 145.198 176.152 139.996 176.88 134.813C177.091 133.296 177.801 131.837 178.319 130.378C178.606 129.591 179.22 129.38 180.026 129.572C181.502 129.937 182.826 130.609 183.669 131.876C184.111 132.528 184.379 133.488 184.321 134.275C184.015 137.807 183.42 141.32 183.171 144.853C182.806 150.016 182.768 155.219 182.327 160.363C181.521 170.019 181.982 179.675 182.116 189.33C182.116 189.695 182.116 190.079 182.116 190.444C182.039 190.463 181.963 190.501 181.886 190.54Z" fill="white"/>
</svg>
