<?xml version="1.0" encoding="utf-8"?>
<!-- Generator: Adobe Illustrator 26.1.0, SVG Export Plug-In . SVG Version: 6.00 Build 0)  -->
<svg version="1.1" id="Layer_1" xmlns="http://www.w3.org/2000/svg" xmlns:xlink="http://www.w3.org/1999/xlink" x="0px" y="0px"
	 viewBox="0 0 662.6 688.1" style="enable-background:new 0 0 662.6 688.1;" xml:space="preserve">
<style type="text/css">
	.st0{;}
</style>
<g>
	<path class="st0" d="M504.1,529.6c-0.3,0-0.8,0-0.8,0.1c-0.1,0.5-0.1,0.9,0,1.4c0.2,0.8,0.3,1.8,0.8,2.3c0.9,0.7-0.1,0.9-0.1,1.3
		c0.1,0.8,0.3,1.6,0.5,2.4c0.2,0.8,0.4,1.6,0.6,2.4c0.2,0.8,0.4,1.6,0.6,2.4c0.2,0.8,0.5,1.3,0.7,1.9c0.2,0.7,0.3,1.6,0.6,2.4
		c2.1,5.9,3.8,11.8,5.1,17.9c0.1,0.5,0.2,0.9,0.2,1.4c-0.1,0.3-0.1,0.6-0.3,0.9c-0.6-1.6-1.1-2.9-1.5-4.2c-1.5-4.2-2.9-8.5-4.4-12.7
		c-0.7-2-1-2.2-3.4-3.6v-0.1c0.4,0.8,1.1,0.7,1.8,0.3c0-0.2,0.2-0.5,0.1-0.7c-0.3-1.5-1.1-2.9-2.2-3.9c0.7-1.8-0.7-2.8-1.3-4.1
		c-0.3-0.6-0.6-1.1-0.8-1.8c-0.4-1.8-1.5-3.5-3-4.6c-0.8-0.5,0.4-0.4,0.3-0.8c-0.1-0.4-0.6-1.2-1-1.8c-1.1-1.8-2.4-3.4-3.5-5.2
		c-0.5-0.9-1.2-1.8-2-2.4c-0.8-0.7-1.8-1.1-2.8-1.4c-0.2,0-0.3-0.4-0.4-0.5c-0.1-0.2,0-0.3,0-0.4l-2.8-1.8c0.7-0.9,1.6-1.7,2.5-2.5
		c0.6-0.4,1.1-1,1.3-1.7c0.3-0.7,0.3-1.5,0.1-2.2h-0.1c1.1-2,0-3.6-1.1-5.1h0.3c0.1-0.3,0.1-0.6,0-0.9c-0.2-0.7-0.4-1.3-0.8-1.9
		c-1.3-1.8-1.8-4-3.2-5.7c-0.7-0.8-1.4-1.5-2.1-2.2c0-0.2,0.3-0.5,0.2-0.6c-0.5-1.2-1.2-2.2-2.1-3.1c-0.9-0.9-2-1.6-3.1-2.1l1-0.7
		c-1.5-1.8-2.6-4.1-5.1-5c-0.2,0-0.3-0.5-0.5-0.8l1.4,0.4c-1.8-2.2-2.5-4.4-4.7-5.3c-0.1,0-0.2-0.4-0.3-0.6l0.7-0.2
		c-1.1-2-2.1-4.1-4.5-5c-0.2,0-0.3-0.4-0.4-0.6l1.3,0.3c-1.6-3.4-1.7-3.4-4.2-5.2c-0.2-0.2-0.3-0.6-0.5-0.9c0.3,0.2,0.8,0.2,0.5-0.2
		c-1.1-2.1-2.9-3.9-5-5c0,0-0.1-0.2-0.2-0.3c0-0.1,0-0.2,0-0.4c-1.7-2.6-4.2-4.7-7.1-5.9c-0.3-0.2-0.7-0.2-1-0.3
		c-3.2-1.2-6.4-2.3-9.9-0.6c-0.5-1-0.8-1.8-1.3-2.6c-0.4-0.9-1.4-0.8-1.4-1.8h0.8c-0.3-1.1-0.5-2.2-0.8-3.3l-4.7-2L431,443l3.7,0.5
		c0.3-2.5-0.1-3.3-2.2-4.3c-0.3-0.1-0.5-0.5-0.7-0.7h-0.1h1.8c-0.2-2-0.4-3.7-2.5-4.5c-0.2,0-0.2-0.6-0.3-0.9l1.5,0.7
		c-0.2-1.1-0.4-1.8-0.6-2.5c-0.1-0.5-0.3-1-0.7-1.4c-0.4-0.4-0.8-0.6-1.4-0.8c-1.2-0.4-2.4-0.9-3.5-1.3l-0.1,0.1l4.5,0.6
		c0-2.2-0.5-4-2.9-4.4c-0.2,0-0.4-0.5-0.6-0.7l-0.1,0.1h1.7c-0.1-2-0.6-3.6-2.6-4.3c-0.3-0.1-0.4-0.7-0.6-1.1l1.6,0.6
		c-0.1-2.5-0.8-4.1-3.2-4.6c-1.1-0.3-2.1-0.7-3.1-1.3l-0.1,0.1l2.7,0.4l2.2,0.3c0-0.8-0.2-1.7-0.5-2.4c-0.3-0.8-0.8-1.4-1.4-2v0.1
		c0.4-0.9,0.4-1.9,0.1-2.8c-0.3-0.9-1-1.6-1.9-2c-0.7-0.4-1.2-0.6-1.1-1.4l1.6,0.7c-0.1-2.5-0.9-4-3.2-4.6c-1-0.2-2.3-0.2-3.1-1.3
		v0.1c0.9,0.2,1.8,0.4,2.7,0.5c0.9,0.1,1.3,0.1,2.1,0.2c-0.2-2.4-1-4-3.3-4.5c-0.5-0.1-0.9-0.7-1.3-1c0.5,0.2,1.1,0.3,1.6,0.4
		c0.4,0,0.9,0,0.7-0.7l-2.3,0.3c-1.1,0.9-1.9-0.3-2.8-0.4c-0.1,0-0.2-0.1-0.3-0.1v-1l0.1,0.3c0-0.2,0.2-0.4,0.2-0.4
		c-1-1.3-2-2.6-3.1-4l-3.5-1.3c1.4-0.7,2.4,0.2,3.4,0.6c0.6,0.3,1.3,0.4,2,0.3c0.7-0.1,1.3-0.5,1.8-1l0.9-1
		c-0.9-1.5-2.8-0.8-3.7-2.1h-0.1c0.8,0.1,1.6,0.2,2.4,0.3c2.7,0.7,2.7,0.7,4.5-2l-1.8-1.3v0.1h2.6l1.1-2.2c-0.4-0.4-0.6-0.6-0.8-0.9
		c-0.5-0.7-2-0.1-2-1.5h-0.1l2,0.1l-2.6-3.5c-2.9-1-6.1-2-9.1-3c-0.4-0.2-0.8-0.4-1.1-0.7c0.8,0.1,1.6,0.2,2.4,0.3
		c1.8,0.5,3.5,1.2,5.3,1.8c0.5,0,1,0,1.5-0.1c-0.1-1.1-0.6-2.1-1.3-2.9c-0.7-0.8-1.7-1.4-2.7-1.6c0,0-0.1-0.2-0.2-0.3l2.2-0.2
		c-4.3-3.6-9-4.2-14.5-4.6c1.3,0.7,2,1.1,2.6,1.4c1.1,0.5,2.5,0.5,3.5,1.5c-2.3-0.2-4.6-0.8-6.7-1.8c-2.9-0.9-6-0.7-8.7,0.5
		c2.2,1.1,4.6,2,7,2.6c1.2,0.5,2.5,0.5,3.5,1.5v-0.1c-0.9-0.1-1.8-0.2-2.7-0.4c-2.6-0.8-5.3-1.6-7.9-2.5c-1.4-0.6-2.9-0.7-4.4-0.1
		l-0.4-2.1v0.1c2.5,0.7,3.7-1,4.9-2.8c0.8-0.3,1.5-0.8,2.1-1.5c0.5-0.7,0.9-1.5,1.1-2.4c0.3,0,0.8,0,1-0.1c0.6-0.7,1.1-1.5,1.8-2.4
		c-2.1-1.1-4.4-1.9-6.8-2.3c-1.4-0.3-2.8-0.4-4.2-0.7c-1-0.2-2-0.6-2.9-1.2c-1.1-0.8-2.3-1.4-3.5-1.8c-2.9-0.9-5.8-1.8-8.7-2.8
		c-0.7-0.2-1.3-0.6-1.9-1c4,0.4,7.6,2.4,11.7,3.2c-1.5-2.9-1.5-2.9-6.6-3l-1.8-2.9l-3.7-1.8l3.2,0.2c0.1-1.1-0.2-2.3-0.7-3.3
		c-0.2-0.2-0.4-0.3-0.7-0.4c-8-2.6-16-5.2-24.1-7.8c-0.8-0.2-1.6-0.3-2.4-0.3l-1,2.6c1.7,0.6,3.2,1.2,4.7,1.7l19.1,6.2
		c0.7,0.2,1.8,0.2,2,1.2c-1-0.2-2.1-0.4-3.1-0.7l-22.2-6.7c-0.3-0.1-0.7-0.2-1-0.2l-1.3,1.1c-0.2-0.1-0.5-0.2-0.6-0.4
		c-0.1-0.5-0.4-1-0.7-1.4c-0.4-0.4-0.9-0.7-1.4-0.8c-4.4-1.5-8.9-2.9-13.4-4.3c-0.4-0.1-0.9-0.2-1.4-0.1s-0.9,0.2-1.3,0.5
		c-1.4,0.9-3,1.5-4.6,1.8l3.4-3.2l-7.1-2.5v-0.4c0.5-0.1,0.9-0.1,1.4,0c1.4,0.3,2.7,0.7,4,1.3c0.4,0.3,0.9,0.5,1.4,0.5
		c0.5,0.1,1,0.1,1.5-0.1c0.5-0.1,0.9-0.3,1.3-0.7c0.4-0.3,0.7-0.7,1-1.1c-0.7-1.2-2-1-3.1-1.5c-1-0.6-2-0.2-2.7-1.6
		c2.6,0.4,4.7,1.4,7,2c1.3-0.2,2-1.3,3.5-2.2l-3.1-1.2c-0.8-0.3-1.8-0.2-2.5-1.5l6.3,1.8l2-2c-0.3-0.4-0.5-0.8-0.8-0.9
		c-1.1-0.4-2.2-0.8-3.4-1.2c0.4-0.9,1-0.5,1.4-0.4c1.2,0.3,2.4,0.7,3.8,1.2l2.2-2.5l-4.8-2c2.3-0.5,3.7,0.8,5.7,0.9l2-2.4l-4.4-1.8
		v-0.4c0.4-0.1,0.9-0.1,1.3,0c1.1,0.3,2.2,0.7,3.5,1.2l1.8-2.3c-1.4-1.9-3.9-1.2-5.6-3.1c2.5,0.1,4.3,1.5,6.6,1.5l1.4-2.3
		c-1.9-1.5-4.3-1.4-6.6-2.9c2.5-0.2,4.2,1.1,6.2,1.3c0.3-0.5,0.5-1,0.6-1.5c0.1-0.6,0-1.1-0.2-1.6l-6-2.2c2.6-0.6,4.3,1.1,6.2,1
		c0.9-1.1,0.4-2.1,0-3.2l-6-2.2c2.5-0.5,4,0.9,5.9,0.9l0.1-2.7c-0.3-0.3-0.6-0.5-0.9-0.7c-1.8-0.6-3.5-1.3-6-2.2
		c2.8-0.5,4.4,1.2,6.3,1c0.2-0.1,0.4-0.3,0.5-0.4c0-0.8,0-1.6,0-2.4c-2.6-1.4-5.5-1.6-7.8-3.2c2.7,0,5,1.6,7.9,1.8l0.3-3l-11.3-3.8
		c1.8-0.4,1.7-0.3,3.8,0.4c1.2,0.4,2.5,0.8,3.7,1.2c1.2,0.4,2.4,0.7,3.9,1.2c0-1.2-0.3-2.5-0.8-3.6c-0.7-0.3-1.6-0.7-2.5-1
		c-7.1-2.4-14.3-4.7-21.4-7c-1.8-0.6-3.5-0.9-5.3-1.4c-1.8-0.5-1.9-0.3-3.2,1.9c3.3,1.8,7.2,2.1,10.4,4.2c-0.5,0-1,0-1.5-0.2
		c-2.7-0.8-5.4-1.6-8-2.6c-0.7-0.3-1.6-0.5-2.4-0.4c-0.8,0-1.6,0.3-2.3,0.7c-0.5,0.3-1,0.5-1.9,0.9c3.2,1.8,6.7,2,9.5,4.1
		c-0.7-0.1-1.3-0.2-2-0.4c-2.7-0.9-5.3-1.8-8-2.6c-2.7-0.8-4.5,0-6.9,1.1c4.6,2.1,9.4,2.8,13.6,5.3c-0.5-0.1-1.1-0.1-1.6-0.3
		c-3.5-1.1-7.2-2.2-10.7-3.6c-1.1-0.5-2.3-0.6-3.5-0.5c-1.2,0.2-2.3,0.6-3.2,1.4c0.5,1.2,2.1,0.6,2.5,1.8c-0.2,0-0.4,0.3-0.5,0.3
		c-3.6-1.1-7.1-2.3-10.6-3.8c0.5-0.1,1-0.1,1.4,0c0.9,0.2,1.8,0.5,2.7,0.9c1,0.5,2.1,0.6,3.1,0.3c1-0.3,1.9-0.9,2.5-1.8
		c-2.8-1.5-6-1.8-9.4-3.6c0.6-0.1,1.2-0.1,1.8,0c2.2,0.6,4.3,1.2,6.4,2c1,0.5,2.2,0.7,3.3,0.5c1.1-0.2,2.1-0.8,2.9-1.7
		c-2.1-1.5-4.8-1.4-7.2-3c0.6-0.1,1.2-0.1,1.8,0c1.6,0.5,3.1,1,4.7,1.5c2.8,0.9,3.2,0.8,6.2-1.5c-2.4-0.8-4.7-1.6-7.1-2.4
		c-0.4-0.2-0.7-0.5-1-0.8c0.9,0.1,1.8,0.3,2.7,0.5c2.5,0.7,4.9,1.5,7.4,2.3c0.3-0.2,0.6-0.4,0.8-0.6c0.4-0.6,0.7-1.2,1.2-1.8
		c-3.5-2-7.5-2.3-10.8-4.4c0.5,0,1,0.1,1.6,0.2c3.1,1,6.2,2,9.4,3c0.8-2.5,0.5-3.3-1.4-4c-2.3-0.8-4.7-1.5-7.1-2.3
		c-0.3-0.1-0.5-0.3-0.7-0.5c-0.2-0.2-0.4-0.4-0.5-0.7l9.1,2.8c0.5-1.4-0.3-2.4-0.5-3.6l-7.6-2.6c2.2-0.4,4,0.6,5.9,1.1
		c1.9,0.5,3.8,1.1,5.7,1.7c0.5-2.7,0.3-3.2-1.8-3.9c-2.1-0.7-4-1.4-6-2c-0.9-0.3-1.8-0.7-2.6-1.2c0.5-0.1,1-0.1,1.5,0
		c1.7,0.5,3.3,1.1,5,1.7c0.8,0.3,1.8,0.5,3,0.8c-0.3-1-0.6-2-1-3c-1.3-3.3-2.5-6.6-3.4-10c0-0.4,0.1-0.8,0.2-1.2
		c2.6,3,3.2,6.6,4.8,9.9c2.9,1.3,6,2.3,9.1,3.1c0.6,0.1,1.2,0.1,1.8,0c0.5,0,0.9-0.2,1.2-0.5c0.2-0.6,0.3-1.2,0.4-1.8l-10.6-3.6
		l0.1-0.5c0.7,0.1,1.3,0.2,2,0.3c2.1,0.6,4.3,1.2,6.3,2c1.8,0.6,3.7,0.8,5.6,0.4l0.5-1.3c-0.2-0.3-0.3-0.6-0.4-0.6l-8.7-3
		c-1-0.3-1.9-0.7-2.7-1.3c4.3,0.4,8.2,2.5,12.5,3.4l1.6-2.2c-0.2-0.2-0.2-0.5-0.4-0.6l-10.3-3.6c-0.9-0.3-1.8-0.7-2.5-1.3
		c0.6,0,1.2,0.1,1.9,0.2c4.1,1.3,8.2,2.6,12.4,4l2.3-2.2c-0.1-1-0.9-0.7-1.3-1c-0.4-0.3-0.8-0.5-1.3-0.7l-13.4-4.3
		c-0.7-0.2-1.3-0.6-1.8-1.2c0.5,0,1,0,1.4,0.1c5.3,1.7,10.5,3.3,15.7,5.1c0.9,0.4,1.9,0.5,2.8,0.2c0.9-0.3,1.7-0.9,2.2-1.8
		c-0.6-0.4-1.2-0.7-1.9-1l-22.1-7.1c-1.4-0.4-2.7-1-3.9,0l-1.8-2.5c3,0.6,3,0.6,5.7-1.5l-1.8-1c-1.1-0.7-2.8-0.3-4-2.1l7.1,2.1
		c1.2-0.4,2.2-1.2,2.9-2.3c-2.5-1.5-5.4-1.8-8.4-3.3c0.7-0.1,1.3-0.1,2,0c1.8,0.6,3.5,1.2,5.3,1.8c1,0.3,1.9,0.9,3.2,0.2l-0.8-2.8
		c-3.1-1.5-6.7-2-9.7-3.8c3.5,0.1,6.6,2.3,10.3,2.4c-1.3-1.5-1.3-1.5-4.6-2.8l-0.8-1.8c-0.2-0.1-0.4-0.3-0.7-0.4
		c-1.6-0.5-3.1-1-4.7-1.6c-0.3-0.1-0.4-0.5-0.7-0.7l5.8,1.2c0.2-0.7,0.2-1.4,0.1-2.2c-0.1-0.7-0.5-1.4-0.9-1.9
		c1.1-1.1,0.8-2.3,0.4-3.8l-7.9-2.5c-1.6-0.5-3.1-1-4.6-1.5c-0.3,0-0.4-0.4-0.7-0.7c0.9,0.1,1.8,0.3,2.7,0.5
		c2.9,0.9,5.8,1.8,8.7,2.7c0.4,0.1,0.9,0.2,1.3,0.3c0.8-1.1,0.2-2.1,0-3.4c-2.2-0.7-4.5-1.5-6.8-2.3c-1-0.4-2.3-0.3-3-1.4
		c0.8,0.1,1.6,0.2,2.4,0.3c1.7,0.5,3.3,1.1,4.9,1.6c0.7,0.2,1.5,0.7,2.5,0c-0.3-1-0.7-2.1-0.9-2.9c-1.5-0.8-3-0.8-3.9-1.9h2.8
		c-0.1-0.7-0.4-1.4-0.8-2s-0.9-1.1-1.5-1.5c-2.1-1.6-4.7-1-7.1-1.4c-0.6-0.2-1.2-0.2-1.9-0.1c-0.6,0.1-1.2,0.4-1.7,0.9
		c0.3-0.9,0.6-1.8,0.8-2.6c-4.4-2.2-9.4-2.9-14.3-2.1c-0.1,0-0.1,0.4-0.2,0.6c1.2,1.2,3.1,0.7,4.2,2c-3.1-0.1-5.9-1.9-9.1-1.7
		c-1.7-0.2-3.3,0.1-4.8,0.9c0.4,0.3,0.8,0.5,1.2,0.7c1.6,0.6,3.4,0.9,4.9,1.6c0.9,0.4,2.2,0.2,2.7,1.3c-0.5,0.1-0.9,0.1-1.4,0
		c-3.5-1-7.1-2.1-10.6-3.3c-0.5-0.2-1-0.6-1.3-1c0.9,0.2,1.9,0.1,2.7-0.2c0.9-0.4,1.6-1,2.1-1.8l-1.9-1.6l3.4,0.6
		c0.3-0.2,1-0.6,1.5-1c0.4-0.4,0.8-0.7,1.2-1.2l-1.1-1.3c1.6,0.2,3.3,0.3,4.4-1.3c0.2-0.5,0.4-1,0.6-1.6c1.7,0,2.5-1.2,3.5-2.2
		l-0.5-1.5c2,0.5,3-0.6,3.9-2.5c-1.5-0.6-3-1.1-4.5-1.6l-9-2.9c-0.4-0.2-0.7-0.4-1.1-0.7c0.8,0.1,1.6,0.2,2.4,0.4c3,0.9,6,1.9,9,2.9
		c0.4,0.1,0.9,0.2,1.5,0.3l0.7-2.7c-0.4-0.4-0.6-0.7-0.9-0.8l-7.2-1.8c-0.4-0.2-0.8-0.4-1.1-0.7c1.8-0.3,3.1,0.8,4.7,1.1l2.2,0.4
		c-0.4-2.4-1-4.1-3.4-4.5c-0.2,0-0.4-0.5-0.6-0.7h2.5c0.1-0.7,0-1.5-0.2-2.2c-0.2-0.7-0.7-1.3-1.2-1.8c-0.1,0,0-0.4,0-0.6
		c0.3,0,0.9,0,0.9,0c0-0.7,0-1.4,0-2.2c-1.9-0.2-3.7-1-5.1-2.4c-0.4-0.5-1.3-0.4-1.9-0.8c-0.8-0.6-2.2-0.2-2.7-1.4l3.8,0.6
		c0.7-0.4,0.4-1,0.2-1.5c-0.3-0.7-0.8-1.3-1.4-1.8c-0.6-0.5-1.3-0.8-2.1-0.9c-1.8-0.5-3.5-1.2-5.1-2.2l1.7,0.2l-1-3.6
		c-1.2-1-3-0.7-4.1-1.9l4.1,0.6c0.5-0.4,0.8-1,1-1.6c0.2-0.6,0.1-1.3-0.1-1.9c1.8-0.1,2.5-1.3,3.3-2.6c-0.2-0.4-0.7-0.8-1.1-0.9
		c-0.5-0.1-1-0.1-1.4,0.1l-3.4,1.5l0.6,1.1c-2.6-0.6-5.4-0.3-7.8,1c-0.6,0.2-1.2,0.4-1.8,0.6c-0.2-1.5,1.1-2.2,1.2-3.6
		c-0.6-0.3-1.2-0.6-1.8-0.9c-1.3-0.4-2.6-1-3.8-1.8l6.1,1.8c0.5-0.3,0.8-0.8,1.1-1.3s0.4-1.1,0.3-1.7c-1.4-0.6-2.8-1.3-4.3-1.9h-0.1
		l4.6,0.6c0.7-2.6,0.7-2.6-1.8-4.3c0.4-0.3,0.8-0.7,0.5-1.2c-0.4-0.5-0.8-0.9-1.3-1.2c-2.9-2.2-6.2-3.8-9.7-4.8
		c-7.5-2.3-15.2-3.9-23-4.8c-0.3-0.1-0.7,0-1,0.1c-0.3,0.1-0.6,0.3-0.9,0.5c-0.9-0.3-1.8-0.6-2.6-0.9c-0.8-0.2-1.5-0.4-3-0.8
		c1.9-0.5,3-0.9,4.2-1.2c0.5-0.1,1-0.3,1.4-0.6s0.8-0.7,1-1.1h-0.1c1.4,0.5,2.9,0.5,4.4,0.1c1.1-0.2,2.2-0.5,3.4-0.8l-0.9-1.3h-0.1
		c0.6,0,1.2,0.1,1.8,0.2c1.5,0.6,3.2,0.7,4.8,0.4c1.4-0.2,2.7-0.4,4.5-0.7l-2-0.7v0.1c1-0.2,2.1-0.1,3,0.4c2.4,0.9,5,1.1,7.5,0.7
		c-0.9-1.6-2.3-2.9-4.1-3.4c-1.1-0.5-2.5-0.5-3.4-1.5l2.2-0.2c-2.5-2.4-5.2-4.4-8.2-6c-0.6-0.3-1.2-0.6-1.8-0.9v-1
		c-1.9-1.4-3.8-2.7-5.6-4.2c-1.2-1.1-3-1.3-4-2.6c-1-1.1-2.1-2.1-3.3-3.1l-3.9-3.6c0-0.9,0.2-1.9,0.7-2.6c0.5-0.8,1.2-1.4,2-1.8
		c0.1-0.4,0.2-0.8,0.2-1.2c0-0.4-0.1-0.8-0.3-1.1c-0.2-0.4-0.4-0.7-0.7-0.9c-0.3-0.3-0.6-0.5-1-0.6c-0.5-0.2-1.1-0.4-1.1-1.1
		l1.3,0.6c-1.2-3.6-1.7-4.1-5-5.4l1.1-0.8c-1.1-2.1-2.8-3.8-4.9-5c-0.1,0-0.1-0.4-0.2-0.6c-1-2.2-2.7-4-4.8-5.2
		c-0.6-0.3-1.4-0.2-1.6-1.1l1,0.4c-1.2-2.7-3.4-4.9-6.1-6.1c0-0.3,0.3-0.8,0.2-0.9c-1.8-1.9-3.4-4.2-6-5.2c-0.4-0.2-0.6-0.6-0.9-0.9
		c0.3,0.2,0.8,0.2,0.5-0.2c-1.7-2.2-3.8-4-6.3-5.3c-0.5-0.2-0.7-0.8-1.1-1.3c-2-2.3-4.3-4.3-6.9-5.8c-0.7-0.5-1.4-1.1-2-1.8
		c-2.7-2.8-5.9-4.9-9.4-6.4c-1.1-0.4-1-1.5-1.8-2c-1.9-1.1-3.8-2.3-5.6-3.6c-0.4-0.3-0.8-0.7-1.1-1.2c0.4-0.2,0.9-0.6,1.2-0.4
		c2.3,1,4.8,1.2,7.1,2.1c2.3,0.9,4.7,1.8,7.1,2.6h0.1L173.5,5l1.8,0.6h-0.1c0.6,0.5,1.3,1,2,1.4c4.2,2.2,8,5.3,12.5,7
		c0.2,0,0.2,0.4,0.3,0.6v-0.1c2.7,2.8,5.9,5,9.4,6.8c0.5,0.3,1,0.5,1.2,1.1v-0.1c2.6,2.9,5.8,5.3,9.4,6.9c0.4,0.2,0.8,0.4,1.2,0.6
		v-0.1l-1.2,0.2c0.1,0.3,0.3,0.6,0.5,0.9c2.6,2.1,4.9,4.7,8.2,5.8c0.1,0,0.1,0.4,0.2,0.6c0.3,0.6,0.7,1.2,1.1,1.8
		c1.1,1.1,2.3,2.1,3.5,3c1.2,0.8,2.6,1.5,3.9,2.2h0.1l-0.6,0.6l0.6,0.2l-0.1-0.1c1.9,2.5,4.3,4.4,7.1,5.8c0.5,0.3,0.9,0.6,1.3,1v0.1
		c0.8,1.2,1.8,2.2,3,3c1.2,0.8,2.5,1.3,3.9,1.5c2,0.2,3.9,0.5,5.9,0.6c0.5,0,1.1,0.3,1.5-0.6l-3.8-1.6c2.2,0.2,4.3,0.8,6.3,1.6
		c3.4,0.8,6.9,0.5,10.1-0.9c2.4,0,4.8-0.3,7.1-0.9c0.1-0.6,0.2-1,0.2-1.5c2.7,0.8,5.7,0.5,8.2-0.8l-1.2-1.3c2.4-0.1,4.7-0.5,6.9-1.4
		L282,48l-0.1,0.1c0.4-0.1,0.9-0.1,1.4,0c1.6,0.5,3.3,0.8,5,0.7c0.1,0.4,0.3,0.7,0.6,1c0.3,0.3,0.6,0.4,1,0.5
		c1.2,0.2,2.3,0.6,3.3,1.4c-1.8,0.3-3.3-0.7-5-1.2c-0.7-0.2-1.4-0.3-2-0.1s-1.3,0.5-1.8,0.9c-0.3,0.2-0.3,0.8-0.5,1.3l4.4,2v-0.1
		c-0.8,0-1.6-0.1-2.4-0.2c-1-0.2-2-0.6-3.1-0.9l-2.9,2.3l3.3,1.8c-0.5,0-1,0.2-1.4,0c-2.7-1.4-5-0.3-7.4,1.2l3.8,1.8v-0.1
		c-1.5,0.1-3-0.2-4.4-0.9c-1.5-0.4-3.1-0.5-4.7-0.3l-0.2,2.3l4.1,1.9c-0.5,0.1-0.9,0.1-1.4,0c-4.3-1.2-8.7-1.7-13.1-1.3
		c-0.1,0.7-0.2,1.3-0.2,1.9l-0.6,2.8l2.3,1l3.1,1.4l0.1-0.1c-1.8,0.4-3.1-0.8-4.7-1c-0.6,0-1.2,0.2-1.8,0.4c1.5,2,3.5,3.6,5.8,4.6
		c0.6,0.2,1.8,0,1.8,1.3h-1.2c2.5,2.8,4.8,5.5,8.4,6.2c0.5,0.2,1,0.4,1.5,0.7h0.1h-2.9c0.5,1.3,1.3,2.4,2.3,3.3
		c1,0.9,2.2,1.6,3.6,1.9v1.1l-1.8-1c1.7,3,3,5,5.8,5.6c0.9,0.2,2.1,0.2,2.8,1.2l-2.4,0.1c0.3,0.4,0.6,0.8,1,1.1
		c1.4,1,2.9,1.9,4.5,2.7c4.2,1.9,8.5,3.6,12.8,5.3c0.4,0.2,0.9,0.2,0.8,0.8h-1.6l2.4,4c3.8,1.2,7.6,2.5,11.4,3.8
		c0.4,0.2,0.7,0.5,1,0.8c-0.8-0.1-1.6-0.2-2.4-0.4c-3.2-1-6.4-2.1-9.8-3.2l-1.8,1.5c0.3,0.7,0.7,1.3,1.3,1.7
		c0.6,0.5,1.2,0.8,1.9,0.9c1.6,0.6,3.3,1,5,1.6c0.3,0.1,0.5,0.4,0.7,0.6l-5.2-0.8c1.3,2.4,3.4,4.2,6,5.2c3,0.9,6,1.8,9,2.9
		c1.6,0.6,3.2,1.2,4.8,1.9c-0.8,0-1.6-0.1-2.3-0.3c-3-0.9-6-2-9-2.9c-0.7-0.1-1.5-0.1-2.2,0c3.1,2.2,5,4.6,8.1,5.6
		c9.3,2.9,18.5,5.9,27.7,8.9c0.9,0.4,2,0.5,2.9,0.1c1-0.3,1.8-1,2.2-1.9c-2.3-0.8-4.4-1.5-6.5-2.2c-6-1.9-12-3.8-18-5.8
		c-1-0.3-2.4-0.2-3-1.5c1,0.2,2,0.5,3,0.8l24,7.7c2,0.6,2.8,0.2,3.8-2.2c-1-0.4-2-0.7-3-1c-6.7-2.2-13.3-4.3-20-6.5
		c-0.9-0.3-2.1-0.2-2.7-1.3c0.9,0.1,1.8,0.3,2.7,0.5c7.4,2.3,14.7,4.7,22.1,7.1c0.7,0.3,1.4,0.5,2.2,0.4c0.7-0.1,1.5-0.4,2.1-0.8
		c1,0.4,0.1,1.1,0.5,1.8c5.1,2,10.6,3.3,15.9,5.8c-0.5,0-1,0-1.5-0.1c-4.4-1.4-8.7-2.8-13.1-4.2c-2.5-0.8-2.5-0.8-4.1,2
		c1,0.4,1.9,0.8,2.8,1.1c6.6,2.1,13.2,4.3,19.7,6.4c0.7,0.2,1.3,0.5,1.9,0.8c-0.1,0.1-0.2,0.2-0.3,0.3c-0.1,0-0.2,0-0.3,0l-24.3-7.8
		c-0.5,0.2-1,0.5-1.3,0.9c-0.4,0.4-0.6,0.9-0.8,1.4c0.2,0.2,0.3,0.4,0.5,0.5c7.3,2.4,14.7,4.7,22.1,7.1c4.4,1.4,8.9,2.9,13.4,4.3
		c1.2,0.3,2.2,0.9,3.1,1.8c-0.9-0.2-1.8-0.4-2.7-0.7l-33.5-10.9c-1.2-0.4-2.4-0.7-3.8-1l-1.3,2.7c0.3,0.2,0.5,0.4,0.8,0.5l8.3,2.8
		c5.3,1.8,10.6,3.6,16.1,5.2c4,1.2,7.9,2.8,12,4c4,1.2,7.8,2.5,11.7,3.7c0.6,0.3,1.2,0.6,1.8,1c-0.7,0-1.4,0-2-0.1l-20.8-7.1
		l-2.7,2.6l25,8.2l-0.1,0.5c-0.5,0-1,0-1.5-0.1c-7.4-2.4-14.7-4.8-22.1-7.1c-2.3-0.7-2.3-0.7-4.4,1.8c2.9,1.2,5.8,2.3,8.8,3.1
		c3,1.1,6,2,9,3c3.3,0.9,6.5,2,9.7,3.4c-0.6,0.1-1.2,0.1-1.9,0l-24.1-7.7c-0.9-0.3-1.8-0.5-2.9-0.9l-2.8,2.4
		c10,3.6,19.9,6.4,29.5,10c-3.4-0.5-6.8-1.4-10-2.7c-3.5-1.1-6.9-2.2-10.4-3.3c-3.5-1.1-6.7-2.1-10.1-3.2l-2.5,2.2
		c1.6,1,3.4,1.7,5.3,2.1c1.9,0.7,3.8,1.2,5.7,1.8l5.3,1.8l5.3,1.7l5.7,1.9l5.5,1.8c-0.5,0.2-1,0.3-1.5,0.3c-0.5,0-1-0.2-1.5-0.4
		c-9.4-3-18.8-6-28.1-9l-3.1-0.9l-2.8,2.1c0.8,0.5,1.7,0.9,2.6,1.2l32.8,10.7c0.6,0.3,1.3,0.6,1.9,0.9c-1.2,0.2-2.4,0-3.5-0.6
		c-10.8-3.5-21.7-6.9-32.5-10.5c-0.9-0.4-1.9-0.5-2.8-0.3s-1.7,0.9-2.2,1.8c0.4,0.3,0.9,0.6,1.4,0.8l37.1,12.1
		c0.9,0.3,1.8,0.6,2.7,1l-0.4,0.3c-0.1,0-0.2,0-0.3,0c-0.9-0.2-1.8-0.5-2.7-0.7l-39-12.4l-2.3,1.8c0.3,0.5,0.5,0.9,0.7,1
		c1.2,0.5,2.4,1,3.5,1.4c14,4.5,28,9,41.9,13.5c0.7,0.2,1.3,0.6,1.8,1.2c-0.5,0-0.9-0.1-1.4-0.2l-37.2-11.9l-3.7-1.2
		c2.8,2.4,5.6,2.8,8.3,3.9l0.8,2.4c2.8,0.9,5.8,2,8.8,2.9c8.8,2.9,17.9,5.7,26.8,8.7c0.9,0.3,2.1,0.2,2.7,1.3
		c-1.5,0.1-3-0.2-4.4-0.9c-10.4-3.3-20.7-6.7-31-10c-0.8-0.2-1.6-0.4-2.5-0.5c0.3,1.2,0.9,2.3,1.8,3.2c0.9,0.9,2,1.4,3.2,1.6
		c1.4,0.2,2.8,0.3,4.2,0.4c1.8-0.1,3.5,0.4,4.9,1.5c1.4,1.3,3.1,2.2,4.9,2.6c4.3,1.4,8.7,2.8,13,4.3c0.4,0.2,0.7,0.4,1,0.7
		c-0.9-0.2-1.8-0.3-2.7-0.5c-3.7-1.1-7.3-2.3-10.9-3.6c-0.6-0.2-1.3-0.3-2.3-0.5c0.7,2.4,1.6,4.1,4,4.6c1.8,0.5,3.6,1.1,5.3,1.8
		c0.6,0.2,1.4,0.1,1.8,1c-2.4,0-4.5-1.3-6.8-1.8c-0.5-0.1-1-0.2-1.8-0.3c1.4,3.7,1.4,3.7,4.8,4.8c5.1,1.7,10.2,3.3,15.3,5
		c0.4,0.2,0.7,0.4,1.1,0.7c-0.9-0.1-1.8-0.3-2.7-0.5c-4.4-1.4-8.8-2.8-13.3-4.3c-0.6-0.1-1.3-0.2-2-0.2c1.9,2.7,3.6,4.7,6.6,5.3
		c2,0.5,4,1.1,6,1.9c0.8,0.3,1.6,0.7,2.4,1.2c-1.8,0.3-3.1-0.7-4.6-1.1c-1.8-0.7-3.6-1.2-5.5-1.5l1.9,3.6l3.3,1.8l-2.8,0.3l1,2.2
		l2.5-1.2l-0.7-1.4c1.1,0.4,2.2,0.4,3.3,0.2c1.1-0.3,2.1-0.8,2.9-1.7l-1.2-1.3c2.3,0.4,4.6,0.7,6.4-1.4l-1.3-1.4l2.4,0.3
		c0.8,0.1,1.6,0,2.3-0.4c0.7-0.3,1.4-0.8,1.9-1.4l-1.7-1.4l3.8,0.7c0.6-0.2,1.2-0.5,1.8-0.8c0.5-0.3,1.4-0.2,1.5-1.2l-2.1-1.5
		c0.7,0,1.4,0.1,2,0.3c2.6,1.2,4.6,0.1,6.9-1.2c-0.9-0.4-1.5-0.6-2.2-0.9c-0.6-0.3-1.4,0-1.8-0.9c1.8,0.1,3.6,0.5,5.3,1.3
		c2.5,0.7,4.9,1.6,7.2,2.7c-0.5,0-1,0-1.4-0.1c-0.7-0.2-1.3-0.4-2-0.6c-2.9-0.9-2.9-0.9-4.5,2.1c1.7,0.6,3.3,1.1,4.9,1.8
		c0.4,0.2,0.7,0.4,1.1,0.7c-1.6,0.1-3.2-0.3-4.6-1.1c-0.4-0.2-0.9-0.4-1.4-0.4c-0.5,0-1,0-1.4,0.2c-0.4,0.2-0.9,0.4-1.2,0.8
		c-0.3,0.3-0.6,0.7-0.8,1.2c0.4,0.3,0.9,0.6,1.3,0.8c1,0.5,2.3,0.3,3,1.4l-5.9-1.2l-2.4,2c0.8,1.4,2.6,0.8,3.4,2.1
		c-0.7,0.1-1.4,0-2-0.2c-0.4-0.3-0.9-0.4-1.4-0.5c-0.5-0.1-1,0-1.5,0.1c-0.5,0.1-1,0.4-1.4,0.7c-0.4,0.3-0.7,0.7-1,1.2l2.3,1.7
		l-4-0.6l-2.9,2.2c1.1,0.6,2.2,1.1,3.4,1.4c0.2,0,0.4,0.5,0.5,0.7c-0.8-0.1-1.6-0.2-2.4-0.5c-0.9-0.5-1.9-0.6-2.8-0.4
		c-1,0.3-1.8,0.9-2.3,1.8c0.3,1.4,2.2,0.6,2.5,2c-0.8,0-1.6-0.2-2.3-0.4c-0.5-0.3-1.1-0.4-1.6-0.2c-0.6,0.1-1.1,0.4-1.4,0.9
		c-0.4,0.4-0.7,0.8-1.1,1.2l1.5,1.4c-0.2,0-0.5,0-0.7,0c-2.9-0.2-3.2,0-4.3,2.9c-1.5,0.9-1.5,0.9-2.7,2.8c0.4,0.3,0.9,0.6,1.4,0.8
		c4.3,1.4,8.6,2.8,12.9,4.3c0.4,0.2,0.7,0.4,1,0.7l-2.6-0.4l-2.3-0.3c-0.2-0.2-0.4-0.4-0.6-0.5c0,0-0.2,0.2-0.3,0.3l0.8,0.4
		c0,0.8,0.2,1.6,0.6,2.4c0.4,0.7,0.9,1.4,1.5,1.9h-1.2l-0.5,2.6c0.3,0.3,0.4,0.6,0.6,0.7c1.8,0.6,3.5,1.1,5.3,1.8
		c1.5,0.7,3.2,0.9,4.8,0.6c0.5-0.1,1-0.2,1.5-0.1c0.5,0.1,1,0.2,1.4,0.5c0.4,0.3,0.8,0.6,1,1c0.3,0.4,0.5,0.9,0.5,1.4l-2,3.1
		c0.8,0.5,1.6,0.9,2.5,1.2l8.8,2.9c0.4,0.2,0.8,0.4,1.1,0.7c-0.9-0.1-1.8-0.2-2.7-0.4c-1.8-0.5-3.5-1.1-5.3-1.6
		c-1.1-0.3-0.8,0.7-1,1.4h-4.1c1.4,1,3,1.7,4.7,2.1c1.3,0.3,2.5,0.8,3.5,1.5c-0.9-0.1-1.8-0.2-2.7-0.4c-2.1-0.6-4.2-1.3-6.3-1.9
		c-2.1-0.6-2.3-0.6-3.5,1.4c-0.1,0.3-0.2,0.6-0.2,0.9c2.3,0.8,4.6,1.5,6.8,2.3c1,0.4,2.3,0.2,3,1.4v-0.1c-1.5-0.3-3-0.6-4.4-1
		c-2-0.6-4-1.3-6.1-2l-1.3,2.6c0.3,0.4,0.5,0.8,0.8,0.9c1.8,0.6,3.5,1.2,5.3,1.8c0.3,0.1,0.5,0.4,0.7,0.7c-1.6,0.3-2.9-0.7-4.4-0.9
		c-0.9-0.1-1.8-0.4-2.9-0.7l-0.5,2.9l2.7,1.7l-2.4,0.2c-0.1,0.5,0,1,0.1,1.5c0.1,0.5,0.4,0.9,0.7,1.3c0.3,0.4,0.7,0.7,1.1,1
		c0.4,0.2,0.9,0.4,1.4,0.5c3.5,1,7.1,2.3,10.6,3.6c0.4,0.2,0.8,0.4,1.1,0.7c-0.8,0-1.6-0.1-2.4-0.3c-3-0.9-6-1.9-9-2.9
		c-0.6-0.1-1.2-0.2-1.8-0.3c0.4,0.6,0.8,1.3,1.1,2c0.2,0.6,0.3,1.2,0.4,1.9c1.8,0.6,3.7,1.2,5.5,1.9c0.4,0.2,0.8,0.4,1.1,0.7v-0.1
		c-0.9-0.1-1.8-0.2-2.7-0.4c-1.5-0.4-3.1-0.9-4.8-1.4c-0.3,1.1-0.5,1.9-0.7,2.9l3.2,1.8v-0.1h-2.7c-0.5,2.5-0.5,2.5,1.6,3.9
		c0.1,0,0.1,0.4,0.1,0.6h0.1h-1c-0.1,2.8,0.3,3.6,2.4,4.3c2.7,1,5.5,1.8,8.2,2.8c0.4,0.2,0.8,0.4,1.1,0.7l0.1-0.1
		c-1.5,0.1-3-0.2-4.4-0.9c-1.9-0.5-3.7-1.2-5.9-1.8c0.6,2.7,1.6,4.4,4.1,5c0.4,0.2,0.8,0.4,1.1,0.7v-0.1l-2.2,0.2
		c0.3,1.2,1,2.3,1.9,3.2c0.9,0.9,2,1.5,3.2,1.8c2.9,0.7,5.7,1.8,8.6,2.8c0.4,0.2,0.8,0.4,1.1,0.7v-0.1c-1.3-0.3-2.7-0.5-4.1-0.8
		c-0.6-0.1-1.3-0.3-2.3-0.6c0.7,0.8,1.4,1.6,1.9,2.5c0.3,0.7,0.7,1.4,1.3,1.9c0.6,0.5,1.3,0.8,2,1c0.1,0,0.2,0.4,0.2,0.6l-2.5-0.1
		c0,1.6,0,2.9,1.3,3.8c0.2,0.1,0,0.6,0,0.9c0.2,0.7,0.5,1.5,0.8,2.3c0.2,0.6,0.6,1.1,1,1.6c0.5,0.4,1.1,0.7,1.7,0.8
		c0.4,0.1,0.8,0.4,1.2,0.6l0.1-0.1l-2.2,0.3c0.4,0.8,0.9,1.4,1.6,2s1.5,0.9,2.3,1c0.1,0,0.1,0.4,0.1,0.6l-0.9-0.1
		c0.6,2.2,1.4,4.1,3.8,4.8c1.3,0.4,2.5,0.9,3.8,1.4l0.1-0.1l-2.7-0.3l-1.8-0.2c1,2.6,2.3,4.5,4.8,5c0.5,0.1,0.9,0.3,0.9,0.9l0.1-0.1
		H449c0.6,1.4,1.6,2.7,2.8,3.7c1.2,1,2.7,1.7,4.2,2c0.4,0.1,0.8,0.3,1.2,0.6l0.1-0.1l-2.9,0.2c0.5,1.1,1.1,2.1,2,2.9
		c0.8,0.8,1.8,1.5,2.9,2c0.3,0.1,0.5,0.2,0.7,0.4c0.2,0.2,0.3,0.5,0.3,0.8l-1.6-0.6c1.6,3,3.1,5.2,6.2,5.7c0.8,0.2,1.5,0.5,2.3,0.8
		l0.1-0.1l-4.5-0.5c0.2,1.5,0.7,3,1.5,4.3l0.1-0.1l-2.1,2.9c0.4,0.7,0.7,1.2,1,1.8c-3-0.7-3.7-0.3-4.9,2.8h0.1
		c-1.9,0.8-2.3,1.8-1.3,3.6c0.1,0.3,0.3,0.6,0.3,1c-0.7-0.6-1.2-0.6-1.5,0.3c-0.1,0.3-0.1,0.7,0,1c0.1,0.4,0.2,0.7,0.3,1.1l2.8-0.6
		l1.3,2.1l1.9,0.8l0.1-0.1l-1.8,0.3c-0.7,0.8-0.4,1.9-0.6,3l1.5,1.3l0.1-0.1c-0.8,0-1.6-0.3-2.2,0.4c-0.4,0.4-0.7,1-0.9,1.6
		c-0.2,0.6-0.1,1.2,0,1.8h0.1c-1-0.4-1.4,0.3-2,0.9c-0.4,0.3-0.6,0.7-0.7,1.1c-0.1,0.4-0.1,0.9,0.1,1.4l0.1-0.1c-1.6-0.2-2.2,1-3,2
		c-0.5,0.6,0,1.1,0.1,1.6c-0.8,0-1.6,0-1.9,1c1.6,0.3,1.6,0.3,1.8-1.2c2.7,0.8,5.6,0.9,8.4,0.1c0.8-0.2,1.2-0.6,1-1.4v0.1
		c0.9-0.1,1.7,0,2.6,0.2c0.8,0.2,1.6,0.7,2.3,1.2l0.1-0.1c-0.7,0-1.3,0.2-1.4,1.1c-0.2,1.1,0,2.3,0.6,3.3l0.1-0.1
		c-0.3,0.8-0.3,1.7-0.1,2.5c0.2,0.8,0.8,1.6,1.5,2.1c0.6,0.5,1.8,0.3,1.8,1.4l-1.5-0.6c0.1,1.2,0.5,2.3,1.3,3.3
		c0.7,0.9,1.7,1.7,2.8,2.1l0.1-0.1l-1.3,0.3c0.7,2.7,2,4.7,4.7,5.3c0.1,0,0.2,0.2,0.2,0.3l-2.1-0.2v1.1c0.4,0.1,0.8,0.1,1.2-0.1
		s0.7-0.5,0.8-0.9c2,0,4.1-0.4,6-1.1c0.4-0.1,0.7-0.7,1.1-1.1v0.1c3.3,0.3,6.5,0,9.7-1.1c0.4-0.2,0.9-0.3,1.3-0.2
		c2.9,0.8,5.8-0.3,8.7-0.1c0.4,0,0.8-0.1,1.1-0.3c0.3-0.2,0.6-0.5,0.8-0.8c2.7,1.3,5.6,2,8.6,2c-0.8,0.6-1.1,1-1.5,1
		c-2.4,0.3-4.8,0.6-7.3,0.8l0.2,1.3c-2.6-1.2-4.9,0.2-7.4,1c0.3,0.6,0.5,1.1,0.7,1.6c-2.7-1.1-2.7-1.1-6.7,0.8
		c-0.1,0.5-0.2,0.9-0.3,1.4c-0.4-0.3-0.9-0.5-1.4-0.5c-0.5,0-1,0.1-1.5,0.4c-0.9,0.4-1.8,0.9-2.7,1.4l0.7,1.6
		c-0.5-0.4-1.2-0.7-1.9-0.7c-0.7,0-1.4,0.2-1.9,0.6c-1.2,0.4-2.2,1.2-3,2.2h0.1c-1.6,0.1-3.1,0.7-4.3,1.8c0.5,1.7,2.8,1,3.3,2.6
		h-0.8c0,0.2,0.1,0.5,0.2,0.7c0.7,1,1.3,2.2,1.6,3.4c0,1.2-0.2,2.4-0.6,3.6l1.4,1.2l0.1-0.1l-1.8,0.4c0.3,0.4,0.5,0.7,0.9,1l7.6,5.5
		l-0.6,0.4c1.1,3.5,1.1,3.5,3.5,5.1h0.1l-1.6-0.1c-0.8,1.8,0.5,3.1,0.5,4.6c-0.1,0.9-0.2,1.8-0.1,2.8c0.2,0.6,0.5,1.1,0.9,1.6
		c-0.2,0.2-0.8,0.4-0.8,0.8c-0.1,0.9-0.3,2.1,0.2,2.7c0.7,0.9-0.4,1.5-0.1,2.2c0.2,0.7,0.5,1.8,0.7,2.7c0,0.2,0.1,0.4,0.2,0.7h0.1
		c-0.4,0.8-0.6,1.8-0.4,2.8c0.2,0.9,0.8,1.8,1.5,2.3l-0.6-0.2c-0.1,0.2-0.4,0.4-0.4,0.5c0.5,2.7-0.3,5.6,1.2,8.1
		c0.4,0.6-0.5,0.8-0.4,1.4c0.4,1.2,0.6,2.5,0.8,3.7c-0.1,0.5-0.1,0.9,0,1.4c0.2,1,0.5,2,1,2.9c0.4,0.6,0.2,1.8,0.2,2.7
		c0,0.9,1.2,1.8,1.1,2.7c0,0.9,0.2,1.8,0.5,2.7c0.2,1.3,1.4,1.8,2.2,2.6c-0.5-0.3-1.1-0.2-0.9,0.4c0.2,1.1,0.6,2.2,1.1,3.2
		c0.4,0.6,0.7,0.9,0.4,1.7c-0.1,0.4,0.2,0.9,0.4,1.3c0.1,1.1,0.6,2,1.5,2.7c-0.7,1,0,1.9,0.2,2.9c0.1,1.5,1.5,1.9,2.3,2.7l-1.4-0.6
		c0,0.5,0,1.1,0.1,1.6c1,3.3,1.8,6.8,2.4,10.2c0.1,0.6,0.3,1.1,0.6,1.6c0.3,0.5,0.7,0.9,1.2,1.3L504.1,529.6z M430,305.8
		c-0.2-0.2-0.3-0.4-0.5-0.5c-0.2-0.1-0.4,0.1-0.5,0.2c0.2,0,0.3,0.2,0.5,0.3c0.2,0,0.5,0,0.7,0c0.3,0.8,0.7,1.1,1.7,0.3L430,305.8z
		 M368.8,333.5c0.1-0.5,0-1-0.1-1.5c-0.1-0.5-0.4-1-0.7-1.4c-0.3-0.4-0.7-0.8-1.1-1c-0.4-0.3-0.9-0.4-1.4-0.5
		c-6.6-2-13.1-4.2-19.7-6.3c-0.6-0.2-1.3-0.3-2-0.5c-0.3,0.7-0.6,1.2-0.9,1.8c-0.1,0.3-0.2,0.6-0.2,0.9
		C351.2,328.3,359.9,331.1,368.8,333.5L368.8,333.5z M313.3,259c-0.2,2.5,0.5,3.7,2.7,4.3c7.6,2.3,15.1,4.9,22.7,7.3
		c0.6,0.1,1.3,0.2,1.9,0.3l-0.6-3.3c-2.2-0.7-4.4-1.4-6.4-2.2c-1.3-0.6-2.6-1-4-1c-1.4-0.1-2.8,0.2-4.1,0.7c0,0-0.2-0.1-0.3-0.1
		l0.9-1.7C321.9,261.6,317.7,260.4,313.3,259z M348.3,144.8c7.6,2.5,15,4.9,22.3,7.2c2,0.6,2.8,0.2,4.7-2c-8.4-2.7-16.8-5.3-25.1-8
		c-0.4-0.1-0.8-0.1-1.2,0L348.3,144.8z M370.4,153.1c-0.7-0.3-1.2-0.6-1.8-0.8l-20-6.4c-0.2,0-0.4,0.1-0.8,0.2l-0.5,2.7
		c1,0.4,1.9,0.8,2.7,1.1c4.8,1.5,9.6,2.9,14.3,4.6c1,0.4,2.2,0.4,3.2,0.2C368.7,154.5,369.6,153.9,370.4,153.1z M333.6,228.7
		c-0.4-3-0.6-3.3-2.8-4.1c-4.4-1.5-8.9-2.9-13.4-4.4c-0.5-0.2-1-0.3-1.5-0.3c-0.5,0-1,0.1-1.5,0.3c-1,0.4-2.1,0.7-3.4,1.2
		C318.3,224.2,325.9,226.6,333.6,228.7z M344.4,136.1c-4.2-1.8-8.4-3.3-12.7-4.5c-4.3-1.4-8.5-3-13.2-4.1
		C326,133.9,336,137.2,344.4,136.1L344.4,136.1z M346.3,153c0.4,0.2,0.9,0.5,1.4,0.7c3.1,1,6.3,1.8,9.3,3c1.2,0.4,2.5,0.6,3.7,0.4
		s2.5-0.5,3.5-1.2c-0.4-0.3-0.8-0.6-1.3-0.8c-5.1-1.7-10.2-3.3-15.3-4.9c-0.2,0-0.5,0-0.9,0.2L346.3,153z M337.8,328.1v-3.3
		c-2.5-0.8-4.8-1.5-7.1-2.4c-1.2-0.5-2.5-0.6-3.8-0.4c-1.3,0.2-2.5,0.8-3.4,1.6C328.4,325.1,332.9,326.9,337.8,328.1L337.8,328.1z
		 M330.3,260.1c-3.2-1-6-1.8-8.5-2.8c-1.1-0.5-2.4-0.6-3.6-0.3c-1.2,0.2-2.3,0.8-3.2,1.7l12.4,4L330.3,260.1z M344.3,321.2
		c4.3,2,9.1,3.4,11,3.3l-1.5-3.4c-2.3-0.8-4.6-1.6-6.9-2.3c-0.2-0.1-0.4-0.1-0.6-0.1c-0.2,0-0.4,0.1-0.6,0.1
		c-0.2,0.1-0.4,0.2-0.5,0.4c-0.1,0.2-0.2,0.3-0.3,0.5C344.7,320.1,344.5,320.5,344.3,321.2L344.3,321.2z M320.9,255.9
		c3.5,1.5,7.1,2.6,10.8,3.4c0.7-0.7,1.3-1.4,1.9-2.1c0,0,0-0.2,0-0.5c-2-0.7-4.2-1.2-6.2-2.1c-0.8-0.4-1.7-0.5-2.5-0.4
		c-0.9,0.1-1.7,0.4-2.4,0.9L320.9,255.9z M326.7,253.5c1.2,0.4,1.8,0.6,2.5,0.9l4.3,1.4c2.1,0.6,2.8,0.1,3.5-2.3
		c-1.4-0.5-2.9-0.9-4.3-1.5C330.7,251,328.9,251.6,326.7,253.5L326.7,253.5z M318.7,219.4c0.2,0.2,0.3,0.4,0.5,0.5
		c3.6,1.2,7.3,2.4,10.9,3.6c0.2,0,0.5-0.2,0.8-0.3C328.5,218.9,324.8,217.9,318.7,219.4L318.7,219.4z M331.9,263.2
		c2.5,1.7,5.4,2.9,8.4,3.4l0.7-2.5c-1.3-0.8-2.8-1.4-4.3-1.8C335.1,262.4,333.5,262.7,331.9,263.2L331.9,263.2z M332.5,250.8
		c1.6,0.6,3.1,1.2,4.5,1.6c1.8,0.5,2.4,0.1,3.4-2.2C336.1,248.3,335.8,248.3,332.5,250.8L332.5,250.8z M345.2,156.4
		c3.5,0.7,6.9,1.7,10.4,1.1c-3-1.4-6.1-2.5-9.3-3.2c-0.2,0.2-0.4,0.4-0.6,0.7C345.5,155.4,345.3,155.9,345.2,156.4L345.2,156.4z
		 M352.8,319.4c-0.7-3.3-1.5-4-5-4.3l-1.3,2.4C348.4,318.5,350.5,319.1,352.8,319.4L352.8,319.4z M316.3,246.8c-2-1-4.1-1.7-6.3-2.1
		c-0.1,0-0.3,0.3-0.5,0.5c0.3,0.7,0.6,1.5,1,2.2c0.1,0.3,0.3,0.7,0.6,0.9s0.6,0.4,0.9,0.5c0.4,0.1,0.7,0.1,1.1,0
		c0.4-0.1,0.7-0.3,0.9-0.5C314.5,247.9,315.1,247.5,316.3,246.8z M331.2,321.2c2.1,1.1,4.3,1.8,6.6,2.4c0.2-0.6,0.3-1.2,0.3-1.8
		c-0.2-1.2-1.3-1.6-2.4-2L331.2,321.2z M343.9,247.1c-2.4-2.2-3.9,0-5.8,0.6c1.1,1,2.5,1.6,4,1.6L343.9,247.1z M411.8,246.3
		c0.2,2.5,1.3,2.8,4.3,1.4L411.8,246.3z M294.8,175.9c2.2,1.5,2.2,1.5,4,0.3C297.5,175.9,296.1,175.8,294.8,175.9L294.8,175.9z
		 M363.2,327.1c0.8,0.7,1.8,1.1,2.9,1.1C365.2,326.9,365.2,326.9,363.2,327.1z M306.3,252.3c0.4,1.1,1,2.1,1.9,2.8l1.3-1.6
		L306.3,252.3z M395.2,351.3l0.6-1.8c-0.6-0.2-1.2-0.2-1.8,0c-0.6,0.2-1.1,0.5-1.5,0.9L395.2,351.3z M344.7,246l0.5-0.9
		c-0.2-0.1-0.5-0.4-0.5-0.3c-0.2,0.2-0.4,0.5-0.5,0.7C344.3,245.7,344.5,245.8,344.7,246L344.7,246z"/>
	<path class="st0" d="M181.1,367.2c0.8,0,1.6,0.1,2.4,0.2c1.2,0.3,2.4,0.7,3.7,1.1l1.4-2.9l-2.5-1.4v0.1l2.7-0.1
		c0.8-2.1-0.8-3.2-1.8-4.5v0.1l1.1-0.2l-0.7-3.4c-2.3-1.1-4.7-1.5-7.3-2.7c2.8-0.1,4.8,1.8,7.3,1.4v-3.2l-5.4-2l0.1-0.4l5.2,1.4
		c0.4-0.4,0.7-0.9,0.8-1.4c0.1-0.5,0.2-1.1,0-1.6l-1.9-1.3h2.5c0.9-1.1,1.6-2.2,0.4-3.6v0.1c2.2-0.4,2.2-0.4,2.6-2.9l-4.8,2.1v-0.1
		l-3.6-0.7v-1.3l0.4,0.2c-0.4-0.6-0.9-1.1-1.3-1.7c-0.9-1.6-2.2-2.9-3.9-3.6l2-0.3c-0.2-0.5-0.3-1-0.4-1.5c0-0.7-0.3-1.4-0.8-1.9
		s-1.1-0.8-1.8-0.9c-0.2,0-0.3-0.3-0.4-0.5l1.9-0.2c0-0.5,0-0.7-0.1-0.9c0-0.8-0.3-1.6-0.9-2.2c-0.6-0.6-1.3-1-2.1-1.1
		c-1.8-0.5-3.5-1.2-5.2-2c1.7,0.2,3.4,0.6,4.9,1.3c0.6,0.1,1.2,0.2,1.9,0.3c0.2-0.4,0.3-0.9,0.3-1.3c0-0.5-0.1-0.9-0.3-1.3
		c-0.2-0.4-0.4-0.8-0.8-1.1c-0.3-0.3-0.7-0.5-1.1-0.7l1.2-0.1c0.2-3.3,0.2-3.3-2.3-4.5c0,0-0.1-0.2-0.2-0.3c2.3,0.2,3.5-1.3,4.8-2.9
		c1.7-0.6,3-1.4,2.9-3.5c1.6-0.7,1.6-0.7,1.8-2.2c-1.3,0.3-2.1,0.8-1.8,2.3c-0.4-0.1-0.9-0.2-1.3-0.1c-0.4,0.1-0.9,0.3-1.2,0.6
		c-0.8,0.8-1.8,1.5-2.6,2.3c-1.4,0.5-2.7,1.3-3.7,2.4l1.1,1.3c-1-0.3-2-0.3-3,0c-1,0.3-1.8,0.9-2.5,1.6l0.3,1.1
		c-1.1-0.2-2.2-0.1-3.3,0.2c-1.1,0.3-2.1,0.8-2.9,1.6l1.3,1.1c-0.7-0.1-1.3-0.2-2-0.3c-1-0.2-2,0-2.9,0.4c-0.9,0.4-1.7,1.1-2.2,2
		c-0.9-0.1-1.9,0-2.7,0.3c-0.9,0.3-1.7,0.8-2.4,1.4l0.2,1.1v-0.1c-0.7,0-1.4,0-2.1,0c-1-0.1-1.8-0.6-1.8-1.8c0.5,0.5,1.1,0.6,1.5,0
		c0.6-0.8,1.1-1.6,1.6-2.5l-3.6-1.4v0.1c1.4-0.3,2.8-0.1,4,0.7c0.6-0.8,1.1-1.7,1.6-2.5c0.1-0.2-0.3-0.8-0.5-1.2v0.1
		c0.8-0.2,1.5-0.6,2-1.3c0.5-0.7,0.8-1.5,0.7-2.3v0.1c1-0.8,1.7-1.8,2-3c-0.3-0.5-0.7-1.1-1-1.6v0.1l1.9,0.2l1.1-3.9
		c0.5-0.5,0.8-1,0.9-1.7c0.1-0.6,0.1-1.3-0.1-1.9c-0.1-0.3,0.1-0.7,0.2-1c0.2-0.4,0.3-0.9,0.3-1.3c0-1.8,0-1.8-1.8-2.5l-1.2-0.6v0.1
		h1.4h1.2c0.2-0.6,0.2-1.3,0-2c-0.2-0.7-0.5-1.2-1-1.7c-0.2-0.3-0.4-0.6-0.5-0.9h-0.1c0.1-0.3,0.4-0.7,0.3-0.9
		c-0.8-1.8-1.6-3.6-3.7-4.2c-0.2,0-0.2-0.4-0.3-0.5c0-0.1,0-0.3,0-0.4c-1.1-2.5-3.2-4.5-5.7-5.6c-0.2,0-0.2-0.4-0.3-0.6h-0.1
		l1.3,0.2c-0.4-2.5-0.4-2.5-2.5-5.3l0.6,0.2c0.3-1,0.7-2.1,1-3.1c0-0.2-0.3-0.4-0.6-0.7h2l1.4-2.7l-2.2-1.1v0.1h0.3
		c0.9,0,1.9,0.2,2.2-1c0.2-0.7,0.2-1.3,0-2c-0.1-0.4-0.8-0.7-1.2-1.1c-0.1-0.2-0.3-0.4-0.4-0.6l1.5,0.2c0.8-1.9-0.5-3.2-1-4.6v0.1
		c0.1-0.9,0-1.9-0.5-2.7c-0.4-0.8-1.1-1.5-2-1.9c-1.1-0.5,0-1.4-0.8-2c-1.7-1.6-3.8-2.7-6.1-3.1c-0.9,0-1.8-0.3-2.7-0.4
		c-0.3-1.1-0.4-2,0.4-2.7c0.5-1.1,1.6-2,1.1-3.4c0-0.2,0.9-0.6,1.1-1.1c0.9-2,1.8-4,2.6-6.1l-1.7-1.2l-0.1,0.1
		c0.9,0,1.9,0.4,2.5-0.7c0.3-0.4,0.5-0.9,0.6-1.4c0.1-0.5,0-1.1-0.3-1.5c1.6-0.4,1.5-1.8,1.8-3c0-0.4-0.7-0.8-1-1.3
		c0.6,0.1,1.2,0.2,1.6-0.4c0.3-0.4,0.6-0.9,0.6-1.5c0.1-0.5,0-1.1-0.3-1.6c-0.8,0.2-1.6,0.5-2.3,1c-0.7,0.5-1.3,1.1-1.7,1.8
		c-1.3,0.6-2.5,1.4-3.4,2.5l0.7,1c-0.6-0.2-1.1-0.2-1.7,0c-0.6,0.2-1.1,0.5-1.4,0.9l-2,2l-1.9,1.4c-1.2-1.7-1.3-2.1-1.3-3.1
		c-0.1-1-0.2-2.3-0.3-3.4l-2.5-1.4v0.1h2.3c1-1.9,0-3.3-1.1-4.6c0.7,0.6,1.3,0.5,1.4-0.4c0.2-0.7,0.2-1.3,0.1-2
		c-0.1-0.7-0.4-1.3-0.9-1.8c0.3,0,0.8,0,0.8,0c0.3-0.5,0.4-1.2,0.3-1.8c-0.5-2,1.1-3.9,0.2-6.1c-0.2-0.6,0.4-1.5,0.6-2.3
		c0.4-1.1-0.3-1.8-1-2.4l-0.1,0.1c0.3,0,0.8,0,1-0.2c0.7-1.1,0.7-3,0-3.6c-1-0.7-1.8,0.2-2.4,0.7c-0.7,0.5-1.5,0.5-1.8,1.4l1.1,0.9
		V204c-2.6-0.8-4.9,0.3-7.2,1.2l-0.4,1.3c-1.3-0.8-2.9-1-4.3-0.7c-1.5,0.2-3.1,0-4.5,0.3c-2.5,0.5-5.1,0.3-7.5-0.5
		c-1.1-0.3-2.3-0.4-3.4-0.3c-0.5-0.8,0-1.1,0.5-1.5c1.1-1,2.5-1.8,2.6-3.6c0.2,0,0.5,0.2,0.6,0.1c0.7-0.4,1.2-0.9,1.6-1.6
		c0.4-0.7,0.6-1.4,0.6-2.2c0.3,0,0.8,0.1,0.9,0c1.1-1.9,2.1-3.9,3.1-5.8c-0.3-1.3,1-1.9,1.3-3c0.2-1,0.5-2,1-3
		c0.5-1.2,0.6-2.5,0.3-3.8c0.1,0,0.3,0.2,0.3,0.1c0.6-0.6,0.9-1.3,1-2.1c0.1-0.8-0.2-1.6-0.7-2.2c0.2,0.1,0.4,0.2,0.6,0.2
		c0.2-0.4,0.4-0.8,0.6-1.2c0.6-1.2-0.1-2.4,0.4-3.7c0.6-1.2,0-2.7,0.2-4.1c0.1-1.3,0.1-2.6,0-3.8c0-1.3,0-2.6,0-3.8l-1.8-1.4
		c1.2,0.4,1.8,0.3,1.6-0.6c-0.6-3.7-1.8-7.2-3.5-10.5c-0.7-1.1-1.5-2-2.6-2.7c-1-0.7-2.2-1.2-3.5-1.3c-1.2-0.2-2.5-0.1-3.7,0.3
		c-1.2,0.4-2.3,1-3.2,1.8c-1.9,0.4-3.7,1.4-4.9,2.8l-4.5,2c0.7-1.2,1-1.9,1.4-2.5c1.1-1.8,2.4-3.6,3.5-5.5c0.4-0.9,0.8-1.9,1.1-2.9
		c0.7-2.8,0.5-5.8-0.6-8.5c-0.7-5-3.5-9.3-4.9-14c-0.3-0.8-0.7-1.5-1.2-2.1c0-0.6-0.1-1.2-0.2-1.8c-1.4-3.5-2.3-7.1-2.6-10.9
		c-0.2-1.6-0.1-3.2-0.2-4.8c-2.5-1.6-4.5-4-5.6-6.8c0.5-3.2,0.9-6.2,1.5-9.2c0.2-1.3,0-2.6-0.6-3.7c-1.7-3.9-3.7-7.6-6-11.1
		c-2.2-3.6-4.2-7.2-6.2-10.7c-0.9-1.6-1.5-3.4-2.3-5.1c-4.8-10.6-9.2-21.3-14.8-31.5c-0.3-0.6-0.6-1.3-0.8-1.9
		c0.8-0.5,1.1,0.2,1.5,0.5c3.1,3,5.9,6.3,8.5,9.9c2.3,3.1,4.6,6.2,6.8,9.5c1.6,2.3,3,4.7,4.4,7.1c1.8,2.8,3.4,5.6,5.1,8.5
		c1.7,2.9,3.2,5.7,4.8,8.6c0.8,1.4,1.8,2.7,2.6,4.2c0.8,1.4,1.4,2.9,2.2,4.4c1.3,2.4,2.7,4.9,4.1,7.3c0.3,0.5,0.6,1,0.9,1.5
		c2.3,2.7,3.4,6.2,6.2,8.5c0.9,3,3.5,4.8,5,7.4c1.3,1.8,2.6,3.6,4,5.3c1.2,1.9,2.6,3.6,4.3,5.1c0.6,0.5,0.7,1.6,1.2,2.3
		c0.7,1.5,1.9,2.7,3.3,3.6c-0.2,1.9,1.3,2.9,2.3,4.1c0.9,1.2,1.7,2.4,2.4,3.7c0.7,1.2,1.6,2.3,2.6,3.3c0.5,0.4,0.1,0.8,0.3,1.1
		c0.6,1.2,1.2,2.3,1.9,3.4c0.3,0.5,0.7,0.9,1.3,1.2c1,0.4,0,0.9,0.2,1.3c0.3,0.5,0.5,1,0.8,1.6c0.5,1.2,1.4,2.2,2.5,2.9h0.1
		c-0.2,0.2-0.6,0.6-0.6,0.7c0.4,1,0.8,1.9,1.2,2.9c0.2,0.4,0.4,0.8,0.8,1s0.8,0.4,1.2,0.4c1.4-0.6,2.7-1.6,3.7-2.8
		c1.1-0.6,2.3-0.9,3.5-0.8c1.3,0,2.8,0,3.5-1.4v0.1c2-0.2,3.5-0.8,4.1-3.1c0-0.2,0.4-0.4,0.6-0.6c1.4-0.5,2.7-1.3,3.8-2.4
		c0.2-0.3,0.8-0.3,1.2-0.5c1.1-0.4,2.1-1,3-1.8c0.8-1.1,2-1.1,3-2l0.2,1.8c-1.7,0.6-3.1,1.4-3.4,3.4c-1.8,0.6-3.2,1.6-3.1,3.8h0.1
		c-1-0.3-1.4,0.4-1.9,0.9c-0.4,0.3-0.7,0.7-0.9,1.2s-0.2,1-0.1,1.5h0.1c-1.6-0.2-2.1,1.2-3,2.1c-0.3,0.3-0.1,1.1-0.1,1.6
		c-0.1-0.1-0.2-0.2-0.3-0.2c-0.1-0.1-0.3-0.1-0.4-0.1c-0.1,0-0.3,0-0.4,0.1c-0.1,0.1-0.2,0.2-0.3,0.3c-0.5,0.4-0.8,1-1,1.6
		c-0.2,0.6-0.3,1.2-0.3,1.9c-1.3,0-1.1,1.2-1.4,1.9c-0.2,0.2-0.2,0.5-0.2,0.8c0,0.3,0.2,0.5,0.4,0.7c0.2,0.2,0.4,0.5,0.5,0.8
		l-1.4-0.5c0,1.4-1.2,2.5-0.2,3.8c0.4,0.5-0.2,0.3-0.3,0.5c-0.4,0.4-0.7,1-0.9,1.5c-0.2,0.6-0.2,1.2,0,1.8c1.2,0.4,2.4,0.8,3.5,1.3
		c0.4,0.2,0.6,0.6,0.9,0.9V157l3.2,5.7c-0.4,0.5-0.7,1-0.8,1.6c-0.2,0.6-0.2,1.2,0,1.8l-2.7,2.5c1.9,2.1,3.2,2.4,4.9,0.9
		c0.7-0.7,1.4-1.5,1.9-2.4c0.5-0.3,1.2-0.4,1.4-0.8c1-2.2,3.7-2.8,4.3-5.2c0.1-0.4,0.1-0.6,0.4-0.6c1.8-0.3,2.4-1.8,3.3-3v0.1
		c0.1-0.1,0.2-0.2,0.3-0.3c0.1-0.1,0.3-0.1,0.4-0.1s0.3,0,0.4,0.1c0.1,0.1,0.2,0.2,0.3,0.3c-0.7,1.3-1.9,2.3-1.5,4l0.1-0.1
		c-0.6,0.3-1.1,0.8-1.6,1.3c-0.4,0.6-0.7,1.2-0.9,1.9l1.2,1.5l-1.8-0.4c-0.7,0.4-1.1,1.1-1.4,1.8c-0.2,0.7-0.2,1.6,0.2,2.3
		c-0.5-0.5-1.1-0.6-1.4,0c-0.5,1.2-1,2.3-1.4,3.6c-0.1,0.4,0,0.7,0.2,1c0.2,0.3,0.5,0.5,0.8,0.6c1.4,0.6,2.8,1.1,4.3,1.4
		c3.6,0.6,7,2.2,9.7,4.7c1,0.8,2.1,1.4,3.2,2c0.3,0.3,0.6,0.6,0.8,0.9c-0.4-0.5-0.7-0.5-1.1,0c2,3.4,2,3.4,5.6,5.5l0.1-0.1
		c-0.3,0-0.7,0-1,0c-0.2,0-0.4,0.1-0.6,0.2c0.1,1,0.5,1.9,1,2.8c0.5,0.8,1.2,1.6,2,2.1l0.1-0.1c-0.1,0.4-0.4,0.9-0.3,1.2
		c1.1,2.7,1.6,3.2,4.6,4.7l-1.9,0.1l-0.3,3.1l1.5,1l-2.5-0.2l-2,2.4l1.8,1.3c-3.2-0.3-3.2-0.3-4.6,2.6c0.6,0.2,1.2,0.2,1.8,0.3
		c1,0,2.1-0.3,3.1-0.4c1.2-0.2,2.4-0.1,3.5,0.3c1.1,0.4,2.1,1.1,2.9,2c1.1,1.4,2.5,2.4,4,3.1h-1.7c0.1,1,0.4,2,0.9,2.8
		c0.5,0.9,1.3,1.6,2.1,2.1c-0.5,0-1,0.2-0.8,0.8c0.3,1.1,0.7,2.2,1.1,3.1l4,1.8c-0.6,0-1.1,0-1.8-0.2c-0.6-0.2-1-0.2-1.6-0.3
		c-0.2,1,0,2,0.5,2.8c0.5,0.9,1.2,1.5,2.1,1.9h-1.5c0,0.7,0,1.1,0,1.6s0.2,1.2,0.2,1.7l2.6,1.7h-2.4c-0.2,0.5-0.3,1.1-0.3,1.6
		c0.1,0.6,0.3,1.1,0.6,1.6c1.1-0.4,2.2-0.7,3.3-0.9c1.3,0,2.7,0.2,4,0.5c-0.7-0.8-0.9-1.2-1.3-1.4c-0.6-0.3-1.3-0.6-1.9-0.8
		c0.9,0.2,1.8,0.3,2.7,0.5c2.2,0.6,2.8,0.3,4.4-2.2l-4.3-1.9l5.7,1.2l2.6-2.3l-3.4-1.8l4.1,0.7c1-0.7,1.9-1.5,2.6-2.4l-1.8-1.2
		c2.5,0.6,5.1,0.2,7.2-1.1L220,224l1.4-0.3c-0.6-1.9-1-3.7-2.8-4.7c1.6,0,3.1,0.6,4.4,1.5h-0.7c-0.1,0-0.2,0.1-0.3,0.2
		c0.1,0.1,0.2,0.3,0.3,0.4c0.2,0,0.4,0,0.7,0c0.4,0.6,1,1,1.7,1.3c0.7,0.2,1.4,0.2,2.1,0l-1.9-1.3c1.3,0.3,2.5,0.5,3.7,0.8
		c2.7,0.7,3.7,0.5,6.3-1.5l-1.6-0.7l-3.5-1.4c1.5,0.2,3,0.5,4.4,1c2.3,1,3.9,0.3,5.7-1.6l-1.8-0.8c-1.8-0.8-3.9-0.8-5.5-2.1
		c0.9,0.2,1.8,0.3,2.7,0.6c1.4,0.4,2.9,0.8,4.3,1.4c0.4,0.2,0.9,0.3,1.3,0.2c0.5-0.1,0.9-0.3,1.2-0.6c0.6-0.6,1.1-1.1,1.8-1.8
		c-1.2-0.3-2.4-0.7-3.5-1.2c-0.9-0.5-2.1-0.2-2.8-1.3c1.5-0.1,3,0.2,4.4,0.9c2.7,0.9,3.5,0.9,5.3-1.5c-0.4-0.4-0.8-0.7-1.3-0.9
		c-0.9-0.3-1.8-0.7-2.5-1.3c1.9,0.4,3.9,0.7,5.7,1.3c1.9,0.6,3.6,1.5,6.1,2.5c-2.8,0-4.6-1.4-6.9-1.4l-1.8,2.2
		c0.3,0.4,0.3,0.6,0.5,0.7c1.2,0.6,2.7,0.6,3.7,1.8l-5.1-1c-1,0.9-2,1.7-1.9,3.2v-0.1c-1.5,0.2-2.4,1.4-3.4,2.4
		c0.2,0.5,0.3,0.9,0.5,1.3c-1.8-0.1-3.6,0.6-5,1.8v1.1c-2,0-4-0.3-5.4,1.8l0.4,1.2v-0.1c-0.4,0-0.8,0.1-1.2,0.3
		c-0.3,0.2-0.6,0.6-0.7,1c-0.3,0.9-0.7,1.7-1.2,2.5l0.1-0.1c-0.8-0.2-1.9,0-2.3-1.1h0.5l-0.1,0.4l-0.3-0.5c-0.5,0.1-1.1,0.2-1.7,0.3
		c-2.1,0.2-2.5,0.6-3.1,3c-0.7,0.6-1.3,1.3-1.6,2.2c-0.6,1.1,1,1.5,0.6,2.4v-0.1c-0.2-0.1-0.5-0.2-0.8-0.2c-0.3,0-0.5,0.2-0.7,0.4
		c-0.8,1.1-1.3,2.3-1.6,3.6c-1.3-1-2.6-0.2-3.8,0.3c-0.1,0.1-0.3,0.2-0.3,0.4s-0.1,0.3-0.1,0.5c0,0.2,0,0.3,0.1,0.5s0.2,0.3,0.3,0.4
		c0.5,0.4,1.2,0.6,1,1.5c-1.4-0.7-1.8-0.6-2.1,0.3c-0.1,0.7-0.2,1.5-0.2,2.2c2,0.7,4,1.3,5.9,2c0.4,0.2,0.8,0.4,1.1,0.7v-0.1
		c-0.9-0.1-1.8-0.2-2.7-0.5c-1.6-0.4-3.1-0.9-4.8-1.4l-1.1,2.9l3.5,1.9v-0.1l-3.8-0.5l-1,2.7l1.8,1.5h-1.6c-1,1.8,0.6,3.1,0.5,4.6
		c-0.2,0.6-0.3,1.2-0.3,1.8c0,0.6,0.2,1.2,0.6,1.7l7.4,2.5c0.4,0.2,0.8,0.4,1.1,0.7v-0.1c-1-0.2-2.1-0.3-3.1-0.6
		c-1.8-0.4-3.3-1-5-1.5c-0.7,2.8-0.5,3.3,1.6,4.3c0.5,0.2,1,0.5,1.5,0.8v-0.1h-2.6c0.7,2,1.2,3.7,3.1,4.4c0.2,0.1,0.3,0.7,0.4,1.1
		l-0.9-0.2c0.6,1.1,1.3,2.2,2.1,3.3c0.7,0.6,1.4,1.1,2.3,1.5c1.8,0.9,3.8,0.8,5.3,2.1l-5.3-1c0.2,1,0.6,1.9,1.3,2.7
		c0.6,0.8,1.4,1.4,2.3,1.9c0.4,0.2,0.7,0.5,1,0.7V288c-0.1,0.4-0.4,1-0.2,1.2c1.4,2.3,3.6,4.1,6.2,4.8c1.7,0.2,3.4,0.8,4.7,1.9
		c-1.1-0.2-2.2-0.5-3.4-0.7c-0.5-0.1-1.1-0.4-1.4,0.3c2.3,2.8,3.5,4,5.5,4.6c3.6,1.2,7.3,2.4,10.8,3.6c1.3-0.7,2.5-1.2,3-2.6
		c-2.5-0.8-5-1.5-7.3-2.4c-1.1-0.4-2.3-0.3-3.1-1.4c0.9,0.2,1.8,0.3,2.7,0.5c1.8,0.5,3.5,1.1,5.3,1.7c3.4,1.1,3.4,1.1,6.3-0.7h-0.1
		c0.1,0.3,0.1,0.7,0,1c-0.2,1-0.2,1.8,1,2.1c0.2,0,0.2,0.3,0.4,0.5v-0.1l-2.5,0.2c-0.3,1-0.6,2-0.9,2.9c-0.3,1-0.4,2.1-0.5,3.2
		c0.8,0.2,1.7,0.1,2.5,0c0.8-0.2,1.6-0.5,2.3-1c-1-0.3-2-0.7-3-1.1c-0.5-0.3-0.9-0.6-1.3-1.1l6.3,1.8l3.6-2l-1,2.7
		c1.5,0.8,3.1,1.3,4.8,1.8c1.6,0.7,3.5,0.5,4.7,2c-0.8-0.1-1.6-0.2-2.4-0.4c-2.6-0.8-5.1-1.6-7.6-2.5c-1.3,0.4-1.8,1.4-2.5,2.7
		c1.6,0.6,3.1,1.1,4.6,1.6c1,0.4,2.3,0.2,3,1.5c-1.3-0.3-2.7-0.5-4-0.9c-1.3-0.4-2.8-0.9-4.4-1.4l-2.1,2.2c0,1,0.8,0.9,1.3,1.1
		c0.4,0.2,0.8,0.4,1.3,0.5c1,0.4,2.3,0.2,2.9,1.5c-1.5-0.3-2.9-0.6-4.4-1c-2.6-0.7-2.6-0.8-4.6,1.8c0.9,1.5,3.2,0.6,4,2.2l-5.5-1.1
		l-2.5,1.9c0,0.8,0.5,0.7,0.9,0.9c0.3,0.2,0.9,0.3,1.3,0.5c0.3,0.2,0.6,0.5,0.9,0.8l-1.8,0.1c0.4,1.1,1.1,2.1,1.9,3
		c0.8,0.8,1.9,1.5,3,1.9c3.5,1.2,7.1,2.3,10.6,3.6c0.4,0.2,0.7,0.5,1,0.8c-1.5,0-3-0.3-4.4-1c-2-0.5-4-1.3-6.1-2
		c0.5,1.2,1.2,2.3,2.2,3.2c0.9,0.9,2,1.6,3.3,2c6.4,2.1,12.9,4.2,19.4,6.3c3.7,1.2,7.4,2.4,11,3.6c0.7,0.2,1.3,0.6,1.8,1.2
		c-0.5,0-1-0.1-1.5-0.2l-26.9-10.5l-1.3-0.4c-0.3,1,0.4,1.4,0.8,1.8c2.2,2,4.7,3.5,7.5,4.5c7.5,2.3,15,4.8,22.4,7.1
		c0.7,0.2,1.3,0.6,1.8,1.2c-0.5,0-1-0.1-1.4-0.2l-21.8-7c-0.5-0.2-1.1-0.2-2.1-0.4c0.8,1.4,1.4,2.4,1.9,3.4c0.6,1,1.3,0.9,2.1,1.1
		l14.7,4.8c2.2,0.7,4.5,1.4,6.7,2.2c0.6,0.2,1.1,0.6,1.4,1.1c-0.4,0-0.8,0-1.2-0.1c-7.4-2.4-14.7-4.7-22.1-7.1c-0.9-0.4-2-0.4-3-0.1
		c-1,0.3-1.8,1-2.3,1.9c10.4,3.7,20.9,6.7,31.1,10.7c-0.6,0-1.2-0.1-1.8-0.2c-9.6-3.1-19.2-6.2-28.8-9.3c-0.3-0.1-0.7-0.2-1-0.3
		c-0.5,0.2-0.9,0.6-1.2,1.1c-0.3,0.5-0.4,1.1-0.3,1.6c0.5,0.3,0.9,0.5,1.4,0.7c8.8,2.9,17.6,5.7,26.5,8.5c1,0.3,1.9,0.7,2.8,1.2
		c-3.5-0.2-6.6-1.6-9.9-2.6s-6.9-2.3-10.4-3.4l-10-3.2c-0.4,1.9-0.1,3,1.1,3.7c0.7,0.4,1.5,0.6,2.3,0.9l23.8,7.7
		c0.8,0.2,1.6,0.6,2.2,1.2c-0.6,0-1.2,0-1.8-0.1l-22.4-7.3c-0.2,0-0.5,0-0.9-0.2l-2,2.3c0.3,0.3,0.5,0.5,0.8,0.7
		c4.1,1.4,8.2,2.7,12.4,4.1l13.1,4.3c0.8,0.2,1.6,0.7,2.2,1.3c-0.6,0-1.2-0.1-1.8-0.2c-8.1-2.6-16.1-5.2-24.1-7.8
		c-1-0.3-2-0.6-2.9-0.9c-0.5,0.4-0.8,0.9-0.9,1.5c-0.2,0.6-0.1,1.2,0.1,1.7c5.6,1.8,11.3,3.6,16.9,5.4c5.7,1.9,11.1,3.4,16.4,5.8
		c-3.8-0.7-7.5-1.8-11.1-3.1c-3.7-1.2-7.4-2.4-11.1-3.6l-11-3.6c-0.8,1.1-0.4,2.1-0.1,3.3c1.4,0.5,2.9,1.1,4.5,1.6l35.2,11.4
		c0.7,0.2,1.4,0.6,2,1.1c-3.5-0.7-7-1.6-10.3-2.9c-3.4-1-6.7-2.2-10-3.3l-10.4-3.4c-3.3-1.1-6.7-2.1-10.1-3.2
		c-0.2,0.6-0.3,1.2-0.2,1.9c0.1,0.6,0.3,1.2,0.7,1.7c14,4.7,28.3,9,42.2,14.2c-0.6,0-1.2-0.1-1.8-0.2c-11.8-3.8-23.6-7.7-35.5-11.5
		c-1.3-0.7-2.7-1-4.2-0.9c0,1,0.3,2,1,2.7c0.6,0.8,1.5,1.3,2.5,1.5c10.3,3.2,20.6,6.6,30.8,9.9c4.3,1.4,8.7,2.8,13,4.3
		c0.7,0.2,1.3,0.5,1.9,0.9c0.2,0.1,0.1,0.6,0.2,1c-0.7-0.4-1.4-0.8-2.2-1.1c-14.4-4.7-28.8-9.3-43.2-13.9c-0.4-0.1-0.9-0.2-1.4-0.4
		c0.7,3.2,1.2,3.9,4.2,4.8l29.1,9.4c8,2.6,16.1,5.2,24.1,7.8c0.7,0.2,1.4,0.6,2,1.1c-4.7-1.1-9.4-2.5-14-4.1
		c-4.7-1.4-9.4-3-14.1-4.6c-4.8-1.5-9.1-3-13.7-4.5c-4.6-1.5-9.3-3.1-14.3-4.6c0.2,1.3,0.9,2.4,1.9,3.2c0.6,0.7,1.4,1.3,2.2,1.6
		c6.8,2.2,13.6,4.5,20.5,6.3c3.8,1,7.9,1.4,11.8,2c0.2,0,0.4,0.2,0.7,0.4l-1.1,1.4c6,2.3,12.2,4,18.1,6.6c-0.8-0.1-1.5-0.2-2.2-0.4
		c-5.1-1.6-10.3-3.3-15.4-4.9c-2.8-0.9-3.5-0.7-6.1,1.5l22.7,7.4v0.5c-0.6,0-1.2-0.1-1.8-0.2l-23-7.4l-3.7,1.8
		c0.4,0.4,0.9,0.8,1.5,1c6.6,2.2,13.2,4.3,19.7,6.4c1,0.3,2.3,0.3,3,1.5c-0.9-0.1-1.8-0.3-2.7-0.5c-6.9-2.2-13.9-4.4-20.8-6.6
		c-3-1-3-0.9-6.2,1.3c5.3,2.1,10.6,3.6,15.8,5.3c5.2,1.8,10.4,3.4,16.2,5.3c-1,0.3-2.2,0.2-3.1-0.2l-26.5-8.5
		c-0.5-0.1-0.9-0.2-1.3-0.4c-1-0.5-2.1-0.7-3.2-0.5c-1.1,0.2-2,0.9-2.7,1.8c0.7,0.4,1.4,0.7,2.2,1l30.4,9.9c0.7,0.2,1.4,0.6,2,1.1
		c-1.3,0-2.5-0.3-3.7-0.8c-10-3.2-20.1-6.4-30.1-9.7c-0.9-0.4-1.9-0.5-2.8-0.2c-0.9,0.3-1.7,0.9-2.3,1.7c0.5,0.3,0.9,0.6,1.4,0.9
		l33.1,10.7c1.1,0.3,2.1,0.8,3.1,1.4c-2.6-0.3-5.2-1-7.6-2c-2.7-0.8-5.3-1.7-8.1-2.5c-2.8-0.9-5.1-1.8-7.7-2.5
		c-2.6-0.8-5.3-1.7-8.1-2.5c-2.8-0.9-5.1-1.6-7.9-2.6c-0.2,0.5-0.3,1.1-0.3,1.7c0.2,0.7,0.6,1.3,1.1,1.8c0.5,0.5,1.2,0.8,1.8,0.9
		c8.7,2.8,17.4,5.6,26.1,8.5l10,3.2c-0.2,1-0.7,0.6-1,0.4l-21.8-7l-12.6-4.2l-1.3-0.4c0.1,3.2,0.2,3.4,2.6,4.2l32.4,10.6
		c0.7,0.2,1.3,0.5,1.9,0.8c-0.1,0.2-0.2,0.3-0.2,0.4c-0.1,0.1-0.2,0.1-0.3,0.1c-11.6-3.7-23.2-7.4-34.9-11.2c-0.7,1.1-0.3,2.1,0,3.3
		c5.8,2.2,11.9,3.9,17.9,5.9c6,1.8,12,3.9,17.8,6.4c-0.7-0.2-1.5-0.2-2.3-0.5l-30.5-9.8c-0.7-0.2-1.5-0.4-2.6-0.6l0.5,3.3l35.5,11.9
		c0,0,0.1,0.2,0.3,0.6c-4.2-1-8-2.5-11.8-3.6c-3.9-1.2-7.8-2.5-11.7-3.8c-3.9-1.2-7.7-2.6-12-3.8l0.7,3.6c1.3,0.5,2.5,0.9,3.7,1.3
		c8.9,2.9,17.9,5.7,26.8,8.7c0.9,0.3,2.2,0.2,2.7,1.4c-0.9-0.1-1.8-0.3-2.7-0.5c-8.7-2.7-17.4-5.5-26.1-8.3l-3.3-1
		c-0.3,2.8,0,3.5,2.5,4.2c7.2,2.4,14.5,4.7,21.7,7.1c1.1,0.4,2.3,0.3,3,1.4c-0.9-0.1-1.8-0.2-2.7-0.5c-6.6-2.1-13.2-4.2-19.7-6.3
		c-1-0.3-2-0.6-3-0.9c-0.5,0.9,0,1.4,0.4,2s0.7,1.2,1.1,1.9c5.3,1.8,10.6,3.5,15.9,5.2c1,0.4,2.3,0.3,3,1.4
		c-0.9-0.1-1.8-0.2-2.7-0.5c-4.4-1.4-8.7-2.8-13.1-4.1c-0.5-0.2-1.1-0.2-2-0.4c0.9,2.4,1.8,4,4.1,4.7c8.5,2.6,17,5.4,25.4,8.2
		c1,0.3,2.3,0.2,3,1.5c-0.9-0.1-1.8-0.3-2.7-0.5l-23.4-7.8c-0.9-0.3-1.8-0.5-2.9-0.8c0.2,1.4,0.7,2.6,1.4,3.8l15.7,5.1
		c2.2,0.7,4.4,1.4,6.7,2.2c0.3,0.1,0.4,0.4,0.6,0.7c-0.8-0.1-1.6-0.2-2.4-0.4c-2.3-0.7-4.6-1.5-7.1-2.3l-1.8,0.9l-2,1.1
		c1.7,0.9,3.5,1.6,5.3,2.1c1,0.4,2.3,0.2,2.9,1.5c-0.8-0.1-1.6-0.2-2.4-0.4c-2.5-0.7-4.9-1.5-7.2-2.3c-1.2,0.3-2.2,1.1-2.9,2.2
		c1.3,1.2,3.1,1.2,4.5,1.9c1,0.5,2.3,0.3,3,1.5c-0.8-0.1-1.6-0.2-2.4-0.3c-1.8-0.5-3.4-1-5-1.6c-0.6,2.5-0.5,3,1.4,4
		c0.4,0.2,0.7,0.5,1,0.8l-1.8,0.3c-0.4,1.1,0.3,2,0.2,3.2l8.8,3c1.5,0.5,3.1,1,4.6,1.5c0.3,0.1,0.4,0.5,0.6,0.7
		c-0.8-0.1-1.6-0.2-2.4-0.4c-3-0.9-6-1.9-9-2.9c-0.8-0.2-1.6-0.4-2.6-0.7l-0.9,2.8c0.7,0.4,1.5,0.8,2.3,1.1c2.2,0.8,4.4,1.4,6.7,2.2
		c0.4,0.2,0.7,0.5,1,0.8c-1.5,0-3-0.3-4.4-1c-1.8-0.4-3.5-1.1-5.5-1.8l-0.9,2.8c0.3,0.2,0.6,0.5,1,0.6l20.1,6.1
		c1.5,0.5,2.9,1,4.3,1.8c-4.3-1-8.5-2.2-12.7-3.7c-4.1-1.3-8.2-2.6-12.5-4c-0.4,1.1-0.7,1.9-1,2.8c0.3,0.3,0.6,0.5,0.9,0.7
		c1.1,0.5,2.5,0.5,3.3,1.6l-4.7-0.7l-0.8,2.6c0.7,0.4,1.4,0.7,2.1,1.1c5,1.7,10,3.3,15,4.9c0.4,0.1,0.7,0.5,1,0.8
		c-0.9-0.1-1.8-0.3-2.7-0.5l-13.1-4.1c-0.7-0.2-1.3-0.3-2.3-0.5l-0.9,2.7c0.8,0.4,1.5,0.8,2.3,1.1c3.5,1.2,7.1,2.3,10.6,3.6
		c0.4,0.2,0.7,0.5,1,0.8c-0.8-0.1-1.6-0.2-2.4-0.4c-3-0.9-6-2-9-2.9c-0.7-0.2-1.3-0.3-2-0.4c-0.8,2.6-0.6,3,1.5,3.8
		c2.1,0.7,4,1.3,6,2c0.4,0.2,0.7,0.5,1,0.8c-1.6,0.3-2.9-0.7-4.4-1c-1.5-0.3-2.4-0.7-3.8-1.1c0.1,1.2,0.6,2.2,1.3,3.1
		c0.7,0.9,1.7,1.5,2.9,1.8c5.3,1.6,10.5,3.3,15.6,5.1c0.4,0.2,0.7,0.5,1,0.8c-0.9-0.1-1.8-0.3-2.7-0.5c-4.4-1.4-8.7-2.8-13.1-4.1
		c-0.6-0.2-1.3-0.3-2-0.4c0.8,2.4,1.6,4.1,4.1,4.7c2.5,0.6,5.1,1.6,7.7,2.5c0.4,0.2,0.7,0.5,1,0.8c-1.4-0.3-2.7-0.5-4.1-0.9
		c-2-0.6-4-1.3-5.9-1.9c-0.2,0.2-0.3,0.3-0.3,0.4c0,0.9,0.1,1.8,0.2,2.6c1.3,1.4,3,1.3,4.3,2c1,0.5,2.3,0.2,3,1.5
		c-1.4-0.3-2.7-0.6-4.1-0.9c-0.9-0.2-1.8-0.5-2.8-0.8c-0.1,0.8-0.2,1.3-0.3,1.9c0,0.2,0,0.5,0,0.7c0.1,0.2,0.2,0.4,0.3,0.6
		c0.1,0.2,0.3,0.3,0.5,0.5c0.2,0.1,0.4,0.2,0.7,0.2c0.3,0,0.4,0.4,0.7,0.7l-1.7,0.1c-0.1,3,0,3.3,2.5,4.1c3.5,1.2,7.3,2.3,10.9,3.6
		c0.4,0.1,0.6,0.5,1,0.8c-1.4-0.3-2.7-0.5-4-0.9c-2.5-0.7-4.9-1.6-7.3-2.4c-0.6-0.2-1.2-0.3-1.8-0.4c-0.5,1.4,0.2,2.3,0.6,3.6
		c2.2,0.7,4.4,1.5,6.5,2.2c0.4,0.2,0.7,0.5,1,0.8l-4.4-1l-2.3-0.6c-0.2,2.6-0.2,2.6,1.8,4.5c-0.3,0.3-0.6,0.6-0.9,1
		c-0.1,0.3,0,0.7,0.1,1c0.1,0.3,0.3,1.1,0.5,1.8c2.5,1.3,5.3,1.8,7.9,2.8c1.8,0.7,3.6,0.7,5.1,2c-0.9-0.1-1.8-0.2-2.7-0.4
		c-2.8-0.8-5.5-1.8-8.3-2.6c-0.4-0.1-0.8-0.2-1.6-0.4c0.2,1,0.4,1.6,0.5,2.2c0.1,0.5,0.3,0.9,0.6,1.3s0.7,0.6,1.2,0.7
		c1.4,0.4,2.9,0.9,4.3,1.4c0.4,0.2,0.8,0.4,1.1,0.7c-0.9-0.1-1.8-0.2-2.7-0.4c-0.9-0.2-2.2-0.6-3.3-0.9c0,3.2,0,3.2,2.4,4.3
		c0.2,0.1,0.4,0.5,0.6,0.7h-1c0,3.1,0.2,3.6,2.5,4.3l10.9,3.6c0.4,0.2,0.7,0.5,1,0.7c-0.8-0.1-1.6-0.2-2.4-0.4c-3-0.9-6-1.9-9-2.8
		c-0.5-0.2-1.1-0.2-1.8-0.4c0,2.4,0.8,4,3.2,4.4c1.5,0.4,2.9,0.8,4.3,1.4c0.3,0.1,0.4,0.5,0.7,0.7l-6.1-1.4c-0.3,2.2,0,3.1,1.6,4
		c0.5,0.3,1.5,0,1.5,1.1h-1.8c0,1.1,0.3,2.1,1,3c0.7,0.8,1.6,1.4,2.7,1.6c2.6,0.6,5.1,1.6,7.6,2.5c0.4,0.2,0.7,0.4,1.1,0.7
		c-0.8-0.1-1.6-0.2-2.4-0.4c-2.6-0.8-5.1-1.6-7.9-2.5c-0.1,1.4,0.3,2.8,1.2,3.8c1.3,1,3.1,0.7,4.1,1.9v-0.1l-3.4-0.2
		c0.3,1.8,1.1,3.5,2.5,4.7v-0.1c-0.2,1-0.1,2,0.4,2.8c0.4,0.9,1.2,1.6,2.1,1.9c1.6,0.6,3.3,1.1,5,1.6c0.4,0.2,0.8,0.4,1.1,0.7v-0.1
		c-0.8,0-1.6-0.1-2.4-0.3c-1.2-0.3-2.4-0.7-3.5-1.1c-0.2,0.8-0.1,1.7,0.3,2.5c0.4,0.8,1,1.4,1.8,1.8c0.3,0.2,0.7,0.5,1,0.8v-0.1
		l-1.2,0.3c0.1,1.2,0.6,2.2,1.4,3.1c0.8,0.9,1.8,1.5,2.9,1.7c2.6,0.7,5.1,1.6,7.5,2.6l0.1-0.1c-0.8,0-1.6,0-2.4-0.2
		c-1.7-0.5-3.3-1.1-5-1.6c-0.6-0.1-1.3-0.2-1.9-0.3c0.6,2.4,1.4,4.2,3.9,4.7c0.9,0.3,1.7,0.6,2.4,1.1v-0.1l-3.6-0.4
		c0.2,1.9,1.2,3.7,2.7,5v-0.1c0,0.1-0.2,0.2-0.2,0.2c-0.1,1,0.2,2,0.7,2.8c0.5,0.8,1.3,1.5,2.2,1.8c1.4,0.4,2.8,1,4.1,1.8
		c-0.6-0.1-1.3-0.2-1.9-0.4c-0.6-0.2-1.5-0.4-2.3-0.7c-0.1,0.8,0,1.7,0.3,2.5c0.4,0.8,1,1.4,1.7,1.8c0.4,0.2,0.7,0.5,1,0.8v-0.1
		l-1.2,0.3c0.4,1.8,1.3,3.5,2.7,4.7v0.6l0.4,1.1c-0.2,0-0.6,0.1-0.7,0c-1-1.2-2.2-2.2-3.5-3c0,0,0-0.2,0-0.3l-0.1,0.1h1.1
		c-0.8-2.6-2-4.5-4.8-5c-1.6-0.4-3.2-1-4.7-1.7c2.5-0.4,4.1,1.4,6.3,1.1c-0.6-2.1-1.9-3.8-3.7-4.9v0.1c0.1-0.2,0.3-0.5,0.2-0.7
		c-0.1-0.9-0.5-1.8-1-2.6c-0.5-0.8-1.2-1.4-2-1.8c-0.6-0.3-1.3-0.5-2.1-0.9l1.4-0.8c-1.4-3.1-1.4-3.1-4.2-4.8v0.1l1-0.6
		c-0.4-1.2-1-2.4-2-3.3c-0.9-0.9-2.1-1.5-3.3-1.8c-1.3-0.3-2.5-0.7-3.8-1.2c2.2-0.6,3.5,0.9,5.1,0.7c-0.2-1.4-0.9-2.8-2-3.8
		c-1.3-0.7-2.7-1.4-4.1-2c0.5,0,0.9,0,1.4,0c0.3,0.1,0.7,0.2,1,0.3c0-1-0.4-2-1-2.9c-0.6-0.8-1.4-1.5-2.4-1.9
		c-0.6-0.3-1-0.5-0.8-1.2l1,0.2c-0.2-1.2-0.8-2.4-1.7-3.3c-0.9-0.9-2-1.5-3.3-1.7c-1.6-0.4-3.2-1-4.7-1.7c2.5-0.5,4.2,1.2,6.4,1
		c-0.9-1.9-1.3-3.7-3.4-4.4c-0.1,0-0.2-0.4-0.2-0.6c0.1-0.2,0.4-0.4,0.4-0.6c0-0.9-0.3-1.9-0.9-2.6c-0.5-0.8-1.3-1.3-2.2-1.7
		c-3-1-6-1.9-9-2.9c-0.4-0.2-0.7-0.4-1.1-0.7v0.1c0.8,0,1.6,0.1,2.4,0.3c2.2,0.6,4.4,1.4,6.6,2.1c0.6,0.1,1.2,0.2,1.9,0.2
		c-0.7-1.5-1.3-2.7-1.8-3.6c-1.4-1-3.1-0.9-4.2-2.1h2.8c0.1-1.2-0.3-2.3-1-3.2c-5-2.1-14.5-5-15.7-4.7l-1.8,2
		c0.5,0.3,1.1,0.6,1.6,0.9c3.7,1.2,7.3,2.4,11,3.6c0.4,0.2,0.8,0.4,1.1,0.7c-0.9-0.2-1.8-0.3-2.7-0.5c-4-1.2-8-2.5-12.1-3.8
		l-2.7,2.5c1.1,0.4,2,0.8,2.8,1.1c2.4,0.8,4.9,1.5,7.3,2.4c0.8,0.3,1.9,0.2,2.4,1.2c-0.6,0.1-1.2,0-1.8-0.1
		c-5.1-1.6-10.2-3.3-15.2-5c-0.3-0.1-0.4-0.4-0.7-0.7v0.1l4,0.6l1.7-1.9l-0.6-1.6c1.8,0.2,2.8-0.8,3.5-2.5c-1.6-1.4-3.9-1.3-6.2-2.7
		c2.9,0,4.8,1.3,6.9,1.7c0.5-0.2,0.9-0.5,1.2-0.9c0.4-0.4,0.6-0.8,0.8-1.3c-0.1-0.2-0.2-0.5-0.4-0.6c-1.3-0.5-2.6-1-4-1.4
		c-0.9-0.3-1.8-0.7-2.5-1.3c0.5,0,1,0,1.5,0.1c1.9,0.6,3.8,1.2,5.7,1.9c0.5-0.3,0.8-0.8,1-1.4c0.2-0.6,0.1-1.2-0.1-1.7
		c-2.7-1.4-5.8-1.7-8.4-3.3c2.8,0.1,5.3,1.6,8,2c0.5-2.6,0.1-3.4-1.9-4.1c-2.3-0.8-4.7-1.5-7.1-2.2c-0.4-0.2-0.8-0.5-1.1-0.8
		c3.1,0.2,5.8,1.8,8.8,2.3c-0.1-3.2-0.3-3.5-2.7-4.3c-3.7-1.2-7.4-2.4-11.1-3.6c-0.9-0.3-1.7-0.6-2.5-1.1c2.6-0.3,4.8,1.1,7.1,1.8
		c2.3,0.7,4.9,1.5,7.4,2.3c-0.1-3.4-0.2-3.6-2.9-4.4l-8.7-2.8c-0.6-0.2-1.1-0.6-1.5-1.1c0.5,0,1,0.1,1.4,0.2l10.1,3.2
		c0.7-1.2-0.1-2.2-0.2-3.2c-0.3-0.2-0.5-0.4-0.8-0.6l-8.3-2.8c-0.4-0.1-0.8-0.4-1.2-0.5c0-0.3,0-0.4,0.1-0.5
		c0.1-0.1,0.2-0.2,0.3-0.1l8.7,2.6c0.1,0,0.2,0,0.3,0c0.3-1.1,0.2-2.2-0.4-3.2l-9.4-3.2V523c0.5-0.1,0.9-0.1,1.4,0
		c2.5,0.7,4.9,1.6,7.4,2.4c0.6-2.5,0.2-3.4-1.8-4.1c-3-1-6-1.9-9-2.9c-0.7-0.2-1.4-0.6-1.9-1.1c4.1,0.6,7.9,2.4,12.1,3.4
		c0.5-1.4-0.3-2.3-0.2-3.5c-3.1-1-6.1-2-9.1-3c-3-1-6-1.5-8.6-3.3c2.8,0.6,5.6,1.3,8.3,2.3c2.7,1,5.5,1.8,8.4,2.5
		c0.2-1.1,0.1-2.2-0.4-3.2c-0.3-0.2-0.5-0.3-0.8-0.5c-6.7-2.2-13.4-4.3-20.1-6.5c-1.2-0.4-2.6-0.3-3.6-1.9c4.2,0.8,8,2.5,11.9,3.6
		c4,1.4,8,2.6,12.1,3.6l-1-3.3c-0.8-0.4-1.5-0.7-2.3-1c-6-2-12.1-3.9-18.1-5.8l-24.1-7.8c-0.7-0.2-1.3-0.5-1.9-0.8
		c0.1-0.1,0.2-0.3,0.3-0.4c0,0,0.2-0.1,0.3-0.1l43.9,14c0.1,0,0.2,0,0.3-0.1c-0.7-2.9-1.2-3.6-3.7-4.3c-11.4-3.7-22.8-7.4-34.1-11.1
		c-1.4-0.3-2.7-0.3-4.1,0c-0.3-0.6,0-1.4-1-1.6c-0.6-0.1-1.1-0.5-1.5-1.1c0.5,0,0.9,0,1.4,0.1c1.1,0.5,2.2,0.6,3.4,0.5
		c0.3,0,0.9,0,0.9,0.2c0.5,1.5,1.9,1.3,2.9,1.6c10.1,3.4,20.3,6.6,30.4,9.9c0.5,0.1,0.9,0.2,1.4,0.3c-0.3-1-0.8-1.9-1.5-2.7
		c-0.7-0.8-1.5-1.4-2.4-1.9c-0.7-0.3-1.3-0.5-2-0.7l-22.7-7.4c-0.7-0.2-1.3-0.4-2-0.6c-0.7,0-1.5,0.3-2,0c-0.5-0.3-0.8-1-1.6-1.2
		c-1.4-0.4-2.7-1-3.9-1.8c0.5,0,1.1,0,1.6,0.1c1.4,0.6,3,1,4.6,1.1l1.6-2.5l-6.7-2.5c1.3-0.2,2.6,0,3.7,0.5c1,0.4,2,0.6,3.2,1
		l1.5-2.5c-0.6-0.4-1.2-0.8-1.8-1.1c-1.5-0.5-2.9-1.1-4.2-1.9c0.5-0.1,0.9-0.1,1.4,0c1.6,0.4,3.1,1,4.9,1.5l1.1-2.6
		c-0.3-0.3-0.5-0.6-0.7-0.6c-2.3-0.8-4.6-1.6-6.8-2.6c2.7-0.3,5,1.5,7.8,1.6l0.5-2.8c-3.8-1.9-8-2.5-11.6-4.5
		c3.8,0.4,7.3,2.3,11.3,2.9c-0.3-1.2-0.9-2.3-1.8-3.1c-0.9-0.9-1.9-1.5-3.1-1.8c-3.5-0.9-6.9-2.2-10.4-3.3c-0.7-0.2-1.3-0.6-1.8-1.1
		c4.4,0.7,8.4,2.6,12.8,3.6c-1.2-2.9-2.2-4-4.6-4.9c-2.4-0.8-5.1-1.7-7.7-2.6c-0.4-0.2-0.7-0.5-1-0.8c1.8-0.3,3.1,0.7,4.7,1.1
		c1.2,0.5,2.5,0.8,3.9,0.9c-0.6-1.3-1.5-2.5-2.6-3.4c-1.1-0.9-2.4-1.6-3.8-2c-2.3-0.5-4.5-1.3-6.5-2.3c3.2-0.1,5.3,1.6,8.2,1.6
		c-1-1.4-1.8-2.6-2.7-3.6c-0.5-0.4-1.1-0.8-1.8-1c-2.1-0.7-4.2-1.5-6.2-2.5c0.6,0,1.1,0.1,1.7,0.2c1.3,0.3,2.5,0.7,3.7,1.1
		c0.2,0,0.4-0.1,0.8-0.2c0-0.9-0.3-1.8-0.9-2.6c-0.6-0.7-1.3-1.3-2.2-1.5c-0.4-0.1-0.7-0.5-1-0.8c1.5,0.3,2.9,0.6,4.4,1
		c1.9,0.5,3.7,1.2,5.5,1.8c0.7-0.7,0.2-1.3,0.1-1.8c-0.1-0.5-0.3-1.1-0.4-1.7c-5.6-2.2-11.4-3.6-16.9-6.2c0.5,0,1,0.1,1.5,0.2
		l15,4.8c0.7,0.2,1.3,0.4,2,0.6c0.4,0.1,0.8,0,1.2-0.1c0.4-0.2,0.7-0.5,0.9-0.8c-0.2-1.8-1.4-2.3-2.8-2.7c-4.6-1.4-9.1-2.9-13.7-4.4
		c-1.2-0.4-2.4-0.9-3.5-1.5c3,0.5,6,1.3,8.8,2.4c3,0.9,5.9,2,9.3,2.9c-0.2-1.1-0.7-2.2-1.5-3.1c-0.8-0.9-1.8-1.5-2.9-1.8
		c-3-1-6-1.9-9-2.9c-0.4-0.1-0.7-0.5-1-0.8c0.8,0.1,1.6,0.2,2.4,0.4c2.3,0.7,4.7,1.5,7.1,2.3c0.8,0.2,1.5,0.3,2.4,0.5
		c0.1-0.7,0.2-1.1,0.2-1.6c0.1-0.5,0-1-0.3-1.4c-0.3-0.4-0.7-0.7-1.1-0.8c-1.6-0.5-3.1-1-4.7-1.5c-0.4-0.2-0.7-0.5-1-0.8
		c0.9,0.2,1.8,0.3,2.7,0.5c0.9,0.2,2.2,0.6,3.3,0.9c-0.4-3.1-0.8-3.6-3.1-4.4c-4.7-1.6-9.5-3.2-14.2-4.7c-0.5-0.2-1.2-0.1-1.3-0.9
		c0.9,0.2,1.8,0.3,2.7,0.5c3.7,1.1,7.3,2.3,11,3.6c0.8,0.2,1.5,0.3,2.3,0.4c-0.4-1.2-1.2-2.3-2.1-3.2c-0.9-0.9-2-1.5-3.2-1.9
		c-1.8-0.4-3.3-1-5-1.6c-0.3,0-0.4-0.4-0.7-0.7l4.4,1l2.3,0.5c-1.2-1.4-2.5-2.8-3.9-4.1c-0.9-0.7-2-1.2-3.1-1.5
		c-3.8-1.3-7.6-2.5-11.3-3.7c-0.4-0.2-0.8-0.4-1.1-0.7c0.8,0,1.6,0.1,2.4,0.3c1.8,0.5,3.5,1.2,5.3,1.8c1.8,0.6,3.3,1,5.4,1.6
		c-2.2-2.9-4-5.2-7.2-5.9c-1.1-0.2-2.3-0.3-3-1.4l4,0.6c-2-2.7-3.8-5.1-7.1-5.6c-1.1-0.3-2.2-0.7-3.3-1.1c-3.7-1.2-3.7-1.2-7.3,0.4
		c-0.3,0.1-0.5,0.3-0.7,0.5c0.9,0.4,1.8,0.7,2.6,1c2.3,0.8,4.7,1.4,7,2.3c0.9,0.4,2.2,0.2,2.7,1.3c-0.9-0.1-1.8-0.3-2.7-0.6
		c-2.9-0.9-5.7-1.8-8.6-2.7c-1.6-0.8-3.4-1-5.1-0.7c-0.5,0.2-1.1-0.2-1.7-0.3c-0.5-0.1-0.9-0.5-1.2-0.4c-2.1,0.8-3.7-0.6-5.5-1.3
		c-0.5,0.1-0.9,0.3-1.3,0.5c-0.4,0.3-0.7,0.6-0.9,1.1c-2,0-4,0-6,0c-2,0-3.8-0.7-6.3-0.3c2.4,1.9,5.2,1.8,7.3,3.2v-0.1
		c-0.8,0-1.6-0.1-2.4-0.2c-2-0.6-4-1.2-6-1.9c-0.6-0.3-1.2-0.4-1.9-0.4c-0.6,0-1.3,0.2-1.8,0.6l-0.6-2.1c2,0.4,3.3-0.8,4.6-1.8
		l-0.2-1.4c2.7,0.9,4.8-0.6,6.9-2l5.1-1.4c0-0.6,0-1.1,0-1.5v0.1c0.8,0.1,1.6,0.1,2.4,0c0.6-0.1,1.1-0.3,1.6-0.7
		c0.8-0.6,0.8-1.5-0.1-2.2c-0.3-0.3-0.6-0.6-0.8-0.9l1.8,0.1c0.2-0.6,0.3-1.2,0.5-1.8c0.1-0.2,0.1-0.4,0.1-0.6c0-0.2,0-0.4-0.1-0.6
		c-0.1-0.2-0.2-0.4-0.3-0.5c-0.1-0.1-0.3-0.2-0.5-0.3c-0.2-0.1-0.2-0.7-0.3-1.1c0.5,0.7,1.3,0.8,1.8,0c0.3-0.8,0.6-1.6,0.7-2.4
		c-2.7-1.6-5.8-1.8-8.2-3.6l8.3,2.4l1.2-2.7c-0.3-0.3-0.5-0.5-0.9-0.7c-1.6-0.7-3.2-1.3-4.7-2L181.1,367.2z M239.7,302.4
		c-0.1-0.2-0.2-0.4-0.3-0.5c-0.1-0.1-0.4,0-0.5,0c-0.2,0,0.2,0.3,0.3,0.3c0.2,0,0.4,0,0.6,0c0.4,0.6,0.9,1,1.8,0.1L239.7,302.4z
		 M246.6,485c2.2,1.2,4.6,2.2,7.1,2.8c2.3,0.8,4.6,1.6,7.1,2.3c2.5,1,5.2,1.7,7.8,2.1C261.6,486.9,254.6,484.3,246.6,485L246.6,485z
		 M290.3,557.3c4.2,2,8.7,3.3,13.4,4l-1.1-3.3c-2.7-0.9-5.3-1.8-7.8-2.5C292.2,554.7,292.3,554.7,290.3,557.3L290.3,557.3z
		 M301,553.2c-4.3-1.9-4.6-1.8-7.3,1c2.4,0.8,4.7,1.5,7.1,2.2c0.3,0.1,0.6-0.1,1.1-0.3L301,553.2z M297.9,466.6
		c2.6,0.5,4.5-1,7.1-0.7c-2.3-1.6-5.1-2.4-7.9-2.4C297.3,464.5,297.6,465.5,297.9,466.6L297.9,466.6z M208,392.7l-1.9-2.6
		c-2.8,0-2.8,0-4.4,1C203.8,391.5,205.5,392.7,208,392.7L208,392.7z M235.8,444.7c0.5-1.3-0.1-1.7-0.7-1.9c-1.5-0.6-3-1-5.3-1.6
		C231.6,442.6,233.7,443.8,235.8,444.7z M291.1,398.9c-1.8-0.9-1.9-0.9-2.8-0.5C288.8,399.4,289.7,399.2,291.1,398.9L291.1,398.9z
		 M298.9,551.1c0.3,0.2,0.5,0.4,0.6,0.4c0.3,0,0.5-0.1,0.8-0.2c0,0,0-0.2-0.1-0.3c-0.1,0-0.4-0.2-0.5-0.2
		C299.4,550.8,299.1,550.9,298.9,551.1L298.9,551.1z M276.6,394.4c-0.2-0.1-0.4-0.3-0.6-0.3s-0.4,0.2-0.5,0.3
		c0.2,0.1,0.5,0.3,0.7,0.4c0.1,0,0.2-0.3,0.3-0.4L276.6,394.4z M150.6,171.1c-0.1-0.1-0.2-0.4-0.3-0.4c-0.2,0-0.4,0.1-0.5,0.2
		c0.1,0.1,0.2,0.4,0.3,0.4C150.3,171.3,150.5,171.2,150.6,171.1z"/>
	<path class="st0" d="M76.4,280.2c-0.2,0-0.5,0.1-0.5,0.2c0,0.1,0,0.7,0,1c0,1.4,1.1,2.4,1,3.8c-0.1,1.3,0.1,2.6,0.8,3.7
		c0.2,0.2,0,0.7,0,1c0,1.6,0.6,3.2,1.5,4.5c-0.2,0.1-0.5,0.2-0.5,0.3c0.3,1.3,0.1,2.9,1.4,3.8c0.7,0.5-0.2,0.7-0.1,1.1
		c0.4,2,0.9,3.9,3.1,4.6H83c-0.8-0.1-1.5,0-1.2,1c0.3,0.9,0.6,1.7,1.1,2.5c0.3,0.5,0.8,1,1.4,1.1c0.6,0.2,1.3,0.1,1.8-0.1l1.6-0.4
		c0.2,0,0.3,0,0.5,0.1v2.5c-0.4,0-1-0.2-1.2,0c-0.4,0.4-0.7,0.9-0.9,1.5c-0.5,1,0.1,1.8,1.3,1.8c0.7,0,1.4-0.1,2.1-0.3
		c0.7-0.3,1.3-0.7,1.7-1.2c0.9-1.1,2.1-1.3,3.2-2c0,0.4,0,0.8,0.2,1.2c0.3,0.3,0.7,0.6,1.1,0.9l0.1-0.1c-0.9,0-1.9-0.1-2.5,0.9
		c-0.6,1-1.1,1.8-0.5,2.9v-0.1c-1.4,0-1.5,1.2-1.9,2.1c-0.5,0.9,0.5,1.7,0.8,2.5c-0.4-0.1-1.1-0.4-1.2-0.2c-0.5,0.6-0.8,1.3-1,2.1
		c-0.3,1,0.4,1.4,1.2,1.8c0.2,0,0.2,0.4,0.4,0.6l-2-0.4c-0.2,1.6-1,3,0.7,4c-0.4,0.2-1.2,0.4-1.3,0.6c-0.2,0.9-0.2,1.8,0,2.7
		c0.2,0.5,1.1,0.6,1.8,1c0.2,0.1,0.4,0.2,0.6,0.4l0.1-0.1h-2.1c-1.2,2.1,0,3.4,1,4.7c-0.4-0.5-1-0.3-1,0c-0.1,1,0.1,2.1,0.4,3.1
		c0.3,0.8,1.3,0.9,2.1,1.1c0.2,0,0.3,0.3,0.5,0.5c-0.2,0-0.5,0-0.7,0c-0.1,0-0.1,0.3-0.2,0.4c-0.1,0.1,0.3,0.1,0.3,0.1
		c0,0,0.4-0.4,0.5-0.6l7.1,2.2l0.1-0.1c-1.8-0.1-2.5,1.3-3.3,2.5c-0.2,0.2,0.2,0.8,0.3,1.2l0.1-0.1c-1.8-0.2-2.6,1.2-3.7,2.4
		l0.5,1.5h-1c-0.6,2.3,1,3.6,2.2,5.1c-0.3,0-0.6,0-0.8,0.1c-0.1,0-0.1,0.4,0,0.7c0.4,1.3,0.5,2.8,2,3.5c-1.2,1.3-0.2,2.6,0.3,3.6
		c0.5,1,1.4,1.4,2.1,2l-1.3-0.2c0.5,3.5,0.5,3.5,2.9,5.1l0.1-0.1c-0.5,0-1.2-0.2-1.5,0.4c0.5,3.2,0.5,3.2,3.4,4.5l0.3,0.2h-2.1
		c-0.1,0.8,0,1.6,0.3,2.3c0.3,0.7,0.7,1.4,1.3,1.9c-0.2,0.3-0.5,0.5-0.5,0.8c-0.1,0.8,0,1.7,0.3,2.5c0.3,0.8,0.9,1.4,1.6,1.9
		l-1.4,0.3l0.6,2.4c3-0.7,3.1-0.7,3.2-1.3l-0.5-0.9c1.9,0.5,4,0.3,5.8-0.6c0.5-0.2,1.2-0.2,1.1-1.2l-2-1.1l2.6-0.1l0.2-3l-2-1.2
		c1.5,0.3,3.3-0.4,4.3,1.5c-0.2,0.2-0.6,0.5-0.6,0.7c0,0.5,0.1,1.1,0.3,1.6c0.2,0.5,0.5,0.9,1,1.3c1.1-0.7,2.7-0.4,3.6-1.8l-2.3-1.2
		c0.8,0,1.6,0.2,2.4,0.4c1.3,0.4,2.7,0.5,4.1,0.2c1.4-0.3,2.6-1,3.6-2v0.1c0.7,0,1.5-0.2,2,0.7V381l-4.2,2.3l1.1,1.5l0.1-0.1
		c-1.1-0.3-2.2-0.4-3.2-0.1c-1.1,0.3-2,0.9-2.8,1.7l1,1.3l0.1-0.1c-1-0.3-2.1-0.3-3.1,0c-1,0.3-1.9,0.8-2.6,1.6l0.6,1.4v-0.1
		c-0.9-0.2-1.9-0.2-2.8,0.1c-0.9,0.3-1.7,0.8-2.3,1.6v1.2h0.2c-1-0.2-2.2-0.3-2.6,0.9c-0.1,0.3-0.2,0.5-0.2,0.8c0,0.3,0,0.6,0.1,0.8
		c0.1,0.3,0.3,0.5,0.5,0.7c0.2,0.2,0.5,0.4,0.7,0.4c0.2,0.1,0.2,0.6,0.4,0.9c-0.5-0.7-1.2-0.8-1.7-0.1c-0.3,0.6-0.6,1.2-0.8,1.9
		c0,1.5,2,1,1.8,2.4l-0.5-0.1c0.8,1.3,1.8,2.6,2.8,3.8c0.7,0.6,1.5,1.2,2.4,1.6v-0.1l-1.5,0.2c0.4,1.8,0.4,3.5,2.2,4.4
		c0.2,0,0.2,0.6,0.2,0.9h-0.8l0.7,3.4l5,1.8v-0.1c-1.5,0.7-2.8-0.6-4.3-0.4c-0.2,2.6-0.2,2.6,1.3,4.2v-0.1c-0.2,0.5-0.6,1-0.5,1.5
		c0.2,1.4,0.9,2.7,1.9,3.8v0.2c0,0.5,0.1,0.9,0.2,1.4c0.6,1.1,1.4,2,2.4,2.8c1,0.7,2.1,1.2,3.4,1.4c2.6,0.7,3.2,0.5,4.7-2.2
		c-1.1-0.4-2.2-0.7-3.3-1.1c-1.1-0.4-2.1-0.9-3.2-1.3c2.7,0,5,1.7,7.7,1.9c0.5-0.2,1-0.6,1.4-1c0.4-0.4,0.7-0.9,0.9-1.5
		c-0.5-0.3-1-0.6-1.5-0.8l-3.5-1.4v0.1c1,0.1,2,0.3,3,0.6c2.1,0.7,4.1,1.4,6.2,2.1l0.1-0.1h-3.1c-0.4,0.9-0.8,1.8-1.1,2.5l1.2,1.3
		v-0.1c-1,0-2-0.1-2.8,1c-0.3,0.4-0.4,0.9-0.5,1.4c-0.1,0.5,0,1,0.1,1.5v-0.1c-0.3-0.1-0.6-0.1-1,0c-0.3,0.1-0.6,0.3-0.8,0.5
		c-1,0.9-0.8,2.3-1.3,3.4c-0.3,0-0.8,0-0.9,0.2c-0.7,1.1-1.4,2.3-2,3.6c-0.3,0-0.7-0.1-0.8,0c-1.1,0.8-1.2,2.2-1.8,3.3
		c-0.3,0.5-0.4,1.1-0.5,1.6c-0.1,1.8,0,1.9,1.9,2.6c0.3,0.1,0.6,0.3,0.9,0.5v-0.1c-0.4,0-0.9,0.1-1.3,0.2h-1.5v2.8l1.9,1.3h-1.7
		c-0.4,2.9-0.3,3.2,1.8,4.2c0.5,0.2,1.2,0.1,1.3,0.8V460l-2.3,0.1c0.9,2.3,1.6,4.1,4.1,4.6c0.9,0.3,1.7,0.6,2.5,1.1l-3.4-0.4
		c0.2,1,0.6,2,1.3,2.8c0.6,0.8,1.5,1.5,2.4,1.9c0.4,0.2,0.7,0.5,1,0.7c0,0.1,0,0.3,0,0.4c1.5,2.4,2.8,2.9,5.5,1.8l-3.4-1.7
		c1.2,0.2,2.5,0.5,3.7,0.8c2.7,0.6,5.3,1.6,7.7,2.8l-4.9-1.2c-0.3,0-0.6,0.1-0.8,0.2l-0.7,2.6l1.5,1.2l-1.8,0.2c2,1.6,2.5,1.9,3.9,2
		c0.4,0.1,0.8,0,1.2-0.1s0.7-0.4,0.9-0.7c0.8-0.1,1.6-0.3,2.3-0.7c0.7-0.4,1.3-0.9,1.8-1.6l-1.3-1.2c0.7,0.1,1.4,0.2,2.1,0.2
		c1.7,0,2.6-1,2.9-3.1c1.3,0.5,2-1,3.2-1.2c-0.1,0.2-0.2,0.5-0.3,0.7c0,0.3,0,0.5,0.1,0.8c0.1,0.2,0.2,0.5,0.4,0.7
		c0.2,0.2,0.4,0.3,0.6,0.4c-0.4-0.1-0.8,0-1.2,0.1c-0.4,0.1-0.7,0.3-1,0.6c-0.3,0.3-0.5,0.6-0.7,1c-0.2,0.4-0.2,0.8-0.2,1.2
		c4.5,2.2,6.1,2.3,10.6,0.4c-1.2-1.1-2.9-1.1-4.2-1.8c-1.4-0.7-2.6-0.5-3.4-1.6c2.7,0.8,5.3,1.5,8,2.4c1.2,0.4,2.6,0.5,3.9,0.3
		c1.3-0.2,2.5-0.7,3.6-1.5c-2.4-0.8-4.8-1.5-7.1-2.3c-1-0.4-2.3-0.3-3.1-1.4v0.1c0.7,0,1.4,0,2,0.2c4.2,1.3,8.3,2.7,12.5,4.1
		c0.4,0.2,0.7,0.5,1,0.8c-1.8-0.1-3.6,0.4-5,1.6v1.3c-1-0.1-2-0.1-3,0.2c-1,0.3-1.9,0.7-2.7,1.4l0.7,1.4c-1.3-0.4-2.6-0.3-3.8,0
		c-1.2,0.4-2.4,1.1-3.2,2.1c-1.6,0.2-3.2,0.8-4.5,1.8c-0.3,0.2-0.3,0.8-0.5,1.2v-0.1c-2-0.1-3.9,0.5-5.5,1.7l0.5,1.2v-0.1
		c-1.6-0.2-3.1,0.1-4.6,0.8c-1,0.6-1,0.6-0.5,2.2V493c-2.3,0.2-2.8,1.8-2.9,3.7c-0.4,0.2-0.9,0.4-1.2,0.6c-0.3,0.4-0.6,0.8-0.8,1.2
		c2.1,1.7,4.5,3,7.1,3.8c2.2,0.6,4.4,1.4,6.6,2.1c0.4,0.2,0.7,0.4,1.1,0.7c-0.9-0.2-1.8-0.2-2.7-0.5c-2.2-0.6-4.4-1.4-6.9-2.1
		l-0.7,3.1c0.7,0.3,1.5,0.6,2.2,1c1,0.5,2.3,0.3,3.1,1.4v-0.1c-0.9-0.1-1.8-0.2-2.7-0.5c-1.1-0.6-2.4-0.8-3.7-0.8
		c-1.3,0.1-2.5,0.4-3.6,1.1c0.4,0.5,0.7,1.3,1.2,1.5c1.3,0.3,2.6,0.9,3.8,1.6l-4-0.5c-0.5,0.9,0,1.8,0.2,2.6c0.2,0.4,0.4,0.7,0.7,1
		c0.3,0.3,0.7,0.4,1.1,0.5c0.5,0.2,1.2,0.2,1,1v-0.1l-1.8-0.1c0.3,3.3,0.4,3.6,3.1,4.4c2.6,0.8,5.5,1.8,8.2,2.8
		c0.4,0.2,0.7,0.4,1.1,0.7c-1.5,0-3-0.3-4.4-1c-2-0.5-3.9-1.2-5.9-1.9c0.3,3.1,0.7,3.6,3,4.6c0.8,0.4,1.9,0.2,2.3,1.2l-3.2-0.3
		c0.1,1.2,0.6,2.2,1.4,3.1c0.8,0.9,1.8,1.4,3,1.7c4.3,1.2,8.4,2.7,12.6,4.1c0.4,0.2,0.7,0.5,1,0.8c-0.9-0.1-1.8-0.3-2.7-0.5
		c-3.7-1.2-7.3-2.4-11-3.6c-0.4-0.1-0.9-0.2-1.4-0.2c0.7,3.4,0.8,3.6,3.4,4.5c2,0.7,4,1.3,6,2c0.3,0.1,0.4,0.4,0.7,0.7
		c-1-0.2-2-0.4-3-0.6c-1.4-0.4-2.9-0.8-4.3-1.3c-0.1,2.2,0.2,2.9,2.4,4.8c-0.4,0.4-0.8,0.9-0.6,1.5c0.2,0.7,0.5,1.6,0.9,2.5
		c3.8,1.2,7.7,2.5,11.5,3.8c1,0.4,2.3,0.2,3,1.4c-0.9-0.1-1.8-0.3-2.7-0.5c-3.7-1.1-7.3-2.3-11.2-3.6v2.1c1.1,0.8,2.2,0.3,3.2,0.3
		c1.9,0,3.4,0.4,4,2.6c0.2,0.7,1.1,1.3,1.8,1.9l-1.9,0.2l-0.7,2.6c0.3,0.3,0.6,0.5,0.9,0.7c4.6,1.5,9.3,2.9,13.8,4.5
		c0.9,0.3,2.1,0.2,2.6,1.3c-0.9-0.1-1.8-0.3-2.7-0.5c-4.1-1.3-8.2-2.6-12.4-3.9c-0.5-0.2-1.1-0.4-1.7-0.6c-0.2-0.1-0.3-0.1-0.5-0.1
		c-0.2,0-0.3,0.1-0.5,0.1c-0.2,0.1-0.3,0.2-0.4,0.3s-0.2,0.3-0.2,0.5c-0.4,1.2-0.2,2.1,0.7,2.4c1.6,0.6,3.3,1.1,5,1.7
		c2.2,0.7,4.4,1.4,6.6,2.2c0.4,0.2,0.7,0.5,1,0.8c-0.8,0-1.6-0.2-2.4-0.3c-3-0.9-6-1.9-8.9-2.9c-0.5-0.2-1.1-0.2-1.8-0.4
		c-0.3,0.5-0.4,1.1-0.4,1.7c0,0.6,0.1,1.2,0.4,1.7l7.1,2.4c0.4,0.2,0.7,0.5,1,0.8c-1.5,0-3-0.3-4.3-1c-1.2-0.4-2.5-0.7-3.8-1v2.9
		c0.3,0.2,0.6,0.4,0.9,0.7c0.7,0.6,1.9,0.2,2.2,1.3h-2.5c-0.3,0.5-0.4,1-0.4,1.6c0,0.5,0.1,1.1,0.4,1.6c5.3,2,10.8,3.4,16,5.7
		c-5.3-0.9-10.3-3.2-15.7-4.5c-0.3,1.1-0.2,2.3,0.3,3.3c5,2.1,10.4,3.2,16.2,5.6c-0.7,0.1-1.5,0.1-2.2,0c-3.8-1.2-7.6-2.5-11.3-3.7
		c-0.6-0.2-1.1-0.2-1.8-0.4c-0.4,1.5-0.4,1.5,0.2,3.3c4.9,2.1,10.3,3,15.1,5.3c0,0.1,0,0.3,0,0.4c-5-1.1-9.6-3.4-14.9-4.4l0.8,3.6
		L177,594c-1.8,0.7-2.8-0.2-3.9-0.5c-1.1-0.3-2.5-0.8-3.7-1.2l-3.7-1.1l-3.6-1.1c0,3.3,0,3.4,2.6,4.3c2.9,0.9,5.8,1.8,8.7,2.8
		c0.4,0.2,0.8,0.4,1.1,0.8c-3.9-0.4-7.4-2.4-11.3-3c-0.1,1,0,2,0.3,3c0.2,0.2,0.5,0.4,0.8,0.6c1.2,0.5,2.4,0.9,3.5,1.4
		c0.4,0.2,0.7,0.5,1,0.7l-4.6-0.7c-0.4,1.2,0.4,2.1,0.5,3.3l8.8,3.1c-2.8,0.4-5.3-1.5-8.2-1.5l0.8,3.2c3,1.5,6.4,1.9,9.1,4l-8.1-2.5
		c-0.7,1.5,0.3,2.5,0.6,3.6c4,1.6,8.1,2.5,11.9,4.3c-3.8-0.3-7.3-2.2-11-2.9c-0.7,0.8,0,1.4,0.2,2c0.2,0.6,0.4,1.1,0.7,1.6l9.3,3.2
		v0.4c-0.5,0-0.9,0-1.4-0.1c-2.2-0.7-4.4-1.4-6.7-2.1c0.1,2.9,0.5,3.6,2.7,4.4c2.2,0.8,4,1.3,6.2,2c-1.4,0.4-1.4,0.4-3.3-0.2
		c-1.1-0.4-2.2-0.6-3.5-1c0.5,2.5,1.4,4,3.9,4.6c2.1,0.3,4.1,1.1,5.8,2.3c-2.7,0.2-4.6-1.6-7.2-1.4l1.8,3.6l7.7,2.7
		c-0.4,0.9-1,0.5-1.5,0.4c-1.5-0.6-3.1-1-4.7-1.3c0.7,3.3,1,3.4,3.6,4.5c1.8,0.4,3.5,1.1,5.1,2.1c-2.3,0.3-4-1.3-6.1-1.1
		c0.1,1.1,0.6,2,1.3,2.8c0.7,0.8,1.6,1.3,2.7,1.6c1,0.2,2,0.6,3,0.9c0.2,0.1,0.4,0.2,0.5,0.4s0.2,0.4,0.3,0.6l-4.6-1.3
		c0.1,2.7,0.7,3.6,2.7,4.3c1.3,0.5,2.8,0.4,4.1,1.8c-1.8,0.4-3-1.1-4.4-0.6c0,0.2-0.2,0.5-0.1,0.7c0.3,0.9,0.7,1.8,1.1,2.7l4.8,1.9
		l-0.1,0.5l-3.5-0.6c-0.4,1.3,0.2,2.2,0.7,3.3l4.4,1.8c-0.7,0.9-1.2,0.2-1.8,0.1c-0.6-0.1-1.1-0.2-1.9-0.3c0,1.2,0.4,2.4,1,3.4
		l3.8,1.5v0.4l-2.8-0.2l1,3.2l3.4,1.6l-2.2,0.4c0,1,0.4,1.9,1,2.7c0.6,0.8,1.5,1.3,2.4,1.6l-1,0.9c-0.2,2.2,1.9,3.2,2.3,5.2
		c0.4,1.9,1.4,3.7,1.8,5.7c-1-1.6-2.1-3.1-3-4.7c-0.4-0.7-0.9-1.4-1.6-1.9c-0.6-0.5-1.4-0.9-2.2-1.1c-0.8-0.2-1.5-0.6-2.4-0.9
		c1.1-1.2,2,0.3,2.9,0c0-0.2,0.2-0.4,0.1-0.5c-0.5-1.2-1.4-2.2-2.4-3c-1-0.8-2.2-1.4-3.5-1.6c-1.9-0.4-3.8-1.2-5.7-1.8
		c-0.6-0.2-1.3-0.6-2.5-1.2c3.7-0.1,6.3,2.2,9.6,1.9c-0.3-1-0.9-2-1.7-2.7c-0.8-0.8-1.7-1.3-2.8-1.6c-2.2-0.5-4.3-1.4-6.4-2.1
		c-0.6-0.2-1.1-0.6-1.5-1.1c0.5,0,1,0.1,1.4,0.2c2,0.6,4,1.2,6.1,1.9c-0.5-1.9-0.5-2.1-1.6-3.1c-0.6-0.6-1.2-1.1-2-1.4
		c-2.1-0.7-4.2-1.6-6.2-2.6c0.5-0.1,0.9-0.1,1.4,0c1.3,0.4,2.6,0.8,4.4,1.4c-1.4-2.8-2.8-4.7-5.6-5.3c-1.3-0.4-2.6-0.9-3.8-1.4
		c2.2-0.5,3.4,0.9,4.9,0.5c-1-3.3-3.7-4.8-6.7-6l2.8,0.4c-0.3-1.4-1.1-2.7-2.1-3.7c-1.2-0.8-2.6-1.3-3.9-1.8c0.9-1,1.9,0.6,2.6-0.3
		c-0.1-3.6-2.9-4.1-5.3-5.3l3.1,0.3c-0.2-1.3-0.7-2.5-1.5-3.6l-5.4-2c1.8-0.9,2.9,0.9,4.5,0.1c0-1-0.3-1.9-0.9-2.6
		c-0.6-0.7-1.4-1.3-2.4-1.5c-1.8-0.5-3.5-1.1-5.3-1.7c0.1-0.9,0.7-0.5,1-0.4c1.7,0.4,3.3,1,5.1,1.5c-0.4-3-0.6-3.2-2.8-4.4
		c-0.3-0.1-0.4-0.4-0.6-0.7v0.1l1-0.3c-0.6-3-1.1-3.8-3.4-4.5c-3.1-1.1-6.1-2-9.2-3c-0.4-0.2-0.7-0.5-1-0.8c1.6,0,3.2,0.4,4.7,1.1
		c2,0.5,3.9,1.2,6,1.8c-0.8-3.3-1.4-3.8-3.9-4.8c-1.3-0.5-3-0.4-3.9-1.8l4.6,0.7c-0.5-1.2-1.3-2.3-2.2-3.2c-1-0.9-2.2-1.5-3.4-1.9
		c-3.5-1-7.1-2.3-10.6-3.5c-0.4-0.2-0.7-0.5-1-0.7l3.4-0.5c-0.1,0.4-0.4,0.9,0.3,1.2c1.9,0.6,3.7,1.3,5.6,1.9c0.6,0.1,1.2,0.1,1.8,0
		c-0.5-0.4-1-0.7-1.5-1c-1-0.4-2-0.7-3-1c-1-0.3-2.2-0.7-3.3-1.1l-3.5-0.3h0.1c-0.3-0.3-0.7-0.6-1-0.8c-1.6-0.8-3.1-1.7-4.5-2.7
		c-2.1-1.8-4.5-3.2-7.1-4.3l1.6-0.4c-1.1-1.5-1.1-1.5-2.5-0.7l1,1.2c-2-0.4-3.9-0.9-5.7-1.6c-2.9-1.1-6-2-9-2.9
		c-0.4-0.1-0.8-0.4-1.1-0.7c3.5,0.3,6.7,2.2,10.6,2.7l-0.9-3.6c-1.9-0.7-3.8-1.3-5.7-1.9c-0.4-0.2-0.8-0.4-1.1-0.7v0.1
		c1.6-0.3,2.9,0.7,4.3,0.9c0.8,0.1,1.5,0.4,2.5,0.6l0.3-3.1l-2.1-1.4h2.3c0.5-0.4,0.9-1.1,1-1.8c0.1-0.7,0-1.4-0.4-2
		c0.3,0.1,0.7,0.1,1,0c0.3-0.1,0.6-0.3,0.8-0.6c0.6-0.9,1-2,1.1-3.1v0.1c1.3,0,1.8-0.9,2.3-2c-0.9-1.1-2.1-1.9-3.5-2.2l-10.7-3.6
		c-0.8-0.2-1.5-0.5-2.3-0.9c-0.2-0.1-0.2-0.6-0.3-1c0.2,0.1,0.4,0.2,0.6,0.2c0.2,0,0.4,0,0.6-0.1l-2-3.7l-5.9-2.3v0.1
		c0.9,0,1.8,0.1,2.6,0.3c1.1,0.2,2.2,0.6,3.5,1l0.4-3l-1.4-1.2v0.1l1.6-0.3c0.6-2.4,0.6-2.4-0.7-4.3c0.6,0,1.3,0.2,1.4-0.6
		c0.1-0.4,0.1-0.8,0-1.3c-0.1-0.4-0.3-0.8-0.5-1.1c-0.3-0.3-0.6-0.6-1-0.8c-0.4-0.2-0.8-0.3-1.2-0.3c-0.6,0-1.2,0-1.8,0
		c-1,0-1.8,0-2.2-1.2c-0.2-0.6-1.2-0.8-2.3-1.5l2.5,0.3c0.3-0.7,0.4-1.4,0.3-2.1c-0.1-0.7-0.4-1.4-0.9-1.9v0.1
		c1.2-2.1,1.1-2.9-0.3-4.4c-0.2-0.4-0.4-0.7-0.5-1.2l1.2,0.5c0.2-1.2,0.1-2.4-0.4-3.6c-0.1-0.4-0.1-0.9,0-1.3c0-0.5,0-0.9,0-1.4
		c0-0.3,0-0.6-0.1-0.9c-0.1-0.3-0.2-0.6-0.4-0.8s-0.5-0.5-0.7-0.6c-0.3-0.1-0.6-0.2-0.9-0.2c-0.2,0-0.3-0.3-0.5-0.4v0.1
		c0.3,0,0.7,0,1-0.1c1.2-0.2,1.2-0.2,1-2.1c-0.4-0.1-0.8-0.2-1.3-0.2c-1.7-0.5-3.3-1.5-4.6-2.7c-6.4-4.2-13.7-6.6-21.4-7
		c-0.2,0-0.5,0-0.7-0.1c-0.1,0-0.3-0.1-0.4-0.2l0.8-2.2c0.2,0.1,0.4,0.3,0.5,0.3c1.1,0,1.4-0.9,1.8-1.8c0.4-0.8-0.1-1.3-0.7-1.8v0.1
		c0.6-0.3,1.4-0.4,1.4-1.3c0-1.3-0.2-2.6-1.6-3.2c-1.4-0.6-2.8-1-4.2-1.5c-0.1,0-0.2-0.1-0.3-0.1c-0.1-0.1-0.2-0.2-0.2-0.3
		c-0.1-0.1-0.1-0.2-0.1-0.3c0-0.1,0-0.2,0-0.3c0.1-1.4-0.3-2.8-0.9-4c-0.1-0.1,0-0.5,0-0.7c0.2-0.3,0.4-0.7,0.5-1.1
		c0.1-0.4,0.1-0.8,0-1.2c-0.1-0.4-0.2-0.8-0.5-1.1c-0.2-0.3-0.5-0.6-0.8-0.8v0.1l1-0.1c0.4-0.7,0.7-1.5,0.7-2.3
		c0-0.8-0.2-1.6-0.5-2.3c0.3,0,0.8,0,0.8,0c0-1,0-2,0-3c0-0.4,0-0.9,0-1.3c0.2-1.5,0.5-3.1-1.2-4c0,0,0.5-0.9,0.3-1.3
		c-0.1-0.5-0.4-0.9-0.7-1.3c-0.3-0.4-0.7-0.7-1.2-0.8c-0.5-0.2-1-0.3-1.5-0.2c-0.5,0-1,0.2-1.4,0.5c-0.7,0.5-1.2,1-1.8,1.6
		c-0.5,0-1.1-0.3-1.6-0.2c-1.1,0.4-2.2,1-3.2,1.5l-0.2,1.5c-0.4-0.3-0.8-0.5-1.2-0.5s-0.9,0-1.3,0.3c-1,0.4-2,1-3.1,1.5
		c0.3,0.6,0.5,1.1,0.7,1.6l-3.4-1.3l0.2-0.9c0.3,0.1,0.7,0.3,0.9,0.2c1.5-0.6,2.8-1.6,3.8-2.9c0.2,0,0.4,0.3,0.6,0.3
		c1.7-0.5,3.3-1.6,4.3-3.1c1,0.5,1.3-0.6,1.9-1c1-0.6,0.9-1.7,1.1-2.7c0.4,0,1,0.4,1.2,0.2c0.8-0.7,1.5-1.4,2.3-2.1l-1-1.3l-0.1,0.1
		c0.8,0.2,1.7,0.2,2.5-0.1c0.8-0.3,1.5-0.9,2-1.6c0.3-0.3,0.6-0.6,0.9-0.9c0.6-0.7,1.8-1,2-2.4l-3.8,1.1l2,1.4
		c-0.7-0.1-1.4-0.2-2-0.4c-2.6-1-4.9,0-7.3,0.8c-0.2,0.1-0.4,0.5-0.5,0.8v-0.1c-2.1,0-4.2,0-6.3,0.2c-0.9,0.2-1.8,0.4-2.7,0.8l0.7,1
		c-1.1-0.2-2.2,0-3.2,0.3c-1,0.3-2,0.9-2.7,1.7l1,0.9c-0.7-0.2-1.4-0.4-2.2-0.4c-0.6,0.1-1.3,0.2-1.9,0.4l0.6-1.5
		c0.6,0,1.1-0.1,1.6-0.4c1.1-0.8,2.2-1.7,3.3-2.5l3.5-2c-0.2-0.7-0.3-1.2-0.4-1.8h-0.1c0.4,0.3,0.8,0.4,1.3,0.4
		c0.5,0,0.9-0.1,1.3-0.4c1-0.7,1.9-1.7,2.4-2.8c1.6-0.7,2-2.4,2.9-3.6c1.6-0.7,2-2.5,3.1-3.7c1.5-0.7,1.9-2.3,2.8-3.6
		c1.8-0.4,2-2.2,2.8-3.6c0.5,0.4,0.9,0,1.1-0.3c0.7-0.9,1.2-1.9,1.9-2.8c0.7-0.9,1.5-1.4,2.3-2.1c0.1-0.1,0.2-0.4,0.2-0.7l-1-0.9
		v0.1c2,0.2,3.3-0.8,4.3-2.9l-1.3-0.8v0.1c0.8,0,1.6,0,2.4-0.2c0.3-0.1,0.5-0.3,0.7-0.5c0.2-0.2,0.3-0.5,0.3-0.8
		c0-0.3,0-0.6-0.1-0.8c-0.1-0.3-0.2-0.5-0.4-0.7c-0.5-0.5-1.5-0.7-1.7-1.6l0.8,0.2c0.3-2.3-1.5-3.6-2.2-5.2h0.3c0-0.4,0-0.8-0.1-1.2
		c-0.1-0.8-0.4-1.5-0.9-2.1c-0.5-0.6-1.1-1.1-1.8-1.5v0.1c0.7,0,1.4,0,1.3-1c-0.2-1.6-0.5-2.1-2.3-4.3l0.8,0.3
		c0.1-0.4,0.2-0.9,0.2-1.3c0-0.4-0.2-0.9-0.4-1.3c-0.3-0.6-0.7-1.1-1.2-1.6c-0.3-0.3-0.6-0.6-0.9-0.9l1.6,0.5l-1-3.7
		c-0.2-0.4-0.3-0.9-0.3-1.3c0.1-1.7-0.5-3.4-1.5-4.8c0.2,0,0.7-0.1,0.7-0.2c0-0.9-0.2-1.8-0.5-2.6c-0.4-0.8-0.9-1.5-1.6-2.1
		c0.4,0.5,0.7,0.4,1.2-0.2l-3.4-3.2c-1.6,0.9-3.5,1-4.7,2.7c-0.6-0.2-1.3-0.4-2-0.4c-3.1,0-6.2,0-9.4,0l0.4,1.6
		c-1.1,1.2-1.1,1.2-2.3,1.2c-0.9,0-1.8,0-2.7,0.1c-0.6,0.2-1.2,0.5-1.8,0.8h0.1l-0.5,2.1l-2.6,1.5c-2.9-1.8-6-1-9-0.5
		c-0.9,0.1-1.8,0.2-2.3,1.2c-2.4-1-4.5,0.1-6.7,1c-1,0.6-2.3,0.7-3.4,0.4c0.2-0.3,0.4-0.7,0.5-0.7c1.9-0.4,3.8-1.3,5.3-2.6
		c1.5-0.3,2.9-0.8,4.2-1.5c1.4-0.9,3-1.3,4.6-1.1c1,0,2.1,0,3.3-0.1c0.3-2.3,3.1-3.3,2.4-6c0.7-0.6,1.6-1,2.5-1.1
		c0.9-0.1,1.9,0,2.8,0.4c0.4,0.2,0.8,0.2,1.2,0.1c0.4-0.1,0.8-0.2,1.1-0.5c0.9-0.7,2.1-1,3.1-1.6c1-0.6,1.8-0.9,1.3-2.1
		c0,0,0.2-0.2,0.3-0.4c0.4-0.4,1.1-0.6,1.2-1.1c0.8-2.3,1.6-4.7,0.6-7.1h-0.1c0.4-0.7,0.5-1.4,0.4-2.2c-0.1-0.8-0.4-1.5-1-2
		c-0.2-0.3-0.4-0.6-0.5-0.9c0.2-0.1,0.7-0.2,0.7-0.3c-0.1-0.8-0.4-1.5-0.8-2.1c-0.4-0.6-0.9-1.2-1.6-1.6c-0.5-0.4-1.4-0.7-1.6-1.3
		c-0.5-1.9-2.5-3.2-2.4-5.3c0-1.5,0.7-3.1-0.9-4.2c0.1-0.1,0.2-0.3,0.3-0.4c0.9-1.9,0.8-2.5-0.8-3.4c-1.6-0.9-3.1-1.6-4.7-2.4
		c-0.6-0.3-1.1-0.7-1.8-1l1.1,0.5c-0.3-0.7-0.4-1-0.6-1.2c-2.4-2.1-4.5-4.5-7.5-5.7c-0.8-2-2.8-2.5-4.4-3.4c-1.7-1-3.5-1.9-5.3-2.7
		c-3-1-5.4-3.2-8.5-4.1c-0.5-0.1-1-0.4-1.3-0.8c-0.3-0.4-0.4-0.9-0.4-1.5c3.3,1.2,6.7,2.3,9.9,3.6c1.1,0.4,2.3,0.6,3.4,0.5
		c1.2-0.1,2.3-0.4,3.3-1c2.8-1.4,5.6-2.8,8.4-4.3c0.9-0.6,1.7-1.3,2.4-2c1.1,0.7,1.7-0.4,2.4-0.8c0.7-0.4,1.5-1,1.5-1.4
		c-0.1-0.7,0.4-0.9,0.5-1.3c0.1-0.6,0-1.2-0.1-1.8c-0.4-2.4-0.5-4.8-0.3-7.2c0-1.3,0.2-2.5,0.2-3.8c0.3-2.4,0.6-4.9,0.9-7.3
		c0-0.7-1.1-1.5,0-2.2c-0.2-1-0.4-2.1-0.5-3.1c-0.1-1,0-1.8-0.1-2.8c0-0.1,0-0.2,0-0.3c-0.3-0.6-0.4-1.5-0.8-1.9
		c-1.1-0.7,0.5-0.6,0.3-1.1c-0.2-0.7-0.3-1.4-0.4-2c-0.1-0.6-0.4-1.1-0.6-1.6c-0.1-0.6-0.2-1.4-0.3-2.1c-0.1-0.6-0.2-1.1-0.5-1.7
		c-0.4-0.5-0.6-1.2-0.7-1.9c0-0.6-0.2-1.2-0.5-1.7c-0.5-1-1.1-2-1.6-3.1v-0.1c0.4-1.3-0.5-2.2-1.1-3.1c-1.7,0.1-3.3,0.4-4.9,0.8
		c-1.8,0.6-2.9-0.8-4.8-0.6c0.7-1.5,1.2-2.7,1.8-3.8c0.5-1.1,1.4-2.1,2.4-3.6c-0.7,0-1.3,0.1-2,0.2c-1.1,0.3-2.2,0.7-3.7,1.2
		c0.5-1.5,0.7-2.6,1.1-3.6c1-2.9,1.1-6,0.3-8.9c-0.7-2-1.3-2.7-3.2-2.6c-3.5,0.2-7,0.2-10.5,0c-1.5,0-3,0.3-4.4,0.9
		c-1.2,0.4-2.5,0.6-3.8,0.4v0.1c0.3-0.3,0.6-0.7,1-0.8c1.3-0.5,2.6-0.9,4-1.3c2.1-0.6,3.9-2,5.2-3.8c1.1-1.5,2.3-2.8,3.5-4.3v-0.1
		c2.3-1.1,3.5-3.3,5.3-5c1.7-1.8,3.2-3.7,4.5-5.8c0.5-0.6,0.9-1.3,1.1-2c0.2-0.8,0.2-1.6,0.1-2.3h-3.9c-0.4-1.1-0.5-2.4-0.4-3.6
		c0-0.9-0.3-1.6-1.4-1.7c1.6,0.4,1.6,0.3,1.8-1c-0.7,0.2-1.6,0-1.8,1.1h-3.2c2.4-3.9,2.6-4.5,2.5-8.1c-1.2-0.3-2.4-0.6-3.5-1.1
		c-1.1-0.6-2.2-1.3-3.2-2L11.4,200l4.1-2.6c-0.6-0.6-1-1.1-1.4-1.6c-0.4-0.5-0.7-0.9-1-1.4c-1.4-2.3-2.3-5-2.5-7.7
		c-0.9-6.2-1.6-12.4-2.3-18.6c-0.8-7.1-1.7-14.2-2.5-21.5c-0.6-5-1.2-10.1-1.8-15.1c-0.6-5.1-1.1-10.3-1.7-15.5
		c-0.7-6.9-1.5-13.9-2.2-20.8c-0.1-0.9,0-1.9,0.2-2.8c1.1,2.9,1.9,5.8,2.6,8.8c1.5,5.8,2.9,11.7,4.4,17.5c1.5,5.8,3,11.4,4.5,17.1
		c1.5,5.7,3.1,11.6,4.7,17.4c1.1,4,2.1,8,3.2,11.9c1.1,4,2.3,8.2,3.5,12.2c1.1,3.7,2.1,7.5,3.2,11.2c1.4,4.8,3,9.4,4.8,14
		c1,2.5,2.2,4.8,3.1,7.4c0.7,1.7,1.6,3.4,2.5,5.1c0.7,0.1,1.4,0.1,2.1,0c1.2-0.2,2.4-0.2,3.5,0c2.1,0.2,4.2-0.3,6-1.5
		c0.3-0.2,0.4-0.6,0.5-0.9v-0.1c0.3,0.1,0.7,0.4,0.9,0.3c0.7-0.3,1.5-0.7,2.2-1.1c0.2,1.9,0.1,1.8-0.9,2.8c-1,1-1.8,1.8-2.6,2.8
		c-1.7,0.7-3.1,1.8-4.1,3.3c-1,1.5-1.6,3.3-1.6,5.1c0,0.8,0.2,1.6,0.8,2.2c0.9,1.1,1.7,2.4,2.2,3.8c0.4,0.9,0.9,1.6,1.6,2.3
		c0.8,0.8,1.4,1.7,1.9,2.7c0.6,1.1,1.5,2.1,2.5,3c1.5,1.1,2.6,2.6,4.1,3.7c1.4,1.1,3.1,1.8,4.8,2c0.5,0.1,0.9,0.1,1.4-0.1
		c0.4-0.2,0.8-0.5,1-0.9c1.9-0.4,3.6-1.4,4.9-2.8l3.8-1.5l-1.4,2.2h0.1c-0.2,0-0.5,0-0.7,0.1c-1.2,1-2.4,2.1-3.5,3.2l-3.7,3.2
		c-0.3,0-0.5,0.2-0.7,0.4c-0.2,0.2-0.2,0.5-0.2,0.8c0,1,0.1,2,0.2,3v0.4c-0.4,2,0.6,3.8,0.5,5.8c0,1.9,0.3,3.8,0.7,5.7
		c0.5-0.1,1-0.4,1.4-0.7c0.4-0.4,0.7-0.8,0.8-1.3c1.1-0.4,2.3-0.4,3.4-0.2c1.1,0.3,2.2,0.8,3,1.6c0.7,0.6,1.5,1,2.2,1.5l-1.8-0.5
		c0.2,0.8,0.4,1.3,0.5,1.7c0.4,1.2,0.7,2.5,2,3.1c-1.3,1.1-0.3,2.4,0,3.6c0.3,0.7,0.4,1.5,0.5,2.3c0.1,1.5,0.6,2.9,1.5,4.1
		L76.4,280.2z M151,477.7l-1.3,2c0.8,0.2,1.6,0.2,2.4,0c0.8-0.1,1.5-0.4,2.2-0.9L151,477.7z M124,433.5l-1.8,1.2
		C123.5,435.3,123.9,434.5,124,433.5z"/>
	<path class="st0" d="M431.9,127.9c0.8,0.1,1.6,0.2,2.4,0.4c2.2,0.7,4.4,1.4,6.7,2.1c0.6,0.2,1.3,0.3,2,0.4c0.2-0.6,0.3-1.1,0.2-1.7
		c-0.1-0.6-0.3-1.2-0.6-1.7c-1.5-0.5-3.1-1.1-4.8-1.8c-0.4-0.2-0.7-0.5-1-0.8l1.6-0.3c-1.8-1.1-3.4-2.5-4.7-4.2
		c-0.4-0.6-1.4-0.7-2.2-1c-2.9-1-5.7-1.8-8.6-2.8c-0.4-0.1-0.7-0.5-1-0.8c0.9,0.1,1.8,0.3,2.7,0.5c2.9,0.9,5.8,1.8,8.8,2.7l1-2.6
		c-1.3-1.4-3.1-1.4-4.6-2.1c-1-0.5-2.3-0.2-3-1.5l2.9-0.2c0.9,1,2.1,1.6,3.4,1.7c0.8,0,0.9-0.5,0.6-1.1l-4.1-0.4
		c-2.1-1.8-4-3.7-6.7-4.4c-0.9-1.5-2.5-1.5-3.9-2c-3.5-1.2-7.1-2.3-10.7-3.6c-0.5-0.2-0.9-0.5-1.2-0.9c5.6,1.2,10.8,3.5,16.5,4.8
		c0.3-1.1,0.4-1.8,0.7-2.8c-0.7-0.4-1.5-0.8-2.2-1.1c-4.9-1.6-9.8-3.2-14.7-4.8c-1.2-0.4-2.4-0.9-4-1.5c-2.6,0.4-5.5,1.5-8.6,1.8
		c2.3-2.4,5.4-3.7,8.2-5.7l-2-1.8c4.2,0.9,4.2,0.9,7.2-1.4l-12-4V85c0.6,0,1.2,0,1.8,0.1c3,0.9,6.1,1.8,9,3c1,0.5,2.2,0.6,3.4,0.4
		c1.1-0.3,2.1-0.9,2.9-1.8c-2.9-1-5.6-1.8-8.3-2.8c-2.7-1-5.3-1.3-7.6-3.2c0.5,0.1,1.1,0.2,1.6,0.3c4.5,1.4,8.9,2.9,13.4,4.4
		c0.8,0.3,1.8,0.7,2.8,0c-1.6-2-4-2.5-5.8-3.8c-1.9-1.2-3.9-2.1-6.1-2.8c-2.2-0.5-4.4-1.3-6.4-2.4c3.1,0,5.7,1.8,8.6,2.1
		c0-3-0.2-3.4-2.6-4.2c-2.4-0.8-4.5-1.4-6.7-2.2c-0.9-0.3-1.7-0.7-2.5-1.1c1.9-0.4,3.5,0.6,5.2,1.1c1.7,0.5,3.3,1,5,1.5
		c0.2-0.5,0.2-1.1,0.2-1.6c0-0.5-0.2-1.1-0.4-1.6c-0.2-0.2-0.5-0.4-0.8-0.5l-12.7-4.2c-0.8-0.2-1.5-0.7-2.2-1.3c0.5,0,1,0,1.5,0.1
		c3.8,1.2,7.6,2.5,11.4,3.7c0.7,0.2,1.3,0.3,2,0.4c0.3-2.5-0.9-3.6-2.9-4.2c-8.2-2.6-16.3-5.3-24.4-7.9c-0.8-0.3-1.6-0.7-2.4-1.2
		c3.2,0.6,6.3,1.4,9.4,2.6c3,0.9,6,1.9,9,2.9c3,1,6.1,2.1,9.7,3c-0.9-2.6-1.9-4.1-4.2-4.8c-7.8-2.4-15.6-5-23.4-7.6
		c-0.7-0.2-1.3-0.7-1.8-1.3c1,0.2,1.9,0.4,2.9,0.7c1,0.6,2.2,0.8,3.4,0.5c1.1-0.3,2.1-1,2.8-1.9l-11.6-4c4.6,0.2,8.7,2.4,13.8,3.4
		c-1.9-2.6-3.3-4.6-6-5.3c-3.1-0.8-6-1.9-9-2.9c-0.7-0.2-1.4-0.6-2-1.1c4.8,0.8,9.3,2.9,14.1,4c-0.6-3.1-0.9-3.6-3.3-4.4L364.5,35
		c-1-0.3-1.9-0.7-2.8-1.2c2-0.3,3.5,0.8,5.4,1.2c1.7,0.7,3.5,1.1,5.3,1.4c-2.1-2.5-3.8-4.9-6.9-5.5c-0.5-0.1-1.2-0.1-1.3-0.9
		l2.2-0.2c-0.5-1.2-1.3-2.3-2.3-3.2c-1-0.9-2.2-1.5-3.4-1.8c-2.9-0.8-5.8-1.8-8.6-3c1.8-0.4,3.3,0.7,5,1c1.6,0.6,3.2,1,4.9,1.2
		c-1.8-2-3.8-3.7-6.1-5.1c-2.2-1.1-4.6-1.7-6.9-2.7c1.5-0.4,2.8,0.8,4.5,0.6l-2-2.5c0.6,0.2,1.2,0.4,1.8,0.7
		c3.3,2.7,7.1,4.7,11.2,5.7c10.4,3.2,20.7,6.6,31.1,10c0.7,0.2,1.3,0.6,1.8,1.2c-0.5,0-1,0-1.4-0.1L363,21.1l-1.9-0.6
		c0.5,0.6,1,1.1,1.6,1.6c1.4,1.1,2.8,2.1,4.3,3.1c1.2,0.7,2.4,1.3,3.8,1.8c9.5,3.1,18.9,6.1,28.4,9.2c1,0.3,1.9,0.8,2.8,1.3
		c-2.1-0.1-4.1-0.6-6-1.5c-1.9-0.5-3.8-1.2-5.7-1.9l-6-1.9l-5.7-1.8c-2-0.6-4-1.2-6.1-1.8c2.6,2.8,5.8,5,9.4,6.3
		c14.4,4.5,28.8,9.3,43.2,13.9c0.4,0.1,0.9,0.3,1.3,0.4c0.3,0.1,0.5,0.2,0.8,0.3s0.6,0,0.9-0.1c0.3-0.1,0.5-0.2,0.8-0.4
		c0.2-0.2,0.4-0.4,0.5-0.7c0.2-0.3,0.3-0.6,0.6-1.1c-2.2-1.2-4.6-2-7.1-2.6c-2.4-0.9-4.9-1.5-7.4-2.4c-2.4-0.8-4.8-1.7-7.2-2.7
		c2.3-0.3,4.3,0.9,6.4,1.5c2.4,0.7,4.7,1.5,7.1,2.2l6.7,2.2l7.1,2.3c2.2,0.7,4.4,1.5,6.5,2.4c-1.9,0.4-3.5-0.6-5.3-1.1l-5.2-1.5
		c-0.1,0.6-0.2,1-0.3,1.5s0,1.2,0,1.8c2.4,0.8,4.6,1.6,6.8,2.4c0.4,0.2,0.7,0.5,1,0.8v-0.1c-0.9-0.1-1.8-0.2-2.7-0.5
		c-1.7-0.4-3.3-1-5.2-1.5l-0.8,3.4c0.3,0.3,0.4,0.6,0.6,0.7c3,1,6,2,9,3c0.9,0.3,1.7,0.7,2.5,1.2c-4.3-0.5-8.2-2.4-12.6-3.5
		l-2.8,2.3c0.4,0.3,0.9,0.5,1.4,0.7c4.3,1.4,8.7,2.8,13,4.3c0.8,0.3,1.7,0.7,2.4,1.2c-3.3-0.6-6.5-1.5-9.7-2.7
		c-3.1-1.1-6.2-2-9.4-2.8c-0.2,0.5-0.3,1-0.3,1.6c0,0.5,0.2,1.1,0.4,1.6c0.3,0.2,0.5,0.3,0.8,0.4l14.7,4.9c0.5,0.2,1.2,0.1,1.3,0.9
		c-0.9-0.1-1.7-0.3-2.6-0.6c-3.5-1.1-7.2-2.2-10.7-3.4l-3.1-0.9c-0.2,0.3-0.3,0.7-0.3,1.1c-0.1,0.7,0.1,1.4,0.6,2
		c0.4,0.6,1.1,0.9,1.8,1.1c6.6,2,13.2,4.2,19.7,6.4l3.1,1c-1.5,0.3-1.6,0.3-2.2,0.1c-5.6-1.8-11.1-3.7-16.7-5.3
		c-1.7-0.8-3.6-1.3-5.5-1.5v2.9c0.3,0.2,0.6,0.4,0.9,0.6c7.3,2.4,14.7,4.8,22.1,7.1c1,0.3,2.3,0.2,3,1.5c-0.9-0.1-1.8-0.3-2.7-0.6
		c-6.5-2-13-4.1-19.4-6.2l-3.3-1c-0.7,2.8-0.5,3.3,1.8,4.1c5.3,1.8,10.5,3.4,15.7,5.1c1,0.4,2.3,0.2,3,1.5c-0.9-0.1-1.8-0.3-2.7-0.5
		c-4.4-1.4-8.7-2.8-13-4.1c-0.8-0.2-1.6-0.4-2.4-0.6c0.3,1.1,0.9,2.2,1.7,3c0.8,0.9,1.8,1.5,2.9,1.9c2.5,0.9,5.1,1.8,7.6,2.6
		c0.4,0.2,0.7,0.5,1,0.8c-2.4,0.1-4.5-1.3-6.7-1.8l-2-0.4c0.5,1.2,1.2,2.3,2.1,3.1c0.9,0.9,2,1.6,3.2,2c5,1.5,10,3.2,15,4.9
		c0.4,0.2,0.7,0.5,1,0.8c-0.9-0.1-1.8-0.3-2.7-0.6c-4.1-1.3-8.3-2.6-12.4-3.9c-0.5-0.2-1.1-0.2-1.8-0.4c0.4,1.3,1.2,2.5,2.2,3.5
		c1,0.9,2.3,1.6,3.7,1.9c1.8,0.4,3.5,1.1,5.3,1.8c0.3,0,0.4,0.5,0.7,0.7c-1.1-0.2-2.2-0.4-3.3-0.7c-1.4-0.4-2.8-0.8-4.3-1.3
		c0.1,1,0.5,2,1.1,2.8c0.6,0.8,1.5,1.5,2.4,1.9c0.5,0.2,1.2,0,1.2,0.9l-1,0.2c0,1,0.3,2,0.9,2.8c0.6,0.8,1.4,1.4,2.4,1.8
		c2.4,0.8,4.8,1.5,7.2,2.4c0.4,0.2,0.7,0.4,1.1,0.7c-1.6,0.4-2.9-0.6-4.3-0.9c-1.4-0.3-2.6-0.8-4.4-1.4c0.4,1.1,1,2.1,1.8,3
		c0.8,0.9,1.7,1.6,2.8,2.1c1.1,0.4,2.1,0.9,3.2,1.3l-1.2,0.6c2.8,1.9,3,2,5,1.4c-1.1-1-3-0.6-3.9-2c1.6,0.3,3.2,0.8,4.7,1.3
		c2.1,0.8,4.2,1.5,6.2,0c0.4,1,0.6,2,1.1,2.3c0.9,0.2,1.9,0.2,2.8,0l1,1.6c-2,2-1.8,3.6,0.7,4.3c3,1,6,1.9,9,2.9
		c1.1,0.4,2.3,0.3,3.1,1.4c-0.9-0.2-1.8-0.3-2.7-0.6c-2.9-0.9-5.8-1.8-8.7-2.7c-0.9-0.2-1.7-0.3-2.6-0.4l0.5,3.3
		c1.9,0.6,3.7,1.2,5.5,1.8c1,0.4,2.3,0.3,3.1,1.4l-6.9-1.5c0.5,1.4,1.6,1.7,2.5,2.2c1.6,0.8,3.1,1.6,4.6,2.5
		c2.2,1.5,4.7,2.7,7.3,3.4c1.8,0.3,3.6,1,5.2,2c-1.6-0.4-3.1-0.7-4.7-1.2l-3.9-1.1c0.3,2.4,0.6,4.3,3.1,4.6c0.2,0,0.3,0.3,0.5,0.5
		h-2.3c-0.6,1.2-0.8,2.3,0,3.1c0.8,0.8,2,0,2.9-0.3c0.9-0.3,1.5-0.4,1.9-1.1l-0.4-1.1c2.1,0.5,4.2,0.2,6.1-0.8
		c0.4-0.2,0.7-0.9,1-1.3c1,0.2,2.1,0,3-0.6c0.9-0.5,1.6-1.3,2-2.3c1,0.1,2.1-0.1,3-0.6c0.9-0.5,1.6-1.3,2-2.3c0.9,0.2,1.9,0,2.6-0.5
		c0.7-0.4,1.4-0.7,2.2-0.9l0.2,0.2c-0.5,1.1-0.9,2.2-1.4,3.2c-0.2,0-0.4-0.3-0.5-0.3c-1.1,0.5-2,1.4-2.6,2.5l5.8,2.1l0.1-0.1
		c-1.5,0.3-3.1,0.1-4.4-0.7c-2.2-0.8-3.5-0.7-4.9,1.8c1.1,1.3,2.9,1,4.3,1.8l0.1-0.1c-0.8,0.1-1.6,0.1-2.4,0
		c-1.1-0.3-2.1-0.6-3.2-0.9l-2.8,2.3c0.8,0.5,1.3,0.8,1.8,1.1c1.1,0.5,2.4,0.5,3.4,1.4h0.1c-1.4,0.2-2.8-0.1-4-0.9
		c-0.7-0.4-1.4-0.5-2.2-0.3c-0.7,0.2-1.4,0.6-1.8,1.3c-0.3,0.3-0.5,0.7-0.8,1.1l3.9,1.7v-0.1c-0.9-0.1-1.8-0.2-2.7-0.3
		c-2.5-0.6-2.8-0.5-4.4,2.2l2,1.2l0.1-0.1l-2.5,0.1c1.8,2.6,4.4,4.6,7.3,5.7l7.8,2.8l0.1-0.1c-0.8,0-1.6-0.1-2.4-0.2
		c-1.2-0.3-2.4-0.7-3.5-1.1l-1.8,2.8l2.6,1.5h0.1l-3,0.2c0-0.2,0-0.4,0-0.6h-0.8c0.2,0.1,0.3,0.3,0.5,0.4c0.2,0.1,0.2,0,0.3,0
		c2.9,1.5,6.1,2.5,9.3,2.8l-0.1-0.1c0.5,1,1.4,0.8,2.2,0.8l-0.1-0.1c1.1,1.3,2.9,1.7,4.2,2.8c0.4,0.4,1.2,0.9,1.1,1.2
		c-0.5,1.2,0.9,1.2,1.2,1.8c-0.8-0.3-1.8-0.2-2.6,0.1c-0.8,0.3-1.5,0.9-2,1.7c0.5,0.5,0.9,0.9,1.5,1.2c0.8,0.4,1.6,0.8,2.4,1.2
		c-0.7,0.1-0.8,0.5-0.4,0.9c2.5,2.7,5.5,4.8,8.8,6.2c-0.5,0.1-1,0.3-0.6,0.9c1.2,1.4,2.5,2.7,3.7,4c1.6,0.2,3.3-0.1,4.8-0.9
		c0.3-0.2,0.4-0.8,0.5-1.2c1,0.1,2,0.1,2.9-0.3c0.9-0.3,1.8-0.8,2.5-1.5l-0.5-1c1,0.2,2,0.1,2.9-0.2c0.9-0.3,1.8-0.9,2.5-1.6
		l-0.4-1.1c0.9,0.2,1.9,0.1,2.7-0.2c0.9-0.3,1.6-0.9,2.2-1.6c0.2-0.2,0-0.7,0.1-1v0.1l2.4-0.2c0.1,0.7,1.4,0.8,1.3,1.9
		c-0.2-0.3-0.6-0.4-0.9-0.5c-0.4,0-0.7,0-1,0.3c-0.7,0.6-1.3,1.3-1.8,2.1c-0.1,0.2,0.2,0.6,0.4,1c-0.4,0-0.8,0-1.2,0.2
		c-0.4,0.1-0.7,0.4-1,0.6c-0.3,0.3-0.5,0.6-0.7,1c-0.2,0.4-0.2,0.8-0.2,1.2v-0.1c-1.4,0.9-3,1.8-3.1,3.8l0.1-0.1
		c-0.8,0.3-1.4,0.8-2,1.5c-0.5,0.6-0.9,1.4-1,2.2l0.1-0.1c-0.6,0.3-1.1,0.8-1.6,1.3c-0.4,0.5-0.7,1.2-0.9,1.8
		c0.5,0.5,0.9,0.9,1.4,1.4h0.1l-2-0.3c-1.1,2.2-1.1,2.2,0.2,3.7c0.3,0.3,0.5,0.7,0.7,1.1c0,1,0.4,2,0.9,2.8c0.6,0.8,1.4,1.5,2.3,1.9
		l1.5,0.7l0.1-0.1l-1.6,0.5c1.6,1.4,2.9,2.6,4.3,3.6c0.9,0.7,2,1.1,3.2,1.1s2.3-0.5,3.1-1.2l-0.5-1.1v0.1c2.1,0.3,4.2-0.1,6.1-1.1
		c0.6-0.4,1.1-0.9,1.5-1.4c1.5,0.5,3.2,0.5,4.7,0c1.2-0.3,2.5-0.4,3.7-0.2c0.2,1.2-0.8,2.3,0.1,3.4l0.1-0.1c-0.4,0.1-1,0.2-1.2,0.4
		c-0.6,1-1.1,2.1-1.6,3.1l-1.7,2.5l1.2,1.8c-0.2-0.2-0.4-0.3-0.6-0.4c-0.2-0.1-0.5-0.1-0.7-0.1c-0.2,0-0.5,0.1-0.7,0.2
		c-0.2,0.1-0.4,0.3-0.5,0.5c-0.4,0.6-0.8,1.2-1.2,1.8c0.3,0.6,0.6,1.1,0.8,1.5c-0.2-0.2-0.6-0.4-0.9-0.4c-0.3,0-0.6,0.1-0.9,0.4
		c-0.5,0.4-0.9,1-1.1,1.6c-0.2,0.6-0.2,1.3,0.1,2c-0.1-0.1-0.2-0.2-0.4-0.2c-0.1,0-0.3,0-0.4,0c-0.1,0-0.3,0.1-0.4,0.2
		c-0.1,0.1-0.2,0.2-0.2,0.4c-0.7,1.1-1,2.5-0.9,3.8c0.1,1.3,0.6,2.6,1.5,3.6l0.4,0.6h0.1c-0.3,1-0.3,2,0.1,2.9
		c0.4,0.9,1.1,1.7,2,2.1c0.5,0.2,1,0.4,1.5,0.7h0.1c-0.2,0-0.5,0-0.7,0c-0.1,0-0.3,0.2-0.3,0.2c0,0,0.1,0.4,0.3,0.4
		c0.2,0.1,0.4,0.1,0.7,0.1h-0.1c0,0.2,0,0.5,0,0.7c0,0.8,0,1.6-0.1,2.4c0,0.1,0.1,0.2,0.2,0.2c1.3,0.6,1.2,2.3,2.5,3
		c2.3,1.3,4.5,3,6.8,4.6c0.4,0.9,0.7,1.9,0.9,2.9c0.6,4.6,4,6.6,7.5,8.6c2.7,0.5,4.2,3,6.7,4c2.5,0.9,4.8,2.3,7.2,3.6
		c0.3,2.1-1.8,2.7-2.2,4.4c-0.4,1.5-1,3-1.6,4.5l3.9,0.4c0.2,0.3,0.4,0.6,0.4,1s-0.1,0.7-0.4,1c-0.5,0.5-0.8,1-0.9,1.7
		c-0.1,0.6,0,1.3,0.2,1.9c0.4,0.7-0.6,0.7-0.5,1.4c0.1,1.6,0.8,3.1,1.9,4.2c1.1,1.1,2.6,1.8,4.2,1.9c0.3,0,0.7-0.2,0.9-0.4
		c0.8-0.8,1.3,0,1.6,0.1c0.7,2.9,1.4,5.6,2,8.4c0.2,0.8,0.6,1.5,0.8,2.3c0.9,2.5,2.2,4.9,3.8,7c0.3,0.5,0.7,0.9,1.3,1.2
		c0.5,0.3,1.1,0.4,1.7,0.3c1.8,0.1,3.5-0.1,5.2-0.7c0.7-0.4,1.9,0,2.7-0.2c3.8-0.9,7.4-2.2,10.9-3.8c3.4-1.8,6.9-3.5,10.3-5.2
		c0.2-0.1,0.4,0,0.8,0c0.1,0.6,0.1,1.2,0,1.9c-0.1,0.6-0.4,1.2-0.7,1.7c-0.9,1.5-2.1,2.9-3.4,4c-1.9,1.6-3.9,3-5.9,4.4
		c-3.5,2.9-6.6,6.3-9.1,10.1c-1.4,1.9-3,3.6-4.5,5.3c-0.7,0.6-1.3,1.4-1.8,2.2c-0.7,1.8-2.1,3-2.7,4.8c-0.5,1.1-0.7,2.2-0.5,3.4
		c0.4,2.3,0.8,4.6,1.4,6.9c1.1,4.2,2.4,8.3,3.7,12.6c4.1,0.9,7,3.7,9.7,6.7c2.7,3.1,5,6.5,7.1,10c3.4,5.7,6.1,11.7,8.1,18.1
		c2.1,5.9,3.1,12.1,3.1,18.4c-0.1,2.2-0.5,4.5-1.3,6.6c-0.6,1.8-1.6,3.4-3,4.7c-0.7,0.6-1.2,1.4-1.4,2.4c-0.7,2.6-1.7,5.2-3.1,7.5
		c-0.6,1.3-1.1,2.6-1.4,4c-0.2,0.4-0.2,0.9-0.2,1.4c0,0.5,0.2,0.9,0.4,1.4c0.2,0.4,0.5,0.8,0.9,1.1c0.4,0.3,0.8,0.5,1.3,0.6
		c1.6,0.5,3.2,0.8,4.8,1.3c1,0.3,1.9,0.7,2.8,1c1,2.9-0.8,4.7-2,6.8c1.2,1.7,2.4,3.2,3.5,4.8c3,4.4,5.5,9.1,7.2,14.2
		c3,8.6,5.1,17.4,6.3,26.5c1.3,8.8,1.9,17.7,2.6,26.5c0.2,1.9,0,3.8,0,6.2c-0.6-1.3-1-2.7-1.3-4.2c-2.1-9.5-4.1-19-6.4-28.5
		c-2.1-9.2-5.2-18.2-9.2-26.8c-3.3-7.5-7.7-14.4-13.1-20.5c-4.5-4.9-8.6-10.3-12.9-15.4c-4.1-4.7-7.9-9.7-11.5-14.7
		c-3.8-5-7-10.4-9.4-16.1c-1.1-3-1.9-6.1-0.2-9.3l3.2-2.1c-2.4-2.1-4.8-1.5-7.3-0.3c-1.1,0.6-2.2,1.3-3.3,2c-1.8-2-1.3-4.5-2.1-6.7
		c-1.4-0.4-2.8-0.4-4.2-0.1c-2.6,0.2-5.2-0.2-7.6-1.2c-0.5-0.3-1-0.6-1.5-1c0-0.6,0.1-1.2,0.3-1.8c0.9-1.8,1.4-3.7,1.6-5.7
		c0.4-2.1,0.1-4.3-0.8-6.2c-0.8-2.7-2.2-5.1-4.2-7.1c-1.1-1.2-2.1-2.5-2.8-3.9c-0.8-1.3-2.4-1.8-3.1-3.2c-0.7-1.3-1.5-2.4-2.5-3.4
		c-2.3-2-2.9-5.3-5.1-7.4c-0.2-0.2,0-0.7-0.1-1c-0.4-1.7-1.2-3.4-2.4-4.7l0.6,0.1c0-0.3,0-0.6,0-0.9c0-1.6-1.2-2.8-1-4.5
		c0-1.6-0.1-3.2-0.4-4.8c0-0.8-0.1-1.6-0.5-2.3c-0.3-0.7-0.9-1.3-1.5-1.8l1.3,0.5c-0.1-1.9-0.2-3.6-1.8-4.6c0,0,0.4-0.9,0.4-0.9
		c-0.5-2-1.7-3.8-3.5-5l0.5,0.4c0.2-0.2,0.5-0.6,0.5-0.7c-0.3-0.9-0.7-1.8-1.3-2.6c-0.6-0.8-1.4-1.4-2.2-1.8c-0.4-0.2-0.7-0.5-1-0.8
		l1.6,0.6c-0.5-1.1-1.2-2-2.1-2.8c-0.9-0.8-2-1.3-3.2-1.5c-0.7-0.1-1.4,0-2,0.2c-0.6,0.3-1.2,0.7-1.6,1.2c-0.6,0.6-1.5,0.7-1.8-0.5
		c0-0.1,0-0.2-0.1-0.3c-1.2-2.6-3.4-4.7-6-6l-0.1-0.7c-1.5-0.6-2.9-1.4-4.4-1.8c-0.5-0.2-1.1-0.2-1.7-0.1c-0.6,0.2-1.1,0.5-1.4,1
		c-0.1-0.1-0.2-0.2-0.2-0.2c-3.8-1.8-4.1-0.9-6,1.4c-0.3,0.4-0.6,0.7-0.9,1c-0.7,0.8-1.5,1.5-2.2,2.3c-0.8,1-1.6,2-2.5,3
		c-0.8,0.8-2.3,0.6-2.9,1.8c-0.1,0.3-0.8,0.4-1.3,0.3c-2.9,0-5.8,0.6-8.5,1.9c-2.4,1-4.7,2.2-7.1,3.3c-0.7,0.3-1.4,0.7-2.1,1.1
		c-0.6-0.7,0-1,0.2-1.2c0.9-1,1.9-1.8,3-2.6c3.3-2,6.2-4.7,10.2-5.5c3-2.4,6.7-4,7.5-8.4c0.1-0.6,0.4-1.2,0.8-1.7
		c0.4-0.5,0.9-0.9,1.4-1.2c1-0.5,1.9-1.3,2.5-2.3l-0.6-0.8c0.7,0.1,1.5-0.1,2.1-0.4c0.7-0.4,1.2-0.9,1.6-1.5
		c0.8-0.7,1.2-1.7,1.4-2.7c0.1-1-0.1-2.1-0.6-3h-0.1c0.8-2.3,0.7-2.7-0.6-4.3c-0.2-0.3-0.3-0.6-0.5-0.9c0.4,0.6,1,0.4,1,0
		c0-1-0.2-2.1-0.4-3.1c0-0.3,0-0.6,0-1v-0.2l-0.8-3.4l-1.8-1.2l-0.1,0.1c0.7,0,1.5,0,1.4-1.1c-0.2-1.1-0.6-2-0.8-2.7l-1.9-1.3
		l-0.1,0.1l1.3-0.1c-0.5-3.2-0.5-3.2-2.7-5c0.1,0,0.2,0,0.3-0.1c0.1-0.1,0.2-0.2,0.2-0.3c0.1-0.1,0.1-0.2,0.1-0.3
		c0-0.1-0.1-0.2-0.1-0.3c-1.2-2.4-2.8-4.4-6-4.5c-0.7,0.4-1.7,0.9-2.5,1.5c-0.4,0.4-0.8,0.8-1.1,1.3c-1.7-0.5-3.4-1-5-1.4
		c-2.5-0.6-5.1-0.3-7.3,0.9l1.1,1.2v-0.1c-2.3-0.4-4.7,0-6.7,1.2c-1.7,0.8-3.4,1.5-5.2,2.1c-0.9,0.2-1.7,0.3-2.6,0.3
		c3.8-2.9,7.8-4.5,10.5-7.9c0.3-1.6,2.3-2.3,2.1-4.4l-1.6-1.3l-0.1,0.1h1.8c1.1-1,0.7-2.4,1.1-3.6c0.8-0.1,1.6-0.2,2,0.7h0.1
		c-0.7,0-1.5,0-1.3,1.1c0.1,0.9,0.5,1.8,1.1,2.5c0.6,0.7,1.5,1.2,2.4,1.3c0.9,0.2,1.8,0.6,2.7,0.7c2.5,0.4,4.9,0.4,6.5-2.1
		c2-0.6,2.6-2.3,3.3-4c1.1,0.4,1.4-0.5,1.7-1.3c-0.5-2.2-2.8-2.3-4.1-3.4l-0.1,0.1l1.3-0.1c-0.3-1.6,0.2-3.4-1.8-4.4
		c-0.2-0.1-0.2-0.6-0.4-0.9l1.6,0.8c1.3-1,2.4-2.2,3.3-3.6c0.7,0.3,1.4,0.4,2.1,0.4c0.7,0,1.4-0.2,2-0.6c0.5-1.9-1.6-2-1.8-3.3
		c-1.1-2.4-3.1-4.3-5.5-5.3c-1-0.5-2-0.9-3-1.4h-0.1l1.1-0.4l-1.1-0.4l0.1,0.1c-0.2-0.4-0.5-0.7-0.8-1c-3.2-2.2-6.2-4.8-9.9-6.1
		l0.9-0.4c-3.2-4.1-3.2-4.1-6.5-6h2c-0.5-0.7-0.8-1.2-1-1.2c-0.9,0-1,0.6-0.9,1.4c-2.1-0.4-3.7,0.7-5.4,1.7l0.5,1.1
		c-0.8-0.1-1.6-0.2-2.4-0.2c-1.8,0.3-3.7,0.4-4.8,2.3v-0.1c-1.4-0.1-2.8,0.2-4.1,0.7c-4.7,1.6-9.1,3.7-13.3,6.4
		c-2.6,1.8-5.3,3.3-8,5c-0.7-0.7,0-1,0.2-1.2c4.2-5.1,8.8-9.8,13.8-14.2c1.9-1.6,3.6-3.3,5.4-4.9c0.6-0.6,1.3-1.1,0.7-2.1
		c0.7-0.4,1.6-0.2,2.1-1.1c0.1-0.2,0.3-0.4,0.4-0.6c0.1-0.2,0.4-0.6,0.7-1.1l-2.7-1.8l3.1,0.6c0.5-0.4,0.8-0.9,1-1.4
		c0.2-0.6,0.2-1.2,0-1.8l-3.8-1.4V194l4.3,0.8v-3l-1.8-1.4c1.3-0.3,1.6-0.6,1.3-1.4c-0.5-1.2-0.7-2.5-2.1-3.1
		c-0.2,0-0.1-0.6-0.2-0.9c-0.1-1.1-0.6-2.1-1.2-3c-0.7-0.8-1.6-1.5-2.6-1.8c-1-0.4-1.9-0.8-2.8-1.3h2.5c-0.2-1-0.6-1.9-1.2-2.6
		c-0.6-0.8-1.4-1.4-2.2-1.8c-0.7-0.2-1.3-0.5-1.9-0.9c-0.2-0.1-0.1-0.6-0.2-1c0.3,0.5,0.7,0.6,1.2,0c-1.6-2.2-3.2-4.5-6.2-5.1
		c-0.6-0.2-1.2-0.5-1.8-0.9l2.9-0.1c-0.8-1.8-2-3.3-3.6-4.4c-0.4-1-0.7-1.9-1.1-2.9c-0.1-0.3-0.5-0.4-0.9-0.7l-2.5,1.1
		c0.2,0.2,0.2,0.4,0.3,0.4c1,0.4,2,0.7,3,1.1c0.5,0.3,1,0.6,1.4,1c-3.2-1-6.5-1.8-9.7-3c-0.7-0.4-1.5-0.5-2.3-0.5
		c-0.8,0.1-1.6,0.3-2.2,0.8c-0.4-1.5-0.4-1.5-1.9-3v0.1h1.8c0.4-0.4,0.6-0.9,0.8-1.5c0.1-0.6,0.1-1.1-0.1-1.7l-10.2-2.9l0.1-0.4
		c0.5,0,0.9,0.1,1.4,0.2c2.2,0.7,4.5,1.5,6.7,2.2c0.7,0.2,1.4,0.3,2.1,0.3c0.2-0.5,0.4-0.9,0.5-1.4c0-0.5,0-1,0-1.5
		c-3.4-1.8-7.2-2.3-10.6-4.1c0.6,0,1.2,0,1.8,0.2c2.2,0.7,4.4,1.5,6.7,2.2c0.8,0.2,1.6,0.4,2.4,0.5c0.2-0.3,0.3-0.7,0.4-1.1
		c0-0.7,0-1.3,0-2l-5.6-2c-0.5-0.2-1.2-0.1-1.3-0.9c1.6,0.1,3.2,0.5,4.6,1.1c0.8,0.2,1.5,0.3,2.2,0.5c0.9-2.7,0.9-2.7-1.2-3.8
		c-0.3-0.1-0.4-0.4-0.7-0.7l2.5-0.1c0.3-1.8,0.5-3.1-1.5-3.8c0,0,0-0.4,0-0.6h1.1c0.7-1,0.3-2,0-3.2c-0.4-0.2-0.7-0.4-1.1-0.6
		c-3.2-1.1-6.4-2.1-9.6-3.2c-0.4-0.2-0.7-0.5-1-0.8L431.9,127.9z M427.3,51.4l-42-13.7c-0.7-0.2-1.5-0.4-2.3-0.5
		c1.6,1.5,3.2,2.8,4.9,4.1c1.6,1.2,3.4,2.1,5.3,2.7l28.4,9.2c1.1,0.4,2.2,0.6,3.5,1L427.3,51.4z M424.1,54.9
		c-0.5-0.3-1.1-0.6-1.6-0.8c-8.9-2.9-18-5.7-27-8.5c-0.2,0-0.5,0.1-1.1,0.2c3.1,2.6,5.8,5.2,9.6,6c1.2,0.3,2.4,0.8,3.7,1.2l13.7,4.3
		L424.1,54.9z M405.6,96.1c0.3,0.3,0.5,0.7,0.8,0.8c5.5,1.8,11.1,3.6,16.6,5.3c0.4,0,0.8,0,1.2-0.1c-0.1-1.1-0.2-2-0.3-3.1
		c-4.1-1.3-7.9-2.6-11.8-3.9c-1.2-0.4-2.4-0.4-3.5,0C407.7,95.4,406.7,95.8,405.6,96.1z M380.4,52.7c5.4,2.3,11,4,16.8,5.2
		c-0.7-1.2-1.6-2.3-2.7-3.2c-1.1-0.9-2.4-1.5-3.7-1.9c-1.3-0.2-2.5-0.6-3.7-1.2C384.6,50.5,382.6,51.6,380.4,52.7z M403,52.5
		c1.4,1.6,2.9,3.1,4.6,4.4c0.5,0.4,1.1,0.8,1.8,1c2.5,0.8,5.1,1.6,7.4,2.4c2.4-1.2,2.4-1.2,2.8-2.6C414.2,56,408.9,54.1,403,52.5
		L403,52.5z M423.2,97.9c0.2-3.1,0-3.3-2.1-4.2c-2.7-1.2-5.1-0.6-8.1,0.7C416.4,95.8,419.8,97,423.2,97.9z M448.8,159.1
		c0.3-0.3,0.4-0.7,0.6-1.1c0.2-0.5,0.2-1.1,0-1.6c-0.2-0.3-0.6-0.6-1-0.7c-0.4-0.1-0.8,0-1.2,0.1c-0.9,0.6-2,1.1-2.2,2.5
		c1.1,0.3,2.1,0.6,3.1,0.9C448.1,159.3,448.3,159.2,448.8,159.1L448.8,159.1z M414.6,60.5c-1.3-0.1-2.3-1.2-3.7-0.7
		C412.9,62.2,413,62.2,414.6,60.5z M421,92.9l1.5-0.1c0-0.3,0-0.9-0.2-0.9C421.8,91.7,421.2,91.9,421,92.9z M449.9,155.2
		c0-0.2,0.1-0.4,0.2-0.6c0-0.2-0.2-0.2-0.2-0.2c-0.2,0.1-0.3,0.2-0.4,0.4L449.9,155.2z M497.8,252.1c0,0,0-0.2-0.1-0.2
		c-0.4,0-0.8,0-1.2,0c0,0,0,0.2-0.1,0.2c0.4,0.1,0.8,0.2,1.2,0.2C497.7,252.4,497.8,252.2,497.8,252.1z"/>
</g>
</svg>
