<svg width="100%" height="100%" viewBox="0 0 401 49" preserveAspectRatio="none" fill="none" xmlns="http://www.w3.org/2000/svg"><defs><linearGradient id="shadowGrad" x1="0" y1="0" x2="0" y2="1"><stop offset="0%" stop-color="#b0b0b0"/><stop offset="10%" stop-color="#F5F5F5"/><stop offset="100%" stop-color="rgba(245,245,245,0)"/></linearGradient></defs><rect y="20" width="401" height="29" fill="#F5F5F5"/>

<path d="M399.87 9.44833C399.778 9.61602 399.698 9.78975 399.63 9.96833V9.39833L399.41 9.79833L399.12 9.37833V9.85833C399.12 9.85833 398.95 9.15833 398.84 9.27833C398.792 9.35044 398.752 9.42756 398.72 9.50833C398.72 9.50833 398.72 9.43833 398.63 9.45833C398.54 9.47833 398.22 9.85833 398.22 9.85833C398.22 9.85833 397.85 9.19833 397.76 9.19833C397.67 9.19833 397.47 9.77833 397.47 9.77833C397.47 9.77833 397.38 9.32833 397.18 9.45833C397.031 9.56046 396.9 9.68532 396.79 9.82833V9.59833C396.79 9.82833 396.44 9.90833 396.44 9.90833C396.44 9.90833 396.14 9.59833 396.06 9.75833C395.985 9.8771 395.895 9.98481 395.79 10.0783C395.557 10.0632 395.323 10.0632 395.09 10.0783C394.98 10.0783 394.55 9.77833 394.55 9.77833L394.25 10.0783C394.25 10.0783 394.06 9.90833 393.95 9.97833C393.845 10.086 393.754 10.207 393.68 10.3383L393.01 10.1083L392.79 10.3383C392.79 10.3383 392.61 9.92833 392.58 10.0283C392.55 10.1283 392.15 10.3383 392.15 10.3383L391.92 10.1583L391.25 10.3383C391.25 10.3383 390.9 9.97833 390.82 9.97833C390.74 9.97833 390.66 9.97833 390.58 10.1583C390.5 10.3383 390.15 10.1583 390.04 10.1583C389.93 10.1583 389.17 10.3083 389.12 10.3183C388.938 10.1966 388.768 10.0594 388.61 9.90833C388.61 9.90833 388.44 9.35833 388.33 9.43833C388.22 9.51833 388.07 9.16833 387.87 9.33833C387.67 9.50833 387.58 8.95833 387.45 9.17833C387.32 9.39833 386.99 9.08833 386.85 9.17833C386.71 9.26833 386.31 8.95833 386.12 9.17833C385.93 9.39833 385.44 9.66833 385.42 9.54833C385.4 9.42833 385.17 8.77833 385.06 8.94833C384.95 9.11833 384.77 9.39833 384.77 9.39833C384.77 9.39833 384.58 8.89833 384.45 8.97833L384.1 9.12833C384.1 9.12833 383.85 8.37833 383.72 8.54833L383.58 8.72833C383.58 8.72833 383.42 8.27833 383.23 8.45833C383.04 8.63833 382.94 8.89833 382.83 8.84833C382.72 8.79833 382.59 8.27833 382.48 8.45833C382.447 8.52373 382.4 8.5815 382.343 8.62798C382.287 8.67446 382.221 8.70863 382.15 8.72833C382.07 8.72833 381.69 8.42833 381.53 8.59833C381.419 8.71692 381.291 8.81806 381.15 8.89833C381.15 8.89833 380.94 8.51833 380.86 8.54833C380.78 8.57833 380.23 7.93833 380.23 7.93833V8.22833C380.23 8.22833 379.91 7.82833 379.82 7.93833C379.73 8.04833 379.64 8.27833 379.64 8.27833C379.64 8.27833 379.5 7.69833 379.39 7.93833C379.28 8.17833 378.75 8.34833 378.72 8.27833C378.69 8.20833 378.64 7.94833 378.51 7.93833H378.15C377.981 7.90777 377.809 7.90777 377.64 7.93833C377.522 8.04233 377.421 8.16373 377.34 8.29833L376.99 8.39833L376.72 8.57833L376.38 8.68833C376.38 8.61833 376.59 8.18833 376.38 8.37833C376.235 8.49172 376.115 8.63493 376.03 8.79833C376.03 8.79833 375.73 8.37833 375.57 8.42833C375.41 8.47833 375.35 8.63833 375.29 8.72833C375.4 8.50833 375.46 8.22833 375.29 8.30833C375.12 8.38833 374.94 8.37833 374.84 8.50833C374.74 8.63833 374.43 8.50833 374.32 8.62833C374.21 8.74833 374 9.10833 374 9.10833C373.868 9.05039 373.731 9.0068 373.59 8.97833C373.377 9.03669 373.17 9.11365 372.97 9.20833C372.97 9.20833 372.81 8.92833 372.59 9.02833C372.369 9.07623 372.141 9.07623 371.92 9.02833L371.62 8.79833V9.02833L371.22 8.84833L371.02 9.26833L370.76 9.04833L370.41 9.56833C370.41 9.56833 370.24 9.24833 370.16 9.24833C370.08 9.24833 369.86 9.59833 369.86 9.59833C369.86 9.59833 369.72 9.39833 369.64 9.37833C369.56 9.35833 369.32 9.49833 369.32 9.49833C369.32 9.49833 369.16 9.24833 369.05 9.21833C368.897 9.20719 368.743 9.20719 368.59 9.21833C368.458 9.19139 368.322 9.19139 368.19 9.21833C367.974 9.34179 367.776 9.49309 367.6 9.66833L367.38 9.36833L366.89 9.26833L366.68 8.94833C366.544 8.9252 366.406 8.9252 366.27 8.94833C366.16 8.94833 366.05 9.26833 366.05 9.26833L365.84 8.92833L365.57 9.26833C365.509 9.11266 365.435 8.96217 365.35 8.81833V9.34833C365.35 9.34833 364.78 8.84833 364.78 8.99833C364.726 9.23024 364.646 9.4551 364.54 9.66833C364.54 9.66833 364.4 9.24833 364.36 9.16833V9.56833C364.36 9.56833 363.9 9.16833 363.84 9.24833C363.78 9.32833 363.52 9.79833 363.52 9.69833C363.52 9.59833 363.62 9.07833 363.52 9.15833C363.357 9.28398 363.203 9.42099 363.06 9.56833C363.06 9.56833 363.06 9.42833 362.97 9.28833C362.88 9.14833 362.88 9.02833 362.86 9.07833C362.84 9.12833 362.46 8.86833 362.46 8.86833L362.24 9.26833C362.24 9.14833 362.39 8.80833 362.24 8.92833C362.09 9.04833 361.86 9.47833 361.81 9.37833C361.76 9.27833 361.61 8.54833 361.56 8.74833C361.51 8.94833 361.61 9.24833 361.56 9.09833C361.51 8.94833 361.18 8.44833 361.18 8.54833C361.127 8.73773 361.057 8.92184 360.97 9.09833C360.97 9.09833 360.8 8.52833 360.73 8.69833C360.63 8.85733 360.509 9.00199 360.37 9.12833C360.37 9.12833 360.54 8.69833 360.37 8.77833C360.227 8.86415 360.099 8.97218 359.99 9.09833L359.53 8.84833V9.15833L359.05 8.97833V8.57833L358.65 8.77833C358.65 8.77833 358.43 8.44833 358.37 8.52833C358.31 8.60833 358.13 9.07833 358.13 9.07833L357.84 8.77833V8.99833L357.41 8.79833H357.18V8.29833L356.92 8.64833L356.71 8.38833L356.62 8.27833L356.37 8.14833L356.16 8.52833V8.02833L355.78 8.47833L355.46 8.29833V8.62833L355.1 8.19833L354.84 7.83833V8.09833C354.84 8.09833 354.49 7.61833 354.46 7.83833C354.443 7.99119 354.443 8.14547 354.46 8.29833L354.05 8.12833L353.86 8.35833L353.44 8.64833L353 8.84833L352.73 8.79833L352.46 9.10833V8.87833L352.22 9.16833V8.81833L352.03 9.10833L351.68 8.84833V9.14833L351.27 8.97833L351.02 9.19833L350.76 9.04833L350.52 9.37833L350.24 9.11833L349.78 9.44833L349.46 9.11833L348.59 9.44833C348.59 9.44833 348.33 9.02833 348.24 9.07833C348.15 9.12833 347.65 9.54833 347.65 9.54833L347.14 9.27833L346.52 9.59833L346.19 9.54833H345.73L344.95 9.67833C344.95 9.67833 344.62 9.37833 344.62 9.44833C344.62 9.51833 344.36 9.80833 344.36 9.80833C344.238 9.80793 344.117 9.82476 344 9.85833C343.741 10.0093 343.493 10.1798 343.26 10.3683C343.26 10.3683 342.94 10.0283 342.89 10.1383C342.84 10.2483 342.56 10.6083 342.56 10.6083C342.56 10.6083 342.38 10.3583 342.35 10.6083C342.308 10.8307 342.245 11.0485 342.16 11.2583H342L341.75 11.7083L341.48 11.9583H341.13V12.1483L340.81 11.8283L340.56 12.1483V11.8583L340.18 12.1783C340.18 12.1783 340.38 11.7383 340.18 11.8383C340.044 11.9295 339.925 12.0447 339.83 12.1783V11.6583L339.62 11.9083L339.4 11.3183L338.65 11.2083V10.6383H338.27V9.85833L337.51 9.62833L337.11 8.78833C336.967 8.80379 336.823 8.80379 336.68 8.78833C336.395 8.72021 336.122 8.60893 335.87 8.45833C335.712 8.26166 335.584 8.04261 335.49 7.80833C335.401 7.76637 335.307 7.73612 335.21 7.71833C335.002 7.67666 334.808 7.57998 334.65 7.43833C334.618 7.32386 334.618 7.2028 334.65 7.08833C334.65 7.08833 334.43 6.80833 334.27 6.96833C334.11 7.12833 333.87 6.96833 333.87 6.96833L333.67 6.63833H333.3L332.92 6.38833C332.92 6.38833 332.92 6.10833 332.68 6.26833C332.617 6.30904 332.545 6.33473 332.471 6.34339C332.396 6.35206 332.321 6.34349 332.25 6.31833C332.25 6.31833 332.16 5.91833 331.97 6.08833C331.868 6.19372 331.735 6.26378 331.59 6.28833C331.387 6.37553 331.17 6.42631 330.95 6.43833V6.05833H330.63V5.54833C330.523 5.51018 330.407 5.51018 330.3 5.54833C330.17 5.61833 330.3 5.23833 330.3 5.23833C330.192 5.26628 330.078 5.26628 329.97 5.23833C329.84 5.18833 329.62 4.53833 329.51 4.70833C329.424 4.842 329.315 4.96029 329.19 5.05833L328.84 4.68833L328.66 4.40833H328.25C328.183 4.3749 328.11 4.35749 328.035 4.35749C327.96 4.35749 327.887 4.3749 327.82 4.40833L327.4 3.85833L327 3.35833L326.75 2.70833L326.13 3.20833C326.13 3.20833 326.29 2.53833 326.13 2.70833C325.97 2.87833 325.59 3.33833 325.59 3.25833C325.59 3.17833 325.78 2.36833 325.59 2.50833C325.4 2.64833 325 2.85833 325 2.85833C325 2.85833 324.76 2.10833 324.68 2.21833C324.545 2.35075 324.401 2.47433 324.25 2.58833C324.25 2.58833 324.25 2.16833 324.12 2.20833C323.969 2.27846 323.825 2.36214 323.69 2.45833L323.35 2.20833H323.11V1.91833L322.9 2.21833L322.63 1.91833L322.19 2.23833L321.98 1.91833H321.14L320.88 1.51833L320.63 1.94833C320.63 1.84833 320.7 1.68833 320.63 1.73833C320.45 1.9062 320.286 2.09032 320.14 2.28833V1.88833L319.93 2.31833L319.58 2.05833L319.28 2.69833C319.28 2.56833 319.48 2.16833 319.28 2.31833C319.08 2.46833 318.79 2.75833 318.79 2.68833C318.79 2.61833 318.9 2.01833 318.79 2.05833C318.68 2.09833 318.36 1.99833 318.36 1.99833V1.51833H318.14V0.918332L317.95 1.11833L317.73 0.468333L317.06 0.988332V0.468333L316.79 0.738332C316.79 0.738332 316.63 -0.171667 316.44 0.0483334C316.25 0.268333 315.98 1.04833 315.98 0.818332C315.98 0.588332 315.93 -0.181667 315.76 0.0483334C315.632 0.237729 315.515 0.434759 315.41 0.638334C315.41 0.638334 315.01 0.288332 314.98 0.418332C314.95 0.548332 314.77 1.11833 314.71 1.03833C314.65 0.958333 314.49 0.568332 314.49 0.568332L314 0.858333L313.76 0.438333L313.46 0.978334L313.22 0.728334H312.38C312.217 0.974441 312.037 1.20839 311.84 1.42833C311.84 1.34833 311.63 0.598333 311.63 0.598333L311.17 0.408332L310.92 0.918332V0.258332L310.51 0.968333L310.27 0.688333L310.03 0.968333L309.62 0.258332V0.978334L309.38 0.468333L308.92 0.658332C308.92 0.658332 308.71 1.40833 308.71 1.48833C308.513 1.26839 308.333 1.03444 308.17 0.788333H307.33L307.09 1.03833L306.78 0.498332L306.54 0.918332L306.03 0.618333C306.03 0.618333 305.87 1.00833 305.82 1.08833C305.77 1.16833 305.57 0.598333 305.54 0.468333C305.51 0.338333 305.12 0.688333 305.12 0.688333C305.01 0.485532 304.89 0.288597 304.76 0.0983326C304.6 -0.121667 304.55 0.668333 304.55 0.868333C304.55 1.06833 304.28 0.318333 304.09 0.0983326C303.9 -0.121667 303.74 0.788333 303.74 0.788333L303.47 0.518333V1.03833L302.79 0.518333L302.58 1.16833L302.38 0.968333V1.56833H302.17V2.04833C302.17 2.04833 301.85 2.15833 301.74 2.10833C301.63 2.05833 301.74 2.66833 301.74 2.73833C301.74 2.80833 301.52 2.53833 301.25 2.36833C300.98 2.19833 301.18 2.61833 301.25 2.74833L300.95 2.10833L300.6 2.36833L300.38 1.93833V2.33833C300.237 2.13804 300.073 1.95365 299.89 1.78833C299.8 1.78833 299.83 1.89833 299.89 1.99833L299.65 1.56833L299.38 1.96833H298.55L298.33 2.28833L297.89 1.96833L297.63 2.26833L297.41 1.96833V2.25833H297.17L296.84 2.50833C296.705 2.41213 296.561 2.32846 296.41 2.25833C296.3 2.25833 296.27 2.63833 296.27 2.63833C296.12 2.52628 295.98 2.40256 295.85 2.26833C295.77 2.15833 295.52 2.90833 295.52 2.90833C295.52 2.90833 295.19 2.68833 295.01 2.53833C294.83 2.38833 295.01 3.20833 295.01 3.28833C295.01 3.36833 294.63 2.90833 294.47 2.73833C294.31 2.56833 294.47 3.23833 294.47 3.23833L293.84 2.73833L293.6 3.38833L293.17 3.86833L292.79 4.40833C292.723 4.3749 292.65 4.35749 292.575 4.35749C292.5 4.35749 292.427 4.3749 292.36 4.40833H291.95L291.77 4.68833L291.64 4.80833C291.48 4.75833 291.4 4.97833 291.34 4.98833C291.244 4.90682 291.16 4.81262 291.09 4.70833C291 4.56833 290.83 4.99833 290.7 5.16833C290.39 5.07833 289.97 5.55833 289.75 5.11833C289.53 4.67833 289.17 4.70833 289.04 4.97833C288.91 5.24833 289.56 5.77833 288.91 5.23833C288.26 4.69833 288.67 5.80833 288.44 5.44833C288.21 5.08833 287.98 5.59833 287.89 5.38833C287.8 5.17833 287.73 5.86833 287.44 5.38833C287.15 4.90833 286.7 5.06833 286.7 5.26833C286.725 5.41917 286.776 5.56461 286.85 5.69833C286.79 5.63201 286.74 5.55803 286.7 5.47833C286.35 4.90833 285.96 5.53833 285.96 5.53833L285.83 5.67833C285.77 5.69878 285.718 5.73718 285.68 5.78833C285.59 5.78833 285.5 5.78833 285.45 5.65833C285.4 5.52833 285.38 5.54833 285.35 5.60833C285.32 5.66833 285.29 5.53833 285.25 5.65833C285.246 5.68459 285.236 5.7096 285.221 5.73137C285.206 5.75313 285.186 5.77105 285.163 5.78368C285.139 5.79632 285.113 5.80332 285.087 5.80412C285.06 5.80493 285.034 5.79952 285.01 5.78833C284.972 5.73718 284.92 5.69878 284.86 5.67833L284.73 5.53833C284.73 5.53833 284.35 4.90833 284 5.47833C283.96 5.55803 283.91 5.63201 283.85 5.69833C283.924 5.56461 283.975 5.41917 284 5.26833C284 5.06833 283.55 4.94833 283.25 5.38833C282.95 5.82833 282.9 5.14833 282.81 5.38833C282.72 5.62833 282.49 5.09833 282.26 5.44833C282.03 5.79833 282.42 4.70833 281.78 5.23833C281.14 5.76833 281.78 5.23833 281.65 4.97833C281.52 4.71833 281.2 4.61833 280.94 5.11833C280.68 5.61833 280.17 4.87833 279.84 5.26833C279.51 5.65833 279.49 4.85833 279.4 4.97833C279.31 5.09833 279.21 4.52833 278.85 4.97833C278.49 5.42833 278.36 4.76833 278.36 4.76833C278.36 4.76833 277.95 4.40833 277.75 4.53833C277.55 4.66833 277.59 4.40833 277.43 4.53833C277.27 4.66833 277.24 4.61833 277.17 4.73833C277.133 4.7776 277.087 4.80715 277.035 4.82436C276.984 4.84156 276.929 4.84592 276.876 4.83703C276.823 4.82814 276.772 4.80628 276.729 4.77338C276.687 4.74048 276.652 4.69754 276.63 4.64833C276.5 4.37833 276.63 4.64833 276.46 5.20833C276.29 5.76833 276.24 5.29833 276.11 4.87833C275.98 4.45833 275.88 4.99833 275.6 5.62833C275.32 6.25833 275.18 5.35833 274.89 6.01833C274.6 6.67833 274.5 5.09833 274.15 5.53833C273.8 5.97833 273.55 5.17833 273.55 5.17833C273.507 5.11762 273.451 5.06715 273.386 5.03048C273.321 4.99382 273.248 4.97185 273.174 4.96613C273.1 4.96041 273.025 4.97108 272.955 4.99737C272.885 5.02367 272.822 5.06496 272.77 5.11833C272.39 5.53833 272.51 4.43833 272.13 4.69833C271.75 4.95833 271.84 4.37833 271.46 4.85833C271.08 5.33833 271.2 4.31833 270.84 4.85833C270.48 5.39833 270.62 4.61833 270.14 5.56833C269.66 6.51833 269.69 5.35833 269.46 5.92833C269.23 6.49833 269.33 5.65833 268.98 5.92833C268.63 6.19833 268.81 5.71833 268.43 6.24833C268.05 6.77833 268.2 5.65833 267.88 6.24833C267.56 6.83833 267.66 5.62833 267.37 5.95833C267.08 6.28833 267.27 5.68833 266.89 6.51833C266.51 7.34833 266.73 6.30833 266.57 6.77833C266.41 7.24833 266.23 6.77833 266.22 6.77833C266.21 6.77833 265.96 7.11833 265.89 6.87833C265.82 6.63833 265.41 6.87833 265.41 6.87833C265.03 6.99833 265.41 6.87833 265.12 7.46833C264.83 8.05833 264.93 7.17833 264.73 7.46833C264.53 7.75833 264.25 7.36833 264.02 7.46833C263.79 7.56833 263.58 7.46833 263.22 7.86833C262.86 8.26833 262.87 7.86833 262.87 7.86833C262.688 7.73427 262.494 7.61712 262.29 7.51833C262.14 7.51833 261.84 7.51833 261.88 7.61833C261.92 7.71833 261.07 7.32833 260.88 7.61833C260.69 7.90833 260.6 7.61833 260.38 7.92833C260.16 8.23833 259.89 7.74833 259.67 8.00833C259.45 8.26833 259.27 7.68833 259.12 8.18833C258.97 8.68833 258.82 8.28833 258.76 7.83833C258.7 7.38833 258.21 7.68833 257.96 8.28833C257.71 8.88833 257.48 7.88833 257.18 8.40833C256.88 8.92833 256.86 8.18833 256.73 8.63833C256.6 9.08833 256.47 8.99833 256.47 8.54833C256.47 8.09833 255.94 8.43833 255.73 9.04833C255.629 9.10381 255.535 9.17093 255.45 9.24833C255.39 9.17833 255.32 9.09833 255.26 9.10833V8.85833C255.175 9.00217 255.101 9.15266 255.04 9.30833L254.77 8.96833L254.55 9.30833C254.55 9.30833 254.45 9.03833 254.34 8.98833C254.204 8.9652 254.066 8.9652 253.93 8.98833L253.71 9.30833L253.23 9.40833L253.05 9.65833L252.86 9.56833C252.729 9.44454 252.581 9.34015 252.42 9.25833C252.288 9.2314 252.152 9.2314 252.02 9.25833C251.867 9.24783 251.713 9.24783 251.56 9.25833C251.45 9.25833 251.28 9.53833 251.28 9.53833C251.28 9.53833 251.04 9.38833 250.96 9.41833C250.88 9.44833 250.78 9.58833 250.76 9.62833C250.76 9.62833 250.54 9.27833 250.46 9.27833C250.38 9.27833 250.22 9.59833 250.22 9.59833L249.87 9.07833L249.61 9.29833L249.41 8.87833L249.01 9.05833V8.82833L248.71 9.05833C248.486 9.10614 248.254 9.10614 248.03 9.05833C247.82 8.95833 247.65 9.23833 247.65 9.23833C247.454 9.14343 247.25 9.06645 247.04 9.00833C246.899 9.03512 246.761 9.07877 246.63 9.13833L246.31 8.65833C246.2 8.51833 245.9 8.65833 245.79 8.53833C245.68 8.41833 245.53 8.40833 245.33 8.33833C245.13 8.26833 245.19 8.53833 245.33 8.75833C245.33 8.66833 245.16 8.48833 245.06 8.45833C244.96 8.42833 244.6 8.82833 244.6 8.82833C244.511 8.66768 244.392 8.52521 244.25 8.40833C244.02 8.21833 244.25 8.64833 244.25 8.71833L243.91 8.60833L243.63 8.42833L243.28 8.32833C243.203 8.1935 243.105 8.07193 242.99 7.96833C242.818 7.93764 242.642 7.93764 242.47 7.96833H242C241.86 7.96833 241.82 8.22833 241.79 8.30833C241.76 8.38833 241.22 8.19833 241.11 7.96833C241 7.73833 240.87 8.30833 240.87 8.30833C240.87 8.30833 240.76 8.08833 240.68 7.96833C240.6 7.84833 240.27 8.25833 240.27 8.25833V7.96833C240.27 7.96833 239.74 8.60833 239.65 8.57833C239.56 8.54833 239.36 8.92833 239.36 8.92833C239.219 8.84806 239.091 8.74692 238.98 8.62833C238.82 8.45833 238.44 8.75833 238.35 8.75833C238.26 8.75833 238.14 8.65833 238.03 8.48833C237.92 8.31833 237.79 8.82833 237.68 8.87833C237.57 8.92833 237.46 8.65833 237.28 8.48833C237.1 8.31833 236.93 8.75833 236.93 8.75833L236.79 8.57833C236.65 8.40833 236.41 9.15833 236.41 9.15833C236.291 9.11495 236.174 9.06487 236.06 9.00833C235.92 8.92833 235.74 9.42833 235.74 9.42833C235.74 9.42833 235.55 9.15833 235.44 8.97833C235.33 8.79833 235.11 9.45833 235.09 9.57833C235.07 9.69833 234.57 9.37833 234.39 9.20833C234.21 9.03833 233.79 9.34833 233.66 9.20833C233.53 9.06833 233.2 9.43833 233.06 9.20833C232.92 8.97833 232.82 9.53833 232.63 9.36833C232.44 9.19833 232.28 9.53833 232.17 9.46833C232.06 9.39833 231.9 9.93833 231.9 9.93833C231.741 10.0917 231.566 10.2291 231.38 10.3483C231.33 10.3483 230.57 10.2383 230.47 10.1883C230.37 10.1383 230.01 10.3083 229.93 10.1883C229.85 10.0683 229.76 10.0083 229.68 10.0083C229.6 10.0083 229.26 10.3683 229.26 10.3683L228.58 10.1883L228.36 10.3683C228.36 10.3683 227.96 10.1583 227.93 10.0583C227.9 9.95833 227.71 10.3683 227.71 10.3683L227.5 10.1383L226.83 10.3683C226.755 10.235 226.661 10.1137 226.55 10.0083C226.44 9.93833 226.25 10.1083 226.25 10.1083L225.96 9.80833C225.96 9.80833 225.53 10.1383 225.42 10.1083C225.187 10.0931 224.953 10.0931 224.72 10.1083C224.611 10.0161 224.517 9.90827 224.44 9.78833C224.37 9.62833 224.06 9.93833 224.06 9.93833C224.06 9.93833 223.71 9.85833 223.71 9.62833V9.85833C223.605 9.71447 223.477 9.58937 223.33 9.48833C223.12 9.35833 223.04 9.80833 223.04 9.80833C222.966 9.6046 222.868 9.41 222.75 9.22833C222.65 9.22833 222.29 9.88833 222.29 9.88833C222.29 9.88833 222.09 9.53833 221.88 9.48833C221.67 9.43833 221.79 9.48833 221.79 9.53833C221.759 9.45514 221.715 9.37747 221.66 9.30833C221.56 9.18833 221.39 9.88833 221.39 9.88833V9.38833L221.1 9.80833L220.88 9.40833V9.97833C220.88 9.97833 220.77 9.70833 220.64 9.45833C220.51 9.20833 220.44 9.78833 220.44 9.78833V9.43833C220.44 9.43833 220.09 9.57833 220.01 9.27833C219.93 8.97833 220.01 9.27833 219.91 9.10833C219.81 8.93833 219.63 9.32833 219.63 9.32833L219.5 9.03833C219.37 8.73833 219.23 9.30833 219.23 9.30833C219.23 9.30833 219.1 8.80833 219.02 8.58833C218.94 8.36833 218.39 8.98833 218.39 8.98833L218 8.45833C217.889 8.64231 217.805 8.84092 217.75 9.04833C217.75 9.20833 217.42 8.69833 217.1 8.45833C216.78 8.21833 217.01 8.74833 217.1 8.91833C217.02 8.79833 216.85 8.52833 216.73 8.47833C216.61 8.42833 216.73 9.04833 216.73 9.04833L216.48 8.59833L216.18 9.52833C216.18 9.52833 216.04 9.17833 215.96 8.91833C215.88 8.65833 215.75 9.34833 215.75 9.34833C215.67 9.15034 215.573 8.95963 215.46 8.77833C215.27 8.48833 215.39 8.95833 215.46 9.12833C215.39 9.02833 215.27 8.79833 215.23 8.72833C215.19 8.65833 215.04 9.09833 215.04 9.09833C214.948 8.94859 214.806 8.8355 214.64 8.77833C214.52 8.71833 214.49 8.77833 214.49 8.85833L214.42 8.67833C214.36 8.57833 214.07 9.21833 214.07 9.14833C213.983 8.88677 213.883 8.62977 213.77 8.37833C213.69 8.16833 213.77 9.07833 213.77 9.07833L213.52 8.51833C213.52 8.51833 213.2 8.86833 213.12 8.72833C213.04 8.58833 212.91 9.24833 212.91 9.24833L212.61 8.64833C212.42 8.27833 212.28 9.02833 212.28 9.02833C212.296 8.76857 212.296 8.50809 212.28 8.24833C212.28 7.99833 211.93 8.69833 211.93 8.69833C211.875 8.50589 211.783 8.32591 211.66 8.16833C211.5 7.99833 211.34 8.45833 211.34 8.45833L211.2 8.10833C211.06 7.75833 210.96 8.27833 210.96 8.27833C210.96 8.27833 210.85 7.94833 210.74 7.67833C210.63 7.40833 210.45 7.93833 210.45 7.93833L210.01 7.49833C209.82 7.29833 210.01 7.82833 210.01 7.92833C209.94 7.83833 209.67 7.46833 209.53 7.22833C209.39 6.98833 209.12 7.93833 209.12 7.93833L208.77 7.37833C208.63 7.14833 208.31 7.75833 208.31 7.75833C208.327 7.57208 208.327 7.38459 208.31 7.19833C208.31 6.92833 208.07 7.70833 208.07 7.70833C208.07 7.70833 207.85 7.24833 207.82 7.14833C207.79 7.04833 207.45 7.59833 207.45 7.59833C207.33 7.40744 207.22 7.21052 207.12 7.00833C207.01 6.74833 206.72 7.47833 206.72 7.47833C206.72 7.47833 206.45 6.92833 206.37 6.90833C206.29 6.88833 206.18 7.27833 206.18 7.27833L205.78 6.90833C205.67 6.74833 205.37 7.17833 204.99 6.90833C204.61 6.63833 204.58 7.05833 204.43 6.90833C204.28 6.75833 203.96 7.10833 203.88 6.90833C203.8 6.70833 203.59 6.48833 203.48 6.23833C203.37 5.98833 202.83 7.23833 202.48 6.85833C202.13 6.47833 201.8 7.07833 201.61 6.95833C201.42 6.83833 201.37 7.17833 201.24 6.95833C201.144 6.79872 201.033 6.64811 200.91 6.50833C200.78 6.29833 200.75 7.19833 200.58 7.09833C200.508 7.0813 200.432 7.0813 200.36 7.09833C200.303 7.13445 200.237 7.15512 200.17 7.15833H199.9C199.833 7.15512 199.767 7.13445 199.71 7.09833C199.638 7.08166 199.562 7.08166 199.49 7.09833C199.32 7.19833 199.29 6.29833 199.17 6.50833C199.04 6.64508 198.926 6.79603 198.83 6.95833C198.71 7.19833 198.65 6.85833 198.46 6.95833C198.27 7.05833 197.92 6.50833 197.59 6.85833C197.26 7.20833 196.73 5.97833 196.59 6.23833C196.45 6.49833 196.27 6.75833 196.19 6.90833C196.11 7.05833 195.81 6.70833 195.65 6.90833C195.49 7.10833 195.46 6.65833 195.08 6.90833C194.7 7.15833 194.4 6.72833 194.29 6.90833L193.89 7.27833C193.89 7.27833 193.79 6.87833 193.7 6.90833C193.61 6.93833 193.35 7.47833 193.35 7.47833C193.35 7.47833 193.06 6.74833 192.95 7.00833C192.84 7.26833 192.63 7.59833 192.63 7.59833C192.63 7.59833 192.27 7.05833 192.25 7.14833C192.23 7.23833 192 7.70833 192 7.70833C192 7.70833 191.79 6.92833 191.76 7.19833C191.743 7.38459 191.743 7.57208 191.76 7.75833C191.76 7.75833 191.44 7.14833 191.3 7.37833L190.95 7.93833C190.95 7.93833 190.7 6.93833 190.54 7.22833C190.38 7.51833 190.13 7.83833 190.07 7.92833C190.07 7.82833 190.25 7.29833 190.07 7.49833L189.63 7.93833C189.63 7.93833 189.44 7.40833 189.34 7.67833C189.24 7.94833 189.12 8.27833 189.12 8.27833C189.12 8.27833 189.02 7.75833 188.88 8.10833L188.74 8.45833C188.74 8.45833 188.58 7.99833 188.42 8.16833C188.297 8.32591 188.205 8.50589 188.15 8.69833C188.15 8.69833 187.82 7.99833 187.8 8.24833C187.784 8.50809 187.784 8.76857 187.8 9.02833C187.8 9.02833 187.66 8.27833 187.47 8.64833C187.28 9.01833 187.17 9.24833 187.17 9.24833C187.17 9.24833 187.04 8.57833 186.96 8.72833C186.88 8.87833 186.56 8.51833 186.56 8.51833L186.31 9.07833C186.31 9.07833 186.39 8.16833 186.31 8.37833C186.197 8.62977 186.097 8.88677 186.01 9.14833C186.01 9.21833 185.72 8.57833 185.66 8.67833L185.59 8.85833C185.59 8.76833 185.59 8.71833 185.44 8.77833C185.274 8.8355 185.132 8.94859 185.04 9.09833C185.04 9.09833 184.91 8.62833 184.85 8.72833C184.79 8.82833 184.69 9.02833 184.62 9.12833C184.67 8.95833 184.79 8.48833 184.62 8.77833C184.502 8.95832 184.402 9.14919 184.32 9.34833C184.32 9.34833 184.18 8.67833 184.11 8.91833C184.04 9.15833 183.89 9.52833 183.89 9.52833L183.59 8.59833L183.34 9.04833C183.34 9.04833 183.51 8.39833 183.34 8.47833C183.17 8.55833 183.05 8.79833 182.97 8.91833C183.03 8.74833 183.22 8.23833 182.97 8.45833C182.72 8.67833 182.32 9.20833 182.32 9.04833C182.265 8.84092 182.181 8.64231 182.07 8.45833L181.68 8.97833C181.68 8.97833 181.14 8.34833 181.05 8.57833C180.96 8.80833 180.84 9.29833 180.84 9.29833C180.84 9.29833 180.7 8.72833 180.57 9.02833L180.44 9.31833C180.44 9.31833 180.27 8.91833 180.16 9.09833C180.05 9.27833 180.16 8.97833 180.06 9.26833C179.96 9.55833 179.63 9.42833 179.63 9.42833V9.77833C179.63 9.77833 179.57 9.20833 179.43 9.44833C179.29 9.68833 179.19 9.96833 179.19 9.96833V9.39833L178.97 9.79833L178.68 9.37833V9.85833C178.68 9.85833 178.51 9.15833 178.41 9.27833C178.358 9.34984 178.315 9.42701 178.28 9.50833C178.28 9.50833 178.28 9.43833 178.19 9.45833C178.1 9.47833 177.79 9.85833 177.79 9.85833C177.79 9.85833 177.42 9.19833 177.32 9.19833C177.202 9.38 177.104 9.57459 177.03 9.77833C177.03 9.77833 176.95 9.32833 176.74 9.45833C176.593 9.55937 176.465 9.68447 176.36 9.82833V9.59833C176.36 9.82833 176.01 9.90833 176.01 9.90833C176.01 9.90833 175.7 9.59833 175.63 9.75833C175.553 9.87827 175.459 9.98611 175.35 10.0783C175.117 10.0631 174.883 10.0631 174.65 10.0783C174.54 10.0783 174.11 9.77833 174.11 9.77833L173.82 10.0783C173.82 10.0783 173.63 9.90833 173.52 9.97833C173.411 10.0832 173.32 10.2047 173.25 10.3383L172.57 10.1083L172.36 10.3383C172.36 10.3383 172.17 9.92833 172.14 10.0283C172.11 10.1283 171.71 10.3383 171.71 10.3383L171.5 10.1583L170.81 10.3383C170.81 10.3383 170.46 9.97833 170.39 9.97833C170.32 9.97833 170.22 9.97833 170.14 10.1583C170.06 10.3383 169.71 10.1583 169.6 10.1583C169.49 10.1583 168.74 10.3083 168.69 10.3183C168.504 10.1991 168.329 10.0617 168.17 9.90833C168.17 9.90833 168.01 9.35833 167.9 9.43833C167.79 9.51833 167.63 9.16833 167.44 9.33833C167.25 9.50833 167.15 8.95833 167.01 9.17833C166.87 9.39833 166.55 9.08833 166.41 9.17833C166.27 9.26833 165.88 8.95833 165.68 9.17833C165.48 9.39833 165.01 9.66833 164.99 9.54833C164.97 9.42833 164.74 8.77833 164.64 8.94833L164.33 9.39833C164.33 9.39833 164.15 8.89833 164.01 8.97833C163.896 9.03487 163.779 9.08495 163.66 9.12833C163.66 9.12833 163.42 8.37833 163.28 8.54833L163.14 8.72833C163.14 8.72833 162.99 8.27833 162.79 8.45833C162.59 8.63833 162.5 8.89833 162.39 8.84833C162.28 8.79833 162.15 8.27833 162.04 8.45833C161.93 8.63833 161.8 8.72833 161.72 8.72833C161.64 8.72833 161.26 8.42833 161.09 8.59833C160.979 8.71692 160.851 8.81806 160.71 8.89833C160.71 8.89833 160.5 8.51833 160.42 8.54833C160.34 8.57833 159.8 7.93833 159.8 7.93833V8.22833C159.8 8.22833 159.47 7.82833 159.4 7.93833C159.326 8.04691 159.259 8.16051 159.2 8.27833C159.2 8.27833 159.06 7.69833 158.96 7.93833C158.86 8.17833 158.31 8.34833 158.28 8.27833C158.25 8.20833 158.21 7.94833 158.07 7.93833H157.72C157.548 7.90765 157.372 7.90765 157.2 7.93833C157.085 8.04193 156.987 8.1635 156.91 8.29833L156.56 8.39833L156.28 8.57833L155.94 8.68833C155.94 8.61833 156.16 8.18833 155.94 8.37833C155.798 8.49522 155.679 8.63768 155.59 8.79833C155.59 8.79833 155.3 8.37833 155.13 8.42833C154.96 8.47833 154.91 8.63833 154.86 8.72833C154.97 8.50833 155.01 8.22833 154.86 8.30833C154.71 8.38833 154.51 8.37833 154.4 8.50833C154.29 8.63833 153.99 8.50833 153.88 8.62833L153.56 9.10833C153.43 9.04719 153.292 9.00348 153.15 8.97833C152.94 9.03644 152.736 9.11342 152.54 9.20833C152.54 9.20833 152.37 8.92833 152.16 9.02833C151.936 9.07614 151.704 9.07614 151.48 9.02833L151.18 8.79833V9.02833L150.78 8.84833L150.59 9.26833L150.32 9.04833L149.97 9.56833C149.97 9.56833 149.8 9.24833 149.73 9.24833C149.66 9.24833 149.43 9.57833 149.43 9.59833C149.43 9.59833 149.3 9.40833 149.22 9.38833C149.14 9.36833 148.9 9.50833 148.9 9.50833C148.9 9.50833 148.74 9.25833 148.62 9.22833C148.467 9.21782 148.313 9.21782 148.16 9.22833C148.028 9.20139 147.892 9.20139 147.76 9.22833C147.599 9.31014 147.451 9.41454 147.32 9.53833L147.13 9.62833L146.95 9.37833L146.47 9.27833L146.25 8.95833C146.114 8.9352 145.976 8.9352 145.84 8.95833C145.73 8.95833 145.63 9.27833 145.63 9.27833L145.41 8.93833L145.14 9.27833C145.079 9.12266 145.005 8.97217 144.92 8.82833V9.05833C144.86 9.05833 144.79 9.12833 144.73 9.19833C144.645 9.12093 144.551 9.05381 144.45 8.99833C144.24 8.38833 143.71 8.07833 143.71 8.49833C143.71 8.91833 143.58 9.03833 143.45 8.58833C143.32 8.13833 143.28 8.85833 143 8.35833C142.72 7.85833 142.48 8.82833 142.22 8.23833C141.96 7.64833 141.49 7.33833 141.42 7.78833C141.35 8.23833 141.23 8.64833 141.06 8.13833C140.89 7.62833 140.74 8.23833 140.51 7.95833C140.28 7.67833 140.03 8.23833 139.8 7.87833C139.57 7.51833 139.48 7.87833 139.3 7.56833C139.12 7.25833 138.3 7.71833 138.3 7.56833C138.3 7.41833 138.04 7.42833 137.89 7.46833C137.686 7.56712 137.492 7.68427 137.31 7.81833C137.31 7.81833 137.31 8.25833 136.96 7.81833C136.61 7.37833 136.38 7.52833 136.16 7.41833C135.94 7.30833 135.64 7.72833 135.45 7.41833C135.26 7.10833 135.35 7.99833 135.06 7.41833C134.77 6.83833 135.15 6.94833 134.77 6.82833C134.77 6.82833 134.35 6.58833 134.29 6.82833C134.23 7.06833 133.97 6.82833 133.97 6.72833C133.97 6.62833 133.76 7.14833 133.62 6.72833C133.48 6.30833 133.68 7.30833 133.29 6.46833C132.9 5.62833 133.1 6.22833 132.81 5.90833C132.52 5.58833 132.62 6.82833 132.3 6.19833C131.98 5.56833 132.13 6.70833 131.75 6.19833C131.37 5.68833 131.55 6.19833 131.2 5.87833C130.85 5.55833 130.95 6.44833 130.72 5.87833C130.49 5.30833 130.53 6.46833 130.04 5.51833C129.55 4.56833 129.69 5.33833 129.34 4.80833C128.99 4.27833 129.11 5.27833 128.73 4.80833C128.35 4.33833 128.44 4.89833 128.05 4.64833C127.66 4.39833 127.8 5.48833 127.41 5.06833C127.359 5.01512 127.296 4.9739 127.227 4.94765C127.158 4.9214 127.084 4.91075 127.011 4.91649C126.937 4.92223 126.866 4.9442 126.802 4.98083C126.738 5.01746 126.682 5.06783 126.64 5.12833C126.64 5.12833 126.39 5.93833 126.03 5.48833C125.67 5.03833 125.58 6.61833 125.29 5.96833C125 5.31833 124.88 6.19833 124.58 5.57833C124.28 4.95833 124.2 4.41833 124.07 4.82833C123.94 5.23833 123.87 5.72833 123.72 5.15833C123.57 4.58833 123.72 4.32833 123.55 4.59833C123.528 4.64753 123.493 4.69048 123.451 4.72338C123.408 4.75628 123.357 4.77814 123.304 4.78703C123.251 4.79592 123.196 4.79157 123.145 4.77436C123.093 4.75715 123.047 4.72761 123.01 4.68833C122.94 4.56833 122.92 4.62833 122.75 4.48833C122.58 4.34833 122.62 4.62833 122.43 4.48833C122.24 4.34833 121.82 4.71833 121.82 4.71833C121.82 4.71833 121.69 5.36833 121.33 4.92833C120.97 4.48833 120.88 5.04833 120.78 4.92833C120.68 4.80833 120.65 5.60833 120.34 5.21833C120.03 4.82833 119.5 5.57833 119.24 5.06833C118.98 4.55833 118.66 4.65833 118.53 4.92833C118.4 5.19833 119.05 5.72833 118.4 5.18833C117.75 4.64833 118.15 5.75833 117.92 5.39833C117.69 5.03833 117.47 5.54833 117.37 5.33833C117.27 5.12833 117.22 5.81833 116.93 5.33833C116.64 4.85833 116.18 5.01833 116.18 5.21833C116.205 5.36918 116.256 5.51461 116.33 5.64833C116.27 5.58201 116.22 5.50802 116.18 5.42833C115.83 4.85833 115.45 5.48833 115.45 5.48833L115.32 5.62833C115.26 5.64878 115.208 5.68718 115.17 5.73833C115.146 5.74952 115.12 5.75493 115.093 5.75412C115.067 5.75332 115.041 5.74632 115.017 5.73368C114.994 5.72105 114.974 5.70313 114.959 5.68137C114.944 5.6596 114.934 5.63459 114.93 5.60833C114.93 5.48833 114.86 5.49833 114.83 5.55833C114.8 5.61833 114.77 5.48833 114.73 5.60833C114.69 5.72833 114.59 5.76833 114.5 5.73833C114.462 5.68718 114.41 5.64878 114.35 5.62833L114.22 5.48833C114.22 5.48833 113.84 4.85833 113.48 5.42833C113.44 5.50802 113.39 5.58201 113.33 5.64833C113.404 5.51461 113.455 5.36918 113.48 5.21833C113.48 5.01833 113.03 4.89833 112.74 5.33833C112.45 5.77833 112.39 5.09833 112.29 5.33833C112.19 5.57833 111.97 5.04833 111.75 5.39833C111.53 5.74833 111.9 4.65833 111.27 5.18833C110.64 5.71833 111.27 5.18833 111.14 4.92833C111.01 4.66833 110.69 4.56833 110.43 5.06833C110.17 5.56833 109.79 5.06833 109.48 5.11833C109.35 4.94833 109.19 4.51833 109.09 4.65833C109.02 4.76262 108.936 4.85682 108.84 4.93833C108.78 4.93833 108.7 4.70833 108.54 4.75833L108.41 4.63833L108.23 4.35833H107.82C107.753 4.3249 107.68 4.30749 107.605 4.30749C107.53 4.30749 107.457 4.3249 107.39 4.35833L106.9 3.85833L106.47 3.37833L106.23 2.72833L105.6 3.22833C105.6 3.22833 105.77 2.55833 105.6 2.72833C105.43 2.89833 105.06 3.35833 105.06 3.27833C105.06 3.19833 105.25 2.38833 105.06 2.52833C104.87 2.66833 104.55 2.89833 104.55 2.89833C104.55 2.89833 104.31 2.14833 104.22 2.25833C104.09 2.39256 103.95 2.51628 103.8 2.62833C103.8 2.62833 103.8 2.20833 103.66 2.24833C103.509 2.31846 103.365 2.40213 103.23 2.49833L102.91 2.24833H102.66V1.95833L102.45 2.25833L102.18 1.95833L101.75 2.27833L101.52 1.95833H100.69L100.42 1.55833L100.18 1.98833C100.18 1.88833 100.24 1.72833 100.18 1.77833C99.9975 1.94365 99.8332 2.12804 99.69 2.32833V1.92833L99.47 2.35833L99.12 2.09833L98.82 2.73833C98.82 2.60833 99.02 2.20833 98.82 2.35833C98.62 2.50833 98.33 2.79833 98.33 2.72833C98.33 2.65833 98.44 2.05833 98.33 2.09833C98.22 2.13833 97.9 2.03833 97.9 2.03833V1.55833H97.69V0.958333L97.49 1.15833L97.28 0.508332L96.6 1.02833V0.508332L96.33 0.778333C96.33 0.778333 96.17 -0.131668 95.98 0.0883324C95.79 0.308332 95.52 1.08833 95.52 0.858333C95.52 0.628333 95.52 -0.141668 95.31 0.0883324C95.1798 0.278596 95.0596 0.475532 94.95 0.678333C94.95 0.678333 94.55 0.328333 94.53 0.458333C94.51 0.588333 94.31 1.15833 94.25 1.07833C94.19 0.998332 94.04 0.608333 94.04 0.608333L93.53 0.908332L93.29 0.488332L92.98 1.02833L92.74 0.778333H91.91C91.744 1.02475 91.5601 1.25871 91.36 1.47833C91.36 1.39833 91.15 0.648334 91.15 0.648334L90.69 0.458333L90.45 0.968333V0.258332L90.05 0.968333L89.8 0.688333L89.56 0.968333L89.15 0.258332V0.978334L88.9 0.468333L88.44 0.658332C88.44 0.658332 88.23 1.40833 88.23 1.48833C88.0333 1.26839 87.8528 1.03444 87.69 0.788333H86.85L86.61 1.03833L86.32 0.498332L86 0.858333L85.49 0.558334C85.49 0.558334 85.32 0.948333 85.27 1.02833C85.22 1.10833 85.03 0.538332 85 0.408332C84.97 0.278332 84.57 0.628333 84.57 0.628333C84.4654 0.424759 84.3485 0.227729 84.22 0.0383332C84.05 -0.181667 84 0.608334 84 0.808334C84 1.00833 83.73 0.258333 83.54 0.0383332C83.35 -0.181667 83.19 0.728334 83.19 0.728334L82.92 0.458333V0.978334L82.25 0.458333L82.03 1.10833L81.84 0.908332V1.50833H81.62V1.98833C81.62 1.98833 81.3 2.09833 81.19 2.04833C81.08 1.99833 81.19 2.60833 81.19 2.67833C81.19 2.74833 80.98 2.47833 80.7 2.30833C80.42 2.13833 80.63 2.55833 80.7 2.68833L80.4 2.04833L80.05 2.30833L79.84 1.87833V2.27833C79.6939 2.08032 79.5299 1.89621 79.35 1.72833C79.25 1.72833 79.29 1.83833 79.35 1.93833L79.1 1.50833L78.84 1.90833H78L77.79 2.22833L77.35 1.90833L77.08 2.20833L76.87 1.90833V2.19833H76.6L76.27 2.44833C76.1306 2.35276 75.9834 2.26913 75.83 2.19833C75.73 2.19833 75.7 2.57833 75.7 2.57833C75.5489 2.46433 75.4053 2.34075 75.27 2.20833C75.19 2.09833 74.95 2.84833 74.95 2.84833C74.95 2.84833 74.62 2.62833 74.43 2.47833C74.24 2.32833 74.43 3.14833 74.43 3.22833C74.43 3.30833 74.06 2.84833 73.89 2.67833C73.72 2.50833 73.89 3.17833 73.89 3.17833L73.27 2.67833L73 3.35833L72.57 3.83833L72.19 4.37833C72.1233 4.3449 72.0496 4.32749 71.975 4.32749C71.9004 4.32749 71.8267 4.3449 71.76 4.37833H71.36L71.17 4.65833L70.82 5.02833C70.6946 4.93029 70.5864 4.812 70.5 4.67833C70.39 4.50833 70.17 5.15833 70.04 5.20833C69.9318 5.23628 69.8182 5.23628 69.71 5.20833C69.71 5.20833 69.85 5.58833 69.71 5.51833C69.6033 5.48018 69.4867 5.48018 69.38 5.51833V6.02833H69.06V6.40833C68.8397 6.3953 68.6232 6.34456 68.42 6.25833C68.2753 6.23378 68.1422 6.16372 68.04 6.05833C67.85 5.88833 67.76 6.28833 67.76 6.28833C67.6893 6.31349 67.6137 6.32206 67.5392 6.31339C67.4646 6.30472 67.3931 6.27904 67.33 6.23833C67.12 6.07833 67.09 6.35833 67.09 6.35833L66.71 6.60833H66.34L66.14 6.93833C66.14 6.93833 65.9 7.07833 65.74 6.93833C65.58 6.79833 65.36 7.05833 65.36 7.05833C65.392 7.17281 65.392 7.29386 65.36 7.40833C65.36 7.52833 64.87 7.68833 64.8 7.68833C64.7032 7.70612 64.6091 7.73637 64.52 7.77833C64.4267 8.01078 64.3023 8.22946 64.15 8.42833C63.8945 8.57822 63.6181 8.68943 63.33 8.75833C63.1871 8.77379 63.0429 8.77379 62.9 8.75833L62.5 9.59833L61.74 9.82833V10.5583H61.36V11.1283L60.61 11.2383L60.39 11.8283L60.18 11.5783V12.0983C60.085 11.9647 59.9664 11.8495 59.83 11.7583C59.63 11.6583 59.83 12.0983 59.83 12.0983L59.47 11.8583V12.1783L59.22 11.8583L58.9 12.1783V11.9883H58.55L58.28 11.7383L58 11.2483H57.76C57.6754 11.0385 57.6117 10.8207 57.57 10.5983C57.57 10.3483 57.36 10.5983 57.36 10.5983C57.36 10.5983 57.09 10.2283 57.04 10.1283C56.99 10.0283 56.66 10.3583 56.66 10.3583C56.4519 10.1765 56.2314 10.0094 56 9.85833C55.9074 9.87507 55.8168 9.90189 55.73 9.93833C55.73 9.93833 55.47 9.65833 55.47 9.57833C55.47 9.49833 55.14 9.80833 55.14 9.80833L54.36 9.67833H53.9L53.57 9.72833L52.95 9.40833L52.44 9.67833C52.44 9.67833 51.93 9.24833 51.85 9.20833C51.77 9.16833 51.5 9.57833 51.5 9.57833L50.63 9.24833L50.31 9.57833L49.85 9.24833L49.57 9.50833L49.33 9.17833L49.07 9.32833L48.82 9.10833L48.41 9.27833V8.97833L48.06 9.23833L47.87 8.94833V9.29833L47.63 9.00833V9.23833L47.31 8.85833L47.04 8.90833L46.6 8.70833L46.18 8.41833L46 8.22833L45.59 8.39833C45.607 8.24547 45.607 8.0912 45.59 7.93833C45.59 7.71833 45.21 8.19833 45.21 8.19833V7.93833L44.95 8.29833L44.59 8.72833V8.39833L44.27 8.57833L43.89 8.12833V8.62833L43.68 8.24833L43.43 8.37833L43.35 8.48833L43.13 8.74833L42.87 8.39833V8.85833H42.65L42.21 9.05833V8.85833L41.92 9.15833C41.92 9.15833 41.73 8.67833 41.68 8.60833C41.63 8.53833 41.4 8.85833 41.4 8.85833L41 8.65833V9.05833L40.52 9.23833V8.85833L40.06 9.10833C39.9511 8.98217 39.8228 8.87416 39.68 8.78833C39.51 8.70833 39.68 9.13833 39.68 9.13833C39.5411 9.01199 39.4199 8.86733 39.32 8.70833C39.25 8.53833 39.08 9.10833 39.08 9.10833C38.9933 8.93184 38.9229 8.74773 38.87 8.55833C38.87 8.45833 38.54 8.95833 38.49 9.10833C38.44 9.25833 38.54 8.95833 38.49 8.75833C38.44 8.55833 38.3 9.27833 38.24 9.38833C38.18 9.49833 38.03 9.08833 37.81 8.93833C37.59 8.78833 37.81 9.15833 37.81 9.27833L37.59 8.87833C37.59 8.87833 37.21 9.17833 37.19 9.08833C37.17 8.99833 37.12 9.16833 37.08 9.29833C37.04 9.42833 36.99 9.57833 36.99 9.57833C36.8465 9.43099 36.6928 9.29398 36.53 9.16833C36.43 9.08833 36.53 9.60833 36.53 9.70833C36.53 9.80833 36.27 9.33833 36.21 9.25833C36.15 9.17833 35.69 9.57833 35.69 9.57833V9.17833C35.69 9.25833 35.51 9.67833 35.51 9.67833C35.4042 9.46509 35.3237 9.24024 35.27 9.00833C35.27 8.85833 34.7 9.35833 34.7 9.35833V8.85833C34.6147 9.00217 34.5411 9.15266 34.48 9.30833L34.21 8.96833L34 9.30833C34 9.30833 33.89 9.03833 33.78 8.98833C33.6443 8.9652 33.5057 8.9652 33.37 8.98833L33.16 9.30833L32.67 9.40833L32.45 9.70833C32.2739 9.53309 32.0756 9.38179 31.86 9.25833C31.728 9.2314 31.592 9.2314 31.46 9.25833C31.3069 9.24719 31.1531 9.24719 31 9.25833C30.89 9.25833 30.73 9.53833 30.73 9.53833C30.73 9.53833 30.48 9.38833 30.41 9.41833C30.34 9.44833 30.19 9.63833 30.19 9.63833C30.19 9.63833 29.98 9.28833 29.89 9.28833C29.8 9.28833 29.64 9.60833 29.64 9.60833L29.29 9.08833L29.03 9.30833L28.8 8.85833L28.4 9.03833V8.80833L28.1 9.03833C27.8792 9.08623 27.6508 9.08623 27.43 9.03833C27.21 8.93833 27.05 9.21833 27.05 9.21833C26.8505 9.12365 26.643 9.04669 26.43 8.98833C26.2891 9.0168 26.1516 9.06039 26.02 9.11833C26.02 9.11833 25.81 8.78833 25.7 8.63833C25.59 8.48833 25.3 8.63833 25.19 8.51833C25.08 8.39833 24.92 8.38833 24.73 8.31833C24.54 8.24833 24.6 8.51833 24.73 8.73833C24.66 8.64833 24.54 8.46833 24.44 8.43833C24.34 8.40833 23.98 8.80833 23.98 8.80833C23.8947 8.64494 23.7753 8.50172 23.63 8.38833C23.41 8.19833 23.63 8.62833 23.63 8.69833L23.29 8.58833L23 8.39833L22.65 8.29833C22.5689 8.16373 22.4678 8.04233 22.35 7.93833C22.1814 7.90777 22.0086 7.90777 21.84 7.93833H21.48C21.35 7.93833 21.3 8.19833 21.27 8.27833C21.24 8.35833 20.7 8.16833 20.6 7.93833C20.5 7.70833 20.35 8.27833 20.35 8.27833C20.35 8.27833 20.24 8.05833 20.17 7.93833C20.1 7.81833 19.76 8.22833 19.76 8.22833V7.93833C19.76 7.93833 19.22 8.57833 19.14 8.54833C19.06 8.51833 18.84 8.89833 18.84 8.89833C18.6989 8.81806 18.5708 8.71692 18.46 8.59833C18.3 8.42833 17.92 8.72833 17.84 8.72833C17.76 8.72833 17.63 8.62833 17.51 8.45833C17.39 8.28833 17.28 8.79833 17.16 8.84833C17.04 8.89833 16.95 8.62833 16.76 8.45833C16.57 8.28833 16.41 8.72833 16.41 8.72833L16.27 8.54833C16.14 8.37833 15.89 9.12833 15.89 9.12833L15.54 8.97833C15.41 8.89833 15.22 9.39833 15.22 9.39833C15.22 9.39833 15.03 9.12833 14.93 8.94833C14.83 8.76833 14.6 9.42833 14.57 9.54833C14.54 9.66833 14.06 9.34833 13.87 9.17833C13.68 9.00833 13.28 9.31833 13.14 9.17833C13 9.03833 12.68 9.40833 12.54 9.17833C12.4 8.94833 12.3 9.50833 12.12 9.33833C11.94 9.16833 11.76 9.50833 11.66 9.43833C11.56 9.36833 11.38 9.90833 11.38 9.90833C11.2236 10.0571 11.0565 10.1941 10.88 10.3183C10.82 10.3183 10.06 10.2083 9.95 10.1583C9.84 10.1083 9.49 10.2783 9.41 10.1583C9.33 10.0383 9.25 9.97833 9.17 9.97833C9.09 9.97833 8.74 10.3383 8.74 10.3383L8.07 10.1583L7.85 10.3383C7.85 10.3383 7.44 10.1283 7.41 10.0283C7.38 9.92833 7.2 10.3383 7.2 10.3383L7 10.1283L6.33 10.3583C6.23768 10.2232 6.12656 10.102 6 9.99833C5.89 9.92833 5.7 10.0983 5.7 10.0983L5.4 9.79833C5.4 9.79833 4.97 10.1283 4.86 10.0983C4.62691 10.0832 4.39309 10.0832 4.16 10.0983C4.05548 10.0048 3.9646 9.8971 3.89 9.77833C3.81 9.61833 3.51 9.92833 3.51 9.92833C3.51 9.92833 3.2 9.85833 3.2 9.61833V9.85833C3.0902 9.71532 2.95859 9.59046 2.81 9.48833C2.61 9.35833 2.52 9.80833 2.52 9.80833C2.52 9.80833 2.31 9.25833 2.23 9.22833C2.15 9.19833 1.77 9.88833 1.77 9.88833C1.77 9.88833 1.57 9.53833 1.36 9.48833C1.15 9.43833 1.27 9.48833 1.27 9.53833C1.23843 9.45756 1.19819 9.38044 1.15 9.30833C1 9.17833 0.87 9.85833 0.87 9.85833V9.35833L0.58 9.77833L0.36 9.37833V9.94833C0.291896 9.76975 0.211711 9.59602 0.12 9.42833C0.06 9.33833 0.03 9.35833 0 9.42833V33.3283H1L1.6 33.0883L2 33.0083C2 33.0083 2.14 31.5883 2.43 32.6883C2.72 33.7883 2.76 32.9083 2.76 32.9083C2.76 32.9083 3.09 31.6883 3.33 32.7383C3.57 33.7883 3.57 31.6183 3.79 32.7383C4.01 33.8583 4.03 32.2283 4.28 32.9083C4.53 33.5883 4.6 33.3483 4.6 33.3483H5.09C5.09 33.3483 5.31 32.6783 5.58 33.3483C5.85 34.0183 6.09 33.3483 6.09 33.3483L6.82 33.4483L7.22 33.0183L7.47 33.2683H8H8.71L9.39 33.3483C9.64492 33.2542 9.92508 33.2542 10.18 33.3483C10.58 33.5283 10.68 33.2483 10.68 33.2483L10.93 32.7083L11.39 33.0783L11.98 32.6783L12.61 32.7783L13.07 32.0983L13.5 32.4783L13.88 31.7083L14.48 32.2283L15.18 32.1783L16.04 32.0583L17.31 32.7283L17.7 32.4083L18.08 32.5983C18.08 32.5983 18 31.2083 18.54 31.9583C19.08 32.7083 19.24 32.3283 19.24 32.3283L20.43 32.6783L21.35 32.4583H21.63C21.38 32.6083 21.14 32.7383 20.91 32.8883C21.1651 33.0321 21.4591 33.0916 21.75 33.0583C22.1036 33.0107 22.4439 32.8916 22.75 32.7083C22.75 32.7083 22.81 32.3883 22.96 32.3283L23.13 32.3883C23.1781 32.4412 23.2216 32.4981 23.26 32.5583C23.61 33.1783 23.74 32.8583 24.09 33.0583C24.44 33.2583 24.77 32.9783 24.97 33.0583C24.97 33.0583 25.12 32.4783 25.25 32.7383C25.38 32.9983 25.47 32.7383 25.62 32.6383H26.55L26.96 32.0883L27.39 32.4183L28 32.3583C28.09 32.4883 28.15 32.5483 28.15 32.4783C28.1443 32.4285 28.1443 32.3782 28.15 32.3283L28.53 32.2583H28.62H28.76L29.22 32.5383L30.03 32.6083L30.59 32.4883C30.66 32.6583 30.72 32.7983 30.74 32.7283C30.76 32.6583 30.79 32.5683 30.82 32.4383C30.8912 32.4088 30.9648 32.3854 31.04 32.3683V32.4283C31.04 32.4283 31.24 32.3283 31.43 32.2583C31.5337 32.225 31.6412 32.2048 31.75 32.1983C31.7654 32.3947 31.7654 32.592 31.75 32.7883C31.75 32.7883 32.1 32.2883 32.14 32.5883C32.1406 32.6633 32.1666 32.7358 32.2139 32.7939C32.2611 32.8521 32.3268 32.8924 32.4 32.9083C32.4 32.9083 32.68 32.4083 32.81 32.6983C32.94 32.9883 33.16 32.9683 33.29 33.1083C33.42 33.2483 33.68 32.6383 33.84 33.1083C34 33.5783 34.48 33.1083 34.48 33.1083L34.71 33.5083L34.9 33.1083V33.8583C34.9 33.8583 35.35 33.4583 35.38 33.6183C35.4007 33.8111 35.4007 34.0056 35.38 34.1983C35.38 34.1983 35.61 33.6783 35.7 33.9983L35.8 34.3183C35.8 34.3183 35.92 33.8783 36.09 34.3183C36.26 34.7583 36.03 34.6783 36.25 34.7383C36.47 34.7983 36.48 34.1383 36.7 34.4983C36.92 34.8583 37.06 34.1983 37.25 34.5783C37.44 34.9583 37.54 34.2183 37.6 34.5783C37.66 34.9383 37.6 34.1383 37.86 34.6383C38.12 35.1383 38.27 33.8383 38.63 34.6983C38.99 35.5583 39.14 35.6983 39.27 35.2983C39.4 34.8983 38.98 34.2983 39.4 34.9083C39.82 35.5183 40.01 34.5783 40.23 35.0583C40.45 35.5383 40.71 34.9083 40.84 35.3583C40.97 35.8083 41.72 35.1483 41.72 35.1483C41.72 35.1483 42.01 35.1483 42.23 35.5083C42.45 35.8683 42.97 35.2083 43.03 35.5983C43.09 35.9883 43.1 34.9083 43.36 35.6783C43.62 36.4483 43.81 35.2983 43.99 35.9483C44.17 36.5983 44.76 36.9483 44.76 36.5183C44.76 36.0883 44.89 35.9783 45.02 36.4283C45.15 36.8783 45.19 36.1583 45.47 36.6683C45.75 37.1783 45.99 36.1883 46.25 36.7883C46.51 37.3883 46.98 37.6683 47.05 37.2283C47.12 36.7883 47.24 36.3683 47.4 36.8683C47.56 37.3683 47.72 36.7883 47.96 37.0483C48.2 37.3083 48.44 36.7883 48.66 37.1383C48.88 37.4883 48.98 37.1383 49.18 37.4383C49.38 37.7383 50.18 37.3083 50.18 37.4383C50.18 37.5683 50.44 37.5983 50.6 37.5483C50.8036 37.4495 50.9977 37.3324 51.18 37.1983C51.18 37.1983 51.18 36.7483 51.53 37.1983C51.88 37.6483 52.11 37.5083 52.33 37.5983C52.55 37.6883 52.85 37.2983 53.04 37.5983C53.23 37.8983 53.14 37.0283 53.43 37.5983C53.72 38.1683 53.33 38.0683 53.72 38.1883C53.72 38.1883 54.14 38.4183 54.2 38.1883C54.26 37.9583 54.53 38.1883 54.53 38.2883C54.53 38.3883 54.72 37.8483 54.88 38.2883C55.04 38.7283 54.81 37.7083 55.2 38.5383C55.59 39.3683 55.39 38.7683 55.68 39.1083C55.97 39.4483 55.87 38.1883 56.19 38.8083C56.51 39.4283 56.35 38.3083 56.74 38.8083C57.13 39.3083 56.93 38.8683 57.29 39.1483C57.65 39.4283 57.55 38.5683 57.77 39.1483C57.99 39.7283 57.96 38.5483 58.44 39.4983C58.92 40.4483 58.8 39.6783 59.15 40.2083C59.5 40.7383 59.38 39.7383 59.76 40.2083C60.14 40.6783 60.05 40.1183 60.44 40.3783C60.83 40.6383 60.7 39.5283 61.08 39.9483C61.46 40.3683 61.85 39.8883 61.85 39.8883C61.85 39.8883 62.1 39.0883 62.46 39.5283C62.82 39.9683 62.91 38.3983 63.2 39.0483C63.49 39.6983 63.62 38.8083 63.91 39.4383C64.2 40.0683 64.3 40.5983 64.42 40.1783C64.54 39.7583 64.61 39.2883 64.78 39.8583C64.95 40.4283 64.78 40.6883 64.93 40.4183C64.9537 40.369 64.9889 40.3262 65.0327 40.2934C65.0765 40.2606 65.1276 40.2389 65.1816 40.23C65.2355 40.2212 65.2909 40.2255 65.3428 40.2426C65.3948 40.2598 65.4418 40.2892 65.48 40.3283C65.55 40.4483 65.58 40.3883 65.74 40.5283C65.9 40.6683 65.87 40.3883 66.06 40.5283C66.25 40.6683 66.67 40.2983 66.67 40.2983C66.67 40.2983 66.8 39.6483 67.16 40.0883C67.52 40.5283 67.61 39.9783 67.7 40.0883C67.79 40.1983 67.83 39.4083 68.15 39.7983C68.47 40.1883 68.99 39.4383 69.25 39.9483C69.51 40.4583 69.83 40.3583 69.96 40.0883C70.09 39.8183 69.44 39.2883 70.09 39.8283C70.74 40.3683 70.35 39.2583 70.57 39.6183C70.79 39.9783 71.02 39.4683 71.11 39.6783C71.2 39.8883 71.28 39.2083 71.56 39.6783C71.84 40.1483 72.3 40.0083 72.3 39.7983C72.2733 39.6569 72.2297 39.5193 72.17 39.3883L72.3 39.5883C72.66 40.1483 73.04 39.5283 73.04 39.5283L73.17 39.3883C73.2277 39.3683 73.2793 39.3338 73.32 39.2883C73.41 39.2883 73.51 39.2883 73.56 39.4083C73.61 39.5283 73.62 39.5183 73.65 39.4083C73.68 39.2983 73.72 39.4783 73.75 39.4083C73.78 39.3383 73.9 39.2483 73.99 39.2883C74.0326 39.3317 74.0836 39.3657 74.14 39.3883L74.27 39.5283C74.27 39.5283 74.66 40.1483 75.01 39.5883L75.13 39.3883C75.0781 39.5212 75.038 39.6584 75.01 39.7983C75.01 40.0083 75.46 40.1183 75.75 39.6783C76.04 39.2383 76.1 39.9183 76.2 39.6783C76.3 39.4383 76.52 39.9783 76.75 39.6183C76.98 39.2583 76.58 40.3583 77.23 39.8283C77.88 39.2983 77.23 39.8283 77.35 40.0883C77.47 40.3483 77.81 40.4483 78.06 39.9483C78.31 39.4483 78.84 40.1783 79.16 39.7983C79.48 39.4183 79.51 40.2083 79.61 40.0883C79.71 39.9683 79.79 40.5383 80.15 40.0883C80.51 39.6383 80.64 40.2983 80.64 40.2983C80.64 40.2983 81.06 40.6583 81.25 40.5283C81.44 40.3983 81.42 40.6583 81.57 40.5283C81.72 40.3983 81.76 40.4483 81.83 40.3283C81.8682 40.2892 81.9152 40.2598 81.9672 40.2426C82.0191 40.2255 82.0745 40.2212 82.1284 40.23C82.1824 40.2389 82.2335 40.2606 82.2773 40.2934C82.3211 40.3262 82.3563 40.369 82.38 40.4183C82.5 40.6883 82.38 40.4183 82.54 39.8583C82.7 39.2983 82.76 39.7683 82.89 40.1783C83.02 40.5883 83.12 40.0683 83.4 39.4383C83.68 38.8083 83.83 39.7083 84.11 39.0483C84.39 38.3883 84.5 39.9783 84.85 39.5283C85.2 39.0783 85.47 39.8883 85.47 39.8883C85.5113 39.9486 85.5656 39.9989 85.6289 40.0355C85.6921 40.0721 85.7628 40.0941 85.8357 40.0999C85.9085 40.1056 85.9818 40.095 86.05 40.0688C86.1182 40.0426 86.1797 40.0014 86.23 39.9483C86.62 39.5283 86.49 40.6283 86.88 40.3783C87.27 40.1283 87.17 40.6883 87.55 40.2083C87.93 39.7283 87.81 40.7483 88.17 40.2083C88.53 39.6683 88.39 40.4483 88.87 39.4983C89.35 38.5483 89.32 39.7083 89.55 39.1483C89.78 38.5883 89.68 39.4083 90.03 39.1483C90.38 38.8883 90.19 39.3483 90.57 38.8083C90.95 38.2683 90.8 39.4083 91.12 38.8083C91.44 38.2083 91.34 39.4283 91.64 39.1083C91.94 38.7883 91.73 39.3683 92.12 38.5383C92.51 37.7083 92.27 38.7483 92.44 38.2883C92.61 37.8283 92.77 38.2883 92.79 38.2883C92.81 38.2883 93.05 37.9483 93.11 38.1883C93.17 38.4283 93.6 38.1883 93.6 38.1883C93.98 38.0683 93.6 38.1883 93.88 37.5983C94.16 37.0083 94.08 37.8883 94.27 37.5983C94.46 37.3083 94.75 37.6983 94.98 37.5983C95.21 37.4983 95.42 37.5983 95.78 37.1983C96.14 36.7983 96.13 37.1983 96.13 37.1983C96.3123 37.3324 96.5064 37.4495 96.71 37.5483C96.88 37.5483 97.16 37.5483 97.12 37.4383C97.08 37.3283 97.94 37.7283 98.12 37.4383C98.3 37.1483 98.4 37.4983 98.63 37.1383C98.86 36.7783 99.11 37.3183 99.33 37.0483C99.55 36.7783 99.73 37.3783 99.89 36.8683C100.05 36.3583 100.18 36.7883 100.25 37.2283C100.32 37.6683 100.79 37.3783 101.05 36.7883C101.31 36.1983 101.53 37.1683 101.82 36.6683C102.11 36.1683 102.14 36.8683 102.27 36.4283C102.4 35.9883 102.53 36.0683 102.53 36.5183C102.53 36.9683 103.1 36.6083 103.29 35.9483C103.48 35.2883 103.68 36.4583 103.94 35.6783C104.2 34.8983 104.2 35.9783 104.26 35.5983C104.32 35.2183 104.8 35.9783 105.06 35.5083C105.32 35.0383 105.58 35.1483 105.58 35.1483C105.58 35.1483 106.31 35.7983 106.44 35.3583C106.57 34.9183 106.83 35.5383 107.06 35.0583C107.29 34.5783 107.47 35.5683 107.89 34.9083C108.01 34.7183 108.06 34.6383 108.08 34.6383C108.003 34.8495 107.983 35.0768 108.02 35.2983C108.15 35.6783 108.31 35.5683 108.66 34.6983C109.01 33.8283 109.18 35.1483 109.44 34.6383C109.7 34.1283 109.63 34.9383 109.69 34.5783C109.75 34.2183 109.85 34.9683 110.04 34.5783C110.23 34.1883 110.37 34.8583 110.6 34.4983C110.83 34.1383 110.82 34.7983 111.04 34.7383C111.26 34.6783 111.04 34.7383 111.2 34.3183C111.36 33.8983 111.49 34.3183 111.49 34.3183L111.59 33.9983C111.68 33.6783 111.91 34.1983 111.91 34.1983C111.894 34.0053 111.894 33.8114 111.91 33.6183C111.91 33.4583 112.39 33.8583 112.39 33.8583V33.0583L112.59 33.4583L112.81 33.0583C112.81 33.0583 113.29 33.5183 113.45 33.0583C113.61 32.5983 113.87 33.1783 114 33.0583C114.13 32.9383 114.35 32.9483 114.48 32.6483C114.61 32.3483 114.9 32.8583 114.9 32.8583C114.973 32.844 115.039 32.8037 115.085 32.745C115.131 32.6862 115.154 32.6128 115.15 32.5383C115.15 32.2383 115.54 32.7383 115.54 32.7383C115.525 32.542 115.525 32.3447 115.54 32.1483C115.54 32.0283 116.25 32.3783 116.25 32.3783V31.9683C116.25 31.5483 116.54 32.5383 116.57 32.6783C116.6 32.8183 116.86 32.0283 116.86 32.0283C116.86 32.0283 117.47 32.4183 117.63 32.0283C117.79 31.6383 117.95 32.2883 118.02 31.9683C118.09 31.6483 118.69 32.3283 118.79 32.2283C118.89 32.1283 119.17 32.2283 119.17 31.8683C119.185 32.0614 119.185 32.2553 119.17 32.4483C119.17 32.6483 119.62 31.8183 119.79 31.6683C119.96 31.5183 120.07 32.2683 120.2 31.9083C120.33 31.5483 120.49 32.5283 120.59 32.3283C120.69 32.1283 120.87 32.7083 121.07 32.3883C121.27 32.0683 121.36 32.7983 121.39 32.5283C121.42 32.2583 121.9 32.9783 122.03 32.7083C122.16 32.4383 122.32 33.0283 122.32 33.0283C122.51 32.9483 122.83 33.2083 123.19 33.0283C123.55 32.8483 123.67 33.1483 124.02 32.5283C124.37 31.9083 124.54 32.6783 124.54 32.6783C124.844 32.8654 125.185 32.9848 125.54 33.0283C125.93 33.0283 125.97 33.1283 126.83 32.5883C127.69 32.0483 127.31 32.8883 127.57 32.6483C127.83 32.4083 128.06 32.9183 128.43 32.4483C128.8 31.9783 128.86 32.6183 129.21 32.6783C129.418 32.7355 129.638 32.735 129.846 32.6769C130.054 32.6187 130.242 32.5052 130.39 32.3483C130.82 31.9383 130.69 32.8283 131.1 32.0283C131.15 31.9112 131.214 31.8004 131.29 31.6983C131.222 31.9216 131.201 32.1567 131.23 32.3883C131.36 32.7383 131.52 32.8883 131.71 32.2283C131.9 31.5683 132.26 32.8583 132.46 32.4083C132.66 31.9583 132.91 33.1483 133.26 32.3283C133.34 32.1483 133.38 32.0483 133.41 31.9983C133.351 32.1791 133.321 32.3681 133.32 32.5583C133.39 32.7983 133.87 33.1483 134.16 32.3883C134.45 31.6283 134.86 32.7383 135.25 32.1783C135.64 31.6183 135.7 32.6483 135.86 32.3883C136.02 32.1283 136.15 32.9183 136.47 32.4483C136.79 31.9783 136.82 33.0083 137.21 32.0883L137.38 31.6983C137.328 31.9321 137.328 32.1745 137.38 32.4083C137.54 32.7383 137.89 33.1283 138.09 32.4083C138.29 31.6883 138.29 32.7083 138.71 31.9983C139.13 31.2883 139.13 32.5083 139.25 32.2083C139.37 31.9083 139.67 32.6483 139.93 32.2083C140.19 31.7683 140.31 32.8383 140.57 32.3683C140.83 31.8983 140.76 32.7483 141.02 32.4883C141.28 32.2283 141.44 33.1083 141.76 32.5983C142.08 32.0883 141.76 32.5983 141.86 33.0083C141.96 33.4183 142.08 33.4283 142.34 32.7483C142.6 32.0683 142.47 33.1083 142.69 32.5083C142.91 31.9083 143.01 33.1283 143.33 32.3883C143.39 32.2683 143.42 32.1983 143.45 32.1483C143.392 32.334 143.351 32.5249 143.33 32.7183C143.33 33.0483 143.53 32.9583 143.85 32.4883C144.17 32.0183 144.3 33.1883 144.52 32.4883C144.74 31.7883 144.84 33.2883 145.2 32.5983C145.56 31.9083 145.68 33.0483 146.2 32.4483C146.72 31.8483 146.33 32.9283 146.65 32.6283C146.97 32.3283 146.91 33.2483 147.43 32.5383C147.95 31.8283 147.43 32.5383 147.43 32.8083C147.43 33.0783 147.69 33.5283 147.98 33.0083C148.27 32.4883 148.27 33.5483 148.56 33.0083C148.85 32.4683 148.98 33.6683 149.3 33.1883C149.62 32.7083 149.81 33.9383 150.16 33.4683C150.51 32.9983 150.51 34.0283 150.96 33.0083C151.41 31.9883 151.45 33.8783 151.67 33.5483C151.89 33.2183 151.84 34.0283 152.28 33.8283C152.72 33.6283 152.35 34.6883 152.67 34.0883C152.99 33.4883 153.22 34.7983 153.67 34.1683C154.12 33.5383 154.15 34.7483 154.34 34.2683C154.53 33.7883 154.57 34.7683 154.89 34.3883C155.21 34.0083 155.12 34.7983 155.37 34.3883C155.62 33.9783 155.57 34.9583 155.85 34.6083C156.13 34.2583 156.15 35.2283 156.56 34.4483C156.97 33.6683 156.98 35.1383 157.08 34.7783C157.18 34.4183 157.56 35.2883 157.73 34.9283C157.9 34.5683 157.99 34.7483 158.04 35.1083C158.09 35.4683 158.3 34.8983 158.3 34.8983C158.49 34.6083 158.72 35.3183 158.92 35.0483C159.12 34.7783 159.18 35.4083 159.43 34.9283C159.68 34.4483 159.68 35.2583 159.88 35.1383C160.08 35.0183 160.17 35.7283 160.46 35.3183C160.75 34.9083 160.69 35.3183 160.78 35.8183C160.87 36.3183 161.04 36.1483 161.23 35.8183C161.42 35.4883 161.55 35.7583 161.84 35.3483C162.13 34.9383 162.13 35.6683 162.35 35.4383C162.57 35.2083 162.8 35.7883 163 35.4383C163.2 35.0883 163 35.4383 163.26 35.8183C163.52 36.1983 163.48 36.0583 163.61 35.6383C163.74 35.2183 163.86 35.4383 163.86 35.4383C163.86 35.4383 163.99 35.1083 164.19 35.5483C164.39 35.9883 164.38 35.8783 164.51 35.3183C164.64 34.7583 165.35 35.6683 165.63 35.2283C165.91 34.7883 166.28 35.4683 166.47 35.1383C166.66 34.8083 166.78 35.5283 166.96 35.3383C167.2 34.4793 167.248 33.578 167.1 32.6983L167.61 32.6183L168.21 33.0183L168.67 32.6483L168.91 33.1883C168.91 33.1883 169.02 33.4683 169.43 33.2883C169.682 33.1949 169.958 33.1949 170.21 33.2883L170.89 33.2083H171.59H172.16L172.4 32.9583L172.8 33.3883L173.54 33.2883C173.54 33.2883 173.78 33.9583 174.05 33.2883C174.32 32.6183 174.54 33.2883 174.54 33.2883H175.02C175.02 33.2883 175.11 33.5183 175.35 32.8483C175.59 32.1783 175.62 33.7783 175.83 32.6783C176.04 31.5783 176.06 33.7483 176.29 32.6783C176.52 31.6083 176.87 32.8483 176.87 32.8483C176.87 32.8483 176.87 33.7283 177.19 32.6283C177.51 31.5283 177.62 32.9483 177.62 32.9483L177.98 33.0283L178.57 33.2683H179.63L180.06 32.9783L180.52 33.1483C180.52 33.1483 180.63 33.6483 180.87 32.5783C181.11 31.5083 181.33 32.5783 181.33 32.5783H182.39L183.01 32.1283L183.69 31.5583L183.9 31.3083L184.33 31.0583H184.79L185.31 30.8583L185.8 30.5883L186.4 30.3283V29.6083L186.75 30.1583V29.2283L187.12 29.9183L187.34 29.1383L187.77 29.9183L187.96 29.3283L188.51 29.8983C188.51 29.8983 188.64 30.2083 188.74 28.7883C188.84 27.3683 189.26 29.8583 189.26 29.8583L189.32 28.8083C189.32 27.8083 189.56 29.2583 189.56 29.2583L189.91 28.9283L190.1 28.2383L190.67 29.1583L191.13 28.7883L191.45 29.0383L192.11 28.5083L192.57 28.6583L193.29 28.1283L193.73 28.5083L194.3 27.9383L194.65 28.4683L195.11 28.3083L195.6 28.8083L196.06 28.6083L197.06 28.8083L197.57 28.5083L197.97 28.7083L198.43 28.2383L198.95 28.5083L199.6 28.5783L200.08 28.3183L200.55 28.5783L201.2 28.5083L201.72 28.2383L202.18 28.7083L202.58 28.5083L203.09 28.8083L204.09 28.6083L204.56 28.8083L205.04 28.3083L205.5 28.4683L205.85 27.9383L206.42 28.5083L206.86 28.1283L207.58 28.6583L208.05 28.5083L208.7 29.0383L209.02 28.7883L209.48 29.1583L210.05 28.2383L210.24 28.9283L210.6 29.2583C210.6 29.2583 210.78 27.7583 210.84 28.8083L210.89 29.8583C210.89 29.8583 211.3 27.3683 211.41 28.7883C211.52 30.2083 211.65 29.8983 211.65 29.8983L212.19 29.3283L212.38 29.9183L212.82 29.1383L213.03 29.9183L213.4 29.2283V30.1583L213.75 29.6083V30.3283L214.35 30.5883L214.84 30.8583L215.36 31.0583H215.82L216.25 31.3083L216.46 31.5583L217.14 32.1283L217.76 32.5783H218.82C218.82 32.5783 219.04 31.5083 219.28 32.5783C219.52 33.6483 219.63 33.1483 219.63 33.1483L220.09 32.9783L220.52 33.2683H221.58L222.17 33.0283L222.53 32.9483C222.53 32.9483 222.66 31.5283 222.96 32.6283C223.26 33.7283 223.29 32.8483 223.29 32.8483C223.29 32.8483 223.61 31.6283 223.86 32.6783C224.11 33.7283 224.1 31.5583 224.32 32.6783C224.54 33.7983 224.56 32.1683 224.8 32.8483C225.04 33.5283 225.13 33.2883 225.13 33.2883H225.61C225.61 33.2883 225.83 32.6183 226.1 33.2883C226.37 33.9583 226.61 33.2883 226.61 33.2883L227.35 33.3883L227.75 32.9583L227.99 33.2083H228.56H229.26L229.94 33.2883C230.195 33.1942 230.475 33.1942 230.73 33.2883C231.13 33.4683 231.24 33.1883 231.24 33.1883L231.48 32.6483L231.94 33.0183L232.54 32.6183L233.05 32.6983C232.902 33.578 232.95 34.4793 233.19 35.3383C233.37 35.5283 233.5 34.8283 233.68 35.1383C233.86 35.4483 234.22 34.7783 234.52 35.2283C234.82 35.6783 235.52 34.7483 235.64 35.3183C235.76 35.8883 235.77 35.9983 235.97 35.5483C236.17 35.0983 236.29 35.4383 236.29 35.4383C236.29 35.4383 236.42 35.2283 236.55 35.6383C236.68 36.0483 236.64 36.2083 236.9 35.8183C237.16 35.4283 236.96 35.0483 237.15 35.4383C237.34 35.8283 237.57 35.2283 237.8 35.4383C238.03 35.6483 238.02 34.9283 238.31 35.3483C238.6 35.7683 238.73 35.5183 238.92 35.8183C239.11 36.1183 239.27 36.2983 239.37 35.8183C239.47 35.3383 239.37 34.8983 239.69 35.3183C240.01 35.7383 240.08 35.0183 240.27 35.1383C240.46 35.2583 240.47 34.4483 240.72 34.9283C240.97 35.4083 241.04 34.7783 241.23 35.0483C241.42 35.3183 241.66 34.6083 241.85 34.8983C241.85 34.8983 242.04 35.4683 242.11 35.1083C242.18 34.7483 242.26 34.5683 242.42 34.9283C242.58 35.2883 242.98 34.4283 243.07 34.7783C243.16 35.1283 243.18 33.6883 243.59 34.4483C244 35.2083 244 34.2483 244.3 34.6083C244.6 34.9683 244.52 34.0083 244.78 34.3883C245.04 34.7683 244.93 33.9783 245.26 34.3883C245.59 34.7983 245.62 33.7883 245.81 34.2683C246 34.7483 246 33.5483 246.48 34.1683C246.96 34.7883 247.19 33.4883 247.48 34.0883C247.77 34.6883 247.4 33.5983 247.87 33.8283C248.34 34.0583 248.25 33.2283 248.48 33.5483C248.71 33.8683 248.74 31.9783 249.19 33.0083C249.64 34.0383 249.64 33.0083 249.99 33.4683C250.34 33.9283 250.53 32.7183 250.85 33.1883C251.17 33.6583 251.3 32.4483 251.59 33.0083C251.88 33.5683 251.88 32.4883 252.17 33.0083C252.46 33.5283 252.75 33.0783 252.72 32.8083C252.69 32.5383 252.17 31.8083 252.72 32.5383C253.27 33.2683 253.17 32.3283 253.49 32.6283C253.81 32.9283 253.49 31.8583 253.94 32.4483C254.39 33.0383 254.55 31.9183 254.94 32.5983C255.33 33.2783 255.39 31.7683 255.62 32.4883C255.85 33.2083 255.97 32.0083 256.29 32.4883C256.61 32.9683 256.81 33.0483 256.81 32.7183C256.789 32.5249 256.748 32.334 256.69 32.1483C256.69 32.1483 256.75 32.2683 256.81 32.3883C257.13 33.1283 257.22 31.9183 257.45 32.5083C257.68 33.0983 257.54 32.0683 257.8 32.7483C258.06 33.4283 258.19 33.4083 258.28 33.0083C258.37 32.6083 258.06 32.0983 258.38 32.5983C258.7 33.0983 258.86 32.2083 259.12 32.4883C259.38 32.7683 259.31 31.8883 259.57 32.3683C259.83 32.8483 259.96 31.7983 260.21 32.2083C260.46 32.6183 260.76 31.8883 260.89 32.2083C261.02 32.5283 261.02 31.2783 261.43 31.9983C261.84 32.7183 261.85 31.6983 262.05 32.4083C262.25 33.1183 262.6 32.7383 262.76 32.4083C262.812 32.1745 262.812 31.9321 262.76 31.6983L262.93 32.0883C263.32 33.0083 263.35 31.9683 263.67 32.4483C263.99 32.9283 264.12 32.1183 264.28 32.3883C264.44 32.6583 264.51 31.6083 264.89 32.1783C265.27 32.7483 265.69 31.6083 265.98 32.3883C266.27 33.1683 266.75 32.7983 266.82 32.5583C266.817 32.369 266.79 32.1808 266.74 31.9983L266.88 32.3283C267.23 33.1483 267.49 31.9683 267.68 32.4083C267.87 32.8483 268.24 31.5783 268.43 32.2283C268.62 32.8783 268.78 32.7383 268.91 32.3883C268.939 32.1567 268.918 31.9216 268.85 31.6983C268.93 31.7976 268.994 31.909 269.04 32.0283C269.45 32.8283 269.32 31.9383 269.75 32.3483C269.898 32.5052 270.086 32.6187 270.294 32.6769C270.502 32.735 270.722 32.7355 270.93 32.6783C271.28 32.6183 271.32 31.9683 271.71 32.4483C272.1 32.9283 272.32 32.4483 272.57 32.6483C272.82 32.8483 272.44 32.0583 273.31 32.5883C274.18 33.1183 274.21 33.0083 274.6 33.0283C274.955 32.9848 275.296 32.8654 275.6 32.6783C275.6 32.6783 275.76 31.9083 276.12 32.5283C276.48 33.1483 276.6 32.8283 276.95 33.0283C277.3 33.2283 277.63 32.9483 277.82 33.0283C277.82 33.0283 277.98 32.4483 278.11 32.7083C278.24 32.9683 278.72 32.2683 278.75 32.5283C278.78 32.7883 278.88 32.0583 279.08 32.3883C279.28 32.7183 279.46 32.1183 279.55 32.3283C279.64 32.5383 279.81 31.5483 279.94 31.9083C280.07 32.2683 280.2 31.5183 280.36 31.6683C280.52 31.8183 281 32.6683 280.97 32.4483C280.955 32.2553 280.955 32.0614 280.97 31.8683C280.97 32.2183 281.26 32.1483 281.35 32.2283C281.44 32.3083 282.06 31.6383 282.12 31.9683C282.18 32.2983 282.35 31.6683 282.51 32.0283C282.67 32.3883 283.28 32.0283 283.28 32.0283C283.28 32.0283 283.54 32.8283 283.57 32.6783C283.6 32.5283 283.89 31.5483 283.89 31.9683V32.3783C283.89 32.3783 284.56 32.0283 284.6 32.1483C284.615 32.3447 284.615 32.542 284.6 32.7383C284.6 32.7383 284.95 32.2383 284.99 32.5383C284.986 32.6128 285.009 32.6862 285.055 32.745C285.101 32.8037 285.167 32.844 285.24 32.8583C285.24 32.8583 285.53 32.3583 285.66 32.6483C285.79 32.9383 286.01 32.9183 286.14 33.0583C286.27 33.1983 286.52 32.5883 286.69 33.0583C286.86 33.5283 287.33 33.0583 287.33 33.0583L287.56 33.4583L287.75 33.0583V33.8583C287.75 33.8583 288.2 33.4583 288.23 33.6183C288.246 33.8114 288.246 34.0053 288.23 34.1983C288.23 34.1983 288.46 33.6783 288.55 33.9983L288.65 34.3183C288.65 34.3183 288.78 33.8783 288.94 34.3183C289.1 34.7583 288.87 34.6783 289.1 34.7383C289.33 34.7983 289.32 34.1383 289.54 34.4983C289.76 34.8583 289.9 34.1983 290.1 34.5783C290.3 34.9583 290.38 34.2183 290.45 34.5783C290.52 34.9383 290.45 34.1383 290.71 34.6383C290.97 35.1383 291.12 33.8383 291.48 34.6983C291.84 35.5583 291.99 35.6983 292.12 35.2983C292.157 35.0768 292.137 34.8495 292.06 34.6383C292.06 34.6383 292.13 34.7183 292.25 34.9083C292.67 35.5683 292.86 34.5783 293.08 35.0583C293.3 35.5383 293.57 34.9083 293.7 35.3583C293.83 35.8083 294.56 35.1483 294.56 35.1483C294.56 35.1483 294.86 35.1483 295.08 35.5083C295.3 35.8683 295.82 35.2083 295.88 35.5983C295.94 35.9883 295.94 34.9083 296.2 35.6783C296.46 36.4483 296.65 35.2983 296.85 35.9483C297.05 36.5983 297.61 36.9483 297.61 36.5183C297.61 36.0883 297.74 35.9783 297.87 36.4283C298 36.8783 298.03 36.1583 298.32 36.6683C298.61 37.1783 298.84 36.1883 299.09 36.7883C299.34 37.3883 299.83 37.6683 299.9 37.2283C299.97 36.7883 300.09 36.3683 300.25 36.8683C300.41 37.3683 300.58 36.7883 300.81 37.0483C301.04 37.3083 301.29 36.7883 301.52 37.1383C301.75 37.4883 301.83 37.1383 302.02 37.4383C302.21 37.7383 303.02 37.3083 303.02 37.4383C303.02 37.5683 303.26 37.5983 303.43 37.5483C303.634 37.4495 303.828 37.3324 304.01 37.1983C304.01 37.1983 304.01 36.7483 304.36 37.1983C304.71 37.6483 304.94 37.5083 305.16 37.5983C305.38 37.6883 305.68 37.2983 305.87 37.5983C306.06 37.8983 305.97 37.0283 306.26 37.5983C306.55 38.1683 306.17 38.0683 306.54 38.1883C306.54 38.1883 306.97 38.4183 307.03 38.1883C307.09 37.9583 307.35 38.1883 307.35 38.2883C307.35 38.3883 307.56 37.8483 307.7 38.2883C307.84 38.7283 307.64 37.7083 308.03 38.5383C308.42 39.3683 308.22 38.7683 308.5 39.1083C308.78 39.4483 308.7 38.1883 309.02 38.8083C309.34 39.4283 309.19 38.3083 309.57 38.8083C309.95 39.3083 309.76 38.8683 310.12 39.1483C310.48 39.4283 310.37 38.5683 310.59 39.1483C310.81 39.7283 310.79 38.5483 311.27 39.4983C311.75 40.4483 311.63 39.6783 311.98 40.2083C312.33 40.7383 312.21 39.7383 312.59 40.2083C312.97 40.6783 312.88 40.1183 313.27 40.3783C313.66 40.6383 313.52 39.5283 313.91 39.9483C313.96 40.0014 314.022 40.0426 314.09 40.0688C314.158 40.095 314.231 40.1056 314.304 40.0999C314.377 40.0941 314.448 40.0721 314.511 40.0355C314.574 39.9989 314.629 39.9486 314.67 39.8883C314.67 39.8883 314.93 39.0883 315.29 39.5283C315.65 39.9683 315.74 38.3983 316.03 39.0483C316.32 39.6983 316.44 38.8083 316.74 39.4383C317.04 40.0683 317.12 40.5983 317.25 40.1783C317.38 39.7583 317.45 39.2883 317.6 39.8583C317.75 40.4283 317.6 40.6883 317.76 40.4183C317.784 40.369 317.819 40.3262 317.863 40.2934C317.907 40.2606 317.958 40.2389 318.012 40.23C318.066 40.2212 318.121 40.2255 318.173 40.2426C318.225 40.2598 318.272 40.2892 318.31 40.3283C318.38 40.4483 318.4 40.3883 318.57 40.5283C318.74 40.6683 318.7 40.3883 318.89 40.5283C319.08 40.6683 319.5 40.2983 319.5 40.2983C319.5 40.2983 319.63 39.6483 319.99 40.0883C320.35 40.5283 320.44 39.9783 320.53 40.0883C320.62 40.1983 320.66 39.4083 320.98 39.7983C321.3 40.1883 321.82 39.4383 322.08 39.9483C322.34 40.4583 322.66 40.3583 322.79 40.0883C322.92 39.8183 322.27 39.2883 322.92 39.8283C323.57 40.3683 323.17 39.2583 323.39 39.6183C323.61 39.9783 323.85 39.4683 323.94 39.6783C324.03 39.8883 324.1 39.2083 324.39 39.6783C324.68 40.1483 325.13 40.0083 325.13 39.7983C325.102 39.6584 325.062 39.5212 325.01 39.3883L325.13 39.5883C325.48 40.1483 325.87 39.5283 325.87 39.5283L326 39.3883C326.058 39.3683 326.109 39.3338 326.15 39.2883C326.24 39.2883 326.33 39.2883 326.39 39.4083C326.45 39.5283 326.46 39.5183 326.49 39.4083C326.52 39.2983 326.54 39.4783 326.58 39.4083C326.62 39.3383 326.73 39.2483 326.82 39.2883C326.861 39.3338 326.912 39.3683 326.97 39.3883L327.1 39.5283C327.1 39.5283 327.48 40.1483 327.84 39.5883L327.97 39.3883C327.91 39.5193 327.867 39.6569 327.84 39.7983C327.84 40.0083 328.28 40.1183 328.58 39.6783C328.88 39.2383 328.93 39.9183 329.03 39.6783C329.13 39.4383 329.35 39.9783 329.57 39.6183C329.79 39.2583 329.42 40.3583 330.05 39.8283C330.68 39.2983 330.05 39.8283 330.18 40.0883C330.31 40.3483 330.63 40.4483 330.89 39.9483C331.15 39.4483 331.66 40.1783 331.99 39.7983C332.32 39.4183 332.34 40.2083 332.44 40.0883C332.54 39.9683 332.63 40.5383 332.98 40.0883C333.33 39.6383 333.47 40.2983 333.47 40.2983C333.47 40.2983 333.89 40.6583 334.09 40.5283C334.29 40.3983 334.24 40.6583 334.4 40.5283C334.56 40.3983 334.59 40.4483 334.66 40.3283C334.698 40.2892 334.745 40.2598 334.797 40.2426C334.849 40.2255 334.904 40.2212 334.958 40.23C335.012 40.2389 335.063 40.2606 335.107 40.2934C335.151 40.3262 335.186 40.369 335.21 40.4183C335.34 40.6883 335.21 40.4183 335.37 39.8583C335.53 39.2983 335.6 39.7683 335.72 40.1783C335.84 40.5883 335.95 40.0683 336.23 39.4383C336.51 38.8083 336.65 39.7083 336.94 39.0483C337.23 38.3883 337.33 39.9783 337.68 39.5283C338.03 39.0783 338.29 39.8883 338.29 39.8883C338.29 39.8883 338.68 40.3583 339.06 39.9483C339.44 39.5383 339.32 40.6283 339.7 40.3783C340.08 40.1283 340 40.6883 340.38 40.2083C340.76 39.7283 340.63 40.7483 340.99 40.2083C341.35 39.6683 341.21 40.4483 341.7 39.4983C342.19 38.5483 342.15 39.7083 342.37 39.1483C342.59 38.5883 342.5 39.4083 342.85 39.1483C343.2 38.8883 343.02 39.3483 343.4 38.8083C343.78 38.2683 343.63 39.4083 343.95 38.8083C344.27 38.2083 344.17 39.4283 344.46 39.1083C344.75 38.7883 344.56 39.3683 344.94 38.5383C345.32 37.7083 345.11 38.7483 345.26 38.2883C345.41 37.8283 345.6 38.2883 345.61 38.2883C345.62 38.2883 345.87 37.9483 345.94 38.1883C346.01 38.4283 346.43 38.1883 346.43 38.1883C346.81 38.0683 346.43 38.1883 346.71 37.5983C346.99 37.0083 346.9 37.8883 347.1 37.5983C347.3 37.3083 347.58 37.6983 347.81 37.5983C348.04 37.4983 348.26 37.5983 348.61 37.1983C348.96 36.7983 348.96 37.1983 348.96 37.1983C349.142 37.3324 349.336 37.4495 349.54 37.5483C349.7 37.5483 349.99 37.5483 349.96 37.4383C349.93 37.3283 350.76 37.7283 350.96 37.4383C351.16 37.1483 351.24 37.4983 351.47 37.1383C351.7 36.7783 351.95 37.3183 352.17 37.0483C352.39 36.7783 352.57 37.3783 352.73 36.8683C352.89 36.3583 353.02 36.7883 353.08 37.2283C353.14 37.6683 353.63 37.3783 353.88 36.7883C354.13 36.1983 354.37 37.1683 354.66 36.6683C354.95 36.1683 354.98 36.8683 355.11 36.4283C355.24 35.9883 355.37 36.0683 355.37 36.5183C355.37 36.9683 355.95 36.6083 356.14 35.9483C356.33 35.2883 356.52 36.4583 356.78 35.6783C357.04 34.8983 357.03 35.9783 357.1 35.5983C357.17 35.2183 357.65 35.9783 357.9 35.5083C358.15 35.0383 358.41 35.1483 358.41 35.1483C358.41 35.1483 359.16 35.7983 359.29 35.3583C359.42 34.9183 359.67 35.5383 359.9 35.0583C360.13 34.5783 360.31 35.5683 360.74 34.9083C361.17 34.2483 360.74 34.9083 360.86 35.2983C360.98 35.6883 361.15 35.5683 361.5 34.6983C361.85 33.8283 362.02 35.1483 362.27 34.6383C362.52 34.1283 362.47 34.9383 362.53 34.5783C362.59 34.2183 362.69 34.9683 362.88 34.5783C363.07 34.1883 363.2 34.8583 363.43 34.4983C363.66 34.1383 363.65 34.7983 363.88 34.7383C364.11 34.6783 363.88 34.7383 364.04 34.3183C364.2 33.8983 364.33 34.3183 364.33 34.3183L364.43 33.9983C364.52 33.6783 364.75 34.1983 364.75 34.1983C364.729 34.0056 364.729 33.8111 364.75 33.6183C364.75 33.4583 365.23 33.8583 365.23 33.8583V33.0583L365.42 33.4583L365.65 33.0583C365.65 33.0583 366.13 33.5183 366.29 33.0583C366.45 32.5983 366.71 33.1783 366.84 33.0583C366.97 32.9383 367.19 32.9483 367.32 32.6483C367.45 32.3483 367.73 32.8583 367.73 32.8583C367.803 32.8424 367.869 32.8021 367.916 32.7439C367.963 32.6858 367.989 32.6133 367.99 32.5383C367.99 32.2383 368.38 32.7383 368.38 32.7383C368.365 32.542 368.365 32.3447 368.38 32.1483C368.489 32.1548 368.596 32.175 368.7 32.2083C368.89 32.2783 369.09 32.3783 369.09 32.3783V32.3183C369.166 32.334 369.239 32.3574 369.31 32.3883C369.31 32.5183 369.38 32.6383 369.39 32.6783C369.4 32.7183 369.47 32.6083 369.54 32.4383L370.1 32.5583L370.91 32.4883L371.37 32.2083H371.51C371.539 32.2169 371.571 32.2169 371.6 32.2083L371.98 32.2783V32.4283C371.98 32.4983 372.03 32.4283 372.12 32.3083L372.7 32.4183L373.14 32.0883L373.54 32.6383H374.47C374.62 32.7583 374.77 32.8783 374.84 32.7383C374.91 32.5983 375.13 33.0583 375.13 33.0583C375.32 32.9783 375.64 33.2383 376 33.0583C376.36 32.8783 376.48 33.1783 376.83 32.5583C376.868 32.4981 376.912 32.4412 376.96 32.3883L377.13 32.3283C377.28 32.3883 377.34 32.7083 377.34 32.7083C377.646 32.8916 377.986 33.0107 378.34 33.0583C378.631 33.0923 378.925 33.0327 379.18 32.8883C378.95 32.7383 378.71 32.6083 378.46 32.4583H378.74L379.66 32.6783L380.85 32.3283C380.85 32.3283 381.02 32.7083 381.55 31.9583C382.08 31.2083 382.01 32.5983 382.01 32.5983L382.39 32.4083L382.78 32.7283L384.05 32.0583L384.91 32.1783L385.61 32.2283L386.21 31.7083L386.59 32.4783L387.02 32.0983L387.48 32.7783L388.11 32.6783L388.7 33.0783L389.16 32.7083L389.41 33.2483C389.41 33.2483 389.51 33.5283 389.91 33.3483C390.168 33.2543 390.452 33.2543 390.71 33.3483L391.38 33.2683H392.09H392.65L392.9 33.0183L393.3 33.4483L394.03 33.3483C394.03 33.3483 394.28 34.0183 394.55 33.3483C394.82 32.6783 395.03 33.3483 395.03 33.3483H395.52C395.52 33.3483 395.6 33.5783 395.84 32.9083C396.08 32.2383 396.12 33.8383 396.33 32.7383C396.54 31.6383 396.55 33.8083 396.79 32.7383C397.03 31.6683 397.36 32.9083 397.36 32.9083C397.36 32.9083 397.36 33.7883 397.69 32.6883C398.02 31.5883 398.12 33.0083 398.12 33.0083L398.47 33.0883L399.07 33.3283H400.07V9.44833C400 9.37833 399.93 9.35833 399.87 9.44833Z" fill="url(#shadowGrad)"/>
</svg>
