<?xml version="1.0" encoding="UTF-8"?> <svg xmlns="http://www.w3.org/2000/svg" version="1.1" id="Layer_1" viewBox="0 0 401 28" preserveAspectRatio="none" style="width: 100%; height: auto; display: block;"><path d="M400.7,28c-0.1,0-0.2,0-0.2,0c0,0-0.1,0-0.2,0c-0.1,0-0.3,0-0.3,0s-0.2,0-0.3,0c-0.1,0-0.1,0-0.1,0c0,0,0,0-0.1,0 s-0.2,0-0.4,0c-0.2,0-0.4,0-0.5,0s-0.2,0-0.3,0c-0.1,0-0.1,0-0.3,0c-0.2,0-0.3,0-0.4,0c0,0-0.2,0-0.4,0c-0.1,0-0.3,0-0.4,0 c-0.1,0-0.1,0-0.3,0c-0.2,0-0.5,0-0.7,0c-0.2,0-0.4,0-0.5,0c-0.2,0-0.2,0-0.3,0c-0.1,0-0.2,0-0.3,0c-0.1,0-0.2,0-0.3,0s-0.5,0-0.7,0 c-0.2,0-0.1,0-0.2,0c-0.1,0-0.2,0-0.2,0s-0.3,0-0.4,0s-0.1,0-0.2,0c-0.2,0-0.5,0-0.7,0s-0.4,0-0.4,0c-0.1,0-0.2,0-0.2,0 s-0.4,0-0.5,0c-0.1,0-0.8,0-0.9,0c-0.1,0-0.4,0-0.5,0s-0.2,0-0.3,0c-0.1,0-0.3,0-0.5,0c-0.2,0-0.3,0-0.4,0s-0.5,0-0.6,0 c-0.1,0-0.5,0-0.7,0s-0.7,0-0.7,0c0,0-0.3,0-0.4,0c-0.1,0-0.2,0-0.3,0s-0.2,0-0.3,0c-0.1,0-0.2,0-0.4,0c-0.1,0-0.3,0-0.4,0 c-0.1,0,0,0-0.1,0c-0.1,0-0.2,0-0.4,0c-0.2,0-0.3,0-0.4,0c-0.1,0-0.3,0-0.4,0c-0.1,0-0.1,0-0.1,0s-0.1,0-0.2,0c-0.1,0-0.5,0-0.6,0 c-0.1,0-0.2,0-0.4,0c-0.1,0-0.2,0-0.3,0c-0.1,0-0.6,0-0.6,0s-0.3,0-0.4,0c-0.1,0-0.1,0-0.2,0c-0.1,0-0.1,0-0.3,0c-0.1,0-0.6,0-0.7,0 s-0.1,0-0.2,0s-0.2,0-0.4,0c-0.2,0-0.4,0-0.5,0c-0.2,0-0.2,0-0.3,0s-0.2,0-0.4,0c-0.1,0-0.2,0-0.3,0c-0.1,0-0.3,0-0.3,0 c-0.2,0-0.3,0-0.4,0c-0.1,0-0.3,0-0.5,0c-0.2,0-0.2,0-0.3,0c0.2,0-0.1,0,0,0c-0.2,0-0.4,0-0.5,0c-0.1,0-0.4,0-0.5,0 c-0.1,0-0.2,0-0.3,0c-0.1,0-0.2,0-0.4,0c-0.2,0-0.4,0-0.6,0c-0.2,0-0.2,0-0.4,0c-0.2,0-0.4,0-0.7,0c-0.2,0-0.3,0-0.3,0s-0.3,0-0.4,0 c-0.1,0-0.1,0-0.2,0c-0.1,0-0.1,0-0.3,0c-0.1,0-0.2,0-0.4,0c-0.1,0-0.2,0-0.3,0c-0.1,0-0.2,0-0.3,0c-0.1,0-0.1,0-0.2,0 c-0.1,0-0.2,0-0.3,0s-0.1,0-0.3,0c-0.1,0-0.3,0-0.5,0c-0.1,0-0.2,0-0.4,0c-0.2,0-0.4,0-0.6,0c-0.2,0-0.1,0-0.2,0c-0.1,0-0.4,0-0.5,0 c-0.1,0-0.1,0-0.2,0c-0.1,0-0.3,0-0.4,0c-0.1,0-0.1,0-0.2,0c-0.1,0-0.1,0-0.2,0c-0.1,0-0.2,0-0.3,0c-0.1,0-0.1,0-0.2,0 c0,0-0.5,0-0.6,0c0,0-0.1,0-0.2,0c-0.1,0-0.1,0-0.2,0c0,0-0.5,0-0.5,0c-0.1,0-0.3,0-0.3,0c-0.1,0-0.3,0-0.5,0c-0.1,0,0,0-0.1,0 c-0.1,0-0.1,0-0.1,0c0,0-0.3,0-0.4,0s-0.2,0-0.2,0c-0.2,0-0.4,0-0.4,0s-0.2,0-0.3,0c0.1,0-0.1,0,0,0c-0.1,0-0.4,0-0.4,0 c0,0-0.1,0-0.2,0c-0.1,0-0.2,0-0.2,0s-0.2,0-0.4,0c0.2,0-0.1,0,0,0c-0.2,0-0.3,0-0.4,0c-0.1,0-0.5,0-0.5,0h-0.5c0,0-0.3,0-0.4,0 s-0.2,0-0.3,0c-0.1,0-0.1,0-0.2,0c-0.1,0-0.3,0-0.3,0s-0.3,0-0.4,0s-0.2,0-0.2,0s-0.2,0-0.3,0c-0.1,0-0.2,0-0.2,0c-0.1,0,0,0-0.1,0 c-0.1,0-0.2,0-0.3,0c-0.1,0-0.2,0-0.2,0s-0.2,0-0.4,0c-0.1,0-0.3,0-0.3,0s-0.2,0-0.4,0c-0.1,0-0.3,0-0.3,0s-0.4,0-0.4,0c0,0,0,0,0,0 c0,0-0.3,0-0.4,0c-0.1,0-0.1,0-0.2,0s-0.3,0-0.4,0s-0.3,0-0.4,0c-0.1,0-0.2,0-0.3,0c-0.1,0-0.3,0-0.3,0H353c0,0-0.1,0-0.2,0 c-0.1,0-0.4,0-0.4,0s-0.3,0-0.4,0c-0.1,0-0.2,0-0.3,0c-0.1,0-0.2,0-0.3,0c-0.1,0-0.1,0-0.2,0c-0.1,0-0.1,0-0.3,0c-0.1,0-0.3,0-0.5,0 c-0.2,0-0.1,0-0.3,0c-0.2,0-0.6,0-0.9,0c-0.2,0-0.3,0-0.4,0c-0.1,0-0.4,0-0.6,0s-0.3,0-0.5,0c-0.2,0-0.4,0-0.6,0c-0.2,0-0.2,0-0.3,0 c-0.2,0-0.2,0-0.5,0c-0.2,0-0.6,0-0.8,0s-0.3,0-0.3,0s-0.1,0-0.3,0c-0.1,0-0.2,0-0.4,0c-0.2,0-0.5,0-0.7,0c-0.2,0-0.3,0-0.4,0 s-0.2,0-0.3,0c-0.1,0-0.2,0-0.2,0s-0.1,0-0.2,0c-0.1,0-0.1,0-0.2,0s-0.1,0-0.3,0c-0.1,0-0.1,0-0.3,0c-0.1,0-0.4,0-0.4,0 s-0.2,0-0.3,0c-0.1,0-0.3,0-0.3,0h-0.4c-0.2,0-0.3,0-0.4,0c0,0-0.1,0-0.2,0c-0.1,0,0,0-0.2,0c-0.2,0-0.8,0-0.8,0H339 c0,0-0.5,0-0.8,0c-0.2,0-0.3,0-0.4,0s-0.2,0-0.4,0c-0.2,0-0.6,0-0.8,0c-0.2,0-0.3,0-0.4,0c-0.1,0-0.1,0-0.3,0c-0.2,0-0.5,0-0.6,0 c0,0-0.1,0,0,0c0,0-0.2,0-0.4,0c-0.2,0-0.3,0-0.4,0s-0.1,0-0.2,0c-0.1,0-0.2,0-0.4,0c-0.1,0-0.3,0-0.4,0c-0.1,0-0.1,0-0.2,0 c-0.2,0-0.1,0-0.2,0c-0.1,0-0.2,0-0.2,0c-0.1,0-0.1,0-0.3,0c-0.1,0-0.2,0-0.4,0c-0.2,0-0.4,0-0.6,0h-0.3c-0.1,0-0.2,0-0.3,0 c0.1,0-0.1,0,0,0c-0.1,0-0.2,0-0.3,0c-0.1,0-0.4,0-0.5,0c-0.1,0-0.2,0-0.3,0c-0.1,0-0.2,0-0.4,0c-0.1,0-0.1,0-0.2,0 c-0.1,0-0.3,0-0.4,0c-0.1,0-0.1,0-0.2,0c-0.1,0-0.1,0-0.2,0c-0.1,0-0.3,0-0.4,0s-0.3,0-0.4,0c-0.1,0-0.1,0-0.3,0c-0.2,0-0.6,0-0.6,0 c-0.2,0-0.5,0-0.5,0c-0.2,0-0.4,0-0.6,0c-0.2,0-0.2,0-0.3,0c-0.1,0-0.3,0-0.4,0c-0.2,0,0,0-0.1,0c-0.1,0-0.3,0-0.4,0 c-0.1,0-0.2,0-0.3,0c-0.1,0-0.2,0-0.2,0s-0.1,0-0.2,0c-0.1,0-0.1,0-0.3,0c-0.1,0-0.3,0-0.4,0c-0.1,0,0,0-0.2,0c-0.2,0-0.6,0-0.8,0 s-0.2,0-0.3,0c-0.1,0-0.3,0-0.3,0c-0.1,0-0.3,0-0.5,0c0,0-0.1,0-0.2,0c-0.1,0-0.2,0-0.4,0c-0.1,0-0.3,0-0.3,0c-0.2,0-0.5,0-0.5,0 c-0.1,0-0.4,0-0.4,0h-0.2c0,0-0.1,0-0.2,0c-0.1,0,0,0-0.2,0c-0.2,0-0.7,0-0.7,0s-0.1,0-0.3,0s-0.2,0-0.4,0c-0.2,0-0.5,0-0.5,0 s-0.1,0-0.2,0c-0.2,0-0.2,0-0.4,0c-0.1,0-0.4,0-0.4,0s-0.2,0-0.3,0c-0.1,0-0.1,0-0.2,0c-0.1,0-0.3,0-0.5,0c-0.1,0-0.1,0-0.2,0 c-0.1,0-0.2,0-0.3,0c-0.1,0,0,0-0.2,0s-0.7,0-0.8,0c-0.2,0-0.3,0-0.5,0c-0.2,0-0.1,0-0.2,0c-0.1,0-0.3,0-0.5,0c-0.1,0-0.3,0-0.3,0 s-0.3,0-0.4,0c-0.1,0-0.1,0-0.2,0c-0.1,0-0.1,0-0.2,0c-0.1,0-0.4,0-0.4,0s-0.1,0-0.2,0c-0.1,0-0.3,0-0.5,0s0,0-0.2,0 c-0.2,0-0.4,0-0.5,0c-0.2,0-0.6,0-0.8,0s-0.1,0-0.2,0c-0.1,0-0.2,0-0.3,0c-0.1,0-0.1,0-0.2,0c-0.1,0-0.4,0-0.5,0c-0.1,0-0.2,0-0.2,0 c-0.1,0-0.3,0-0.3,0s-0.3,0-0.4,0c-0.1,0-0.2,0-0.4,0c-0.1,0-0.2,0-0.2,0s-0.3,0-0.5,0s-0.2,0-0.4,0c-0.1,0-0.3,0-0.3,0 s-0.5,0-0.7,0s-0.1,0-0.2,0c-0.1,0-0.2,0-0.2,0h-0.2c0,0-0.3,0-0.4,0c0,0-0.2,0-0.5,0c-0.1,0-0.3,0,0,0c0.1,0-0.2,0-0.3,0 s-0.2,0-0.4,0c-0.1,0-0.2,0-0.2,0c-0.1,0-0.3,0-0.5,0c-0.1,0-0.1,0,0,0c0.1,0-0.1,0-0.2,0c-0.1,0-0.1,0-0.3,0s-0.6,0-0.8,0 c-0.2,0-0.1,0-0.2,0s-0.3,0-0.4,0c-0.1,0-0.2,0-0.3,0c-0.1,0-0.2,0-0.2,0s-0.1,0-0.2,0c-0.1,0-0.2,0-0.3,0c-0.1,0-0.3,0-0.4,0 c-0.1,0,0,0-0.1,0c-0.2,0-0.3,0-0.4,0c-0.1,0-0.2,0-0.3,0s-0.3,0-0.5,0c0,0-0.4,0-0.5,0c0,0-0.5,0-0.6,0c-0.2,0-0.1,0-0.2,0 c-0.1,0-0.3,0-0.4,0c-0.2,0-0.3,0-0.4,0c-0.1,0-0.1,0-0.2,0c-0.1,0-0.1,0-0.2,0c-0.1,0-0.3,0-0.4,0c-0.1,0-0.1,0-0.2,0 c-0.1,0,0,0-0.1,0c-0.2,0-0.2,0-0.3,0c-0.1,0-0.2,0-0.3,0c-0.1,0-0.1,0-0.4,0c-0.3,0-0.7,0-1,0c-0.2,0-0.6,0-0.7,0s0.5,0-0.1,0 c-0.7,0-0.2,0-0.5,0c-0.2,0-0.5,0-0.6,0s-0.2,0-0.5,0c-0.3,0-0.8,0-0.7,0c0,0,0.2,0,0.2,0c-0.1,0,0,0-0.2,0s-0.6,0-0.7,0 s-0.1,0-0.1,0s-0.1,0-0.2,0c-0.1,0-0.2,0-0.2,0c-0.1,0-0.1,0-0.1,0s-0.1,0-0.1,0c0,0,0,0,0,0c0,0,0,0-0.1,0c0,0,0,0-0.1,0 c0,0,0,0-0.1,0c0,0-0.1,0-0.2,0s0,0-0.1,0s-0.5,0-0.7,0c-0.2,0-0.1,0-0.2,0c-0.1,0,0.1,0,0.2,0c0,0-0.5,0-0.8,0c-0.3,0-0.4,0-0.4,0 c-0.1,0-0.3,0-0.6,0c-0.2,0,0.2,0-0.5,0s0,0-0.1,0s-0.5,0-0.7,0s-0.8,0-1.1,0c-0.3,0-0.4,0-0.4,0c-0.1,0-0.2,0-0.6,0s-0.3,0-0.5,0 c-0.2,0-0.4,0-0.6,0c-0.2,0-0.2,0-0.3,0s-0.2,0-0.3,0c-0.1,0-0.1,0-0.1,0c-0.1,0-0.1,0-0.2,0c-0.1,0-0.1,0-0.1,0c0,0,0,0-0.1,0 c-0.1,0,0,0-0.2,0c-0.2,0-0.2,0-0.4,0c-0.1,0-0.2,0-0.5,0s-0.4,0-0.7,0c-0.3,0-0.4,0-0.7,0c-0.4,0-0.6,0-0.6,0c0,0-0.1,0-0.2,0 c-0.1,0-0.1,0-0.2,0c-0.1,0-0.1,0-0.2,0s0,0-0.2,0c-0.2,0-0.3,0-0.6,0s-0.3,0-0.7,0c-0.4,0-0.3,0-0.6,0s-0.2,0-0.7,0s-0.5,0-0.7,0 s-0.1,0-0.5,0s-0.2,0-0.6,0c-0.4,0-0.2,0-0.6,0s-0.2,0-0.5,0s-0.1,0-0.5,0s-0.2,0-0.3,0c-0.2,0-0.3,0-0.4,0c0,0-0.3,0-0.3,0 s-0.1,0-0.5,0s0,0-0.3,0c-0.3,0-0.2,0-0.4,0c-0.2,0-0.5,0-0.7,0c-0.2,0-0.4,0-0.8,0s-0.2,0-0.4,0c-0.2,0-0.4,0-0.6,0 c-0.2,0-0.5,0-0.4,0s-0.8,0-1,0c-0.2,0-0.3,0-0.5,0c-0.2,0-0.5,0-0.7,0c-0.2,0-0.4,0-0.6,0s-0.3,0-0.4,0c-0.1,0-0.6,0-0.8,0 s-0.5,0-0.8,0s-0.3,0-0.5,0s-0.3,0-0.3,0s-0.6,0-0.7,0c-0.2,0-0.2,0-0.3,0c-0.1,0-0.1,0-0.2,0c0.1,0-0.1,0,0,0c-0.1,0-0.2,0-0.2,0 c-0.1,0-0.2,0-0.3,0c-0.1,0-0.1,0-0.2,0s-0.1,0-0.2,0c-0.1,0-0.3,0-0.4,0c-0.1,0-0.1,0-0.2,0c-0.1,0-0.4,0-0.5,0c-0.1,0-0.1,0-0.2,0 c-0.1,0-0.1,0-0.2,0s-0.3,0-0.4,0s-0.3,0-0.4,0c-0.1,0-0.3,0-0.5,0c-0.1,0-0.2,0-0.3,0c-0.1,0-0.2,0-0.3,0c-0.1,0-0.2,0-0.2,0 s-0.2,0-0.3,0c-0.1,0-0.1,0-0.2,0s-0.2,0-0.4,0s-0.2,0-0.3,0c-0.1,0-0.1,0-0.2,0c-0.1,0-0.4,0-0.4,0s-0.1,0-0.3,0s-0.5,0-0.7,0 c-0.2,0-0.2,0-0.4,0s-0.4,0-0.6,0c-0.2,0-0.3,0-0.4,0c-0.1,0-0.2,0-0.3,0c-0.1,0-0.4,0-0.5,0c-0.1,0-0.3,0-0.5,0c-0.2,0-0.2,0,0,0 c0.2,0-0.2,0-0.3,0c-0.1,0-0.4,0-0.5,0c-0.1,0-0.2,0-0.4,0c0,0-0.2,0-0.3,0c-0.1,0-0.2,0-0.3,0s-0.3,0-0.4,0c-0.1,0-0.1,0-0.3,0 c-0.2,0-0.3,0-0.5,0s-0.3,0-0.5,0s-0.2,0-0.2,0c0,0-0.6,0-0.7,0c-0.1,0-0.2,0-0.2,0s-0.1,0-0.2,0c-0.1,0-0.4,0-0.4,0s-0.5,0-0.6,0 c-0.1,0-0.1,0-0.3,0c-0.1,0-0.2,0-0.4,0c-0.1,0-0.5,0-0.6,0c-0.1,0-0.2,0-0.3,0c-0.1,0-0.2,0-0.4,0c-0.1,0-0.2,0-0.4,0 c-0.2,0-0.3,0-0.4,0c-0.1,0,0,0-0.1,0s-0.3,0-0.4,0c-0.1,0-0.2,0-0.4,0s-0.2,0-0.3,0c-0.1,0-0.2,0-0.3,0c-0.1,0-0.3,0-0.4,0 s-0.5,0-0.7,0c-0.2,0-0.6,0-0.7,0s-0.5,0-0.6,0s-0.2,0-0.4,0c-0.2,0-0.4,0-0.5,0s-0.1,0-0.3,0c-0.2,0-0.4,0-0.5,0 c-0.1,0-0.8,0-0.9,0c-0.1,0-0.5,0-0.5,0c-0.1,0-0.2,0-0.3,0c-0.1,0-0.2,0-0.4,0c-0.2,0-0.5,0-0.7,0c-0.2,0-0.1,0-0.2,0s-0.4,0-0.4,0 c0,0-0.1,0-0.2,0s0,0-0.2,0c-0.2,0-0.6,0-0.7,0c-0.1,0-0.2,0-0.3,0c-0.1,0-0.2,0-0.3,0s-0.1,0-0.3,0s-0.4,0-0.5,0 c-0.2,0-0.5,0-0.7,0c-0.2,0-0.2,0-0.3,0c-0.1,0-0.2,0-0.4,0c-0.1,0-0.4,0-0.4,0c-0.1,0-0.2,0-0.4,0c-0.2,0-0.2,0-0.3,0 c-0.1,0-0.2,0-0.3,0s-0.3,0-0.5,0c-0.2,0-0.2,0-0.4,0c-0.2,0,0,0-0.1,0s-0.1,0-0.1,0c-0.1,0-0.3,0-0.3,0s-0.2,0-0.3,0 c-0.1,0-0.2,0-0.2,0s-0.1,0-0.2,0s-0.2,0-0.2,0s-0.4,0-0.4,0c-0.1,0,0,0-0.1,0s-0.2,0-0.3,0c-0.1,0,0,0-0.1,0c-0.1,0-0.2,0-0.3,0 c-0.1,0-0.1,0-0.2,0s-0.4,0-0.6,0c-0.2,0-0.3,0-0.4,0c-0.1,0-0.2,0-0.3,0c0,0-0.3,0-0.7,0c0.1,0-0.3,0,0,0c-0.1,0-0.3,0-0.4,0 c0,0-0.1,0-0.3,0c-0.1,0-0.2,0-0.3,0c-0.1,0-0.1,0-0.2,0c-0.1,0-0.1,0-0.2,0c-0.1,0-0.1,0-0.3,0c0.1,0-0.2,0,0,0c-0.1,0-0.2,0-0.2,0 c0,0-0.1,0-0.2,0c-0.1,0-0.3,0-0.4,0c-0.1,0-0.2,0-0.2,0s0,0-0.1,0c-0.1,0-0.3,0-0.4,0c0,0-0.2,0-0.3,0c0,0-0.1,0-0.3,0 s-0.3,0-0.4,0c-0.1,0-0.1,0-0.2,0c-0.1,0-0.1,0-0.3,0s-0.3,0-0.3,0c0,0,0,0,0,0c0,0-0.3,0-0.4,0c-0.1,0-0.1,0-0.3,0s-0.2,0-0.3,0 s0,0-0.1,0s-0.2,0-0.2,0s-0.1,0-0.2,0c-0.1,0-0.1,0-0.3,0c-0.1,0-0.3,0-0.4,0c0.1,0-0.2,0,0,0c-0.1,0-0.3,0-0.5,0s-0.3,0-0.4,0 c-0.1,0-0.2,0-0.4,0c-0.1,0-0.5,0-0.5,0c0,0,0,0,0,0c0,0-0.1,0-0.2,0c-0.1,0-0.2,0-0.3,0s-0.3,0-0.4,0s-0.2,0-0.3,0s-0.3,0-0.4,0 c-0.1,0-0.3,0-0.4,0c-0.1,0-0.1,0-0.2,0c-0.1,0-0.3,0-0.4,0s-0.4,0-0.8,0s-0.4,0-0.6,0s-0.5,0-0.6,0c-0.1,0-0.3,0-0.4,0 c-0.1,0-0.7,0-1,0s-0.7,0-0.9,0s-0.3,0-0.4,0c-0.1,0-0.2,0-0.3,0c-0.1,0-0.2,0-0.3,0c-0.1,0-0.2,0-0.2,0c-0.1,0-0.1,0-0.2,0 c-0.1,0-0.2,0-0.3,0c-0.1,0-0.1,0-0.2,0s-0.1,0-0.2,0c-0.1,0-0.2,0-0.3,0c-0.1,0-0.2,0-0.3,0c-0.1,0-0.2,0-0.4,0s-0.5,0-0.9,0 s-0.9,0-1,0s-0.3,0-0.4,0s-0.4,0-0.5,0s-0.2,0-0.6,0c-0.4,0-0.7,0-0.8,0c-0.1,0-0.3,0-0.4,0s-0.1,0-0.2,0s-0.2,0-0.4,0 c-0.1,0-0.3,0-0.4,0c-0.1,0-0.2,0-0.3,0c-0.1,0-0.4,0-0.4,0s-0.2,0-0.3,0c-0.1,0-0.2,0-0.2,0c0,0,0,0,0,0c0,0-0.3,0-0.5,0 s-0.2,0-0.4,0c-0.1,0-0.3,0-0.4,0c-0.2,0-0.4,0-0.5,0c0.2,0-0.1,0,0,0c-0.2,0-0.3,0-0.4,0c-0.1,0-0.2,0-0.3,0c-0.1,0-0.1,0-0.2,0 s-0.1,0-0.2,0s-0.1,0-0.1,0c-0.1,0-0.2,0-0.3,0c-0.1,0-0.2,0-0.3,0c-0.1,0-0.3,0-0.4,0c0,0,0,0,0,0c0,0-0.1,0-0.3,0s-0.2,0-0.3,0 c-0.1,0-0.1,0-0.2,0c-0.1,0-0.3,0-0.4,0s-0.3,0-0.3,0c-0.1,0-0.3,0-0.3,0c0,0-0.3,0-0.4,0c-0.1,0-0.1,0-0.1,0s0,0-0.2,0 c-0.2,0-0.3,0-0.4,0c-0.1,0-0.1,0-0.2,0s-0.1,0-0.2,0c0.1,0-0.1,0,0,0c-0.1,0-0.2,0-0.3,0c-0.1,0-0.1,0-0.2,0c-0.1,0-0.1,0-0.2,0 c-0.1,0-0.2,0-0.3,0c-0.1,0-0.3,0-0.3,0c-0.2,0-0.2,0-0.4,0c0.3,0-0.2,0,0,0c-0.3,0-0.6,0-0.7,0s-0.1,0-0.3,0c-0.1,0-0.2,0-0.4,0 s-0.5,0-0.6,0c-0.1,0-0.1,0-0.2,0c-0.1,0-0.1,0-0.3,0c-0.1,0-0.1,0-0.1,0c-0.1,0-0.2,0-0.3,0c-0.1,0,0,0-0.1,0c-0.1,0-0.4,0-0.4,0 s-0.1,0-0.2,0s-0.2,0-0.2,0s-0.1,0-0.2,0c-0.1,0-0.3,0-0.3,0s-0.2,0-0.3,0c-0.1,0-0.1,0-0.1,0c0,0,0,0-0.1,0c-0.1,0-0.2,0-0.4,0 s-0.3,0-0.5,0s-0.2,0-0.3,0c-0.1,0-0.1,0-0.3,0c-0.2,0-0.3,0-0.4,0c0,0-0.2,0-0.4,0c-0.1,0-0.3,0-0.4,0c-0.1,0-0.1,0-0.3,0 c-0.2,0-0.5,0-0.7,0c-0.2,0-0.4,0-0.5,0c-0.2,0-0.2,0-0.3,0c-0.1,0-0.2,0-0.3,0c-0.1,0-0.2,0-0.3,0c-0.1,0-0.5,0-0.7,0 c-0.2,0-0.1,0-0.2,0s-0.2,0-0.2,0c0,0-0.3,0-0.4,0c-0.1,0,0,0-0.2,0c-0.2,0-0.5,0-0.7,0c-0.2,0-0.4,0-0.4,0c-0.1,0-0.2,0-0.3,0 c-0.1,0-0.4,0-0.5,0c-0.1,0-0.8,0-0.9,0c-0.1,0-0.4,0-0.5,0c-0.2,0-0.2,0-0.3,0c-0.1,0-0.3,0-0.5,0c-0.2,0-0.3,0-0.4,0s-0.5,0-0.6,0 c-0.1,0-0.5,0-0.7,0c-0.2,0-0.7,0-0.7,0s-0.3,0-0.4,0c-0.1,0-0.2,0-0.3,0c-0.1,0-0.2,0-0.3,0s-0.2,0-0.4,0c-0.1,0-0.2,0-0.4,0 s0,0-0.1,0c-0.1,0-0.2,0-0.4,0c-0.2,0-0.3,0-0.4,0s-0.2,0-0.4,0s-0.2,0-0.3,0c-0.1,0-0.5,0-0.6,0c-0.1,0-0.2,0-0.4,0 c-0.1,0-0.2,0-0.3,0s-0.6,0-0.6,0s-0.3,0-0.4,0c-0.1,0-0.1,0-0.2,0c-0.1,0-0.1,0-0.2,0c-0.1,0-0.7,0-0.7,0s-0.1,0-0.2,0 s-0.2,0-0.4,0s-0.4,0-0.5,0c-0.2,0-0.2,0-0.3,0c-0.1,0-0.2,0-0.4,0c-0.1,0-0.2,0-0.3,0s-0.3,0-0.3,0c-0.2,0-0.3,0-0.4,0 c-0.1,0-0.3,0-0.5,0c-0.2,0-0.2,0-0.3,0c0.2,0-0.1,0,0,0c-0.2,0-0.4,0-0.5,0s-0.4,0-0.5,0c-0.1,0-0.2,0-0.3,0c-0.1,0-0.2,0-0.4,0 c-0.2,0-0.4,0-0.6,0s-0.2,0-0.4,0c-0.2,0-0.5,0-0.7,0s-0.3,0-0.3,0s-0.3,0-0.4,0c-0.1,0-0.1,0-0.2,0s-0.1,0-0.3,0 c-0.1,0-0.2,0-0.4,0s-0.2,0-0.2,0c-0.1,0-0.3,0-0.3,0s-0.1,0-0.2,0c-0.1,0-0.2,0-0.3,0s-0.1,0-0.3,0c-0.1,0-0.3,0-0.5,0 c-0.1,0-0.3,0-0.4,0s-0.3,0-0.4,0c-0.1,0-0.1,0-0.2,0c-0.1,0-0.1,0-0.2,0c-0.1,0-0.3,0-0.5,0c-0.1,0-0.1,0-0.2,0c-0.1,0-0.3,0-0.4,0 c-0.1,0-0.1,0-0.2,0s-0.1,0-0.2,0c-0.1,0-0.2,0-0.3,0c-0.1,0-0.1,0-0.2,0c0.1,0-0.1,0,0,0c-0.1,0-0.1,0-0.2,0c-0.1,0-0.1,0-0.3,0 c-0.2,0-0.7,0-0.7,0s-0.1,0-0.3,0c-0.1,0-0.2,0-0.5,0s-0.5,0-0.8,0c-0.3,0-0.7,0-0.8,0c-0.1,0-0.2,0-0.4,0s-0.3,0-0.6,0 s-0.5,0-0.7,0c-0.2,0-0.3,0-0.5,0s-1,0-1,0s-0.2,0-0.4,0c-0.2,0-0.4,0-0.6,0c-0.2,0,0,0-0.4,0c-0.4,0-0.6,0-0.8,0 c-0.2,0-0.5,0-0.7,0c-0.2,0-0.1,0-0.4,0c-0.3,0,0.1,0-0.3,0s-0.4,0-0.5,0c-0.1,0-0.3,0-0.3,0s-0.2,0-0.4,0s0.1,0-0.3,0 c-0.4,0-0.2,0-0.5,0s-0.2,0-0.5,0c-0.3,0-0.2,0-0.6,0c-0.4,0-0.2,0-0.6,0s-0.3,0-0.5,0c-0.2,0-0.2,0-0.7,0c-0.5,0-0.4,0-0.7,0 c-0.4,0-0.2,0-0.6,0c-0.4,0-0.3,0-0.7,0c-0.4,0-0.4,0-0.6,0c-0.2,0-0.1,0-0.2,0c-0.1,0-0.1,0-0.2,0c-0.1,0-0.1,0-0.2,0 c-0.1,0-0.1,0-0.2,0c0,0-0.3,0-0.6,0c-0.4,0-0.5,0-0.7,0c-0.3,0-0.4,0-0.7,0c-0.3,0-0.4,0-0.5,0c-0.1,0-0.2,0-0.4,0 c-0.2,0-0.1,0-0.2,0c-0.1,0-0.1,0-0.1,0s-0.1,0-0.1,0c-0.1,0-0.1,0-0.2,0c-0.1,0-0.1,0-0.1,0c-0.1,0-0.1,0-0.3,0s-0.1,0-0.3,0 c-0.2,0-0.4,0-0.6,0c-0.2,0-0.1,0-0.5,0c-0.4,0-0.5,0-0.6,0c-0.1,0-0.1,0-0.4,0c-0.3,0-0.8,0-1.1,0c-0.3,0-0.6,0-0.7,0 c-0.1,0,0.5,0-0.1,0c-0.7,0-0.3,0-0.5,0s-0.5,0-0.6,0c-0.1,0-0.2,0-0.4,0c-0.3,0-0.8,0-0.8,0c0,0,0.2,0,0.2,0c-0.1,0,0,0-0.2,0 c-0.2,0-0.6,0-0.7,0s-0.1,0-0.1,0c-0.1,0-0.1,0-0.2,0c0,0-0.1,0-0.1,0c0,0-0.1,0-0.1,0c0,0,0,0-0.1,0c0,0,0,0,0,0s-0.1,0-0.1,0 c0,0-0.1,0-0.1,0c0,0-0.2,0-0.2,0c-0.1,0-0.1,0-0.2,0s0,0-0.1,0c-0.2,0-0.5,0-0.7,0s-0.1,0-0.2,0c-0.1,0,0.1,0,0.2,0 c0,0-0.5,0-0.7,0c-0.3,0-0.4,0-0.5,0c-0.1,0-0.3,0-0.5,0c-0.2,0,0.2,0-0.5,0c-0.6,0,0,0-0.1,0c-0.1,0-0.5,0-0.7,0c-0.3,0-0.7,0-1,0 c-0.3,0-0.3,0-0.4,0s-0.2,0-0.3,0c-0.1,0-0.1,0-0.3,0c-0.2,0-0.1,0-0.1,0c-0.1,0-0.1,0-0.2,0c-0.1,0-0.3,0-0.4,0c-0.1,0-0.1,0-0.2,0 c-0.1,0-0.1,0-0.2,0c-0.1,0-0.3,0-0.5,0c-0.2,0-0.3,0-0.4,0s-0.1,0-0.2,0c-0.2,0-0.6,0-0.6,0c-0.2,0-0.5,0-0.5,0c-0.2,0-0.3,0-0.5,0 c-0.2,0-0.2,0-0.3,0c-0.1,0-0.3,0-0.4,0c-0.2,0,0,0-0.1,0s-0.3,0-0.4,0c-0.1,0-0.2,0-0.3,0c-0.1,0-0.3,0-0.3,0s-0.1,0-0.2,0 c-0.1,0-0.1,0-0.3,0c-0.1,0-0.3,0-0.4,0c-0.1,0,0,0-0.2,0s-0.6,0-0.8,0c-0.2,0-0.2,0-0.3,0c-0.1,0-0.2,0-0.2,0c-0.1,0-0.3,0-0.5,0 c0,0-0.1,0-0.2,0s-0.2,0-0.4,0c-0.1,0-0.3,0-0.3,0c-0.2,0-0.5,0-0.5,0c-0.1,0-0.4,0-0.4,0h-0.2c0,0-0.1,0-0.2,0c-0.1,0,0,0-0.2,0 c-0.2,0-0.7,0-0.7,0s-0.1,0-0.3,0c-0.1,0-0.2,0-0.4,0c-0.2,0-0.5,0-0.5,0s0,0-0.2,0c-0.2,0-0.3,0-0.4,0c-0.1,0-0.4,0-0.4,0 s-0.2,0-0.3,0c-0.1,0-0.1,0-0.2,0s-0.4,0-0.5,0c-0.1,0-0.1,0-0.2,0s-0.2,0-0.3,0c-0.1,0,0,0-0.2,0c-0.2,0-0.7,0-0.8,0 c-0.2,0-0.4,0-0.6,0c-0.2,0-0.1,0-0.2,0c-0.1,0-0.3,0-0.5,0c-0.1,0-0.2,0-0.2,0s-0.3,0-0.4,0c-0.1,0-0.2,0-0.3,0c-0.1,0-0.1,0-0.2,0 c-0.1,0-0.4,0-0.4,0s-0.1,0-0.3,0c-0.1,0-0.3,0-0.5,0c-0.1,0,0,0-0.2,0c-0.2,0-0.4,0-0.5,0c-0.2,0-0.6,0-0.8,0c-0.2,0-0.1,0-0.2,0 c-0.1,0-0.2,0-0.3,0c-0.1,0-0.2,0-0.3,0c-0.2,0-0.4,0-0.5,0c-0.1,0-0.2,0-0.2,0c-0.1,0-0.2,0-0.3,0c0,0-0.3,0-0.4,0s-0.2,0-0.4,0 c-0.1,0-0.2,0-0.2,0s-0.3,0-0.5,0c-0.2,0-0.2,0-0.4,0c-0.1,0-0.3,0-0.3,0s-0.5,0-0.7,0c-0.2,0-0.1,0-0.2,0c-0.1,0-0.2,0-0.2,0h-0.2 c0,0-0.3,0-0.4,0c0,0-0.2,0-0.5,0c-0.1,0-0.3,0,0,0c0.1,0-0.2,0-0.3,0c-0.1,0-0.2,0-0.4,0c-0.1,0-0.2,0-0.2,0c-0.1,0-0.3,0-0.5,0 c-0.1,0-0.2,0,0,0c0.1,0-0.2,0-0.3,0c-0.1,0,0,0-0.3,0s-0.6,0-0.8,0c-0.2,0-0.1,0-0.2,0c-0.1,0-0.3,0-0.4,0c-0.1,0-0.2,0-0.3,0 c-0.1,0-0.2,0-0.2,0s-0.2,0-0.3,0c-0.1,0-0.2,0-0.3,0c-0.1,0-0.3,0-0.4,0c-0.1,0,0,0-0.1,0s-0.3,0-0.4,0c-0.1,0-0.2,0-0.3,0 c-0.2,0-0.3,0-0.5,0c0,0-0.4,0-0.5,0c0,0-0.4,0-0.6,0c-0.2,0-0.1,0-0.3,0c-0.1,0-0.3,0-0.4,0c-0.2,0-0.3,0-0.4,0c-0.1,0-0.1,0-0.2,0 c-0.1,0-0.1,0-0.2,0c-0.1,0-0.3,0-0.4,0c-0.1,0-0.1,0-0.2,0c-0.1,0-0.2,0-0.4,0c-0.1,0-0.2,0-0.3,0c-0.1,0-0.3,0-0.5,0 c-0.1,0-0.2,0-0.3,0c0.1,0-0.1,0,0,0c-0.1,0-0.2,0-0.3,0h-0.3c-0.2,0-0.5,0-0.6,0s-0.2,0-0.4,0c-0.1,0-0.2,0-0.3,0 c-0.1,0-0.1,0-0.2,0c-0.1,0-0.1,0-0.2,0s-0.1,0-0.2,0c-0.1,0-0.2,0-0.4,0c-0.1,0-0.3,0-0.4,0c-0.1,0-0.1,0-0.2,0c-0.1,0-0.2,0-0.4,0 s-0.4,0-0.4,0c0,0,0,0,0,0c0,0-0.5,0-0.6,0c-0.1,0-0.2,0-0.3,0c-0.1,0-0.2,0-0.4,0s-0.6,0-0.8,0c-0.2,0-0.3,0-0.4,0 c-0.1,0-0.2,0-0.4,0s-0.8,0-0.8,0h-0.4c0,0-0.6,0-0.8,0s-0.1,0-0.2,0c-0.1,0-0.2,0-0.2,0c-0.1,0-0.2,0-0.4,0h-0.4c0,0-0.1,0-0.3,0 c-0.1,0-0.3,0-0.3,0s-0.2,0-0.4,0c-0.1,0-0.2,0-0.3,0s-0.2,0-0.3,0c-0.1,0-0.2,0-0.2,0c-0.1,0-0.2,0-0.2,0c0,0-0.1,0-0.2,0 s-0.3,0-0.3,0c-0.1,0-0.2,0-0.4,0c-0.2,0-0.5,0-0.7,0c-0.2,0-0.2,0-0.3,0c-0.1,0-0.3,0-0.3,0s-0.1,0-0.3,0c-0.2,0-0.5,0-0.8,0 c-0.2,0-0.3,0-0.5,0c-0.2,0-0.1,0-0.3,0s-0.4,0-0.6,0c-0.2,0-0.3,0-0.5,0S52,28,52,28c-0.1,0-0.1,0-0.4,0c-0.2,0-0.6,0-0.9,0 c-0.2,0-0.2,0-0.3,0s-0.3,0-0.5,0c-0.1,0-0.2,0-0.3,0c-0.1,0-0.1,0-0.2,0c-0.1,0-0.2,0-0.3,0c-0.1,0-0.1,0-0.3,0c-0.1,0-0.4,0-0.4,0 s-0.2,0-0.4,0c-0.1,0-0.2,0-0.2,0h-0.2c0,0-0.2,0-0.3,0c-0.1,0-0.1,0-0.3,0c-0.1,0-0.3,0-0.4,0c-0.2,0-0.3,0-0.4,0 c-0.1,0-0.1,0-0.2,0c-0.1,0-0.4,0-0.4,0c0,0,0,0,0,0c0,0-0.4,0-0.4,0s-0.1,0-0.3,0c-0.1,0-0.4,0-0.4,0s-0.2,0-0.3,0 c-0.1,0-0.4,0-0.4,0s-0.1,0-0.2,0c-0.1,0-0.2,0-0.3,0c-0.1,0,0,0-0.1,0c-0.1,0-0.1,0-0.2,0c-0.1,0-0.3,0-0.3,0s-0.1,0-0.2,0 c-0.1,0-0.4,0-0.4,0s-0.2,0-0.3,0s-0.2,0-0.2,0c-0.1,0-0.1,0-0.3,0c-0.1,0-0.4,0-0.4,0h-0.5c0,0-0.4,0-0.5,0c-0.1,0-0.2,0-0.4,0 c0.1,0-0.2,0,0,0c-0.1,0-0.3,0-0.4,0c-0.1,0-0.2,0-0.2,0c-0.1,0-0.2,0-0.2,0c0,0-0.3,0-0.4,0c0.1,0-0.1,0,0,0c-0.1,0-0.2,0-0.3,0 c-0.1,0-0.2,0-0.4,0c0,0-0.1,0-0.2,0c-0.1,0-0.4,0-0.4,0c0,0-0.1,0-0.1,0s0.1,0-0.1,0c-0.1,0-0.3,0-0.5,0c0,0-0.3,0-0.3,0 c-0.1,0-0.5,0-0.5,0s-0.1,0-0.2,0c-0.1,0-0.2,0-0.2,0c0,0-0.6,0-0.6,0c-0.1,0-0.2,0-0.2,0c-0.1,0-0.2,0-0.3,0c-0.1,0-0.1,0-0.2,0 c-0.1,0-0.1,0-0.2,0c-0.1,0-0.3,0-0.4,0c-0.1,0-0.1,0-0.2,0c-0.1,0-0.4,0-0.5,0c-0.1,0,0,0-0.2,0c-0.2,0-0.4,0-0.6,0 c-0.2,0-0.3,0-0.4,0c-0.1,0-0.3,0-0.5,0c-0.1,0-0.2,0-0.3,0c-0.1,0-0.3,0-0.3,0c-0.1,0-0.1,0-0.2,0c-0.1,0-0.2,0-0.3,0 c-0.1,0-0.1,0-0.3,0c-0.1,0-0.2,0-0.4,0c-0.1,0-0.2,0-0.3,0c-0.1,0-0.1,0-0.2,0c-0.1,0-0.4,0-0.4,0s-0.1,0-0.3,0c-0.2,0-0.4,0-0.7,0 c-0.2,0-0.2,0-0.4,0c-0.2,0-0.4,0-0.6,0c-0.2,0-0.3,0-0.4,0c-0.1,0-0.2,0-0.3,0c-0.1,0-0.4,0-0.5,0s-0.3,0-0.5,0c0.1,0-0.2,0,0,0 c-0.1,0-0.2,0-0.3,0c-0.1,0-0.4,0-0.5,0c-0.1,0-0.2,0-0.4,0c0,0-0.2,0-0.3,0c-0.1,0-0.2,0-0.3,0c-0.1,0-0.3,0-0.4,0 c-0.1,0-0.2,0-0.3,0c-0.1,0-0.3,0-0.5,0c-0.2,0-0.2,0-0.4,0c-0.1,0-0.2,0-0.2,0c0,0-0.6,0-0.7,0c-0.1,0-0.2,0-0.3,0 c-0.1,0-0.1,0-0.2,0s-0.4,0-0.4,0s-0.5,0-0.6,0s-0.2,0-0.3,0c-0.1,0-0.2,0-0.4,0s-0.5,0-0.6,0c-0.1,0-0.2,0-0.3,0 c-0.1,0-0.2,0-0.4,0c-0.1,0-0.2,0-0.4,0c-0.2,0-0.3,0-0.4,0c-0.1,0,0,0-0.1,0c-0.1,0-0.2,0-0.4,0c-0.1,0-0.2,0-0.4,0 c-0.1,0-0.2,0-0.3,0c-0.1,0-0.2,0-0.3,0c-0.1,0-0.3,0-0.4,0c0,0-0.5,0-0.7,0s-0.6,0-0.7,0c-0.1,0-0.5,0-0.6,0s-0.2,0-0.4,0 c-0.2,0-0.4,0-0.5,0c-0.1,0-0.1,0-0.3,0c-0.2,0-0.4,0-0.5,0c-0.1,0-0.8,0-0.9,0c-0.1,0-0.5,0-0.5,0c-0.1,0-0.2,0-0.2,0 c-0.1,0-0.2,0-0.4,0c-0.2,0-0.5,0-0.7,0c-0.2,0-0.1,0-0.2,0c-0.1,0-0.4,0-0.4,0c0,0-0.1,0-0.2,0c-0.1,0,0,0-0.2,0 c-0.2,0-0.6,0-0.7,0c-0.1,0-0.2,0-0.3,0c-0.1,0-0.2,0-0.3,0c-0.1,0-0.1,0-0.3,0c-0.2,0-0.4,0-0.5,0c-0.2,0-0.5,0-0.7,0 C4,28,4,28,3.9,28c-0.1,0-0.2,0-0.4,0c-0.1,0-0.3,0-0.3,0c-0.1,0-0.2,0-0.4,0s-0.2,0-0.3,0c-0.1,0-0.2,0-0.3,0S2,28,1.8,28 c-0.2,0-0.2,0-0.4,0s0,0-0.1,0c-0.1,0,0,0-0.1,0c-0.1,0-0.3,0-0.3,0s-0.2,0-0.3,0c-0.1,0-0.2,0-0.2,0c-0.1,0-0.2,0-0.2,0 C0.1,28,0,28,0,28C0,28,0.1,5.5,0.1,5.5h1l0.6-0.2l0.4-0.1c0,0,0.1-1.4,0.4-0.3S2.8,5,2.8,5s0.3-1.2,0.6-0.2s0.2-1.1,0.5,0 C4.1,6,4.1,4.4,4.3,5c0.3,0.7,0.3,0.4,0.3,0.4h0.5c0,0,0.2-0.7,0.5,0c0.3,0.7,0.5,0,0.5,0l0.7,0.1l0.4-0.4l0.3,0.3h0.5h0.7l0.7,0.1 c0.3-0.1,0.5-0.1,0.8,0c0.4,0.2,0.5-0.1,0.5-0.1L11,4.8l0.5,0.4l0.6-0.4l0.6,0.1l0.5-0.7l0.4,0.4L14,3.8l0.6,0.5l0.7-0.1l0.9-0.1 l1.3,0.7l0.4-0.3l0.4,0.2c0,0-0.1-1.4,0.5-0.6c0.5,0.8,0.7,0.4,0.7,0.4l1.2,0.4l0.9-0.2h0.3C21.5,4.7,21.2,4.9,21,5 c0.3,0.1,0.6,0.2,0.8,0.2c0.4,0,0.7-0.2,1-0.4c0,0,0.1-0.3,0.2-0.4l0.2,0.1c0,0.1,0.1,0.1,0.1,0.2c0.4,0.6,0.5,0.3,0.8,0.5 c0.4,0.2,0.7-0.1,0.9,0c0,0,0.2-0.6,0.3-0.3c0.1,0.3,0.2,0,0.4-0.1h0.9l0.4-0.6l0.4,0.3l0.6-0.1c0.1,0.1,0.2,0.2,0.2,0.1 c0-0.1,0-0.1,0-0.2l0.4-0.1h0.1h0.1l0.5,0.3l0.8,0.1l0.6-0.1c0.1,0.2,0.1,0.3,0.2,0.2c0-0.1,0.1-0.2,0.1-0.3c0.1,0,0.1-0.1,0.2-0.1 v0.1c0,0,0.2-0.1,0.4-0.2c0.1,0,0.2-0.1,0.3-0.1c0,0.2,0,0.4,0,0.6c0,0,0.4-0.5,0.4-0.2c0,0.1,0,0.1,0.1,0.2C32.4,5,32.5,5,32.5,5 c0,0,0.3-0.5,0.4-0.2c0.1,0.3,0.4,0.3,0.5,0.4c0.1,0.1,0.4-0.5,0.6,0c0.2,0.5,0.6,0,0.6,0l0.2,0.4L35,5.2V6c0,0,0.5-0.4,0.5-0.2 c0,0.2,0,0.4,0,0.6c0,0,0.2-0.5,0.3-0.2l0.1,0.3c0,0,0.1-0.4,0.3,0c0.2,0.4-0.1,0.4,0.2,0.4c0.2,0.1,0.2-0.6,0.5-0.2 s0.4-0.3,0.6,0.1c0.2,0.4,0.3-0.4,0.4,0c0.1,0.4,0-0.4,0.3,0.1c0.3,0.5,0.4-0.8,0.8,0.1c0.4,0.9,0.5,1,0.6,0.6 c0.1-0.4-0.3-1,0.1-0.4c0.4,0.6,0.6-0.3,0.8,0.2c0.2,0.5,0.5-0.2,0.6,0.3c0.1,0.5,0.9-0.2,0.9-0.2s0.3,0,0.5,0.4 c0.2,0.4,0.7-0.3,0.8,0.1c0.1,0.4,0.1-0.7,0.3,0.1c0.3,0.8,0.5-0.4,0.6,0.3c0.2,0.7,0.8,1,0.8,0.6s0.1-0.5,0.3-0.1 c0.1,0.5,0.2-0.3,0.5,0.2c0.3,0.5,0.5-0.5,0.8,0.1c0.3,0.6,0.7,0.9,0.8,0.4c0.1-0.4,0.2-0.9,0.4-0.4c0.2,0.5,0.3-0.1,0.6,0.2 c0.2,0.3,0.5-0.3,0.7,0.1c0.2,0.4,0.3,0,0.5,0.3c0.2,0.3,1-0.1,1,0c0,0.1,0.3,0.2,0.4,0.1c0.2-0.1,0.4-0.2,0.6-0.4c0,0,0-0.5,0.4,0 c0.4,0.5,0.6,0.3,0.8,0.4c0.2,0.1,0.5-0.3,0.7,0c0.2,0.3,0.1-0.6,0.4,0c0.3,0.6-0.1,0.5,0.3,0.6c0,0,0.4,0.2,0.5,0 c0.1-0.2,0.3,0,0.3,0.1c0,0.1,0.2-0.4,0.4,0s-0.1-0.6,0.3,0.3s0.2,0.2,0.5,0.6c0.3,0.3,0.2-0.9,0.5-0.3c0.3,0.6,0.2-0.5,0.6,0 c0.4,0.5,0.2,0.1,0.6,0.3c0.4,0.3,0.3-0.6,0.5,0c0.2,0.6,0.2-0.6,0.7,0.4c0.5,1,0.4,0.2,0.7,0.7c0.4,0.5,0.2-0.5,0.6,0 c0.4,0.5,0.3-0.1,0.7,0.2c0.4,0.3,0.3-0.9,0.6-0.4c0.4,0.4,0.8-0.1,0.8-0.1s0.3-0.8,0.6-0.4c0.4,0.4,0.5-1.1,0.7-0.5 c0.3,0.7,0.4-0.2,0.7,0.4c0.3,0.6,0.4,1.2,0.5,0.8c0.1-0.4,0.2-0.9,0.4-0.3c0.2,0.6,0,0.8,0.2,0.6c0-0.1,0.1-0.1,0.1-0.1 c0,0,0.1-0.1,0.1-0.1c0.1,0,0.1,0,0.2,0c0.1,0,0.1,0,0.1,0.1c0.1,0.1,0.1,0.1,0.3,0.2c0.2,0.1,0.1-0.1,0.3,0 c0.2,0.1,0.6-0.2,0.6-0.2s0.1-0.7,0.5-0.2c0.4,0.4,0.5-0.1,0.5,0c0.1,0.1,0.1-0.7,0.5-0.3s0.8-0.4,1.1,0.2c0.3,0.5,0.6,0.4,0.7,0.1 c0.1-0.3-0.5-0.8,0.1-0.3c0.7,0.5,0.3-0.6,0.5-0.2c0.2,0.4,0.5-0.2,0.5,0.1c0.1,0.2,0.2-0.5,0.5,0c0.3,0.5,0.7,0.3,0.7,0.1 c0-0.1-0.1-0.3-0.1-0.4l0.1,0.2c0.4,0.6,0.7-0.1,0.7-0.1l0.1-0.1c0.1,0,0.1-0.1,0.2-0.1c0.1,0,0.2,0,0.2,0.1c0.1,0.1,0.1,0.1,0.1,0 c0-0.1,0.1,0.1,0.1,0c0-0.1,0.2-0.2,0.2-0.1c0,0,0.1,0.1,0.2,0.1l0.1,0.1c0,0,0.4,0.6,0.7,0.1l0.1-0.2c-0.1,0.1-0.1,0.3-0.1,0.4 c0,0.2,0.5,0.3,0.7-0.1c0.3-0.4,0.4,0.2,0.5,0c0.1-0.2,0.3,0.3,0.6-0.1c0.2-0.4-0.2,0.8,0.5,0.2s0,0,0.1,0.3 c0.1,0.3,0.5,0.4,0.7-0.1c0.3-0.5,0.8,0.2,1.1-0.2c0.3-0.4,0.4,0.4,0.5,0.3c0.1-0.1,0.2,0.5,0.5,0c0.4-0.5,0.5,0.2,0.5,0.2 s0.4,0.4,0.6,0.2c0.2-0.1,0.2,0.1,0.3,0c0.2-0.1,0.2-0.1,0.3-0.2c0,0,0.1-0.1,0.1-0.1c0.1,0,0.1,0,0.2,0c0.1,0,0.1,0,0.1,0.1 c0,0,0.1,0.1,0.1,0.1c0.1,0.3,0,0,0.2-0.6c0.2-0.6,0.2-0.1,0.4,0.3s0.2-0.1,0.5-0.8c0.3-0.6,0.4,0.3,0.7-0.4 c0.3-0.7,0.4,0.9,0.7,0.5c0.4-0.5,0.6,0.4,0.6,0.4c0,0.1,0.1,0.1,0.2,0.1c0.1,0,0.1,0.1,0.2,0.1c0.1,0,0.1,0,0.2,0 c0.1,0,0.1-0.1,0.2-0.1c0.4-0.4,0.3,0.7,0.7,0.4s0.3,0.3,0.7-0.2c0.4-0.5,0.3,0.5,0.6,0c0.4-0.5,0.2,0.2,0.7-0.7 c0.5-1,0.5,0.2,0.7-0.4c0.2-0.6,0.1,0.3,0.5,0s0.2,0.2,0.5-0.3c0.4-0.5,0.2,0.6,0.6,0c0.3-0.6,0.2,0.6,0.5,0.3 c0.3-0.3,0.1,0.3,0.5-0.6c0.4-0.8,0.2,0.2,0.3-0.3c0.2-0.5,0.3,0,0.4,0c0,0,0.3-0.3,0.3-0.1c0.1,0.2,0.5,0,0.5,0 c0.4-0.1,0,0,0.3-0.6c0.3-0.6,0.2,0.3,0.4,0c0.2-0.3,0.5,0.1,0.7,0c0.2-0.1,0.4,0,0.8-0.4c0.4-0.4,0.4,0,0.4,0 c0.2,0.1,0.4,0.3,0.6,0.4c0.2,0,0.5,0,0.4-0.1c0-0.1,0.8,0.3,1,0c0.2-0.3,0.3,0.1,0.5-0.3c0.2-0.4,0.5,0.2,0.7-0.1 c0.2-0.3,0.4,0.3,0.6-0.2c0.2-0.5,0.3-0.1,0.4,0.4c0.1,0.4,0.5,0.2,0.8-0.4c0.3-0.6,0.5,0.4,0.8-0.1c0.3-0.5,0.3,0.2,0.5-0.2 c0.1-0.4,0.3-0.4,0.3,0.1s0.6,0.1,0.8-0.6c0.2-0.7,0.4,0.5,0.7-0.3c0.3-0.8,0.3,0.3,0.3-0.1s0.5,0.4,0.8-0.1 c0.3-0.5,0.5-0.4,0.5-0.4s0.7,0.7,0.9,0.2c0.1-0.4,0.4,0.2,0.6-0.3c0.2-0.5,0.4,0.5,0.8-0.2c0.1-0.2,0.2-0.3,0.2-0.3 c-0.1,0.2-0.1,0.4-0.1,0.7c0.1,0.4,0.3,0.3,0.6-0.6s0.5,0.5,0.8-0.1s0.2,0.3,0.3-0.1c0.1-0.4,0.2,0.4,0.4,0c0.2-0.4,0.3,0.3,0.6-0.1 s0.2,0.3,0.4,0.2c0.2-0.1,0,0,0.2-0.4c0.2-0.4,0.3,0,0.3,0l0.1-0.3c0.1-0.3,0.3,0.2,0.3,0.2c0-0.2,0-0.4,0-0.6 c0-0.2,0.5,0.2,0.5,0.2V5.2l0.2,0.4l0.2-0.4c0,0,0.5,0.5,0.6,0c0.2-0.5,0.4,0.1,0.6,0c0.1-0.1,0.4-0.1,0.5-0.4 c0.1-0.3,0.4,0.2,0.4,0.2c0.1,0,0.1-0.1,0.2-0.1c0-0.1,0.1-0.1,0.1-0.2c0-0.3,0.4,0.2,0.4,0.2c0-0.2,0-0.4,0-0.6 c0-0.1,0.7,0.2,0.7,0.2V4.1c0-0.4,0.3,0.6,0.3,0.7c0,0.1,0.3-0.7,0.3-0.7s0.6,0.4,0.8,0s0.3,0.3,0.4-0.1c0.1-0.3,0.7,0.4,0.8,0.3 c0.1-0.1,0.4,0,0.4-0.4c0,0.2,0,0.4,0,0.6c0,0.2,0.5-0.6,0.6-0.8c0.2-0.2,0.3,0.6,0.4,0.2c0.1-0.4,0.3,0.6,0.4,0.4 c0.1-0.2,0.3,0.4,0.5,0.1c0.2-0.3,0.3,0.4,0.3,0.1c0-0.3,0.5,0.5,0.6,0.2c0.1-0.3,0.3,0.3,0.3,0.3c0.2-0.1,0.5,0.2,0.9,0 c0.4-0.2,0.5,0.1,0.8-0.5c0.4-0.6,0.5,0.2,0.5,0.2c0.3,0.2,0.6,0.3,1,0.4c0.4,0,0.4,0.1,1.3-0.4s0.5,0.3,0.7,0.1s0.5,0.3,0.9-0.2 s0.4,0.2,0.8,0.2c0.2,0.1,0.4,0.1,0.6,0c0.2-0.1,0.4-0.2,0.5-0.3c0.4-0.4,0.3,0.5,0.7-0.3c0.1-0.1,0.1-0.2,0.2-0.3 c-0.1,0.2-0.1,0.5-0.1,0.7c0.1,0.4,0.3,0.5,0.5-0.2c0.2-0.7,0.6,0.6,0.8,0.2c0.2-0.5,0.5,0.8,0.8-0.1c0.1-0.2,0.1-0.3,0.2-0.3 c-0.1,0.2-0.1,0.4-0.1,0.6c0.1,0.2,0.6,0.6,0.8-0.2s0.7,0.4,1.1-0.2c0.4-0.6,0.5,0.5,0.6,0.2c0.2-0.3,0.3,0.5,0.6,0.1 c0.3-0.5,0.4,0.6,0.7-0.4l0.2-0.4c-0.1,0.2-0.1,0.5,0,0.7c0.2,0.3,0.5,0.7,0.7,0s0.2,0.3,0.6-0.4c0.4-0.7,0.4,0.5,0.5,0.2 c0.1-0.3,0.4,0.4,0.7,0s0.4,0.6,0.6,0.2c0.3-0.5,0.2,0.4,0.5,0.1c0.3-0.3,0.4,0.6,0.7,0.1s0,0,0.1,0.4c0.1,0.4,0.2,0.4,0.5-0.3 c0.3-0.7,0.1,0.4,0.4-0.2c0.2-0.6,0.3,0.6,0.6-0.1c0.1-0.1,0.1-0.2,0.1-0.2c-0.1,0.2-0.1,0.4-0.1,0.6c0,0.3,0.2,0.2,0.5-0.2 c0.3-0.5,0.5,0.7,0.7,0c0.2-0.7,0.3,0.8,0.7,0.1c0.4-0.7,0.5,0.5,1-0.2c0.5-0.6,0.1,0.5,0.5,0.2s0.3,0.6,0.8-0.1c0.5-0.7,0,0,0,0.3 c0,0.3,0.3,0.7,0.6,0.2c0.3-0.5,0.3,0.5,0.6,0c0.3-0.5,0.4,0.7,0.7,0.2c0.3-0.5,0.5,0.8,0.9,0.3c0.4-0.5,0.4,0.6,0.8-0.5 c0.5-1,0.5,0.9,0.7,0.5c0.2-0.3,0.2,0.5,0.6,0.3c0.4-0.2,0.1,0.9,0.4,0.3s0.6,0.7,1,0.1c0.5-0.6,0.5,0.6,0.7,0.1 c0.2-0.5,0.2,0.5,0.6,0.1c0.3-0.4,0.2,0.4,0.5,0c0.3-0.4,0.2,0.6,0.5,0.2c0.3-0.4,0.3,0.6,0.7-0.2c0.4-0.8,0.4,0.7,0.5,0.3 c0.1-0.4,0.5,0.5,0.7,0.2c0.2-0.4,0.3-0.2,0.3,0.2s0.3-0.2,0.3-0.2c0.2-0.3,0.4,0.4,0.6,0.2c0.2-0.3,0.3,0.4,0.5-0.1 s0.3,0.3,0.5,0.2c0.2-0.1,0.3,0.6,0.6,0.2c0.3-0.4,0.2,0,0.3,0.5s0.3,0.3,0.5,0s0.3-0.1,0.6-0.5c0.3-0.4,0.3,0.3,0.5,0.1 c0.2-0.2,0.5,0.4,0.7,0c0.2-0.4,0,0,0.3,0.4s0.2,0.2,0.4-0.2c0.1-0.4,0.3-0.2,0.3-0.2s0.1-0.3,0.3,0.1c0.2,0.4,0.2,0.3,0.3-0.2 c0.1-0.6,0.8,0.4,1.1-0.1s0.7,0.2,0.8-0.1c0.2-0.3,0.3,0.4,0.5,0.2c0.2-0.9,0.3-1.8,0.1-2.7l0.5-0.1l0.6,0.4l0.5-0.4l0.2,0.5 c0,0,0.1,0.3,0.5,0.1c0.3-0.1,0.5-0.1,0.8,0l0.7-0.1h0.7h0.6l0.2-0.3l0.4,0.4l0.7-0.1c0,0,0.2,0.7,0.5,0c0.3-0.7,0.5,0,0.5,0h0.5 c0,0,0.1,0.2,0.3-0.4c0.2-0.7,0.3,0.9,0.5-0.2c0.2-1.1,0.2,1.1,0.5,0c0.2-1.1,0.6,0.2,0.6,0.2s0,0.9,0.3-0.2s0.4,0.3,0.4,0.3 l0.4,0.1l0.6,0.2h1.1l0.4-0.3l0.5,0.2c0,0,0.1,0.5,0.4-0.6c0.2-1.1,0.5,0,0.5,0h1.1l0.6-0.5l0.7-0.6l0.2-0.3l0.4-0.3h0.5l0.5-0.2 l0.5-0.3l0.6-0.3V1.7l0.4,0.6V1.3l0.4,0.7l0.2-0.8l0.4,0.8l0.2-0.6L189,2c0,0,0.1,0.3,0.2-1.1c0.1-1.4,0.5,1.1,0.5,1.1l0.1-1.1 c0-1,0.2,0.5,0.2,0.5l0.4-0.3l0.2-0.7l0.6,0.9l0.5-0.4l0.3,0.3l0.7-0.5l0.5,0.2l0.7-0.5l0.4,0.4l0.6-0.6l0.4,0.5l0.5-0.2l0.5,0.5 l0.5-0.2l1,0.2l0.5-0.3l0.4,0.2l0.5-0.5l0.5,0.3l0.7,0.1l0.5-0.3l0.5,0.3l0.7-0.1l0.5-0.3l0.5,0.5l0.4-0.2l0.5,0.3l1-0.2l0.5,0.2 l0.5-0.5l0.5,0.2l0.4-0.5l0.6,0.6l0.4-0.4l0.7,0.5l0.5-0.2l0.7,0.5l0.3-0.3l0.5,0.4l0.6-0.9l0.2,0.7l0.4,0.3c0,0,0.2-1.5,0.2-0.5 l0.1,1.1c0,0,0.4-2.5,0.5-1.1c0.1,1.4,0.2,1.1,0.2,1.1l0.5-0.6l0.2,0.6l0.4-0.8l0.2,0.8l0.4-0.7v0.9l0.4-0.6v0.7l0.6,0.3l0.5,0.3 l0.5,0.2h0.5l0.4,0.3l0.2,0.3l0.7,0.6l0.6,0.5h1.1c0,0,0.2-1.1,0.5,0c0.2,1.1,0.4,0.6,0.4,0.6l0.5-0.2l0.4,0.3h1.1l0.6-0.2l0.4-0.1 c0,0,0.1-1.4,0.4-0.3c0.3,1.1,0.3,0.2,0.3,0.2s0.3-1.2,0.6-0.2c0.3,1.1,0.2-1.1,0.5,0c0.2,1.1,0.2-0.5,0.5,0.2s0.3,0.4,0.3,0.4h0.5 c0,0,0.2-0.7,0.5,0c0.3,0.7,0.5,0,0.5,0l0.7,0.1l0.4-0.4l0.2,0.3h0.6h0.7l0.7,0.1c0.3-0.1,0.5-0.1,0.8,0c0.4,0.2,0.5-0.1,0.5-0.1 l0.2-0.5l0.5,0.4l0.6-0.4l0.5,0.1c-0.1,0.9-0.1,1.8,0.1,2.7c0.2,0.2,0.3-0.5,0.5-0.2c0.2,0.3,0.5-0.4,0.8,0.1c0.3,0.5,1-0.5,1.1,0.1 c0.1,0.6,0.1,0.7,0.3,0.2c0.2-0.5,0.3-0.1,0.3-0.1s0.1-0.2,0.3,0.2s0.1,0.6,0.4,0.2c0.3-0.4,0.1-0.8,0.3-0.4s0.4-0.2,0.7,0 c0.2,0.2,0.2-0.5,0.5-0.1c0.3,0.4,0.4,0.2,0.6,0.5c0.2,0.3,0.4,0.5,0.5,0c0.1-0.5,0-0.9,0.3-0.5c0.3,0.4,0.4-0.3,0.6-0.2 c0.2,0.1,0.2-0.7,0.5-0.2s0.3-0.2,0.5,0.1c0.2,0.3,0.4-0.4,0.6-0.2c0,0,0.2,0.6,0.3,0.2c0.1-0.4,0.2-0.5,0.3-0.2 c0.2,0.4,0.6-0.5,0.7-0.2c0.1,0.4,0.1-1.1,0.5-0.3c0.4,0.8,0.4-0.2,0.7,0.2c0.3,0.4,0.2-0.6,0.5-0.2c0.3,0.4,0.2-0.4,0.5,0 c0.3,0.4,0.4-0.6,0.6-0.1s0.2-0.7,0.7-0.1c0.5,0.6,0.7-0.7,1-0.1c0.3,0.6-0.1-0.5,0.4-0.3s0.4-0.6,0.6-0.3s0.3-1.6,0.7-0.5 c0.5,1,0.5,0,0.8,0.5c0.4,0.5,0.5-0.8,0.9-0.3c0.3,0.5,0.5-0.8,0.7-0.2c0.3,0.6,0.3-0.5,0.6,0s0.6,0.1,0.6-0.2c0-0.3-0.6-1,0-0.3 s0.5-0.2,0.8,0.1c0.3,0.3,0-0.8,0.5-0.2s0.6-0.5,1,0.2c0.4,0.7,0.5-0.8,0.7-0.1c0.2,0.7,0.4-0.5,0.7,0c0.3,0.5,0.5,0.6,0.5,0.2 c0-0.2-0.1-0.4-0.1-0.6c0,0,0.1,0.1,0.1,0.2c0.3,0.8,0.4-0.5,0.6,0.1c0.2,0.6,0.1-0.4,0.4,0.2c0.3,0.7,0.4,0.7,0.5,0.3 c0.1-0.4-0.2-0.9,0.1-0.4c0.3,0.5,0.5-0.4,0.7-0.1c0.3,0.3,0.2-0.6,0.5-0.1s0.4-0.6,0.6-0.2c0.3,0.4,0.6-0.3,0.7,0 c0.1,0.3,0.1-0.9,0.5-0.2c0.4,0.7,0.4-0.3,0.6,0.4c0.2,0.7,0.6,0.3,0.7,0c0.1-0.2,0.1-0.5,0-0.7l0.2,0.4c0.4,0.9,0.4-0.1,0.7,0.4 c0.3,0.5,0.5-0.3,0.6-0.1c0.2,0.3,0.2-0.8,0.6-0.2s0.8-0.6,1.1,0.2c0.3,0.8,0.8,0.4,0.8,0.2c0-0.2,0-0.4-0.1-0.6l0.1,0.3 c0.4,0.8,0.6-0.4,0.8,0.1c0.2,0.4,0.6-0.8,0.8-0.2c0.2,0.7,0.4,0.5,0.5,0.2c0-0.2,0-0.5-0.1-0.7c0.1,0.1,0.1,0.2,0.2,0.3 c0.4,0.8,0.3-0.1,0.7,0.3c0.1,0.2,0.3,0.3,0.5,0.3c0.2,0.1,0.4,0.1,0.6,0c0.4-0.1,0.4-0.7,0.8-0.2c0.4,0.5,0.6,0,0.9,0.2 c0.3,0.2-0.1-0.6,0.7-0.1s0.9,0.4,1.3,0.4c0.4,0,0.7-0.2,1-0.4c0,0,0.2-0.8,0.5-0.2c0.4,0.6,0.5,0.3,0.8,0.5c0.4,0.2,0.7-0.1,0.9,0 c0,0,0.2-0.6,0.3-0.3c0.1,0.3,0.6-0.4,0.6-0.2c0,0.3,0.1-0.5,0.3-0.1c0.2,0.3,0.4-0.3,0.5-0.1c0.1,0.2,0.3-0.8,0.4-0.4 c0.1,0.4,0.3-0.4,0.4-0.2c0.2,0.2,0.6,1,0.6,0.8c0-0.2,0-0.4,0-0.6c0,0.4,0.3,0.3,0.4,0.4s0.7-0.6,0.8-0.3c0.1,0.3,0.2-0.3,0.4,0.1 c0.2,0.4,0.8,0,0.8,0s0.3,0.8,0.3,0.7c0-0.2,0.3-1.1,0.3-0.7v0.4c0,0,0.7-0.4,0.7-0.2c0,0.2,0,0.4,0,0.6c0,0,0.4-0.5,0.4-0.2 c0,0.1,0,0.1,0.1,0.2c0,0.1,0.1,0.1,0.2,0.1c0,0,0.3-0.5,0.4-0.2c0.1,0.3,0.4,0.3,0.5,0.4c0.1,0.1,0.4-0.5,0.6,0 c0.2,0.5,0.6,0,0.6,0l0.2,0.4l0.2-0.4V6c0,0,0.5-0.4,0.5-0.2c0,0.2,0,0.4,0,0.6c0,0,0.2-0.5,0.3-0.2l0.1,0.3c0,0,0.1-0.4,0.3,0 c0.2,0.4-0.1,0.4,0.2,0.4c0.2,0.1,0.2-0.6,0.4-0.2c0.2,0.4,0.4-0.3,0.6,0.1c0.2,0.4,0.3-0.4,0.4,0c0.1,0.4,0-0.4,0.3,0.1 c0.3,0.5,0.4-0.8,0.8,0.1c0.4,0.9,0.5,1,0.6,0.6c0-0.2,0-0.5-0.1-0.7c0,0,0.1,0.1,0.2,0.3c0.4,0.7,0.6-0.3,0.8,0.2 c0.2,0.5,0.5-0.2,0.6,0.3c0.1,0.5,0.9-0.2,0.9-0.2s0.3,0,0.5,0.4c0.2,0.4,0.7-0.3,0.8,0.1c0.1,0.4,0.1-0.7,0.3,0.1 c0.3,0.8,0.5-0.4,0.7,0.3c0.2,0.7,0.8,1,0.8,0.6s0.1-0.5,0.3-0.1s0.2-0.3,0.5,0.2c0.3,0.5,0.5-0.5,0.8,0.1c0.3,0.6,0.7,0.9,0.8,0.4 c0.1-0.4,0.2-0.9,0.4-0.4c0.2,0.5,0.3-0.1,0.6,0.2c0.2,0.3,0.5-0.3,0.7,0.1c0.2,0.4,0.3,0,0.5,0.3c0.2,0.3,1-0.1,1,0 c0,0.1,0.2,0.2,0.4,0.1c0.2-0.1,0.4-0.2,0.6-0.4c0,0,0-0.5,0.4,0c0.4,0.5,0.6,0.3,0.8,0.4c0.2,0.1,0.5-0.3,0.7,0 c0.2,0.3,0.1-0.6,0.4,0c0.3,0.6-0.1,0.5,0.3,0.6c0,0,0.4,0.2,0.5,0c0.1-0.2,0.3,0,0.3,0.1c0,0.1,0.2-0.4,0.4,0 c0.1,0.4-0.1-0.6,0.3,0.3c0.4,0.8,0.2,0.2,0.5,0.6c0.3,0.3,0.2-0.9,0.5-0.3c0.3,0.6,0.2-0.5,0.6,0c0.4,0.5,0.2,0.1,0.6,0.3 c0.4,0.3,0.3-0.6,0.5,0c0.2,0.6,0.2-0.6,0.7,0.4c0.5,1,0.4,0.2,0.7,0.7c0.4,0.5,0.2-0.5,0.6,0c0.4,0.5,0.3-0.1,0.7,0.2 c0.4,0.3,0.3-0.9,0.6-0.4c0.1,0.1,0.1,0.1,0.2,0.1c0.1,0,0.1,0,0.2,0c0.1,0,0.1,0,0.2-0.1c0.1,0,0.1-0.1,0.2-0.1 c0,0,0.3-0.8,0.6-0.4s0.5-1.1,0.7-0.5c0.3,0.7,0.4-0.2,0.7,0.4c0.3,0.6,0.4,1.2,0.5,0.8s0.2-0.9,0.4-0.3c0.2,0.6,0,0.8,0.2,0.6 c0-0.1,0.1-0.1,0.1-0.1c0,0,0.1-0.1,0.1-0.1c0.1,0,0.1,0,0.2,0c0.1,0,0.1,0,0.1,0.1c0.1,0.1,0.1,0.1,0.3,0.2c0.2,0.1,0.1-0.1,0.3,0 c0.2,0.1,0.6-0.2,0.6-0.2s0.1-0.7,0.5-0.2c0.4,0.4,0.5-0.1,0.5,0c0.1,0.1,0.1-0.7,0.5-0.3c0.3,0.4,0.8-0.4,1.1,0.2 c0.3,0.5,0.6,0.4,0.7,0.1c0.1-0.3-0.5-0.8,0.1-0.3c0.7,0.5,0.3-0.6,0.5-0.2c0.2,0.4,0.5-0.2,0.6,0.1s0.2-0.5,0.5,0 c0.3,0.5,0.7,0.3,0.7,0.1c0-0.1-0.1-0.3-0.1-0.4l0.1,0.2c0.4,0.6,0.7-0.1,0.7-0.1l0.1-0.1c0.1,0,0.1-0.1,0.2-0.1 c0.1,0,0.2,0,0.2,0.1c0.1,0.1,0.1,0.1,0.1,0c0-0.1,0.1,0.1,0.1,0c0-0.1,0.2-0.2,0.2-0.1c0,0,0.1,0.1,0.2,0.1l0.1,0.1 c0,0,0.4,0.6,0.7,0.1l0.1-0.2c-0.1,0.1-0.1,0.3-0.1,0.4c0,0.2,0.4,0.3,0.7-0.1c0.3-0.4,0.4,0.2,0.5,0c0.1-0.2,0.3,0.3,0.5-0.1 c0.2-0.4-0.2,0.8,0.5,0.2c0.6-0.5,0,0,0.1,0.3c0.1,0.3,0.5,0.4,0.7-0.1c0.3-0.5,0.8,0.2,1.1-0.2c0.3-0.4,0.4,0.4,0.5,0.3 c0.1-0.1,0.2,0.5,0.5,0c0.4-0.5,0.5,0.2,0.5,0.2s0.4,0.4,0.6,0.2c0.2-0.1,0.2,0.1,0.3,0c0.2-0.1,0.2-0.1,0.3-0.2 c0,0,0.1-0.1,0.1-0.1c0.1,0,0.1,0,0.2,0c0.1,0,0.1,0,0.1,0.1c0,0,0.1,0.1,0.1,0.1c0.1,0.3,0,0,0.2-0.6c0.2-0.6,0.2-0.1,0.4,0.3 c0.1,0.4,0.2-0.1,0.5-0.8c0.3-0.6,0.4,0.3,0.7-0.4c0.3-0.7,0.4,0.9,0.7,0.5c0.4-0.5,0.6,0.4,0.6,0.4s0.4,0.5,0.8,0.1 s0.3,0.7,0.6,0.4c0.4-0.3,0.3,0.3,0.7-0.2c0.4-0.5,0.3,0.5,0.6,0c0.4-0.5,0.2,0.2,0.7-0.7c0.5-1,0.5,0.2,0.7-0.4 c0.2-0.6,0.1,0.3,0.5,0c0.4-0.3,0.2,0.2,0.6-0.3c0.4-0.5,0.2,0.6,0.6,0c0.3-0.6,0.2,0.6,0.5,0.3c0.3-0.3,0.1,0.3,0.5-0.6 s0.2,0.2,0.3-0.3s0.3,0,0.4,0s0.3-0.3,0.3-0.1c0.1,0.2,0.5,0,0.5,0c0.4-0.1,0,0,0.3-0.6c0.3-0.6,0.2,0.3,0.4,0 c0.2-0.3,0.5,0.1,0.7,0c0.2-0.1,0.5,0,0.8-0.4c0.4-0.4,0.4,0,0.4,0c0.2,0.1,0.4,0.3,0.6,0.4c0.2,0,0.5,0,0.4-0.1s0.8,0.3,1,0 c0.2-0.3,0.3,0.1,0.5-0.3c0.2-0.4,0.5,0.2,0.7-0.1c0.2-0.3,0.4,0.3,0.6-0.2c0.2-0.5,0.3-0.1,0.4,0.4c0.1,0.4,0.6,0.2,0.8-0.4 s0.5,0.4,0.8-0.1c0.3-0.5,0.3,0.2,0.5-0.2c0.1-0.4,0.3-0.4,0.3,0.1s0.6,0.1,0.8-0.6c0.2-0.7,0.4,0.5,0.6-0.3 c0.3-0.8,0.3,0.3,0.3-0.1c0.1-0.4,0.6,0.4,0.8-0.1c0.3-0.5,0.5-0.4,0.5-0.4s0.8,0.7,0.9,0.2s0.4,0.2,0.6-0.3 c0.2-0.5,0.4,0.5,0.8-0.2s0,0,0.1,0.4c0.1,0.4,0.3,0.3,0.6-0.6s0.5,0.5,0.8-0.1s0.2,0.3,0.3-0.1c0.1-0.4,0.2,0.4,0.4,0 c0.2-0.4,0.3,0.3,0.6-0.1c0.2-0.4,0.2,0.3,0.5,0.2c0.2-0.1,0,0,0.2-0.4c0.2-0.4,0.3,0,0.3,0l0.1-0.3c0.1-0.3,0.3,0.2,0.3,0.2 c0-0.2,0-0.4,0-0.6c0-0.2,0.5,0.2,0.5,0.2V5.2l0.2,0.4l0.2-0.4c0,0,0.5,0.5,0.6,0s0.4,0.1,0.6,0c0.1-0.1,0.4-0.1,0.5-0.4 c0.1-0.3,0.4,0.2,0.4,0.2c0.1,0,0.1-0.1,0.2-0.1c0-0.1,0.1-0.1,0.1-0.2c0-0.3,0.4,0.2,0.4,0.2c0-0.2,0-0.4,0-0.6 c0.1,0,0.2,0,0.3,0.1c0.2,0.1,0.4,0.2,0.4,0.2V4.4c0.1,0,0.1,0,0.2,0.1c0,0.1,0.1,0.3,0.1,0.3c0,0,0.1-0.1,0.2-0.2l0.6,0.1l0.8-0.1 l0.5-0.3h0.1c0,0,0.1,0,0.1,0l0.4,0.1v0.2c0,0.1,0.1,0,0.1-0.1l0.6,0.1l0.4-0.3l0.4,0.6h0.9c0.2,0.1,0.3,0.2,0.4,0.1 c0.1-0.1,0.3,0.3,0.3,0.3c0.2-0.1,0.5,0.2,0.9,0c0.4-0.2,0.5,0.1,0.8-0.5c0-0.1,0.1-0.1,0.1-0.2l0.2-0.1c0.2,0.1,0.2,0.4,0.2,0.4 c0.3,0.2,0.6,0.3,1,0.4c0.3,0,0.6,0,0.8-0.2c-0.2-0.2-0.5-0.3-0.7-0.4h0.3l0.9,0.2l1.2-0.4c0,0,0.2,0.4,0.7-0.4s0.5,0.6,0.5,0.6 l0.4-0.2l0.4,0.3l1.3-0.7l0.9,0.1l0.7,0.1l0.6-0.5l0.4,0.8l0.4-0.4l0.5,0.7l0.6-0.1l0.6,0.4l0.5-0.4l0.3,0.5c0,0,0.1,0.3,0.5,0.1 c0.3-0.1,0.5-0.1,0.8,0l0.7-0.1h0.7h0.6l0.3-0.3l0.4,0.4l0.7-0.1c0,0,0.3,0.7,0.5,0c0.3-0.7,0.5,0,0.5,0h0.5c0,0,0.1,0.2,0.3-0.4 s0.3,0.9,0.5-0.2s0.2,1.1,0.5,0c0.2-1.1,0.6,0.2,0.6,0.2s0,0.9,0.3-0.2c0.3-1.1,0.4,0.3,0.4,0.3l0.4,0.1l0.6,0.2h1 c0,0,0,22.5-0.1,22.5S400.8,28,400.7,28z"></path></svg> 