<svg viewBox="0 0 400 41" preserveAspectRatio="none" fill="none" xmlns="http://www.w3.org/2000/svg" style="width: 100%; height: auto; display: block;">
  <defs>
    <filter id="innerShadow" x="-10%" y="-10%" width="120%" height="120%">
      <feOffset dx="0" dy="6"/> 
  
  <feGaussianBlur stdDeviation="4" result="offset-blur"/>
  
  <feComposite operator="out" in="SourceGraphic" in2="offset-blur" result="inverse"/>
  <feColorMatrix type="matrix" values="0 0 0 0 0 0 0 0 0 0 0 0 0 0 0 0 0 0 0.1 0"/>
  <feFlood flood-color="black" flood-opacity="0.2" result="color"/>
  
  <feComposite operator="in" in="color" in2="inverse" result="shadow"/>
  <feComposite operator="over" in="shadow" in2="SourceGraphic"/>
    </filter>
  </defs>
  <path d="M400 11.6258C400 11.7659 400 12.4459 400 12.0359C400 11.6259 400 12.0359 400 12.0359V40.4242H0V12.1059C0 12.1059 0.230001 11.6959 0.440001 12.1059C0.650001 12.5159 0.76 11.8458 0.82 11.6958C0.88 11.5458 0.929999 11.2858 1.14 11.6958C1.35 12.1058 1.31 12.0159 1.61 11.8559C1.91 11.6959 2.21 11.3458 2.32 11.4758C2.43 11.6058 2.37 10.6358 2.55 11.0158C2.73 11.3958 2.63 10.0459 2.87 10.5759C3.11 11.1059 3.22 10.3059 3.37 10.4559C3.52 10.6059 3.52 9.28585 3.87 9.84585C4.22 10.4059 4.23 9.28585 4.52 9.84585C4.81 10.4059 4.55 9.46585 4.93 9.84585C5.31 10.2259 5.33 9.30585 5.51 9.69585C5.69 10.0858 5.58 9.36585 5.78 9.60585C5.98 9.84585 5.98 9.11585 6.16 9.26585C6.18587 9.28974 6.21979 9.30302 6.255 9.30302C6.29022 9.30302 6.32413 9.28974 6.35 9.26585C6.25 9.22585 6.01 8.78585 6.45 9.08585C6.89 9.38585 6.9 8.39585 7.1 8.74585C7.3 9.09585 7.04 8.16585 7.42 8.45585C7.8 8.74585 8.11 8.57585 8.13 8.39585C8.15 8.21585 7.98 7.44585 8.39 8.09585C8.8 8.74585 9.04 7.44585 9.3 7.84585C9.56 8.24585 9.94 7.60585 10.06 7.76585C10.18 7.92585 10.24 6.72585 10.59 7.16585C10.94 7.60585 11.11 7.07586 11.35 7.36586C11.59 7.65586 11.59 7.04586 11.88 7.36586C12.17 7.68586 12.31 7.13585 12.64 7.45585C12.97 7.77585 13.1 7.22585 13.46 7.45585C13.82 7.68585 13.9 6.43585 14.26 7.06585C14.26 7.06585 14.68 7.69585 14.76 7.54585C14.84 7.39585 14.48 7.04585 14.84 7.39585C15.2 7.74585 15.46 7.92585 15.55 7.51585C15.64 7.10585 15.29 6.63585 15.64 7.10585C15.99 7.57585 16.39 7.06585 16.57 7.33585C16.75 7.60585 16.64 6.77585 16.93 7.27585C17.22 7.77585 17.49 6.83585 17.69 7.42585C17.89 8.01585 18.05 7.15585 18.22 7.77585C18.39 8.39585 18.69 7.92585 18.69 7.65585V7.39585C18.69 7.39585 19.3 8.25585 19.3 7.95585C19.3 7.65585 19.37 7.48585 19.51 7.80585C19.65 8.12585 20.06 8.39585 20.06 7.92585C20.06 7.45585 19.79 6.92585 20.06 7.45585C20.33 7.98585 20.94 7.84585 20.94 7.57585C20.94 7.30585 20.64 6.89585 20.94 7.30585C21.24 7.71585 21.48 7.25585 21.65 7.45585C21.82 7.65585 22.2 7.25585 22.32 7.45585C22.44 7.65585 22.53 7.12585 22.85 7.65585C23.17 8.18585 23.21 8.59585 23.44 8.18585C23.67 7.77586 23.59 7.13585 23.88 7.65585C24.17 8.17585 24.61 8.39585 24.52 7.65585C24.43 6.91585 24.63 6.73585 24.87 7.38585C25.11 8.03585 25.31 8.26585 25.31 7.88585C25.31 7.50585 24.98 7.06585 25.31 7.50585C25.64 7.94585 25.87 8.00585 25.87 7.62585C25.87 7.24585 25.52 6.42585 25.87 7.24585C26.22 8.06585 26.38 7.55585 26.49 7.79585C26.6 8.03585 26.95 7.56585 27.07 7.88585C27.19 8.20585 27.48 7.86585 27.51 8.00585C27.54 8.14585 27.64 7.62585 27.81 7.94585C27.98 8.26585 27.99 7.53585 28.16 7.85585C28.33 8.17585 28.28 7.35585 28.66 7.85585C29.04 8.35585 29.09 7.49585 29.33 7.73585C29.57 7.97585 29.62 8.06585 29.74 7.62585C29.86 7.18585 30.01 6.76585 30.36 7.29585C30.71 7.82585 30.82 7.48585 31.06 7.62585C31.3 7.76585 31.36 7.33586 31.59 7.68585C31.82 8.03586 31.86 7.18585 32.12 7.56585C32.38 7.94585 32.4 7.00585 32.7 7.50585C33 8.00585 33.42 7.17585 33.5 7.41585C33.58 7.65585 33.81 7.18585 34.05 7.50585C34.29 7.82585 34.25 7.58585 34.55 7.73585C34.85 7.88585 35.53 8.41585 35.7 7.88585C35.87 7.35585 35.25 6.97585 35.87 7.35585C36.49 7.73585 36.75 7.38585 36.87 7.44585C36.99 7.50585 37.08 6.96585 37.46 7.29585C37.84 7.62585 38.13 6.79585 38.54 7.35585C38.95 7.91585 39.09 7.39585 39.39 7.65585C39.69 7.91585 40.65 7.32585 40.86 7.82585C40.9014 7.94395 40.9693 8.051 41.0585 8.1388C41.1477 8.2266 41.2558 8.29282 41.3745 8.33239C41.4932 8.37197 41.6194 8.38385 41.7434 8.36711C41.8675 8.35038 41.986 8.30548 42.09 8.23585C42.09 8.23585 41.68 7.44585 42.09 7.79585C42.5 8.14585 42.66 7.70585 42.77 7.79585C42.88 7.88585 43.13 7.23585 43.24 7.44585C43.35 7.65585 43.86 6.72585 44.12 7.24585C44.38 7.76585 44.62 7.09585 44.88 7.53585C45.14 7.97585 45.18 6.89585 45.44 7.53585C45.7 8.17585 45.93 8.35585 45.96 7.88585C45.99 7.41585 46 6.96585 46.23 7.67585C46.46 8.38585 46.78 8.48585 46.87 8.09585C46.96 7.70585 47.1 7.65585 47.28 7.94585C47.46 8.23585 47.57 7.62585 47.81 7.88585C48.05 8.14585 48.31 8.12585 48.37 7.65585C48.43 7.18585 48.27 6.09585 48.63 6.88585C48.99 7.67585 49.04 6.32585 49.37 6.94585C49.7 7.56585 49.99 7.26585 50.37 7.70585C50.75 8.14585 51.03 7.35585 51.14 7.76585C51.25 8.17585 51.14 6.73585 51.49 7.26585C51.84 7.79585 52.05 7.79585 52.05 7.79585C52.05 7.79585 52.11 6.61585 52.4 7.35585C52.69 8.09585 52.74 7.34585 53.04 7.70585C53.34 8.06585 53.62 7.35585 53.83 7.79585C54.04 8.23585 54.09 7.39585 54.33 7.94585C54.57 8.49585 54.65 7.62585 54.83 7.94585C55.01 8.26585 54.74 7.03585 55.3 7.76585C55.86 8.49585 55.82 7.80585 56.12 8.06585C56.42 8.32585 56.59 7.41585 56.97 7.85585C57.35 8.29585 57.42 7.07585 57.71 7.62585C58 8.17585 58.04 7.31585 58.21 7.67585C58.38 8.03585 58.2 6.13585 58.7 7.15585C59.2 8.17585 59.27 6.53585 59.53 7.47585C59.79 8.41585 59.44 8.68585 59.79 8.41585C60.14 8.14585 59.91 7.47585 60.32 7.91585C60.73 8.35585 60.79 8.08585 61.08 8.17585C61.37 8.26585 61.29 7.83585 61.58 7.97585C61.87 8.11585 61.95 7.78586 62.25 8.11586C62.55 8.44586 62.64 8.05585 62.87 8.26585C63.1 8.47585 63.2 7.96585 63.4 8.17585C63.6 8.38585 63.66 8.06585 63.81 8.17585L64.04 8.50585V8.11586C64.04 8.50586 64.6 8.79585 64.6 8.79585C64.6 8.79585 64.75 7.79585 64.86 8.09585C64.9394 8.28422 65.0295 8.46786 65.13 8.64585C65.13 8.64585 65.24 7.87585 65.33 8.14585C65.42 8.41585 65.18 8.24585 65.42 8.41585C65.66 8.58585 65.74 7.94585 65.86 8.23585C65.98 8.52585 65.69 8.34585 65.98 8.52585C66.27 8.70585 66.4 7.61585 66.57 8.06585C66.74 8.51585 66.94 7.66585 67.09 8.06585C67.01 7.83585 66.85 7.29585 67.09 7.69585C67.28 7.99621 67.4471 8.31043 67.59 8.63585C67.59 8.63585 67.47 7.86585 67.59 8.07585C67.71 8.28585 67.89 8.57585 67.89 8.57585L68.09 8.13585V8.69585C68.09 8.69585 68.41 7.90585 68.47 8.13585C68.4798 8.20886 68.4798 8.28284 68.47 8.35585L68.76 8.52585C68.76 8.52585 69.03 8.38585 69.12 8.44585H69.2C69.2 8.44585 69.47 7.92585 69.64 8.24585L69.82 8.56585C69.82 8.56585 70.11 8.18585 70.11 8.36586L70.17 8.53585C70.17 8.53585 70.32 8.09585 70.47 8.33585L70.61 8.56585C70.61 8.56585 70.67 8.21585 70.85 8.41585L71.02 8.62585C71.02 8.62585 71.11 8.21585 71.29 8.47585L71.46 8.74585C71.46 8.74585 71.52 8.12585 71.7 8.44585C71.8052 8.64912 71.922 8.84612 72.05 9.03585C72.05 9.03585 71.76 8.33585 72.05 8.59585C72.34 8.85585 72.49 8.59585 72.49 8.59585C72.5657 8.34469 72.6627 8.10048 72.78 7.86586V8.59585C72.78 8.59585 72.87 7.98585 73.08 8.24585C73.2196 8.43386 73.3466 8.63096 73.46 8.83585C73.46 8.83585 73.31 7.86585 73.46 8.12585C73.5847 8.34986 73.7215 8.56686 73.87 8.77585C73.87 8.77585 74.01 8.00585 74.07 8.09585C74.13 8.18585 74.31 8.50585 74.31 8.50585C74.31 8.50585 74.66 7.54585 74.78 7.89585C74.9 8.24585 75.07 8.80585 75.07 8.80585C75.07 8.80585 75.22 7.65585 75.36 7.98585L75.51 8.30585L75.83 7.62585L75.98 8.04585L76.07 8.30585L76.33 8.62585L76.57 8.06585V8.50585C76.57 8.50585 77.39 7.68585 77.57 8.09585C77.75 8.50585 78.12 7.68585 78.42 8.18585C78.72 8.68585 79.39 8.10585 79.66 8.36586C79.93 8.62586 80.48 8.32585 80.66 8.44585C80.84 8.56585 80.88 7.50585 81.02 7.74585C81.16 7.98585 81.23 8.01585 81.37 8.27585C81.51 8.53585 81.58 8.13585 81.78 8.27585C81.98 8.41585 82.42 7.74585 82.72 8.15585C83.02 8.56585 83.6 7.13585 83.72 7.42585C83.84 7.71585 84.07 8.03585 84.16 8.21585C84.25 8.39585 84.57 7.97585 84.75 8.15585C84.93 8.33585 84.96 7.83585 85.37 8.15585C85.78 8.47585 86.1 7.98585 86.22 8.15585L86.66 8.59585C86.66 8.59585 86.77 8.15585 86.86 8.15585C87.0142 8.36598 87.1419 8.59438 87.24 8.83585C87.24 8.83585 87.57 7.98585 87.68 8.27585C87.7873 8.51551 87.9074 8.74919 88.04 8.97585C88.04 8.97585 88.42 8.32585 88.45 8.44585C88.48 8.56585 88.71 9.09585 88.71 9.09585C88.71 9.09585 88.97 8.18585 88.97 8.50585C88.9876 8.72216 88.9876 8.93954 88.97 9.15585C88.97 9.15585 89.33 8.44585 89.47 8.71585L89.85 9.37585C89.85 9.37585 90.11 8.21585 90.29 8.53585C90.47 8.85585 90.82 9.37585 90.82 9.37585C90.82 9.37585 90.59 8.59585 90.82 8.85585L91.29 9.37585C91.29 9.37585 91.49 8.74585 91.61 9.06585C91.73 9.38585 91.85 9.76585 91.85 9.76585C91.85 9.76585 91.97 9.15585 92.11 9.56585L92.26 9.97585C92.26 9.97585 92.44 9.44585 92.61 9.65585C92.7441 9.84057 92.8455 10.0469 92.91 10.2658C92.91 10.2658 93.29 9.44585 93.29 9.73585C93.306 10.039 93.306 10.3427 93.29 10.6459C93.29 10.6459 93.43 9.76585 93.64 10.2059L93.96 10.8859C93.96 10.8859 94.12 10.0858 94.2 10.2658C94.28 10.4458 94.64 10.0359 94.64 10.0359L94.9 10.6759C94.9 10.6759 94.81 9.62585 94.9 9.85585C95.025 10.1524 95.1319 10.4563 95.22 10.7658C95.22 10.8558 95.6 10.0859 95.6 10.2059C95.632 10.2771 95.6588 10.3507 95.68 10.4259C95.68 10.3259 95.71 10.2659 95.84 10.3259C96.0211 10.4062 96.1742 10.5384 96.28 10.7059C96.28 10.7059 96.48 10.1458 96.48 10.2658L96.75 10.7958C96.75 10.7958 96.51 9.91585 96.75 10.3259C96.8744 10.5403 96.9814 10.7643 97.07 10.9959C97.07 10.9959 97.23 10.2159 97.31 10.5059C97.39 10.7959 97.54 11.2059 97.54 11.2059L97.87 10.1558L98.14 10.6859C98.14 10.6859 97.96 9.92585 98.14 10.0158C98.3189 10.1825 98.4677 10.3787 98.58 10.5959C98.58 10.5959 98.23 9.69585 98.58 9.98585C98.93 10.2759 99.28 10.8659 99.28 10.6859C99.3429 10.4415 99.437 10.2062 99.56 9.98585L99.98 10.5959C99.98 10.5959 100.57 9.85585 100.66 10.1258C100.75 10.3959 100.89 10.9758 100.89 10.9758C100.89 10.9758 101.04 10.3058 101.19 10.6558L101.33 11.0059C101.33 11.0059 101.52 10.5359 101.63 10.7459C101.74 10.9559 101.65 10.6059 101.74 10.9559C101.83 11.3059 102.21 11.1258 102.21 11.1258V11.5359C102.21 11.5359 102.27 10.8658 102.42 11.1558C102.52 11.3564 102.607 11.5636 102.68 11.7759V11.0959L102.92 11.5659L103.24 11.0659V11.6558C103.24 11.6558 103.42 10.8358 103.53 10.9758C103.589 11.0591 103.636 11.15 103.67 11.2459C103.67 11.1859 103.69 11.1859 103.77 11.1859C104 11.2459 104.21 11.6558 104.21 11.6558C104.21 11.6558 104.62 10.8659 104.71 10.8959C104.8 10.9259 105.03 11.5659 105.03 11.5659C105.03 11.5659 105.12 11.0359 105.34 11.1859C105.502 11.3102 105.643 11.4586 105.76 11.6258V11.3659C105.76 11.6259 106.14 11.7159 106.14 11.7159C106.14 11.7159 106.47 11.3659 106.56 11.5359C106.636 11.6769 106.734 11.8052 106.85 11.9159C107.103 11.9159 107.357 11.9159 107.61 11.9159C107.73 11.9459 108.2 11.5659 108.2 11.5659L108.52 11.9159C108.52 11.9159 108.73 11.7158 108.84 11.8059C108.961 11.9296 109.062 12.0712 109.14 12.2258L109.87 11.9458L110.1 12.2258C110.1 12.2258 110.31 11.7359 110.34 11.8559C110.37 11.9759 110.81 12.2258 110.81 12.2258L111.04 12.0059L111.78 12.2258C111.78 12.2258 112.17 11.8059 112.25 11.8059C112.33 11.8059 112.42 11.8559 112.51 12.0059C112.6 12.1559 112.98 11.9459 113.1 12.0059C113.22 12.0659 114.1 12.1958 114.1 12.1958C114.301 12.0539 114.489 11.8932 114.66 11.7159C114.66 11.7159 114.85 11.0658 114.96 11.1558C115.07 11.2458 115.24 10.8259 115.45 11.0359C115.66 11.2459 115.77 10.6059 115.92 10.8659C116.07 11.1259 116.42 10.7559 116.57 10.8659C116.72 10.9759 117.15 10.6059 117.36 10.8059C117.57 11.0058 118.09 11.3959 118.12 11.2459C118.15 11.0959 118.38 10.3259 118.5 10.5359C118.62 10.7459 118.83 11.0659 118.83 11.0659C118.83 11.0659 119.03 10.4859 119.18 10.5659C119.302 10.6344 119.429 10.6945 119.56 10.7459C119.56 10.7459 119.82 9.86585 119.97 10.0759L120.12 10.2759C120.12 10.2759 120.3 9.75585 120.5 9.95585C120.7 10.1559 120.82 10.4859 120.94 10.4259C121.06 10.3659 121.2 9.75585 121.32 9.95585C121.44 10.1559 121.58 10.2759 121.67 10.2759C121.76 10.2759 122.17 9.92585 122.35 10.1258C122.469 10.265 122.607 10.3863 122.76 10.4859C122.76 10.4859 122.99 10.0559 123.08 10.0759C123.17 10.0959 123.76 9.35585 123.76 9.35585V9.68585C123.76 9.68585 124.12 9.22585 124.2 9.35585C124.28 9.48585 124.4 9.74585 124.4 9.74585C124.4 9.74585 124.54 9.07585 124.66 9.35585C124.78 9.63585 125.37 9.82585 125.4 9.74585C125.43 9.66585 125.49 9.35585 125.63 9.35585C125.756 9.34489 125.884 9.34489 126.01 9.35585C126.01 9.35585 126.45 9.27585 126.57 9.35585C126.698 9.47833 126.806 9.62004 126.89 9.77585L127.28 9.89585L127.57 10.0959L127.95 10.2459C127.95 10.2459 127.69 9.63586 127.95 9.86586C128.108 10.0065 128.237 10.1763 128.33 10.3659C128.33 10.3659 128.65 9.86585 128.83 9.92585C128.918 9.95533 129.026 10.0958 129.095 10.2003C128.965 9.94924 128.932 9.66104 129.12 9.74585C129.32 9.83585 129.49 9.84585 129.61 9.98585C129.73 10.1259 130.05 9.94585 130.17 10.1258C130.29 10.3059 130.52 10.6859 130.52 10.6859C130.66 10.6172 130.807 10.5667 130.96 10.5359C131.194 10.6049 131.422 10.6953 131.64 10.8059C131.64 10.8059 131.81 10.4859 132.05 10.5959C132.29 10.6544 132.54 10.6544 132.78 10.5959L133.1 10.3358V10.5959L133.54 10.3959L133.75 10.8959L134.04 10.6258L134.42 11.2459C134.42 11.2459 134.61 10.8659 134.69 10.8659C134.77 10.8659 135.01 11.2759 135.01 11.2759C135.01 11.2759 135.15 11.0359 135.24 11.0059C135.33 10.9759 135.6 11.1558 135.6 11.1558C135.6 11.1558 135.77 10.8358 135.89 10.8358C136.059 10.8332 136.227 10.8534 136.39 10.8959C136.534 10.8568 136.686 10.8568 136.83 10.8959C137.065 11.0413 137.28 11.216 137.47 11.4159L137.71 11.0659L138.24 10.9458L138.47 10.5659C138.615 10.539 138.765 10.539 138.91 10.5659C139.03 10.6259 139.15 10.9458 139.15 10.9458L139.38 10.5359L139.67 10.9458C139.67 10.9458 139.91 10.3359 139.91 10.4259V11.0359C139.91 11.0359 140.52 10.4558 140.52 10.6258C140.582 10.8981 140.672 11.1629 140.79 11.4159C140.843 11.2179 140.909 11.0241 140.99 10.8358V11.3059C140.99 11.3059 141.49 10.8259 141.55 10.9159C141.61 11.0059 141.9 11.5658 141.9 11.4458C141.9 11.3258 141.78 10.7158 141.9 10.8059C142.02 10.8959 142.4 11.3059 142.4 11.3059L142.49 10.9659C142.54 10.8059 142.58 10.5959 142.61 10.7159C142.64 10.8359 143.05 10.4859 143.05 10.4859L143.31 10.9758C143.31 10.9758 143.07 10.3559 143.31 10.5359C143.55 10.7159 143.72 11.1859 143.78 11.0659C143.84 10.9459 143.98 10.1058 144.04 10.3358C144.1 10.5658 143.98 10.9259 144.04 10.7459C144.1 10.5659 144.45 9.98585 144.45 10.0959C144.51 10.3194 144.59 10.5369 144.69 10.7459C144.69 10.7459 144.87 10.0659 144.95 10.2759C145.052 10.4597 145.18 10.628 145.33 10.7759C145.33 10.7759 145.16 10.2759 145.33 10.3659C145.489 10.4703 145.63 10.5985 145.75 10.7459L146.24 10.4559V10.8059L146.77 10.5959V10.1258L147.21 10.3659C147.21 10.3659 147.46 9.97585 147.51 10.0659C147.56 10.1559 147.77 10.7159 147.77 10.7159L148.09 10.3659V10.6258L148.56 10.3959L148.8 10.4559V9.86586L149.09 10.2759L149.31 9.96585L149.41 9.83585L149.68 9.68585L149.91 10.1258V9.54585L150.32 10.0659L150.67 9.86586V10.2459L151.05 9.74585L151.35 9.32585V9.63585C151.35 9.63585 151.76 9.06585 151.76 9.32585C151.777 9.50545 151.777 9.68626 151.76 9.86586L152.2 9.65585L152.4 9.92585L152.87 10.2759L153.34 10.5059H153.64L153.93 10.8559V10.5858L154.19 10.9458V10.5359L154.4 10.8559L154.78 10.5559V10.9159L155.22 10.7059L155.48 10.9659L155.78 10.7958L156.04 11.1759L156.33 10.8859L156.83 11.2658L157.19 10.8859L158.12 11.2658C158.12 11.2658 158.42 10.7659 158.51 10.8259L159.15 11.3758L159.71 11.0559L160.38 11.4359L160.74 11.3758H161.23L162.08 11.5259C162.08 11.5259 162.44 11.1858 162.44 11.2658C162.44 11.3458 162.73 11.6759 162.73 11.6759C162.823 11.6342 162.92 11.604 163.02 11.5858C163.302 11.7639 163.57 11.9645 163.82 12.1859C163.82 12.1859 164.18 11.7858 164.23 11.9058C164.28 12.0258 164.58 12.4659 164.58 12.4659C164.58 12.4659 164.81 12.1759 164.81 12.4659C164.855 12.7255 164.925 12.98 165.02 13.2258H165.28L165.55 13.7559L165.84 14.0458H166.22V14.2859L166.57 13.8959L166.84 14.2859V13.8959L167.25 14.2859C167.25 14.2859 167.04 13.7559 167.25 13.8659C167.403 13.9795 167.532 14.1222 167.63 14.2859V13.6659L167.86 13.9559L168.1 13.2559L168.92 13.1359V12.4659H169.33V11.6159L170.15 11.3459L170.59 10.3459C170.746 10.3663 170.904 10.3663 171.06 10.3459C171.372 10.3284 171.669 10.2064 171.903 9.99959C172.137 9.79277 172.294 9.51317 172.35 9.20585C172.44 9.15084 172.538 9.11034 172.64 9.08585C172.73 9.08585 173.2 8.90585 173.26 8.76585C173.292 8.63109 173.292 8.49061 173.26 8.35585C173.26 8.35585 173.49 8.03585 173.67 8.20585C173.85 8.37585 174.11 8.20585 174.11 8.20585L174.32 7.82585L174.73 7.76585L175.14 7.47585C175.14 7.47585 175.17 7.14585 175.4 7.32585C175.466 7.37755 175.544 7.41045 175.627 7.42102C175.709 7.43159 175.794 7.41943 175.87 7.38585C175.87 7.38585 175.96 6.91586 176.16 7.11586C176.273 7.23627 176.419 7.31991 176.58 7.35585C176.801 7.45442 177.038 7.51202 177.28 7.52585V7.09585H177.63V6.48585C177.744 6.44774 177.866 6.44774 177.98 6.48585C178.13 6.56585 177.98 6.12585 177.98 6.12585C178.098 6.15921 178.222 6.15921 178.34 6.12585C178.48 6.06585 178.72 5.30585 178.83 5.50585C178.929 5.65965 179.05 5.79783 179.19 5.91585L179.57 5.47585L179.77 5.15585H180.21C180.282 5.11733 180.363 5.09719 180.445 5.09719C180.527 5.09719 180.608 5.11733 180.68 5.15585L181.09 4.51585L181.56 3.95585L181.83 3.19585L182.5 3.77585C182.5 3.77585 182.32 2.99585 182.5 3.19585C182.68 3.39585 183.09 3.91585 183.09 3.83585C183.09 3.75585 182.89 2.77585 183.09 2.95585C183.29 3.13585 183.64 3.39585 183.64 3.39585C183.64 3.39585 183.91 2.51585 184 2.63585C184.145 2.79464 184.302 2.94177 184.47 3.07585C184.47 3.07585 184.5 2.62585 184.61 2.62585C184.776 2.71495 184.933 2.8187 185.08 2.93586L185.43 2.62585H185.7V2.28585L185.93 2.63585L186.23 2.28585L186.7 2.66585L186.93 2.28585H187.84L188.13 1.81585L188.43 2.40585C188.43 2.40585 188.28 1.99585 188.43 2.08585C188.626 2.27985 188.8 2.49442 188.95 2.72585V2.25585L189.19 2.75585L189.57 2.46585L189.92 3.25585C189.92 3.25585 189.62 2.55585 189.92 2.75585C190.22 2.95585 190.45 3.28585 190.45 3.19585C190.45 3.10585 190.33 2.41585 190.45 2.46585C190.57 2.51585 190.92 2.37585 190.92 2.37585V1.81585H191.15V1.11586L191.36 1.34585L191.59 0.585849L192.33 1.20585V0.685855L192.62 1.00585C192.62 1.00585 192.79 -0.0641504 193 0.19585C193.21 0.45585 193.5 1.32585 193.5 1.09585C193.5 0.865851 193.56 -0.0641504 193.74 0.19585C193.879 0.422417 194.006 0.656072 194.12 0.895854C194.12 0.895854 194.56 0.47585 194.59 0.62585C194.62 0.77585 194.82 1.44585 194.88 1.35585C194.968 1.17749 195.045 0.9938 195.11 0.80585L195.67 1.15585L195.94 0.655849L196.26 1.30585L196.52 1.00585H197.43C197.605 1.29417 197.802 1.56834 198.02 1.82585C198.02 1.69585 198.25 0.825854 198.25 0.825854L198.75 0.585849L199.02 1.20585V0.205852L199.46 1.02585L199.72 0.705852L199.98 1.02585L200.42 0.205852V1.05585L200.69 0.435855L201.19 0.675853C201.19 0.675853 201.42 1.58585 201.42 1.67585C201.638 1.41834 201.835 1.14417 202.01 0.855853H202.92L203.18 1.15585L203.5 0.505855L203.77 1.00585L204.33 0.655849C204.395 0.843798 204.472 1.02749 204.56 1.20585C204.62 1.29585 204.82 0.615848 204.85 0.475848C204.88 0.335848 205.32 0.745853 205.32 0.745853C205.434 0.506071 205.561 0.272416 205.7 0.0458481C205.88 -0.214152 205.94 0.70585 205.94 0.94585C205.94 1.18585 206.24 0.305848 206.44 0.0458481C206.64 -0.214152 206.82 0.855853 206.82 0.855853L207.11 0.535854V1.15585L207.85 0.535854L208.08 1.29585L208.29 1.06585V1.76585H208.52V2.32585C208.52 2.32585 208.87 2.47585 208.99 2.41585C209.11 2.35585 208.99 3.05585 208.99 3.14585C208.99 3.23585 209.23 2.91585 209.52 2.70585C209.81 2.49585 209.52 3.20585 209.52 3.20585L209.87 2.41585L210.25 2.70585L210.49 2.20585V2.68586C210.64 2.45443 210.814 2.23985 211.01 2.04585C211.16 1.95585 211.01 2.36586 211.01 2.36586L211.31 1.77585L211.6 2.24585H212.51L212.74 2.62585L213.21 2.24585L213.51 2.59585L213.74 2.24585V2.58585H214.13L214.48 2.89585C214.627 2.7787 214.784 2.67495 214.95 2.58585C215.09 2.54585 215.09 3.03585 215.09 3.03585C215.258 2.90176 215.415 2.75464 215.56 2.59585C215.65 2.47585 215.92 3.35585 215.92 3.35585C215.92 3.35585 216.26 3.08585 216.47 2.91585C216.68 2.74585 216.47 3.70585 216.47 3.79585C216.47 3.88585 216.88 3.36585 217.06 3.15585C217.24 2.94585 217.06 3.73585 217.06 3.73585L217.73 3.15585L218 3.91585L218.47 4.47585L218.88 5.11586C218.952 5.07734 219.033 5.05719 219.115 5.05719C219.197 5.05719 219.278 5.07734 219.35 5.11586H219.79L219.99 5.43585L220.12 5.58585C220.3 5.52585 220.39 5.79585 220.46 5.79585C220.562 5.69627 220.653 5.58559 220.73 5.46585C220.83 5.29585 221.01 5.80585 221.15 6.00585C221.46 5.94585 221.87 6.60585 222.15 6.00585C222.43 5.40585 222.77 5.50585 222.91 5.82585C223.05 6.14585 222.35 6.77585 223.05 6.14585C223.75 5.51585 223.34 6.80585 223.58 6.38585C223.82 5.96585 224.06 6.58585 224.17 6.31585C224.28 6.04585 224.35 6.83585 224.66 6.31585C224.97 5.79585 225.46 5.94586 225.46 6.18585C225.46 6.42585 225.07 7.08585 225.46 6.42585C225.85 5.76585 226.26 6.49585 226.26 6.49585L226.4 6.66585C226.47 6.68253 226.531 6.7255 226.57 6.78585C226.67 6.82585 226.77 6.77585 226.82 6.63585C226.87 6.49585 226.9 6.64585 226.93 6.57585C226.96 6.50585 226.99 6.48585 227.04 6.63585C227.09 6.78585 227.2 6.78585 227.29 6.78585C227.334 6.72999 227.393 6.68824 227.46 6.66585L227.6 6.49585C227.6 6.49585 228.01 5.76585 228.4 6.42585C228.79 7.08585 228.4 6.43585 228.4 6.18585C228.4 5.93585 228.88 5.75585 229.2 6.31585C229.52 6.87585 229.58 6.07585 229.69 6.31585C229.8 6.55585 230.05 5.96585 230.29 6.38585C230.53 6.80585 230.11 5.52585 230.81 6.14585C231.51 6.76585 230.81 6.13585 230.95 5.82585C231.09 5.51585 231.44 5.41585 231.72 6.00585C232 6.59585 232.55 5.72585 232.9 6.17585C233.25 6.62585 233.28 5.68585 233.39 5.82585C233.5 5.96585 233.6 5.30585 233.99 5.82585C234.38 6.34585 234.52 5.58585 234.52 5.58585C234.52 5.58585 234.97 5.17585 235.18 5.32585C235.39 5.47585 235.36 5.17585 235.53 5.32585C235.7 5.47585 235.74 5.40585 235.81 5.54585C235.849 5.59132 235.9 5.62589 235.956 5.64622C236.013 5.66655 236.074 5.67194 236.133 5.66189C236.192 5.65184 236.248 5.62668 236.295 5.58884C236.342 5.551 236.378 5.50175 236.4 5.44585C236.58 5.10585 236.41 5.48585 236.58 6.10585C236.75 6.72585 236.82 6.21585 236.96 5.72585C237.1 5.23585 237.21 5.86585 237.52 6.59585C237.83 7.32585 237.98 6.27585 238.29 7.04585C238.6 7.81585 238.71 5.95585 239.09 6.48585C239.47 7.01585 239.75 6.07585 239.75 6.07585C239.75 6.07585 240.17 5.51585 240.59 6.00585C241.01 6.49585 240.87 5.18585 241.29 5.49585C241.71 5.80585 241.6 5.12585 242.02 5.68585C242.44 6.24585 242.29 5.05585 242.68 5.68585C243.07 6.31586 242.92 5.40585 243.45 6.52585C243.98 7.64585 243.95 6.27585 244.19 6.94585C244.43 7.61585 244.33 6.62585 244.71 6.94585C245.09 7.26585 244.88 6.73585 245.3 7.32585C245.72 7.91585 245.56 6.59585 245.9 7.32585C246.24 8.05585 246.13 6.59585 246.45 6.97585C246.77 7.35585 246.56 6.65585 246.98 7.63585C247.4 8.61585 247.17 7.43585 247.33 7.93585C247.49 8.43585 247.71 7.81586 247.71 7.93585C247.71 8.05585 247.99 8.33585 248.06 8.05585C248.13 7.77585 248.58 8.05585 248.58 8.05585C249 8.19585 248.59 8.07585 248.9 8.74585C249.21 9.41585 249.11 8.39585 249.32 8.74585C249.53 9.09585 249.83 8.63585 250.08 8.74585C250.33 8.85585 250.58 8.68585 250.96 9.21585C251.34 9.74585 251.34 9.21585 251.34 9.21585C251.536 9.05875 251.747 8.92142 251.97 8.80585C252.14 8.75585 252.45 8.75585 252.42 8.92585C252.39 9.09585 253.29 8.56585 253.5 8.92585C253.71 9.28585 253.81 8.86585 254.06 9.28585C254.31 9.70585 254.59 9.08585 254.83 9.39585C255.07 9.70585 255.25 9.02585 255.43 9.60585C255.61 10.1859 255.75 9.71585 255.82 9.18585C255.89 8.65586 256.41 9.00585 256.69 9.70585C256.97 10.4059 257.22 9.25585 257.53 9.84585C257.84 10.4359 257.87 9.60585 258.01 10.1258C258.15 10.6458 258.29 10.5158 258.29 10.0158C258.29 9.51585 258.88 9.89585 259.11 10.6059C259.216 10.6746 259.316 10.7515 259.41 10.8358C259.48 10.7558 259.55 10.6759 259.62 10.6759V10.4159C259.62 10.3259 259.86 10.9359 259.86 10.9359L260.15 10.5259L260.39 10.9359C260.39 10.9359 260.5 10.6159 260.62 10.5559C260.765 10.529 260.915 10.529 261.06 10.5559L261.29 10.9359L261.82 11.0559L262.01 11.3459C262.076 11.3079 262.147 11.2777 262.22 11.2559C262.357 11.1051 262.519 10.9798 262.7 10.8859C262.844 10.8468 262.996 10.8468 263.14 10.8859C263.303 10.8434 263.471 10.8232 263.64 10.8259C263.76 10.8559 263.93 11.1459 263.93 11.1459C263.93 11.1459 264.22 10.9659 264.29 10.9959C264.36 11.0259 264.51 11.2459 264.51 11.2459C264.52 11.2359 264.74 10.8459 264.83 10.8459C264.92 10.8459 265.1 11.2258 265.1 11.2258L265.48 10.6059L265.77 10.8758L265.98 10.3758L266.42 10.5759V10.3159L266.74 10.5759C266.98 10.6344 267.23 10.6344 267.47 10.5759C267.71 10.4659 267.88 10.7859 267.88 10.7859C268.098 10.6753 268.326 10.5849 268.56 10.5158C268.712 10.5467 268.86 10.5971 269 10.6659C269 10.6659 269.23 10.2459 269.35 10.1059C269.47 9.96585 269.79 10.1159 269.91 9.96585C270.03 9.81585 270.23 9.80585 270.4 9.72585C270.57 9.64585 270.52 9.95585 270.4 10.2258C270.28 10.4958 270.51 9.96585 270.69 9.90585C270.87 9.84585 271.19 10.3459 271.19 10.3459C271.283 10.1563 271.412 9.98648 271.57 9.84585C271.83 9.61585 271.57 10.2258 271.57 10.2258L271.95 10.0759L272.24 9.87585L272.63 9.75585C272.714 9.60004 272.822 9.45833 272.95 9.33585C273.07 9.25585 273.51 9.33585 273.51 9.33585C273.636 9.32489 273.764 9.32489 273.89 9.33585C274.03 9.34585 274.09 9.63585 274.12 9.72585C274.15 9.81585 274.75 9.61585 274.86 9.33585C274.97 9.05585 275.12 9.72585 275.12 9.72585C275.12 9.72585 275.23 9.47585 275.32 9.33585C275.41 9.19585 275.76 9.66585 275.76 9.66585V9.33585C275.76 9.33585 276.35 10.0858 276.44 10.0559C276.53 10.0259 276.76 10.4659 276.76 10.4659C276.913 10.3663 277.051 10.2451 277.17 10.1059C277.35 9.90585 277.76 10.2559 277.85 10.2559C277.94 10.2559 278.08 10.1459 278.2 9.93585C278.32 9.72585 278.46 10.3458 278.58 10.4058C278.7 10.4658 278.81 10.1459 279.02 9.93585C279.23 9.72585 279.4 10.2559 279.4 10.2559L279.55 10.0559C279.7 9.84585 279.96 10.7258 279.96 10.7258C280.091 10.6745 280.218 10.6144 280.34 10.5458C280.49 10.4658 280.69 11.0458 280.69 11.0458C280.69 11.0458 280.91 10.7158 281.02 10.5158C281.13 10.3158 281.37 11.0858 281.4 11.2258C281.43 11.3658 281.96 10.9959 282.16 10.7859C282.36 10.5759 282.8 10.9659 282.95 10.8459C283.1 10.7259 283.46 11.1159 283.6 10.8459C283.74 10.5759 283.87 11.2158 284.07 11.0158C284.27 10.8158 284.44 11.2259 284.56 11.1359C284.68 11.0459 284.86 11.6958 284.86 11.6958C285.031 11.8732 285.219 12.0339 285.42 12.1759C285.48 12.1559 286.3 11.9859 286.42 11.9859C286.54 11.9859 286.92 12.1859 287.01 11.9859C287.1 11.7859 287.18 11.7859 287.27 11.7859C287.36 11.7859 287.74 12.2059 287.74 12.2059L288.66 11.9259L288.89 12.1459C288.89 12.1459 289.33 11.8859 289.36 11.7759C289.39 11.6659 289.6 12.1459 289.6 12.1459L289.83 11.8659L290.56 12.1459C290.638 11.9912 290.739 11.8496 290.86 11.7258C290.97 11.6358 291.18 11.8358 291.18 11.8358L291.5 11.4859C291.5 11.4859 291.97 11.8358 292.09 11.8358C292.343 11.8206 292.597 11.8206 292.85 11.8358C292.966 11.7252 293.064 11.5969 293.14 11.4559C293.23 11.2859 293.56 11.6359 293.56 11.6359C293.56 11.6359 293.94 11.5459 293.94 11.2859V11.5458C294.057 11.3786 294.198 11.2302 294.36 11.1059C294.58 10.9559 294.67 11.4859 294.67 11.4859C294.67 11.4859 294.9 10.8459 294.99 10.8159C295.08 10.7859 295.49 11.5759 295.49 11.5759C295.49 11.5759 295.7 11.1659 295.93 11.1059C296.03 11.0859 296.03 11.1659 296.03 11.1659C296.064 11.07 296.111 10.9791 296.17 10.8959C296.28 10.7559 296.46 11.5759 296.46 11.5759V10.9859L296.78 11.4859L297.02 11.0158V11.6958C297.093 11.4836 297.18 11.2765 297.28 11.0759C297.43 10.7859 297.49 11.4559 297.49 11.4559V11.0458C297.49 11.0458 297.85 11.2358 297.96 10.8758C298.07 10.5159 297.95 10.8659 298.07 10.6659C298.19 10.4659 298.37 10.9259 298.37 10.9259L298.51 10.5759C298.66 10.2259 298.81 10.8959 298.81 10.8959C298.81 10.8959 298.95 10.3058 299.04 10.0458C299.13 9.78585 299.72 10.5158 299.72 10.5158L300.14 9.90585C300.263 10.1262 300.357 10.3615 300.42 10.6059C300.42 10.7859 300.76 10.1958 301.12 9.90585C301.48 9.61585 301.12 10.5158 301.12 10.5158C301.232 10.2987 301.381 10.1025 301.56 9.93585C301.74 9.84585 301.56 10.6059 301.56 10.6059L301.83 10.0759L302.15 11.1659C302.15 11.1659 302.29 10.7659 302.38 10.4659C302.47 10.1659 302.62 10.9559 302.62 10.9559C302.709 10.7243 302.816 10.5003 302.94 10.2859C303.18 9.87585 302.94 10.7559 302.94 10.7559L303.21 10.2258C303.26 10.1058 303.41 10.6659 303.41 10.6659C303.516 10.4984 303.669 10.3661 303.85 10.2859C304.01 10.2259 304.01 10.2859 304.01 10.3859C304.031 10.3107 304.058 10.2371 304.09 10.1659C304.14 10.0459 304.47 10.8158 304.47 10.7258C304.558 10.4163 304.665 10.1124 304.79 9.81585C304.88 9.63585 304.79 10.6359 304.79 10.6359L305.05 9.99585C305.05 9.99585 305.4 10.4058 305.49 10.2258C305.58 10.0458 305.73 10.8459 305.73 10.8459L306.05 10.1359C306.26 9.69585 306.4 10.5759 306.4 10.5759C306.384 10.2727 306.384 9.96897 306.4 9.66585C306.43 9.37585 306.78 10.1958 306.78 10.1958C306.844 9.97689 306.946 9.77057 307.08 9.58585C307.25 9.37585 307.43 9.90585 307.43 9.90585L307.58 9.49585C307.72 9.08585 307.84 9.69585 307.84 9.69585C307.84 9.69585 307.97 9.31585 308.08 8.99585C308.19 8.67585 308.4 9.30585 308.4 9.30585L308.87 8.78585C309.1 8.52585 308.87 9.30585 308.87 9.30585C308.87 9.30585 309.23 8.78585 309.4 8.46585C309.57 8.14585 309.84 9.30585 309.84 9.30585L310.22 8.64585C310.36 8.37585 310.72 9.08585 310.72 9.08585C310.702 8.86954 310.702 8.65216 310.72 8.43585C310.75 8.11586 310.98 9.02585 310.98 9.02585C310.98 9.02585 311.21 8.48585 311.24 8.37585C311.27 8.26585 311.65 8.90585 311.65 8.90585C311.783 8.67919 311.903 8.44551 312.01 8.20585C312.12 7.91585 312.45 8.76585 312.45 8.76585C312.548 8.52438 312.676 8.29598 312.83 8.08585C312.92 8.05585 313.03 8.52585 313.03 8.52585L313.47 8.08585C313.59 7.88585 313.91 8.37585 314.32 8.08585C314.73 7.79585 314.76 8.25585 314.94 8.08585C315.12 7.91585 315.45 8.32585 315.53 8.14585C315.61 7.96585 315.86 7.62585 315.97 7.35585C316.08 7.08585 316.67 8.49585 317.02 8.08585C317.37 7.67585 317.75 8.32585 317.96 8.20585C318.17 8.08585 318.22 8.49585 318.37 8.20585C318.52 7.91585 318.57 7.90585 318.72 7.67585C318.87 7.44585 318.9 8.45585 319.08 8.37585C319.26 8.29585 319.84 8.56585 320.08 8.29585C320.32 8.02585 321.03 8.61586 321.32 8.11586C321.61 7.61586 322.02 8.43585 322.17 8.02585C322.32 7.61585 323.17 8.43585 323.17 8.43585V7.99585L323.41 8.55585L323.67 8.23585L323.76 7.97585L323.91 7.55585L324.23 8.23585L324.38 7.91585C324.52 7.58585 324.67 8.73585 324.67 8.73585C324.67 8.73585 324.84 8.21585 324.96 7.82585C325.08 7.43585 325.43 8.43585 325.43 8.43585C325.43 8.43585 325.62 8.10585 325.67 8.02585C325.72 7.94585 325.87 8.70585 325.87 8.70585C326.018 8.49686 326.155 8.27986 326.28 8.05585C326.43 7.76585 326.28 8.76585 326.28 8.76585C326.393 8.56096 326.52 8.36386 326.66 8.17585C326.87 7.91585 326.96 8.52585 326.96 8.52585V7.79585C327.077 8.03047 327.174 8.27469 327.25 8.52585C327.25 8.52585 327.4 8.75585 327.69 8.52585C327.98 8.29585 327.69 8.96585 327.69 8.96585C327.818 8.77612 327.935 8.57912 328.04 8.37585C328.22 8.05585 328.28 8.67585 328.28 8.67585L328.45 8.40585C328.63 8.14585 328.72 8.55585 328.72 8.55585L328.89 8.34585C329.07 8.14585 329.13 8.49585 329.13 8.49585L329.27 8.26585C329.42 8.02585 329.57 8.46585 329.57 8.46585L329.63 8.29585C329.68 8.11585 329.92 8.49585 329.92 8.49585L330.1 8.17585C330.27 7.85585 330.54 8.37585 330.54 8.37585H330.62C330.71 8.31585 330.98 8.45585 330.98 8.45585L331.27 8.28585C331.26 8.21284 331.26 8.13886 331.27 8.06585C331.33 7.83585 331.65 8.62585 331.65 8.62585V8.06585L331.85 8.50585L332.15 8.00585C332.26 7.80585 332.15 8.56585 332.15 8.56585C332.293 8.24043 332.46 7.92621 332.65 7.62585C332.89 7.22585 332.73 7.76585 332.65 7.99585C332.8 7.63585 332.99 8.53585 333.17 7.99585C333.35 7.45585 333.47 8.62585 333.76 8.45585C334.05 8.28585 333.76 8.45585 333.88 8.16585C334 7.87585 334.09 8.52585 334.32 8.34585C334.55 8.16585 334.33 8.33585 334.41 8.07585C334.49 7.81585 334.61 8.57585 334.61 8.57585C334.71 8.39786 334.801 8.21422 334.88 8.02585C334.99 7.72585 335.14 8.72585 335.14 8.72585C335.14 8.72585 335.7 8.43585 335.7 8.04585V8.43585L335.93 8.10585C336.08 7.96585 336.13 8.27585 336.34 8.10585C336.55 7.93585 336.63 8.34585 336.87 8.19585C337.11 8.04585 337.2 8.36585 337.49 8.04585C337.78 7.72585 337.87 8.05585 338.16 7.90585C338.45 7.75585 338.37 8.19585 338.66 8.10585C338.95 8.01585 339.01 8.28585 339.42 7.84585C339.83 7.40585 339.6 8.08585 339.95 8.34585C340.3 8.60585 339.94 8.34585 340.21 7.40585C340.48 6.46585 340.55 8.11585 341.04 7.08585C341.53 6.05585 341.35 7.95585 341.53 7.60585C341.71 7.25585 341.73 8.11585 342.03 7.55585C342.33 6.99585 342.39 8.22585 342.77 7.78585C343.15 7.34585 343.33 8.29585 343.62 7.99585C343.91 7.69585 343.88 8.42585 344.44 7.69585C345 6.96585 344.74 8.16585 344.91 7.87585C345.08 7.58585 345.18 8.46585 345.41 7.87585C345.64 7.28585 345.71 8.16585 345.91 7.72585C346.11 7.28585 346.41 7.98585 346.7 7.63585C346.99 7.28585 347.04 8.01585 347.34 7.28585C347.64 6.55585 347.69 7.72585 347.69 7.72585C347.69 7.72585 347.9 7.69585 348.25 7.19585C348.6 6.69585 348.48 8.10585 348.6 7.69585C348.72 7.28585 349.01 8.07585 349.37 7.63585C349.73 7.19585 350.01 7.48585 350.37 6.87585C350.73 6.26585 350.76 7.60585 351.11 6.81585C351.46 6.02585 351.31 7.12585 351.37 7.58585C351.43 8.04585 351.7 8.07585 351.93 7.81585C352.16 7.55585 352.29 8.16585 352.46 7.87585C352.63 7.58585 352.79 7.64585 352.87 8.02585C352.95 8.40585 353.24 8.30585 353.51 7.60585C353.78 6.90585 353.75 7.34585 353.78 7.81585C353.81 8.28585 354.03 8.11585 354.3 7.46585C354.57 6.81585 354.59 7.90585 354.86 7.46585C355.13 7.02585 355.35 7.70585 355.62 7.17585C355.89 6.64585 356.38 7.57585 356.5 7.37585C356.62 7.17585 356.85 7.78585 356.97 7.72585C357.09 7.66585 357.24 8.10585 357.65 7.72585C358.06 7.34585 357.65 8.16585 357.65 8.16585C357.754 8.23548 357.873 8.28038 357.997 8.29711C358.121 8.31385 358.247 8.30197 358.366 8.26239C358.484 8.22282 358.592 8.1566 358.681 8.0688C358.771 7.981 358.839 7.87395 358.88 7.75585C359.09 7.25585 360.06 7.88585 360.35 7.58585C360.64 7.28585 360.79 7.83585 361.2 7.28585C361.61 6.73585 361.9 7.54585 362.28 7.22585C362.66 6.90585 362.75 7.46585 362.87 7.37585C362.99 7.28585 363.26 7.66585 363.87 7.28585C364.48 6.90585 363.89 7.28585 364.04 7.81585C364.19 8.34585 364.9 7.80585 365.19 7.66585C365.48 7.52585 365.46 7.75586 365.69 7.43585C365.92 7.11585 366.15 7.57585 366.24 7.34585C366.33 7.11585 366.75 7.93585 367.04 7.43585C367.33 6.93585 367.35 7.87585 367.62 7.49585C367.89 7.11585 367.92 7.97586 368.15 7.61586C368.38 7.25586 368.45 7.70585 368.68 7.55585C368.91 7.40585 369.03 7.74585 369.38 7.22585C369.73 6.70585 369.88 7.11585 370 7.55585C370.12 7.99585 370.18 7.89585 370.41 7.66585C370.64 7.43585 370.7 8.31585 371.08 7.78585C371.46 7.25585 371.4 8.07585 371.58 7.78585C371.76 7.49585 371.75 8.19585 371.93 7.87585C372.11 7.55585 372.2 8.05585 372.23 7.93585C372.26 7.81586 372.56 8.13585 372.67 7.81585C372.78 7.49585 373.13 7.95585 373.25 7.72585C373.37 7.49585 373.55 8.00585 373.87 7.17585C374.19 6.34585 373.84 7.17585 373.87 7.55585C373.9 7.93585 374.14 7.87585 374.43 7.43585C374.72 6.99585 374.4 7.43585 374.43 7.81585C374.46 8.19585 374.64 7.95585 374.87 7.31585C375.1 6.67585 375.31 6.87585 375.22 7.58585C375.13 8.29585 375.56 8.05585 375.86 7.58585C376.16 7.11585 376.06 7.70586 376.3 8.11586C376.54 8.52586 376.57 8.13585 376.89 7.58585C377.21 7.03585 377.3 7.64585 377.42 7.38585C377.54 7.12585 377.91 7.53585 378.09 7.38585C378.27 7.23585 378.54 7.64585 378.8 7.23585C379.06 6.82585 378.77 7.24585 378.8 7.50585C378.83 7.76585 379.42 7.91585 379.68 7.38585C379.94 6.85585 379.68 7.38585 379.68 7.85585C379.68 8.32585 380.08 8.05585 380.23 7.73585C380.38 7.41585 380.44 7.59585 380.44 7.88585C380.44 8.17585 381.05 7.32585 381.05 7.32585V7.58585C381.08 7.85585 381.34 8.31585 381.52 7.70585C381.7 7.09585 381.84 7.94585 382.05 7.35585C382.26 6.76585 382.51 7.69585 382.81 7.20585C383.11 6.71585 383 7.49585 383.17 7.26585C383.34 7.03585 383.74 7.50585 384.1 7.03585C384.46 6.56585 384.1 7.03585 384.19 7.44585C384.28 7.85585 384.55 7.67585 384.9 7.32585C385.25 6.97585 384.89 7.33585 384.98 7.47585C385.07 7.61585 385.48 6.99585 385.48 6.99585C385.84 6.38585 385.93 7.65585 386.28 7.38585C386.63 7.11585 386.78 7.67585 387.1 7.38585C387.42 7.09585 387.57 7.58585 387.86 7.29585C388.15 7.00585 388.16 7.61585 388.39 7.29585C388.62 6.97585 388.8 7.49585 389.15 7.09585C389.5 6.69585 389.56 7.85585 389.68 7.69585C389.8 7.53585 390.17 8.17585 390.44 7.77585C390.71 7.37585 390.94 8.66585 391.35 8.02585C391.76 7.38585 391.58 8.15585 391.61 8.32585C391.64 8.49585 391.94 8.68585 392.32 8.38585C392.7 8.08585 392.43 9.02585 392.64 8.67585C392.85 8.32585 392.93 9.26585 393.29 9.01585C393.65 8.76585 393.49 9.19585 393.39 9.19585C393.416 9.21974 393.45 9.23302 393.485 9.23302C393.52 9.23302 393.554 9.21974 393.58 9.19585C393.76 9.04585 393.75 9.78585 393.96 9.53585C394.17 9.28585 394.06 10.0058 394.23 9.62585C394.4 9.24585 394.4 10.1859 394.81 9.77585C395.22 9.36585 394.92 10.2759 395.22 9.77585C395.52 9.27585 395.52 10.3559 395.87 9.77585C396.22 9.19585 396.23 10.5359 396.37 10.3859C396.51 10.2359 396.64 11.0659 396.87 10.5059C397.1 9.94585 397.02 11.3258 397.19 10.9458C397.36 10.5658 397.3 11.5358 397.42 11.4058C397.54 11.2758 397.84 11.6259 398.13 11.7859C398.42 11.9459 398.4 12.0358 398.6 11.6258C398.8 11.2158 398.86 11.4858 398.92 11.6258L400 11.6258V40.4242H0" fill="#f5f5f5" filter="url(#innerShadow)" />
</svg>