<svg width="210" height="119" viewBox="0 0 210 119" fill="none" xmlns="http://www.w3.org/2000/svg">
<path d="M200.117 47.2417C192.424 38.8392 183.434 31.9093 173.406 26.452C168.047 23.5068 162.428 21.0814 156.895 18.5693C156.204 18.2228 155.08 18.5693 154.302 18.9158C152.055 20.0419 150.066 21.6877 147.732 22.4673C142.114 24.3731 136.408 25.4992 130.357 24.1998C124.911 23.0737 120.762 19.8686 116.699 15.7973C125.862 11.2063 135.025 11.6394 144.534 13.4585C140.298 18.2228 134.939 20.7349 129.061 22.2075C140.99 23.9399 150.844 19.6954 159.056 11.2929C160.44 9.90692 161.39 8.0012 161.477 5.48912C156.29 7.56808 151.536 6.87509 146.695 5.92224C139.261 4.36301 131.827 2.89041 124.22 3.92989C118.255 4.70951 112.55 3.5834 106.758 2.19742C102.349 1.15794 97.7679 -0.228038 93.2728 0.0318323C77.7129 0.811445 62.7582 4.62288 48.6678 11.3795C43.7405 13.7184 38.5539 16.4037 36.9979 22.554C36.9979 22.6406 36.7386 22.7272 36.825 22.7272C32.1571 22.3807 29.8231 26.1922 26.5382 27.7514C27.4891 29.5705 28.44 31.2163 29.3909 32.9488C26.7111 32.3424 24.6365 31.9093 22.1296 31.3896C22.994 33.122 23.5991 34.2481 24.1178 35.4609C23.5991 35.5475 23.3398 35.4609 23.0805 35.201C19.4498 32.0826 16.7701 32.2558 13.5717 35.6341C12.7072 36.5004 11.8428 37.3666 10.9784 38.2328C7.34772 42.3908 3.63064 46.5487 0 50.7066C2.16109 52.8722 3.71707 52.2659 5.27306 50.8799C7.00194 49.4073 8.55793 47.9347 10.3733 46.6353C12.6208 44.9895 15.0412 45.4226 16.0785 47.5016C15.9056 47.5882 15.6463 47.7614 15.4734 47.7614C11.6699 46.5487 10.0275 49.1474 8.21216 51.7461C7.43416 52.8722 6.56973 54.1716 5.44596 54.6913C3.19842 55.7308 2.7662 57.4633 2.85265 59.5422C3.02553 62.7473 4.23574 65.4326 6.48328 67.6848C8.64438 69.9371 10.719 72.1893 12.7937 74.5281C13.3988 75.2211 14.0039 75.9141 14.609 76.6071C15.6463 77.8198 16.3379 77.7332 17.2023 76.2606C19.6227 72.1027 22.994 68.8976 27.0569 66.4721C26.884 66.6454 26.7111 66.732 26.5382 66.9052C22.3889 70.4568 22.216 71.6695 25.5873 75.9141C27.7484 78.686 30.3418 81.0249 34.1453 81.7179C31.4655 78.0797 29.3044 74.4415 31.0333 69.8504C31.8977 67.425 33.2808 65.4326 35.1826 64.0467C40.3692 63.8734 45.2965 65.9524 50.3103 67.6848C50.8289 67.8581 51.2611 68.3778 51.6934 68.8976C56.102 74.4415 60.5971 79.8988 64.9192 85.4427C62.5853 87.1752 62.3259 87.0885 58.7818 85.5293C56.5342 89.2541 54.8918 85.9624 52.9036 84.7497C50.9154 88.0414 47.8898 88.9943 44.6914 87.7815C41.5794 86.6554 38.8132 84.8363 35.7877 83.3637C35.7877 86.3955 37.4301 89.1675 39.8506 91.5063C40.2828 91.9395 41.0608 92.0261 41.6659 92.1127C45.8152 92.286 49.9645 92.4592 54.0273 92.4592C57.1393 92.4592 60.2513 92.4592 63.3633 92.1127C64.2277 92.0261 65.5244 90.9 65.6973 90.1204C65.8701 88.9076 65.6972 87.6083 65.4379 86.1357C65.5244 86.3089 65.6972 86.4822 65.7837 86.5688C68.5499 90.207 67.5126 96.184 63.7955 98.3496C60.1649 100.429 56.2749 100.515 52.212 100.255C47.6305 99.9088 43.049 99.4757 38.4675 99.1292C37.6895 99.0426 36.3064 99.4757 36.2199 99.9088C36.047 100.775 36.4793 101.815 36.9115 102.594C37.3437 103.547 38.381 104.24 38.6404 105.193C39.4183 107.965 40.1099 110.823 40.6286 113.595C40.9743 115.414 41.7523 116.454 43.3948 117.147C49.3594 119.746 55.1511 118.1 60.8564 116.367C62.4124 115.934 64.1413 114.115 64.6599 112.556C66.3888 107.358 70.1923 104.327 74.8603 102.248C82.2944 98.8693 87.3946 93.3254 91.6304 86.5688C96.1254 79.4657 95.0017 70.1969 90.5066 63.6135C87.1353 58.7626 82.208 55.9907 77.1943 53.392C69.7601 49.5805 61.8937 48.2812 53.5951 50.2735C49.6187 51.2264 45.7287 52.3525 41.6659 53.392C44.8643 48.3678 51.1747 43.4302 58.0037 40.0519C75.0332 31.4762 93.1864 29.5705 111.858 31.3896C114.106 31.6494 116.44 31.9959 119.033 32.4291C113.501 35.1144 108.487 37.6265 103.56 40.1386C107.104 44.3831 110.475 48.0213 113.501 52.006C116.44 55.9907 117.996 60.6683 118.428 65.6925C118.86 70.7167 118.169 75.481 115.575 79.9854C117.304 60.4951 105.98 50.2735 89.5557 43.1704C93.1864 41.0048 96.5577 39.0124 99.929 36.9335C85.9251 36.6736 72.6127 39.0991 59.8191 44.7296C59.9055 44.9029 59.9055 45.1627 59.992 45.336C64.1413 45.4226 68.377 45.1627 72.5263 45.7691C80.0469 46.7219 86.7031 49.8404 92.8406 54.3448C100.793 60.1486 104.943 67.8581 105.807 77.5599C106.412 84.5765 101.053 93.3254 93.7915 96.7037C90.5066 98.263 87.2217 99.7356 83.9369 101.208C83.9369 101.381 83.9369 101.641 83.9369 101.815C86.7895 101.988 89.7286 102.681 92.4948 102.334C97.595 101.728 102.782 100.775 107.795 99.4757C113.068 98.0897 117.909 95.6643 122.059 91.9395C127.677 86.9153 130.53 80.4185 132.605 73.402C134.247 67.9447 133.988 62.4874 132.259 57.1168C130.53 51.9194 128.455 46.8086 124.047 42.9105C124.738 42.6506 125.084 42.3908 125.516 42.2175C135.198 38.9258 145.053 37.973 155.339 38.7526C172.542 40.1386 188.015 46.1156 202.451 55.2111C204.699 56.597 206.773 58.2429 208.848 59.7155C209.021 59.5422 209.194 59.369 209.367 59.1957C206.255 55.5575 203.575 51.0531 200.117 47.2417ZM64.4006 22.2075C64.0548 24.8928 62.2395 25.759 59.9055 25.8457C58.0038 25.9323 56.102 25.759 54.2002 25.759C54.0273 25.4125 53.8545 25.066 53.768 24.8062C57.658 22.1208 61.5479 19.5221 65.4379 16.8368C65.5244 17.0101 65.6108 17.1833 65.7837 17.3566C65.265 18.9158 64.5735 20.5616 64.4006 22.2075Z" fill="black"/>
</svg>
