<svg width="147" height="63" viewBox="0 0 147 63" fill="none" xmlns="http://www.w3.org/2000/svg">
<path d="M88.0756 23.8517C84.6895 19.6094 80.7328 16.1106 76.3195 13.3553C73.9606 11.8683 71.4877 10.6437 69.0528 9.37537C68.7484 9.20043 68.2538 9.37537 67.9114 9.55031C66.9222 10.1189 66.0472 10.9498 65.0199 11.3434C62.547 12.3056 60.036 12.8742 57.3728 12.2181C54.9759 11.6496 53.1497 10.0314 51.3616 7.97585C55.3944 5.65789 59.4272 5.87657 63.6122 6.795C61.748 9.20043 59.3892 10.4687 56.8021 11.2122C62.0524 12.0869 66.3896 9.94393 70.0039 5.70163C70.6126 5.00187 71.0311 4.03969 71.0692 2.77138C68.7865 3.82102 66.6939 3.47114 64.5634 2.99005C61.2915 2.20282 58.0195 1.45933 54.6715 1.98415C52.0464 2.37776 49.5354 1.80921 46.9863 1.10945C45.046 0.584627 43.0296 -0.115133 41.0512 0.0160717C34.203 0.409687 27.6211 2.33403 21.4197 5.74536C19.2511 6.92621 16.9683 8.28199 16.2835 11.3872C16.2835 11.4309 16.1694 11.4747 16.2074 11.4747C14.153 11.2997 13.1257 13.2241 11.68 14.0113C12.0985 14.9297 12.517 15.7607 12.9355 16.6354C11.7561 16.3292 10.843 16.1106 9.73967 15.8482C10.1201 16.7229 10.3864 17.2914 10.6147 17.9037C10.3864 17.9474 10.2723 17.9037 10.1582 17.7725C8.56026 16.198 7.38085 16.2855 5.97316 17.9912C5.5927 18.4285 5.21225 18.8659 4.83179 19.3032C3.23388 21.4025 1.59792 23.5018 0 25.6011C0.95114 26.6944 1.63596 26.3883 2.32078 25.6885C3.08169 24.945 3.76651 24.2015 4.56547 23.5455C5.55466 22.7146 6.61993 22.9332 7.07648 23.9829C7.00039 24.0266 6.88625 24.1141 6.81016 24.1141C5.13615 23.5018 4.41329 24.8138 3.61433 26.1259C3.27192 26.6944 2.89147 27.3505 2.39687 27.6129C1.40769 28.1377 1.21746 29.0124 1.25551 30.062C1.3316 31.6802 1.86423 33.036 2.85342 34.1731C3.80456 35.3102 4.71766 36.4474 5.63075 37.6282C5.89707 37.9781 6.16339 38.328 6.4297 38.6778C6.88625 39.2901 7.19062 39.2464 7.57107 38.5029C8.63635 36.4036 10.1201 34.7854 11.9083 33.5608C11.8322 33.6483 11.7561 33.692 11.68 33.7795C9.85381 35.5727 9.77772 36.1849 11.2615 38.328C12.2126 39.7275 13.354 40.9083 15.028 41.2582C13.8486 39.4213 12.8975 37.5845 13.6584 35.2665C14.0388 34.0419 14.6476 33.036 15.4846 32.3363C17.7673 32.2488 19.9359 33.2984 22.1425 34.1731C22.3708 34.2606 22.561 34.523 22.7513 34.7854C24.6916 37.5845 26.67 40.3398 28.5722 43.1388C27.545 44.0135 27.4309 43.9698 25.871 43.1825C24.8818 45.0632 24.159 43.4012 23.2839 42.7889C22.4089 44.4509 21.0773 44.932 19.6696 44.3197C18.2999 43.7511 17.0825 42.8327 15.7509 42.0892C15.7509 43.6199 16.4737 45.0194 17.539 46.2003C17.7292 46.4189 18.0717 46.4627 18.338 46.5064C20.1642 46.5939 21.9904 46.6814 23.7785 46.6814C25.1481 46.6814 26.5178 46.6814 27.8874 46.5064C28.2679 46.4627 28.8386 45.8941 28.9147 45.5005C28.9907 44.8882 28.9147 44.2322 28.8005 43.4887C28.8386 43.5762 28.9147 43.6636 28.9527 43.7074C30.1702 45.5442 29.7136 48.562 28.0777 49.6553C26.4797 50.705 24.7677 50.7487 22.9795 50.6175C20.9631 50.4426 18.9467 50.2239 16.9303 50.049C16.5879 50.0052 15.9792 50.2239 15.9411 50.4426C15.865 50.8799 16.0552 51.4047 16.2455 51.7984C16.4357 52.2794 16.8922 52.6293 17.0064 53.1104C17.3488 54.5099 17.6532 55.9532 17.8814 57.3527C18.0336 58.2711 18.376 58.796 19.0989 59.1458C21.724 60.4579 24.2731 59.6269 26.7841 58.7522C27.4689 58.5336 28.2298 57.6151 28.4581 56.8279C29.219 54.2038 30.893 52.6731 32.9475 51.6234C36.2194 49.9177 38.4641 47.1187 40.3283 43.7074C42.3067 40.1211 41.8121 35.4414 39.8337 32.1176C38.35 29.6684 36.1814 28.2689 33.9747 26.9569C30.7028 25.0325 27.2407 24.3765 23.5883 25.3824C21.8382 25.8635 20.1261 26.432 18.338 26.9569C19.7457 24.4202 22.523 21.9273 25.5286 20.2217C33.0236 15.8919 41.0132 14.9297 49.231 15.8482C50.2202 15.9794 51.2474 16.1543 52.3888 16.373C49.9539 17.7288 47.7472 18.9971 45.5786 20.2654C47.1385 22.4084 48.6223 24.2453 49.9539 26.2571C51.2474 28.2689 51.9322 30.6306 52.1225 33.1672C52.3127 35.7039 52.0083 38.1093 50.867 40.3835C51.6279 30.5431 46.6439 25.3824 39.4152 21.7961C41.0132 20.7027 42.4969 19.6968 43.9807 18.6472C37.8173 18.516 31.9583 19.7406 26.3276 22.5833C26.3656 22.6708 26.3656 22.802 26.4036 22.8895C28.2298 22.9332 30.0941 22.802 31.9203 23.1082C35.2302 23.5893 38.1597 25.1637 40.861 27.4379C44.3612 30.3682 46.1874 34.2606 46.5678 39.1589C46.8341 42.7015 44.4753 47.1187 41.2795 48.8244C39.8337 49.6116 38.388 50.3551 36.9423 51.0986C36.9423 51.1861 36.9423 51.3173 36.9423 51.4047C38.1978 51.4922 39.4913 51.8421 40.7088 51.6671C42.9535 51.361 45.2362 50.8799 47.4429 50.2239C49.7636 49.5241 51.8942 48.2995 53.7204 46.4189C56.1934 43.8823 57.4489 40.6022 58.362 37.0596C59.0848 34.3043 58.9707 31.549 58.2098 28.8375C57.4489 26.2134 56.5358 23.633 54.5954 21.6649C54.8998 21.5337 55.052 21.4025 55.2422 21.315C59.5033 19.6531 63.8405 19.172 68.368 19.5656C75.939 20.2654 82.7492 23.2831 89.1028 27.8753C90.092 28.575 91.0051 29.406 91.9182 30.1495C91.9943 30.062 92.0704 29.9746 92.1464 29.8871C90.7768 28.0502 89.5974 25.776 88.0756 23.8517ZM28.344 11.2122C28.1918 12.568 27.3928 13.0054 26.3656 13.0491C25.5286 13.0928 24.6916 13.0054 23.8546 13.0054C23.7785 12.8304 23.7024 12.6555 23.6644 12.5243C25.3764 11.1685 27.0885 9.85645 28.8005 8.50067C28.8386 8.58814 28.8766 8.67561 28.9527 8.76308C28.7244 9.55031 28.4201 10.3813 28.344 11.2122Z" fill="black"/>
<path d="M64.6776 33.4734H69.6615C70.9931 33.4734 72.0584 33.5609 72.7813 33.6921C73.5042 33.8233 74.0368 34.042 74.4172 34.2607C74.7977 34.5231 75.026 34.8292 75.1401 35.1791C75.2542 35.529 75.3303 36.0976 75.3303 36.841V37.8907C75.3303 38.6779 75.2162 39.2465 74.9499 39.5964C74.6836 39.9462 74.227 40.2086 73.5802 40.4273C72.9335 40.646 72.0204 40.6897 70.9551 40.6897H69.6235V45.5881H64.6776V33.4734ZM69.6615 35.5727V38.6342C69.8137 38.6342 69.9279 38.6342 70.042 38.6342C70.4985 38.6342 70.8029 38.5467 70.9931 38.4155C71.1834 38.2843 71.2595 37.9782 71.2595 37.5408V36.5349C71.2595 36.1413 71.1453 35.8351 70.9551 35.7477C70.7268 35.6165 70.3083 35.5727 69.6615 35.5727Z" fill="black"/>
<path d="M84.7656 33.4734L87.581 45.588H82.5209L82.2546 43.4013H80.4665L80.1621 45.588H75.0259L77.537 33.4734H84.7656ZM82.1405 41.2583C81.8742 39.9025 81.6459 38.1968 81.3796 36.185C80.885 38.5029 80.5426 40.2086 80.4284 41.2583H82.1405Z" fill="black"/>
<path d="M99.4892 33.4734V45.588H95.152L92.565 40.0774V45.588H88.418V33.4734H92.565L95.3423 38.9403V33.4734H99.4892Z" fill="black"/>
<path d="M111.474 33.4734V35.8788H108.544V45.588H103.598V35.8788H100.669V33.4734H111.474Z" fill="black"/>
<path d="M112.577 33.4734H120.871V35.8788H117.561V38.1968H120.643V40.5148H117.561V43.1826H121.213V45.588H112.615V33.4734H112.577Z" fill="black"/>
<path d="M122.621 33.4734H126.121C128.442 33.4734 130.04 33.5172 130.877 33.6484C131.714 33.7796 132.361 34.042 132.893 34.5231C133.426 35.0041 133.692 35.7476 133.692 36.7973C133.692 37.7594 133.502 38.3717 133.122 38.6779C132.741 38.984 132.018 39.2027 130.953 39.2464C131.942 39.4214 132.589 39.5963 132.931 39.8587C133.274 40.1211 133.464 40.3398 133.578 40.5585C133.654 40.7772 133.692 41.3895 133.692 42.3516V45.5443H129.089V41.5207C129.089 40.8646 129.013 40.471 128.86 40.2961C128.708 40.1211 128.29 40.0774 127.605 40.0774V45.5443H122.659V33.4734H122.621ZM127.567 35.5727V38.2843C128.138 38.2843 128.518 38.2405 128.746 38.1531C128.975 38.0656 129.089 37.7595 129.089 37.1909V36.5349C129.089 36.1413 128.975 35.8788 128.746 35.7914C128.518 35.6164 128.138 35.5727 127.567 35.5727Z" fill="black"/>
<path d="M144.155 33.4734L146.97 45.588H141.91L141.644 43.4013H139.894L139.589 45.588H134.453L136.964 33.4734H144.155ZM141.53 41.2583C141.263 39.9025 141.035 38.1968 140.769 36.185C140.274 38.5029 139.932 40.2086 139.818 41.2583H141.53Z" fill="black"/>
<path d="M64.1067 54.2913H67.5308V55.822H66.1231V57.309H67.3786V58.796H66.1231V62.0324H64.1067V54.2913Z" fill="black"/>
<path d="M71.2973 54.2913L72.4387 62.0324H70.3842L70.2701 60.6329H69.5472L69.4331 62.0324H67.3406L68.3678 54.2913H71.2973ZM70.232 59.2333C70.1179 58.3586 70.0418 57.2653 69.9277 55.9969C69.7375 57.4839 69.5853 58.5773 69.5472 59.2333H70.232Z" fill="black"/>
<path d="M79.0206 54.2913V62.0324H77.2705V56.8279L76.5857 62.0324H75.3302L74.6073 56.9154V62.0324H72.8572V54.2913H75.4824C75.5585 54.7724 75.6345 55.2972 75.7106 55.9532L76.015 57.9213L76.4715 54.2913H79.0206Z" fill="black"/>
<path d="M81.8359 54.2913V62.0324H79.8195V54.2913H81.8359Z" fill="black"/>
<path d="M84.6895 54.2913V60.4579H85.907V61.9887H82.6731V54.2476H84.6895V54.2913Z" fill="black"/>
<path d="M90.0538 54.2913L88.5701 59.2333V62.0324H86.7058V59.2333L85.2981 54.2913H87.1624C87.4667 55.7783 87.6189 56.8279 87.657 57.3527C87.7711 56.5218 87.9613 55.5159 88.2276 54.2913H90.0538Z" fill="black"/>
<path d="M97.2445 59.0584V60.3705L96.7118 60.7203L97.3966 61.9887H95.6085L95.3802 61.5513C94.7715 61.9449 94.2008 62.1636 93.6682 62.1636C93.0975 62.1636 92.679 61.9887 92.3746 61.595C92.0703 61.2014 91.9181 60.7641 91.9181 60.2392C91.9181 59.8019 91.9942 59.4958 92.1844 59.2333C92.3746 59.0147 92.6409 58.796 92.9834 58.6648C92.4888 58.3149 92.2224 57.7901 92.2224 57.1778C92.2224 56.653 92.4127 56.2156 92.7551 55.8657C93.1355 55.5159 93.6301 55.3847 94.2769 55.3847C94.8476 55.3847 95.3041 55.5596 95.6466 55.8657C95.989 56.1719 96.1411 56.6092 96.1411 57.0903C96.1411 57.6151 95.9509 58.0962 95.5324 58.4898L96.2172 59.7144L97.2445 59.0584ZM94.6954 60.7203L94.0867 59.6707C93.8584 59.8894 93.7443 60.108 93.7443 60.3705C93.7443 60.5454 93.7823 60.6766 93.8584 60.7641C93.9345 60.8515 94.0486 60.8953 94.2008 60.8953C94.3149 60.8953 94.5052 60.8515 94.6954 60.7203ZM94.2769 57.7026C94.5052 57.4402 94.6193 57.1341 94.6193 56.8717C94.6193 56.7404 94.5813 56.653 94.5052 56.5655C94.4291 56.478 94.353 56.4343 94.2389 56.4343C94.1247 56.4343 94.0486 56.478 94.0106 56.5218C93.9725 56.6092 93.9345 56.6967 93.9345 56.8279C93.8965 57.1778 94.0106 57.4839 94.2769 57.7026Z" fill="black"/>
<path d="M103.788 56.6092H101.924V56.0407C101.924 55.7783 101.886 55.6033 101.848 55.5159C101.81 55.4284 101.734 55.3847 101.62 55.3847C101.506 55.3847 101.391 55.4284 101.353 55.5159C101.277 55.6033 101.277 55.7783 101.277 55.9532C101.277 56.2156 101.315 56.3906 101.391 56.5218C101.468 56.653 101.658 56.8279 101.962 57.0029C102.875 57.5277 103.408 57.965 103.674 58.3149C103.902 58.6648 104.017 59.1896 104.017 59.9768C104.017 60.5454 103.941 60.939 103.826 61.2014C103.712 61.4638 103.446 61.6825 103.065 61.8575C102.685 62.0324 102.266 62.1199 101.772 62.1199C101.239 62.1199 100.783 62.0324 100.402 61.8137C100.022 61.595 99.7555 61.3326 99.6414 61.0265C99.5272 60.7203 99.4511 60.283 99.4511 59.6707V59.1459H101.315V60.0643C101.315 60.3705 101.353 60.5454 101.391 60.6329C101.429 60.7203 101.544 60.7641 101.658 60.7641C101.772 60.7641 101.886 60.7203 101.962 60.5891C102.038 60.5017 102.076 60.3267 102.076 60.1081C102.076 59.6707 102 59.3646 101.886 59.2334C101.772 59.1021 101.429 58.8397 100.935 58.5336C100.44 58.1837 100.098 57.965 99.9457 57.8338C99.7935 57.7026 99.6413 57.484 99.5272 57.2215C99.4131 56.9591 99.375 56.6093 99.375 56.2156C99.375 55.6033 99.4511 55.2097 99.6033 54.9036C99.7555 54.6412 99.9838 54.4225 100.326 54.2476C100.669 54.0726 101.087 54.0289 101.544 54.0289C102.076 54.0289 102.533 54.1164 102.875 54.2913C103.218 54.4662 103.484 54.6849 103.598 54.9473C103.712 55.2097 103.788 55.6471 103.788 56.2594V56.6092Z" fill="black"/>
<path d="M104.587 54.2913H106.604C107.136 54.2913 107.593 54.335 107.859 54.4225C108.163 54.51 108.392 54.6412 108.544 54.8161C108.696 54.991 108.81 55.166 108.848 55.3847C108.886 55.6033 108.924 55.9532 108.924 56.478V57.1341C108.924 57.6151 108.886 58.0088 108.772 58.2274C108.658 58.4461 108.468 58.621 108.202 58.7523C107.935 58.8835 107.555 58.9272 107.136 58.9272H106.604V62.0324H104.587V54.2913ZM106.604 55.6033V57.5714C106.68 57.5714 106.718 57.5714 106.756 57.5714C106.946 57.5714 107.06 57.5277 107.136 57.4402C107.212 57.3527 107.25 57.1778 107.25 56.8716V56.2156C107.25 55.9532 107.212 55.7783 107.136 55.6908C107.06 55.6471 106.87 55.6033 106.604 55.6033Z" fill="black"/>
<path d="M114.137 58.796C114.137 59.5833 114.137 60.1081 114.099 60.458C114.061 60.7641 113.947 61.0703 113.756 61.3327C113.566 61.5951 113.3 61.8138 112.957 61.945C112.615 62.0762 112.235 62.1636 111.816 62.1636C111.398 62.1636 111.017 62.0762 110.713 61.945C110.37 61.8138 110.104 61.5951 109.914 61.3327C109.724 61.0703 109.609 60.7641 109.571 60.458C109.533 60.1518 109.495 59.5833 109.495 58.796V57.484C109.495 56.6968 109.495 56.1719 109.533 55.8221C109.571 55.5159 109.685 55.2098 109.876 54.9474C110.066 54.6849 110.332 54.4663 110.675 54.3351C111.017 54.2039 111.398 54.1164 111.816 54.1164C112.235 54.1164 112.615 54.2039 112.919 54.3351C113.224 54.4663 113.528 54.6849 113.718 54.9474C113.909 55.2098 114.023 55.5159 114.061 55.8221C114.099 56.1282 114.137 56.6968 114.137 57.484V58.796ZM112.12 56.2594C112.12 55.9095 112.082 55.6909 112.044 55.5597C112.006 55.4722 111.93 55.4284 111.816 55.4284C111.702 55.4284 111.626 55.4722 111.588 55.5597C111.55 55.6471 111.512 55.8658 111.512 56.2594V59.8894C111.512 60.3268 111.512 60.6329 111.55 60.7204C111.588 60.8079 111.664 60.8953 111.816 60.8953C111.968 60.8953 112.044 60.8516 112.082 60.7204C112.12 60.5892 112.158 60.3268 112.158 59.8457V56.2594H112.12Z" fill="black"/>
<path d="M114.898 54.2913H116.343C117.295 54.2913 117.941 54.335 118.284 54.4225C118.626 54.51 118.892 54.6849 119.121 54.991C119.349 55.2972 119.425 55.7783 119.425 56.4343C119.425 57.0466 119.349 57.4402 119.197 57.6589C119.045 57.8776 118.74 58.0088 118.322 58.0525C118.702 58.14 119.007 58.2712 119.121 58.4461C119.273 58.621 119.349 58.7522 119.387 58.8835C119.425 59.0147 119.425 59.4083 119.425 60.0206V62.0761H117.561V59.4957C117.561 59.1021 117.523 58.8397 117.447 58.7085C117.371 58.621 117.218 58.5773 116.914 58.5773V62.0761H114.898V54.2913ZM116.914 55.6033V57.309C117.142 57.309 117.295 57.2653 117.409 57.2215C117.485 57.1778 117.561 56.9591 117.561 56.6092V56.1719C117.561 55.9095 117.523 55.7783 117.447 55.6908C117.295 55.6471 117.142 55.6033 116.914 55.6033Z" fill="black"/>
<path d="M124.257 54.2913V55.822H123.039V61.9886H121.023V55.822H119.844V54.2913H124.257Z" fill="black"/>
<path d="M131.143 57.6589H129.127V56.3031C129.127 55.9095 129.089 55.6471 129.051 55.5596C129.013 55.4722 128.898 55.4284 128.784 55.4284C128.632 55.4284 128.518 55.4722 128.48 55.6034C128.442 55.7346 128.404 55.997 128.404 56.3469V59.9331C128.404 60.3267 128.442 60.5454 128.48 60.6766C128.518 60.8078 128.632 60.8516 128.784 60.8516C128.936 60.8516 129.051 60.8078 129.089 60.6766C129.127 60.5454 129.165 60.283 129.165 59.8894V58.9272H131.181V59.2334C131.181 60.0206 131.143 60.5892 131.029 60.939C130.915 61.2889 130.649 61.5513 130.268 61.8137C129.888 62.0762 129.393 62.2074 128.822 62.2074C128.214 62.2074 127.757 62.1199 127.377 61.9012C126.996 61.6825 126.73 61.3764 126.616 61.0265C126.502 60.6329 126.425 60.0643 126.425 59.3208V57.0466C126.425 56.4781 126.425 56.0845 126.502 55.7783C126.54 55.5159 126.654 55.2535 126.844 54.9911C127.034 54.7287 127.301 54.51 127.643 54.3788C127.985 54.2476 128.366 54.1601 128.822 54.1601C129.431 54.1601 129.926 54.2913 130.306 54.51C130.687 54.7287 130.953 55.0348 131.067 55.3847C131.181 55.7346 131.257 56.2594 131.257 56.9591V57.6589H131.143Z" fill="black"/>
<path d="M133.882 54.2913V60.4579H135.1V61.9887H131.866V54.2476H133.882V54.2913Z" fill="black"/>
<path d="M140.198 54.2913V59.452C140.198 60.0206 140.16 60.4579 140.122 60.6766C140.084 60.8953 139.97 61.1577 139.779 61.4201C139.589 61.6825 139.361 61.8575 139.018 61.9887C138.714 62.1199 138.334 62.1636 137.915 62.1636C137.459 62.1636 137.04 62.0761 136.698 61.9449C136.355 61.8137 136.089 61.595 135.899 61.3326C135.709 61.0702 135.632 60.8078 135.594 60.5454C135.556 60.283 135.556 59.7144 135.556 58.8397V54.2476H137.573V60.0643C137.573 60.4142 137.573 60.6329 137.611 60.7203C137.649 60.8078 137.725 60.8515 137.839 60.8515C137.953 60.8515 138.067 60.8078 138.067 60.6766C138.067 60.5454 138.105 60.3267 138.105 59.9331V54.2476H140.198V54.2913Z" fill="black"/>
<path d="M140.959 54.2913H142.975C143.622 54.2913 144.079 54.335 144.421 54.4225C144.763 54.51 145.03 54.7286 145.22 55.0348C145.41 55.3409 145.524 55.822 145.524 56.478C145.524 56.9154 145.448 57.2653 145.296 57.4402C145.144 57.6151 144.878 57.7463 144.459 57.8338C144.916 57.9213 145.258 58.0962 145.41 58.3586C145.562 58.621 145.677 58.9709 145.677 59.4957V60.1955C145.677 60.7203 145.6 61.1139 145.486 61.3764C145.372 61.6388 145.182 61.8137 144.916 61.9012C144.649 61.9886 144.117 62.0324 143.318 62.0324H140.997V54.2913H140.959ZM142.975 55.6033V57.309C143.051 57.309 143.127 57.309 143.166 57.309C143.356 57.309 143.508 57.2653 143.546 57.1778C143.584 57.0903 143.622 56.7842 143.622 56.3468C143.622 56.0844 143.584 55.9532 143.546 55.822C143.508 55.7345 143.432 55.6471 143.356 55.6471C143.318 55.6033 143.204 55.6033 142.975 55.6033ZM142.975 58.5336V60.6766C143.242 60.6766 143.432 60.6329 143.508 60.5454C143.584 60.4579 143.622 60.283 143.622 59.9768V59.2771C143.622 58.9272 143.584 58.7522 143.508 58.6648C143.47 58.5773 143.28 58.5336 142.975 58.5336Z" fill="black"/>
</svg>
