<svg width="258" height="292" viewBox="0 0 258 292" fill="none" xmlns="http://www.w3.org/2000/svg">
<g clip-path="url(#clip0_396_1352)">
<path d="M202.851 255C202.121 280 178.421 298 155.701 288.61C137.271 281.02 120.111 281.88 101.921 288.04C84.1207 294.04 69.4807 289.21 60.0307 275.18C51.9707 263.18 51.8107 249.94 57.4107 237.48C64.0007 222.83 72.3308 209 80.1608 194.89C87.7508 181.25 96.8707 168.66 109.531 159.31C125.651 147.41 128.201 146.54 145.401 159.48C159.101 169.79 168.301 183.97 176.821 198.54C184.111 211.03 191.571 223.45 198.031 236.36C200.841 242 201.321 248.76 202.851 255Z" fill="black"/>
<path d="M164.46 1.27002C166.55 3.75002 168.82 6.09002 170.7 8.71002C189.39 34.85 201.04 63.71 203.32 95.91C204.46 111.91 202.18 127.26 190.66 139.69C181.66 149.4 170.72 154.69 157.52 150.57C144.17 146.35 136.52 136.18 133.83 122.68C130.47 105.98 134.01 89.68 139.29 74.09C143.74 60.93 149.77 48.23 156.08 35.82C161.61 24.94 166.63 14.32 164.46 1.27002ZM170.6 16.36L165 31.43C172.74 30.5 175.11 31.86 177.95 39.15C179.32 42.66 180.3 46.31 181.88 51.2C183.61 37.06 176.49 27.23 170.6 16.36Z" fill="black"/>
<path d="M93.8596 0.59C89.4796 8.48 87.9996 17 91.0796 25.13C93.5596 31.69 97.7996 37.67 101.74 43.58C111.85 58.75 121.15 74.28 124.17 92.63C126.69 107.88 125.54 122.63 115.81 135.45C108.44 145.16 98.6396 150.77 86.1296 149.7C72.2596 148.51 64.1296 139.48 58.9496 127.58C53.7696 115.68 52.9496 102.84 54.7496 89.88C58.4996 62.88 65.8596 37.2 81.1796 14.32C84.5596 9.27 88.7496 4.76 92.5696 0L93.8596 0.59ZM83.0497 19.52C76.3497 29.4 72.4696 39.61 72.9396 52.64C76.8296 44 75.1496 33 87.1196 32.11L83.0497 19.52Z" fill="black"/>
<path d="M244.079 136.56C247.349 121.56 242.389 108.18 235.079 93.75C232.629 104.48 230.079 113.64 221.929 120C231.039 104.56 230.569 88.7 224.059 72.51L225.719 71.79C230.189 78.48 235.139 84.9 239.039 91.91C254.039 118.91 259.799 147.96 255.739 178.61C253.579 195 246.999 209.3 232.779 219C214.779 231.31 192.459 224.58 184.729 204.23C176.459 182.5 182.309 163.3 196.729 146.23C206.279 134.9 218.159 126.31 231.539 119.92C237.599 117.03 239.229 117.67 241.799 123.85C242.615 125.847 243.215 127.926 243.589 130.05C243.87 132.21 244.034 134.383 244.079 136.56Z" fill="black"/>
<path d="M32.4907 71.3799C25.2607 89.0599 26.0007 105.82 36.7107 122.3C30.2307 118.03 27.5107 113.15 21.4307 95.0899C13.6707 108.59 8.89071 122.09 10.8907 138.34C12.5907 132.22 13.8407 127.05 15.5007 122C16.5707 118.76 18.8807 116.84 22.4207 118.88C43.0907 130.79 62.6907 144 73.0907 166.65C82.8907 187.98 71.4607 214.44 49.4507 222.56C35.5807 227.68 20.7907 222.4 12.0507 209.31C4.54064 198.192 0.376068 185.153 0.0507082 171.74C-0.829292 137.47 6.46071 105.34 27.5107 77.3499C29.0807 75.2799 30.8307 73.3599 32.4907 71.3799Z" fill="black"/>
</g>
<defs>
<clipPath id="clip0_396_1352">
<rect width="257.02" height="291.13" fill="white"/>
</clipPath>
</defs>
</svg>
